<svg xmlns="http://www.w3.org/2000/svg" width="106" height="105" viewBox="0 0 106 105" fill="none"><g clip-path="url(#clip0_31370_158609)"><path d="M0.555969 5.44073L0.555969 99.5589C0.555969 102.324 2.79769 104.566 5.56299 104.566H100.26C103.025 104.566 105.267 102.324 105.267 99.5589V5.44073C105.267 2.67542 103.025 0.433701 100.26 0.433701H5.56299C2.79769 0.433701 0.555969 2.67542 0.555969 5.44073Z" stroke="white" stroke-width="0.781388" stroke-miterlimit="10"></path><path d="M58.9499 26.3114L60.3658 26.3375L64.2115 22.4918L64.3981 20.8633C61.3421 18.1457 57.3214 16.4897 52.9204 16.4897C44.9499 16.4897 38.2262 21.9104 36.2318 29.259C36.6526 28.9683 37.5479 29.1852 37.5479 29.1852L45.2334 27.9226C45.2334 27.9226 45.6311 27.2689 45.8278 27.3094C47.5865 25.3858 50.1146 24.1753 52.9189 24.1753C55.2012 24.1753 57.2997 24.9765 58.9499 26.3114Z" fill="#A1A1A1"></path><path d="M69.61 29.269C68.7177 25.9744 66.8751 23.0674 64.3933 20.8604L58.9451 26.3085C61.1261 28.0715 62.5247 30.7659 62.5247 33.7814V34.7418C65.1728 34.7418 67.3278 36.8967 67.3278 39.5449C67.3278 42.193 65.1728 44.348 62.5232 44.348H52.917L51.9553 45.3141V51.0789L52.917 52.0349H62.5232C69.409 52.0349 75.0119 46.432 75.0119 39.5463C75.0119 35.2885 72.8685 31.5238 69.6071 29.269H69.61Z" fill="#C0C0C0"></path><path d="M43.3122 52.035H52.9111V44.3494H43.3136C42.6078 44.3494 41.9396 44.1933 41.3351 43.9185L39.951 44.3422L36.1039 48.1893L35.7669 49.4881C37.8655 51.0848 40.4803 52.035 43.3136 52.0364L43.3122 52.035Z" fill="#E0E0E0"></path><path d="M43.3132 27.0581C36.4275 27.0581 30.8246 32.661 30.8246 39.5467C30.8246 43.6021 32.7684 47.2091 35.7709 49.4928L41.3419 43.9217C39.6744 43.1668 38.5101 41.492 38.5101 39.5467C38.5101 36.8986 40.6651 34.7436 43.3132 34.7436C45.2585 34.7436 46.9347 35.9079 47.6882 37.5755L53.2593 32.0044C50.9771 29.0019 47.3686 27.0581 43.3132 27.0581Z" fill="white"></path><path d="M32.4753 88.9036V79.6807H35.6702C36.0824 79.6807 36.4714 79.7501 36.8359 79.886C37.2003 80.0234 37.52 80.2172 37.7948 80.466C38.0696 80.7148 38.2865 81.0141 38.4456 81.3612C38.6047 81.7083 38.6842 82.0931 38.6842 82.5139C38.6842 82.9348 38.6047 83.3065 38.4456 83.6536C38.2865 84.0007 38.0696 84.3001 37.7948 84.5488C37.52 84.7976 37.2003 84.9914 36.8359 85.1288C36.4714 85.2662 36.0824 85.3342 35.6702 85.3342H33.9317V88.9022H32.4768L32.4753 88.9036ZM35.7078 83.9443C35.9479 83.9443 36.1634 83.9038 36.3514 83.8214C36.5408 83.7404 36.6985 83.6305 36.8286 83.4931C36.9574 83.3557 37.0557 83.2009 37.1251 83.0288C37.1931 82.8567 37.2278 82.686 37.2278 82.5139C37.2278 82.3331 37.1931 82.1581 37.1251 81.986C37.0557 81.8139 36.9574 81.6621 36.8286 81.529C36.6999 81.3959 36.5408 81.286 36.3514 81.2007C36.1619 81.1154 35.9479 81.072 35.7078 81.072H33.9303V83.9443H35.7078Z" fill="white"></path><path d="M43.4827 88.1309H43.406C43.2166 88.3797 42.9722 88.6053 42.6713 88.8078C42.3705 89.0088 41.9887 89.11 41.5244 89.11C41.1889 89.11 40.8765 89.0565 40.5844 88.9495C40.2922 88.8425 40.0391 88.6921 39.8251 88.4982C39.611 88.3044 39.4403 88.0774 39.316 87.8156C39.1916 87.5538 39.1294 87.2646 39.1294 86.9464C39.1294 86.6109 39.1959 86.3115 39.329 86.0454C39.462 85.7792 39.6472 85.5565 39.8829 85.3757C40.1187 85.1949 40.4007 85.0561 40.7261 84.9578C41.0529 84.8594 41.4044 84.8102 41.7819 84.8102C42.2027 84.8102 42.5542 84.8507 42.8377 84.9332C43.1211 85.0142 43.3352 85.0894 43.4813 85.1588V84.9144C43.4813 84.7249 43.4408 84.5499 43.3583 84.3865C43.2773 84.223 43.1645 84.0842 43.0228 83.9685C42.881 83.8528 42.7205 83.7631 42.5397 83.698C42.3589 83.633 42.1709 83.6011 41.9728 83.6011C41.6546 83.6011 41.3697 83.6633 41.1166 83.7877C40.8635 83.9121 40.6379 84.1117 40.4397 84.3865L39.3058 83.6387C39.6067 83.2266 39.9798 82.9156 40.4267 82.7044C40.8736 82.4947 41.3798 82.3892 41.9468 82.3892C42.8825 82.3892 43.6056 82.6206 44.1176 83.0848C44.6282 83.5491 44.8841 84.21 44.8841 85.0691V88.9075H43.4798V88.1352L43.4827 88.1309ZM43.4827 86.2768C43.2932 86.1654 43.0835 86.0757 42.8521 86.0063C42.6207 85.9383 42.3546 85.9036 42.0538 85.9036C41.6069 85.9036 41.2511 86.0063 40.985 86.2131C40.7189 86.4199 40.5858 86.6687 40.5858 86.9609C40.5858 87.1156 40.6205 87.2501 40.6885 87.3673C40.7565 87.483 40.8447 87.5842 40.9532 87.6695C41.0602 87.7549 41.1846 87.82 41.3263 87.8633C41.468 87.9067 41.6112 87.9284 41.7573 87.9284C41.9887 87.9284 42.21 87.8836 42.4211 87.7925C42.6308 87.7028 42.8145 87.5828 42.9693 87.4323C43.124 87.2819 43.2484 87.1084 43.3424 86.9102C43.4364 86.7121 43.4841 86.5024 43.4841 86.2797L43.4827 86.2768Z" fill="white"></path><path d="M47.515 83.6486H47.5916C47.7637 83.2885 48.0226 83.0094 48.3712 82.8112C48.7183 82.6131 49.103 82.5148 49.5239 82.5148C49.6613 82.5148 49.7625 82.5191 49.8261 82.5278C49.8898 82.5364 49.9563 82.5495 50.0257 82.5668V84.0102C49.9317 83.9755 49.8392 83.9524 49.7495 83.9393C49.6598 83.9263 49.5412 83.9205 49.3951 83.9205C48.8542 83.9205 48.4189 84.0854 48.0877 84.4166C47.7565 84.7478 47.5916 85.1831 47.5916 85.724V89.0086H46.1613V82.697H47.5135V83.6501L47.515 83.6486ZM51.9594 83.854H50.8515V82.5914H51.9594V80.6592H53.3898V82.5914H54.9489V83.854H53.3898V86.7379C53.3898 86.897 53.4071 87.0431 53.4418 87.1747C53.4765 87.3077 53.5272 87.4176 53.5966 87.5059C53.7427 87.6736 53.9278 87.7575 54.1505 87.7575C54.2879 87.7575 54.3949 87.7474 54.473 87.7257C54.5497 87.704 54.6321 87.6722 54.7175 87.6288L55.1557 88.8914C54.9749 88.9594 54.7869 89.0143 54.5887 89.0519C54.3906 89.091 54.1679 89.1098 53.9191 89.1098C53.6183 89.1098 53.3522 89.0621 53.1208 88.9652C52.8894 88.8683 52.6869 88.7381 52.5148 88.5718C52.146 88.1943 51.9608 87.6823 51.9608 87.0344V83.8555L51.9594 83.854Z" fill="white"></path><path d="M57.3122 83.4425H57.3889C57.5783 83.1417 57.8459 82.8915 58.1945 82.689C58.5416 82.488 58.935 82.3867 59.3732 82.3867C60.1715 82.3867 60.7688 82.6254 61.1637 83.1012C61.5585 83.5785 61.7567 84.2105 61.7567 85.0016V88.9051H60.3263V85.1954C60.3263 84.6458 60.199 84.2611 59.9459 84.0427C59.6928 83.8243 59.3602 83.7144 58.948 83.7144C58.6992 83.7144 58.4794 83.7665 58.2914 83.8692C58.1019 83.9718 57.9385 84.1121 57.8025 84.2871C57.6651 84.4636 57.5624 84.6646 57.493 84.8931C57.4236 85.1202 57.3903 85.3588 57.3903 85.6076V88.9051H55.96V82.5935H57.3122V83.4439V83.4425Z" fill="white"></path><path d="M68.8419 87.3966C68.5758 87.8855 68.1983 88.2948 67.7081 88.6202C67.2192 88.947 66.6176 89.109 65.9045 89.109C65.4316 89.109 64.9963 89.0251 64.5971 88.8574C64.1979 88.6896 63.8523 88.4553 63.5601 88.1559C63.268 87.8551 63.0409 87.5007 62.8775 87.0929C62.714 86.685 62.6331 86.2367 62.6331 85.7464C62.6331 85.2908 62.7097 84.8598 62.8645 84.452C63.0192 84.0441 63.2362 83.6883 63.5153 83.3832C63.7944 83.078 64.1314 82.835 64.5262 82.6557C64.9211 82.4764 65.3593 82.3853 65.8395 82.3853C66.3196 82.3853 66.7651 82.4662 67.1469 82.6297C67.5287 82.7931 67.8527 83.0202 68.1188 83.3123C68.3849 83.6045 68.5888 83.9559 68.7306 84.3681C68.8723 84.7803 68.9432 85.2315 68.9432 85.7204V85.8361C68.9345 85.8795 68.9302 85.9171 68.9302 85.9518C68.9215 85.9865 68.9171 86.0212 68.9171 86.0545H64.0605C64.0866 86.3553 64.1589 86.6171 64.2789 86.8398C64.399 87.0625 64.5465 87.2477 64.7229 87.3937C64.8994 87.5398 65.0946 87.6468 65.3087 87.7162C65.5227 87.7857 65.7339 87.8189 65.9393 87.8189C66.3514 87.8189 66.6899 87.7206 66.9574 87.5224C67.2236 87.3243 67.4419 87.0799 67.614 86.7877L68.8376 87.3937L68.8419 87.3966ZM67.5157 84.9625C67.4983 84.8338 67.4579 84.6906 67.3928 84.5315C67.3291 84.3724 67.2293 84.2264 67.0963 84.0933C66.9632 83.9603 66.7911 83.846 66.5814 83.752C66.3702 83.658 66.1157 83.6102 65.8149 83.6102C65.4027 83.6102 65.0483 83.7332 64.7519 83.9776C64.4554 84.222 64.2558 84.5503 64.1531 84.9625H67.5157Z" fill="white"></path><path d="M69.8935 82.5926H71.2457V83.5457H71.3224C71.3991 83.3822 71.5046 83.2304 71.6377 83.0886C71.7707 82.9469 71.9212 82.8269 72.0889 82.7271C72.2567 82.6273 72.4317 82.5463 72.6168 82.4827C72.8019 82.419 72.9798 82.3872 73.1519 82.3872C73.3573 82.3872 73.5338 82.4074 73.6798 82.4451C73.8259 82.4841 73.959 82.5376 74.079 82.6056L73.6668 83.9072C73.5728 83.8639 73.4672 83.832 73.3515 83.8103C73.2358 83.7886 73.0955 83.7785 72.9336 83.7785C72.7022 83.7785 72.4895 83.8263 72.2957 83.9217C72.1019 84.0172 71.9327 84.1459 71.7867 84.3093C71.6406 84.4727 71.5263 84.668 71.4453 84.8922C71.3643 85.1163 71.3224 85.3535 71.3224 85.6037V88.9056H69.892V82.594L69.8935 82.5926Z" fill="white"></path><path d="M27.8838 70.3938C27.8838 71.5132 27.5511 72.4041 26.8873 73.068C26.141 73.8591 25.1604 74.2539 23.9456 74.2539C22.7307 74.2539 21.7978 73.8519 20.9923 73.0463C20.1867 72.2407 19.7846 71.2486 19.7846 70.0698C19.7846 68.8911 20.1867 67.899 20.9923 67.0934C21.7978 66.2878 22.7827 65.8857 23.9456 65.8857C24.5342 65.8857 25.0896 65.9899 25.6117 66.1996C26.1338 66.4079 26.5633 66.7029 26.8989 67.0833L26.1613 67.8223C25.9154 67.5244 25.5958 67.2915 25.2053 67.1238C24.8133 66.956 24.3939 66.8721 23.947 66.8721C23.0749 66.8721 22.3358 67.1744 21.7313 67.7789C21.134 68.3907 20.8361 69.1543 20.8361 70.0727C20.8361 70.9911 21.134 71.7547 21.7313 72.3665C22.3358 72.9711 23.0734 73.2733 23.947 73.2733C24.7453 73.2733 25.4092 73.0492 25.9385 72.6023C26.4679 72.1554 26.7745 71.5393 26.8555 70.7568H23.947V69.795H27.8288C27.8664 70.0033 27.8852 70.2058 27.8852 70.3996L27.8838 70.3938Z" fill="white"></path><path d="M28.5878 71.3336C28.5878 70.4905 28.8525 69.7933 29.3818 69.2423C29.9184 68.6898 30.5938 68.415 31.4066 68.415C32.2194 68.415 32.8905 68.6913 33.4199 69.2423C33.9564 69.7948 34.2254 70.4919 34.2254 71.3336C34.2254 72.1754 33.9564 72.8812 33.4199 73.425C32.8905 73.9774 32.2194 74.2522 31.4066 74.2522C30.5938 74.2522 29.9184 73.976 29.3818 73.425C28.8525 72.8725 28.5878 72.1754 28.5878 71.3336ZM29.6176 71.3336C29.6176 71.9223 29.7897 72.3995 30.1325 72.7655C30.4752 73.1314 30.9004 73.3136 31.4081 73.3136C31.9157 73.3136 32.3409 73.1314 32.6837 72.7655C33.0265 72.3995 33.1986 71.9223 33.1986 71.3336C33.1986 70.745 33.0265 70.2779 32.6837 69.9134C32.3337 69.5402 31.9085 69.3537 31.4081 69.3537C30.9077 69.3537 30.4839 69.5402 30.1325 69.9134C29.7897 70.2793 29.6176 70.7522 29.6176 71.3336Z" fill="white"></path><path d="M34.853 71.3336C34.853 70.4905 35.1176 69.7933 35.647 69.2423C36.1835 68.6898 36.859 68.415 37.6718 68.415C38.4846 68.415 39.1557 68.6913 39.685 69.2423C40.2216 69.7948 40.4906 70.4919 40.4906 71.3336C40.4906 72.1754 40.2216 72.8812 39.685 73.425C39.1557 73.9774 38.4846 74.2522 37.6718 74.2522C36.859 74.2522 36.1835 73.976 35.647 73.425C35.1176 72.8725 34.853 72.1754 34.853 71.3336ZM35.8827 71.3336C35.8827 71.9223 36.0548 72.3995 36.3976 72.7655C36.7404 73.1314 37.1656 73.3136 37.6732 73.3136C38.1809 73.3136 38.6061 73.1314 38.9488 72.7655C39.2916 72.3995 39.4637 71.9223 39.4637 71.3336C39.4637 70.745 39.2916 70.2779 38.9488 69.9134C38.5988 69.5402 38.1736 69.3537 37.6732 69.3537C37.1728 69.3537 36.749 69.5402 36.3976 69.9134C36.0548 70.2793 35.8827 70.7522 35.8827 71.3336Z" fill="white"></path><path d="M43.8574 76.6704C43.5508 76.6704 43.2645 76.6314 42.9955 76.5533C42.7265 76.4752 42.482 76.3652 42.2622 76.2235C42.0424 76.0818 41.8543 75.914 41.6967 75.7202C41.5405 75.5264 41.4205 75.3095 41.338 75.0708L42.3114 74.6688C42.4227 74.9898 42.6165 75.2473 42.8928 75.4411C43.169 75.6349 43.4886 75.7318 43.8546 75.7318C44.4143 75.7318 44.8496 75.564 45.1634 75.2285C45.4773 74.8929 45.6335 74.4301 45.6335 73.8415V73.315H45.5886C45.3948 73.6057 45.1316 73.8357 44.8004 74.0035C44.4678 74.1712 44.1091 74.2551 43.7215 74.2551C43.0056 74.2551 42.3895 73.976 41.876 73.4163C41.3684 72.8421 41.1153 72.1479 41.1153 71.3351C41.1153 70.5223 41.3684 69.8324 41.876 69.2655C42.3909 68.6985 43.0056 68.415 43.7215 68.415C44.1091 68.415 44.4692 68.4989 44.8004 68.6667C45.1316 68.8345 45.3948 69.0644 45.5886 69.3551H45.6335V68.5944H46.6184V73.8415C46.6184 74.7208 46.3682 75.4107 45.8692 75.9111C45.3616 76.4188 44.6905 76.6719 43.856 76.6719L43.8574 76.6704ZM43.8907 73.3136C44.3984 73.3136 44.812 73.1314 45.1331 72.7655C45.4686 72.3995 45.6364 71.9223 45.6364 71.3336C45.6364 70.745 45.4686 70.2865 45.1331 69.9134C44.8048 69.5402 44.3911 69.3537 43.8907 69.3537C43.3903 69.3537 42.9853 69.5402 42.6484 69.9134C42.3128 70.2865 42.145 70.7595 42.145 71.3336C42.145 71.9078 42.3128 72.3894 42.6484 72.7539C42.9839 73.127 43.3975 73.3136 43.8907 73.3136Z" fill="white"></path><path d="M48.9036 66.0649V74.0744H47.8738V66.0649H48.9036Z" fill="white"></path><path d="M52.562 74.2537C51.7564 74.2537 51.0926 73.9774 50.5705 73.4264C50.0484 72.8739 49.788 72.1768 49.788 71.3351C49.788 70.4933 50.0411 69.8049 50.5488 69.2481C51.0564 68.6927 51.7043 68.415 52.4955 68.415C53.2866 68.415 53.9548 68.6783 54.4364 69.2033C54.918 69.7297 55.1581 70.4659 55.1581 71.4132L55.1465 71.5245H50.8395C50.8539 72.0611 51.0333 72.4936 51.376 72.8219C51.7188 73.1502 52.1296 73.3136 52.6068 73.3136C53.2634 73.3136 53.7769 72.9853 54.15 72.3287L55.067 72.7756C54.8211 73.2384 54.4798 73.6 54.043 73.8603C53.6062 74.1206 53.113 74.2522 52.5605 74.2522L52.562 74.2537ZM50.9176 70.6741H54.0618C54.0314 70.2938 53.8767 69.9785 53.5975 69.7283C53.3184 69.4781 52.9424 69.3537 52.4738 69.3537C52.0862 69.3537 51.7521 69.4737 51.4729 69.7124C51.1938 69.951 51.0087 70.2721 50.919 70.6741H50.9176Z" fill="white"></path><path d="M62.2833 74.2539C61.0974 74.2539 60.1052 73.8548 59.3069 73.0564C58.5157 72.2581 58.1209 71.263 58.1209 70.0698C58.1209 68.8767 58.5157 67.8845 59.3069 67.0934C60.098 66.2878 61.0887 65.8857 62.2833 65.8857C63.4779 65.8857 64.4715 66.3225 65.225 67.1946L64.4874 67.9105C63.9133 67.2163 63.1786 66.8707 62.2833 66.8707C61.3881 66.8707 60.6534 67.1686 60.0575 67.7659C59.4688 68.3545 59.1738 69.124 59.1738 70.0698C59.1738 71.0157 59.4688 71.7851 60.0575 72.3738C60.6534 72.9711 61.3967 73.269 62.2833 73.269C63.2162 73.269 64.0246 72.8771 64.7116 72.0946L65.4608 72.8221C65.0804 73.2777 64.6147 73.6291 64.0622 73.8793C63.5098 74.1295 62.9168 74.2539 62.2833 74.2539Z" fill="white"></path><path d="M67.4079 66.0649V74.0744H66.3781V66.0649H67.4079Z" fill="white"></path><path d="M68.291 71.3336C68.291 70.4905 68.5557 69.7933 69.085 69.2423C69.6216 68.6898 70.297 68.415 71.1098 68.415C71.9226 68.415 72.5937 68.6913 73.123 69.2423C73.6596 69.7948 73.9286 70.4919 73.9286 71.3336C73.9286 72.1754 73.6596 72.8812 73.123 73.425C72.5937 73.9774 71.9226 74.2522 71.1098 74.2522C70.297 74.2522 69.6216 73.976 69.085 73.425C68.5557 72.8725 68.291 72.1754 68.291 71.3336ZM69.3208 71.3336C69.3208 71.9223 69.4929 72.3995 69.8356 72.7655C70.1784 73.1314 70.6036 73.3136 71.1113 73.3136C71.6189 73.3136 72.0441 73.1314 72.3869 72.7655C72.7297 72.3995 72.9018 71.9223 72.9018 71.3336C72.9018 70.745 72.7297 70.2779 72.3869 69.9134C72.0369 69.5402 71.6117 69.3537 71.1113 69.3537C70.6109 69.3537 70.1871 69.5402 69.8356 69.9134C69.4929 70.2793 69.3208 70.7522 69.3208 71.3336Z" fill="white"></path><path d="M79.6221 74.0742H78.6372V73.3135H78.5924C78.4362 73.5825 78.1947 73.8052 77.8707 73.9845C77.5467 74.1639 77.2083 74.2535 76.8583 74.2535C76.1872 74.2535 75.6709 74.0612 75.3093 73.6779C74.9478 73.2932 74.767 72.748 74.767 72.0393V68.5942H75.7967V71.9727C75.8184 72.868 76.2697 73.3149 77.1504 73.3149C77.5612 73.3149 77.9039 73.1486 78.1802 72.8174C78.4564 72.4862 78.5938 72.0885 78.5938 71.6256V68.5942H79.6236V74.0756L79.6221 74.0742Z" fill="white"></path><path d="M83.1143 74.2538C82.3983 74.2538 81.7822 73.9703 81.2688 73.4034C80.7612 72.8292 80.5081 72.1393 80.5081 71.3337C80.5081 70.5282 80.7612 69.8383 81.2688 69.2641C81.7837 68.6972 82.3983 68.4137 83.1143 68.4137C83.5163 68.4137 83.8837 68.499 84.2163 68.6711C84.5475 68.8433 84.8035 69.0703 84.9828 69.3538H85.0277L84.9828 68.593V66.0649H86.0126V74.0744H85.0277V73.3137H84.9828C84.8035 73.5972 84.549 73.8242 84.2163 73.9964C83.8837 74.1685 83.5178 74.2538 83.1143 74.2538ZM83.282 73.3137C83.7897 73.3137 84.2033 73.1315 84.5244 72.7656C84.8599 72.3997 85.0277 71.9224 85.0277 71.3337C85.0277 70.7451 84.8599 70.2866 84.5244 69.9135C84.1961 69.5404 83.7824 69.3538 83.282 69.3538C82.7816 69.3538 82.3767 69.5404 82.0397 69.9135C81.7041 70.2866 81.5364 70.7596 81.5364 71.3337C81.5364 71.9079 81.7041 72.3895 82.0397 72.754C82.3752 73.1271 82.7888 73.3137 83.282 73.3137Z" fill="white"></path></g><defs><clipPath id="clip0_31370_158609"><rect width="105.579" height="105" fill="white" transform="translate(0.121704)"></rect></clipPath></defs></svg>