<svg xmlns="http://www.w3.org/2000/svg" width="18" height="18" viewBox="0 0 18 18" fill="none"><g clip-path="url(#clip0_22057_84779)"><path fill-rule="evenodd" clip-rule="evenodd" d="M8.75 1C4.47025 1 1 4.47025 1 8.75C1 13.0297 4.47025 16.5 8.75 16.5C13.0297 16.5 16.5 13.0297 16.5 8.75C16.5 4.47025 13.0297 1 8.75 1ZM0 8.75C0 3.91797 3.91797 0 8.75 0C13.582 0 17.5 3.91797 17.5 8.75C17.5 13.582 13.582 17.5 8.75 17.5C3.91797 17.5 0 13.582 0 8.75Z" fill="#969696"></path><path d="M10.9297 4.93555C10.3438 4.42188 9.57031 4.14062 8.75 4.14062C7.92969 4.14062 7.15625 4.42383 6.57031 4.93555C5.96094 5.46875 5.625 6.18555 5.625 6.95312V7.10156C5.625 7.1875 5.69531 7.25781 5.78125 7.25781H6.71875C6.80469 7.25781 6.875 7.1875 6.875 7.10156V6.95312C6.875 6.0918 7.7168 5.39062 8.75 5.39062C9.7832 5.39062 10.625 6.0918 10.625 6.95312C10.625 7.56055 10.1953 8.11719 9.5293 8.37305C9.11523 8.53125 8.76367 8.80859 8.51172 9.17188C8.25586 9.54297 8.12305 9.98828 8.12305 10.4395V10.8594C8.12305 10.9453 8.19336 11.0156 8.2793 11.0156H9.2168C9.30273 11.0156 9.37305 10.9453 9.37305 10.8594V10.416C9.37406 10.2264 9.43218 10.0415 9.53983 9.88542C9.64749 9.72934 9.79968 9.60932 9.97656 9.54102C11.1289 9.09766 11.873 8.08203 11.873 6.95312C11.875 6.18555 11.5391 5.46875 10.9297 4.93555ZM7.96875 13.0469C7.96875 13.2541 8.05106 13.4528 8.19757 13.5993C8.34409 13.7458 8.5428 13.8281 8.75 13.8281C8.9572 13.8281 9.15591 13.7458 9.30243 13.5993C9.44894 13.4528 9.53125 13.2541 9.53125 13.0469C9.53125 12.8397 9.44894 12.641 9.30243 12.4944C9.15591 12.3479 8.9572 12.2656 8.75 12.2656C8.5428 12.2656 8.34409 12.3479 8.19757 12.4944C8.05106 12.641 7.96875 12.8397 7.96875 13.0469Z" fill="#969696"></path></g><defs><clipPath id="clip0_22057_84779"><rect width="18" height="18" fill="white"></rect></clipPath></defs></svg>