<svg width="141" height="93" viewBox="0 0 141 93" fill="none" xmlns="http://www.w3.org/2000/svg">
<g clip-path="url(#clip0_26330_59660)">
<path d="M30.3073 67.9357H28.8408V56.942H24.9648V55.6856H34.1833V56.942H30.3073V67.9357Z" fill="white"/>
<path d="M39.1145 68.0357C37.7527 68.0357 36.7052 67.6169 35.8671 66.7793C35.1339 65.9417 34.7148 64.7899 34.7148 63.3241C34.7148 61.8583 35.0291 60.7066 35.7624 59.7643C36.4957 58.9267 37.4385 58.5079 38.6955 58.5079C39.8478 58.5079 40.7906 58.9267 41.4192 59.6596C42.0477 60.3925 42.4667 61.4395 42.4667 62.6959V63.5335H36.1814C36.1814 64.5806 36.4957 65.4181 37.0194 65.9417C37.5432 66.4652 38.2765 66.7793 39.2193 66.7793C40.1621 66.7793 41.2096 66.5699 42.1524 66.1511V67.4075C41.6287 67.6169 41.2096 67.7216 40.7906 67.8263C40.2669 68.0357 39.7431 68.0357 39.1145 68.0357ZM38.6955 59.7643C37.9622 59.7643 37.3337 59.9737 36.9147 60.4972C36.4957 61.0207 36.1814 61.6489 36.1814 62.4865H41.0001C41.0001 61.6489 40.7906 60.916 40.3716 60.4972C39.9526 59.9737 39.4288 59.7643 38.6955 59.7643Z" fill="white"/>
<path d="M47.9097 68.0357C46.5478 68.0357 45.6051 67.6169 44.8718 66.7793C44.1385 65.9417 43.8242 64.7899 43.8242 63.3241C43.8242 61.7536 44.2432 60.6019 44.9765 59.7643C45.7098 58.9267 46.7574 58.5079 48.1192 58.5079C48.5382 58.5079 48.9572 58.5079 49.481 58.6126C49.9 58.7173 50.319 58.822 50.5285 58.9267L50.1095 60.0784C49.7952 59.9737 49.481 59.869 49.062 59.7643C48.7477 59.6596 48.3287 59.6596 48.1192 59.6596C46.2336 59.6596 45.2908 60.8113 45.2908 63.2194C45.2908 64.3711 45.5003 65.2088 45.9193 65.837C46.3383 66.4652 47.0716 66.7793 47.9097 66.7793C48.6429 66.7793 49.481 66.5699 50.2143 66.2558V67.5122C49.5857 67.931 48.8525 68.0357 47.9097 68.0357Z" fill="white"/>
<path d="M58.1337 67.933V61.965C58.1337 61.2321 57.9242 60.7086 57.6099 60.2898C57.2956 59.871 56.7718 59.7663 56.0386 59.7663C55.0958 59.7663 54.3625 60.0804 53.9435 60.6039C53.5244 61.1274 53.3149 61.965 53.3149 63.2215V68.0377H51.9531V55.0547H53.3149V59.0334C53.3149 59.5569 53.3149 59.871 53.2102 60.1851H53.3149C53.6292 59.7663 53.9435 59.3475 54.4672 59.1381C54.991 58.9287 55.5148 58.7193 56.2481 58.7193C57.4004 58.7193 58.2384 59.0334 58.7622 59.5569C59.286 60.0804 59.6002 60.918 59.6002 62.0697V68.0377H58.1337V67.933Z" fill="white"/>
<path d="M68.2118 67.9309V61.9629C68.2118 61.23 68.0023 60.7065 67.688 60.2877C67.3737 59.8689 66.85 59.7642 66.1167 59.7642C65.1739 59.7642 64.4406 59.9736 64.0216 60.4971C63.6026 61.0206 63.3931 61.8582 63.3931 63.1146V67.9309H62.0312V58.7172H63.1836L63.3931 59.9736H63.4978C63.8121 59.5548 64.2311 59.136 64.6501 58.9266C65.1739 58.7171 65.6977 58.5078 66.3262 58.5078C67.4785 58.5078 68.2118 58.8219 68.8403 59.3454C69.3641 59.8689 69.6783 60.7065 69.6783 61.8582V67.8262H68.2118V67.9309Z" fill="white"/>
<path d="M79.6219 63.3241C79.6219 64.7899 79.2028 65.9417 78.4696 66.7793C77.7363 67.6169 76.6887 68.0357 75.3269 68.0357C74.4889 68.0357 73.7556 67.8263 73.1271 67.4075C72.4985 66.9887 71.9748 66.4652 71.6605 65.7323C71.3462 64.9993 71.1367 64.1617 71.1367 63.2194C71.1367 61.7536 71.5557 60.6019 72.289 59.7643C73.0223 58.9267 74.0699 58.5079 75.4317 58.5079C76.6887 58.5079 77.7363 58.9267 78.4696 59.7643C79.3076 60.7066 79.6219 61.8583 79.6219 63.3241ZM72.708 63.3241C72.708 64.4758 72.9175 65.4182 73.4413 66.0464C73.8603 66.6746 74.5936 66.9887 75.5364 66.9887C76.4792 66.9887 77.1077 66.6746 77.6315 66.0464C78.1553 65.4182 78.3648 64.5805 78.3648 63.3241C78.3648 62.1724 78.1553 61.2301 77.6315 60.7066C77.2125 60.0784 76.4792 59.7643 75.5364 59.7643C74.5936 59.7643 73.9651 60.0784 73.4413 60.7066C72.9175 61.2301 72.708 62.1724 72.708 63.3241Z" fill="white"/>
<path d="M82.897 67.9362H81.5352V54.9532H82.897V67.9362Z" fill="white"/>
<path d="M93.2742 63.3241C93.2742 64.7899 92.8552 65.9417 92.1219 66.7793C91.3886 67.6169 90.3411 68.0357 88.9793 68.0357C88.1412 68.0357 87.4079 67.8263 86.7794 67.4075C86.1509 66.9887 85.6271 66.4652 85.3128 65.7323C84.9986 64.9993 84.7891 64.1617 84.7891 63.2194C84.7891 61.7536 85.2081 60.6019 85.9414 59.7643C86.6746 58.9267 87.7222 58.5079 89.084 58.5079C90.3411 58.5079 91.3886 58.9267 92.1219 59.7643C92.9599 60.7066 93.2742 61.8583 93.2742 63.3241ZM86.2556 63.3241C86.2556 64.4758 86.4651 65.4182 86.9889 66.0464C87.4079 66.6746 88.1412 66.9887 89.084 66.9887C90.0268 66.9887 90.6553 66.6746 91.1791 66.0464C91.7029 65.4182 91.9124 64.5805 91.9124 63.3241C91.9124 62.1724 91.7029 61.2301 91.1791 60.7066C90.7601 60.0784 90.0268 59.7643 89.084 59.7643C88.1412 59.7643 87.5127 60.0784 86.9889 60.7066C86.5699 61.2301 86.2556 62.1724 86.2556 63.3241Z" fill="white"/>
<path d="M102.481 58.7173V59.5549L100.804 59.7643C100.909 59.9737 101.119 60.1831 101.223 60.4972C101.328 60.8113 101.433 61.1254 101.433 61.5442C101.433 62.4865 101.119 63.1147 100.49 63.7429C99.8617 64.2664 99.0236 64.5806 97.9761 64.5806C97.6618 64.5806 97.4523 64.5805 97.2428 64.4758C96.6143 64.7899 96.4048 65.2088 96.4048 65.6276C96.4048 65.837 96.5095 66.0464 96.719 66.1511C96.9285 66.2558 97.2428 66.3605 97.7666 66.3605H99.3379C100.281 66.3605 101.119 66.5699 101.642 66.9887C102.166 67.4075 102.481 68.0357 102.481 68.7686C102.481 69.8156 102.062 70.5485 101.223 71.072C100.385 71.5955 99.2331 71.9096 97.6618 71.9096C96.5095 71.9096 95.5667 71.7002 94.8334 71.2814C94.2049 70.8626 93.8906 70.2344 93.8906 69.3968C93.8906 68.8733 94.1001 68.3498 94.4144 67.931C94.7287 67.5122 95.2524 67.1981 95.881 67.0934C95.6715 66.9887 95.462 66.7793 95.2524 66.5699C95.1477 66.3605 95.0429 66.0464 95.0429 65.837C95.0429 65.5229 95.1477 65.2088 95.3572 64.9994C95.5667 64.7899 95.7762 64.4758 96.1952 64.2664C95.6715 64.057 95.3572 63.7429 95.0429 63.2194C94.7287 62.8006 94.6239 62.1724 94.6239 61.6489C94.6239 60.6019 94.9382 59.869 95.5667 59.3455C96.1952 58.822 97.0333 58.5079 98.0808 58.5079C98.6046 58.5079 99.0236 58.6126 99.3379 58.7173H102.481ZM95.2524 69.3968C95.2524 69.9203 95.462 70.2344 95.881 70.5485C96.3 70.7579 96.9285 70.9673 97.6618 70.9673C98.8141 70.9673 99.6521 70.7579 100.281 70.4438C100.804 70.1297 101.119 69.6062 101.119 68.978C101.119 68.4545 101.014 68.1404 100.7 67.931C100.385 67.7216 99.8617 67.6169 98.9189 67.6169H97.2428C96.6143 67.6169 96.0905 67.7216 95.7762 68.0357C95.3572 68.4545 95.2524 68.8733 95.2524 69.3968ZM95.9857 61.6489C95.9857 62.2771 96.1952 62.8006 96.5095 63.1147C96.8238 63.4288 97.3475 63.6382 97.9761 63.6382C99.3379 63.6382 99.9664 63.01 99.9664 61.6489C99.9664 60.2878 99.2331 59.5549 97.8713 59.5549C97.2428 59.5549 96.719 59.7643 96.4048 60.0784C96.0905 60.4972 95.9857 61.0207 95.9857 61.6489Z" fill="white"/>
<path d="M102.34 58.7315H103.806L105.797 63.9666C106.216 65.1183 106.53 66.0606 106.635 66.5841H106.74C106.844 66.27 106.949 65.8512 107.159 65.1183C107.368 64.3854 108.101 62.2914 109.463 58.7315H110.93L106.949 69.2016C106.53 70.2486 106.111 70.9816 105.587 71.4004C105.063 71.8192 104.435 72.0286 103.702 72.0286C103.283 72.0286 102.864 72.0286 102.445 71.9239V70.7722C102.759 70.8769 103.073 70.8769 103.492 70.8769C104.435 70.8769 105.168 70.3534 105.482 69.3063L106.006 68.0499L102.34 58.7315Z" fill="white"/>
<path d="M31.699 77.4752C30.3372 77.4752 29.2897 77.894 28.5564 78.8363C27.8231 79.7787 27.4041 80.9304 27.4041 82.5009C27.4041 84.0714 27.8231 85.3278 28.5564 86.1654C29.2897 87.003 30.3372 87.4218 31.8038 87.4218C32.6418 87.4218 33.5846 87.3172 34.7369 87.003V88.2595C33.8989 88.5736 32.8513 88.783 31.5943 88.783C29.8134 88.783 28.4516 88.2595 27.4041 87.1078C26.4613 86.0607 25.9375 84.4902 25.9375 82.5009C25.9375 81.2445 26.147 80.0928 26.6708 79.1505C27.1946 78.2081 27.8231 77.4752 28.6611 76.9517C29.6039 76.4282 30.6515 76.2188 31.8038 76.2188C33.0608 76.2188 34.2131 76.4282 35.1559 76.9517L34.5274 78.2081C33.5846 77.6846 32.6418 77.4752 31.699 77.4752Z" fill="white"/>
<path d="M44.5086 84.0605C44.5086 85.5263 44.0896 86.678 43.3563 87.5156C42.623 88.3532 41.5754 88.772 40.2136 88.772C39.3756 88.772 38.6423 88.5626 38.0138 88.1438C37.3853 87.725 36.8615 87.2015 36.5472 86.4686C36.2329 85.7357 36.0234 84.8981 36.0234 83.9558C36.0234 82.4899 36.4425 81.3382 37.1757 80.5006C37.909 79.663 38.9566 79.2442 40.3184 79.2442C41.5754 79.2442 42.623 79.663 43.3563 80.5006C44.0896 81.4429 44.5086 82.5946 44.5086 84.0605ZM37.49 84.0605C37.49 85.2122 37.6995 86.1545 38.2233 86.7827C38.7471 87.4109 39.3756 87.725 40.3184 87.725C41.2612 87.725 41.8897 87.4109 42.4135 86.7827C42.9373 86.1545 43.1468 85.3169 43.1468 84.0605C43.1468 82.9087 42.9373 81.9664 42.4135 81.4429C41.9945 80.8147 41.2612 80.5006 40.3184 80.5006C39.3756 80.5006 38.7471 80.8147 38.2233 81.4429C37.8043 81.9664 37.49 82.804 37.49 84.0605Z" fill="white"/>
<path d="M47.5681 79.4505V85.4184C47.5681 86.1514 47.7776 86.6749 48.0919 87.0937C48.4062 87.5125 48.9299 87.6172 49.6632 87.6172C50.606 87.6172 51.3393 87.4078 51.7583 86.7796C52.1773 86.2561 52.3869 85.4184 52.3869 84.162V79.3458H53.7487V88.5595H52.5964L52.3869 87.3031H52.2821C51.9678 87.7219 51.6536 88.1407 51.1298 88.3501C50.606 88.5595 50.0822 88.6642 49.4537 88.6642C48.3014 88.6642 47.4634 88.3501 46.9396 87.8266C46.4158 87.3031 46.1016 86.4654 46.1016 85.3137V79.3458H47.5681V79.4505Z" fill="white"/>
<path d="M62.6844 88.6673V82.6993C62.6844 81.9664 62.4749 81.4429 62.1607 81.0241C61.8464 80.6053 61.3226 80.5006 60.5893 80.5006C59.6466 80.5006 58.9133 80.71 58.4943 81.2335C58.0752 81.757 57.8657 82.5946 57.8657 83.8511V88.6673H56.5039V79.4536H57.6562L57.8657 80.71H57.9705C58.2847 80.2912 58.7038 79.8724 59.1228 79.663C59.6466 79.4536 60.1703 79.2442 60.7989 79.2442C61.9512 79.2442 62.6844 79.5583 63.313 80.0818C63.8367 80.6053 64.151 81.4429 64.151 82.5946V88.5626H62.6844V88.6673Z" fill="white"/>
<path d="M70.0151 88.772C68.6533 88.772 67.7105 88.3532 66.9772 87.5156C66.244 86.678 65.9297 85.5263 65.9297 84.0605C65.9297 82.4899 66.3487 81.3382 67.082 80.5006C67.8153 79.663 68.8628 79.2442 70.2246 79.2442C70.6437 79.2442 71.0627 79.2442 71.5864 79.3489C72.0055 79.4536 72.4245 79.5583 72.634 79.663L72.215 80.8147C71.9007 80.71 71.5864 80.6053 71.1674 80.5006C70.8532 80.3959 70.4341 80.3959 70.2246 80.3959C68.339 80.3959 67.3963 81.5476 67.3963 83.9558C67.3963 85.1075 67.6058 85.9451 68.0248 86.5733C68.4438 87.2015 69.1771 87.5156 70.0151 87.5156C70.7484 87.5156 71.5864 87.3062 72.3197 86.9921V88.2485C71.6912 88.6673 70.9579 88.772 70.0151 88.772Z" fill="white"/>
<path d="M75.3057 88.664H73.9439V79.4503H75.3057V88.664ZM73.7344 76.9375C73.7344 76.6234 73.8391 76.414 73.9439 76.2046C74.0486 76.0999 74.2581 75.9952 74.5724 75.9952C74.7819 75.9952 74.9914 76.0999 75.2009 76.2046C75.4104 76.3093 75.4104 76.6234 75.4104 76.9375C75.4104 77.2516 75.3057 77.461 75.2009 77.6704C74.9914 77.7751 74.8867 77.8798 74.5724 77.8798C74.3629 77.8798 74.1534 77.7751 73.9439 77.6704C73.8391 77.461 73.7344 77.2516 73.7344 76.9375Z" fill="white"/>
<path d="M78.9985 88.6732H77.6367V75.6902H78.9985V88.6732Z" fill="white"/>
<path d="M5.46094 51.6024H7.03226V92.6453H5.46094V51.6024Z" fill="white"/>
<path d="M86.1529 11.3917C83.953 11.3917 82.1722 11.9152 80.2866 12.8575C80.2866 7.5177 80.3913 2.91084 80.4961 1.13092L69.6016 3.32965V4.37666L70.6491 4.48136C72.1157 4.69076 72.7442 5.63307 72.849 7.6224C73.268 11.601 73.1633 32.5413 72.849 35.8917C75.6774 36.52 78.9248 37.0435 82.0674 37.0435C90.6573 37.0435 95.7903 31.7037 95.7903 23.1182C95.9998 16.2079 91.7049 11.3917 86.1529 11.3917ZM82.3817 35.2635C81.7532 35.2635 81.0199 35.1588 80.4961 35.0541C80.2866 32.7507 80.1818 23.0135 80.1818 14.428C81.2294 14.0092 81.8579 14.0092 82.6959 14.0092C86.2576 14.0092 88.248 18.0925 88.248 23.4323C88.3527 30.1332 85.8386 35.2635 82.3817 35.2635ZM28.9567 11.7057L27.2807 12.1246C25.8141 7.09889 23.5095 4.37666 19.1098 4.37666H13.453C13.1387 7.6224 13.034 12.8575 13.034 18.4066L16.8052 18.3019C19.3193 18.1972 20.3668 16.3126 20.9954 13.4857H22.3572V25.1075H20.9954C20.3668 22.2806 19.3193 20.396 16.8052 20.2913L13.034 20.1866C13.034 24.3746 13.2435 27.9345 13.3483 30.0285C13.6625 33.1695 14.5006 34.5306 16.5957 34.8447L18.586 35.0541V36.4153H0.253906V35.0541L1.72048 34.8447C3.81557 34.5306 4.65361 33.1695 4.96787 30.0285C5.38689 25.0028 5.38689 14.2186 4.96787 8.35531C4.65361 5.21427 3.81557 3.85316 1.72048 3.53905L0.253906 3.32965V1.96853H28.7472L28.9567 11.7057ZM37.9656 11.0775C46.0318 11.0775 50.1172 16.6267 50.1172 23.9558C50.1172 31.0755 45.6127 36.9388 37.5466 36.9388C29.4805 36.9388 25.3951 31.3896 25.3951 24.0605C25.3951 16.9408 29.8995 11.0775 37.9656 11.0775ZM37.6514 12.6481C33.985 12.6481 33.1469 17.569 33.1469 24.0605C33.1469 30.3426 34.7182 35.4729 38.0704 35.4729C41.7368 35.4729 42.5749 30.552 42.5749 24.0605C42.5749 17.7784 41.0035 12.6481 37.6514 12.6481ZM97.8854 24.2699C97.8854 17.4643 102.076 11.0775 110.456 11.0775C117.265 11.0775 120.512 16.1032 120.512 22.8041H105.428C105.218 28.7721 108.256 33.3789 114.018 33.3789C116.532 33.3789 117.894 32.7507 119.465 31.599L120.198 32.4366C118.522 34.74 114.96 37.0435 110.351 37.0435C103.123 37.0435 97.8854 31.8084 97.8854 24.2699ZM105.428 21.1289L113.075 20.9195C113.075 17.569 112.656 12.6481 109.827 12.6481C107.104 12.6481 105.533 17.2549 105.428 21.1289ZM139.997 18.7207L138.74 19.0348C137.483 14.7421 135.388 12.8575 132.559 12.8575C130.569 12.8575 129.207 14.3233 129.207 16.522C129.207 18.7207 130.778 19.7678 135.283 21.5477C139.578 23.2229 141.254 25.1075 141.254 28.5627C141.254 33.693 137.378 36.9388 130.883 36.9388C127.845 36.9388 124.388 36.3106 122.398 35.4729L122.189 28.3533L123.446 28.0392C125.226 33.0648 127.531 34.9494 130.569 34.9494C133.188 34.9494 134.55 33.0648 134.55 31.0755C134.55 29.0862 133.397 27.9344 129.312 26.4686C125.541 25.1075 122.712 23.3276 122.712 19.0348C122.712 14.8468 126.379 11.1822 132.454 11.1822C135.283 11.1822 137.902 11.6011 139.787 12.5434L139.997 18.7207ZM68.6588 18.5113C65.4114 16.2079 61.8497 17.2549 61.1165 18.5113C60.8022 22.5947 60.9069 28.6674 61.2212 31.8084C61.4307 33.9024 61.9545 34.74 63.4211 34.9494L65.4114 35.0541V36.4153H50.4315V35.0541L51.479 34.9494C52.9456 34.74 53.5741 33.7977 53.6789 31.8084C53.9931 28.458 54.0979 21.443 53.6789 17.569C53.4694 15.475 52.9456 14.6374 51.479 14.3233L50.4315 14.2186V13.1716L61.2212 10.9728L61.0117 16.8361C63.5258 10.8681 68.554 10.1352 71.1729 11.8104L68.6588 18.5113Z" fill="white"/>
</g>
<defs>
<clipPath id="clip0_26330_59660">
<rect width="141" height="91.5097" fill="white" transform="translate(0 0.745178)"/>
</clipPath>
</defs>
</svg>
