<svg width="242" height="55" viewBox="0 0 242 55" fill="none" xmlns="http://www.w3.org/2000/svg">
<path d="M107.337 23.7341C105.024 24.3649 100.914 25.1613 96.9258 25.1613C91.0194 25.1613 86.9927 23.9699 84.3613 21.88C81.8063 19.8921 80.4492 17.1779 80.4492 14.1642C80.4492 6.4484 87.8273 2.37067 97.4036 2.37067C101.513 2.37067 104.661 2.96957 106.26 3.59397L104.667 8.49362C102.915 7.8947 100.838 7.39775 97.1679 7.39775C92.4594 7.39775 88.3944 9.32191 88.3944 13.5908C88.3944 17.5666 91.9815 20.1852 97.1679 20.1852C98.404 20.1852 99.5636 20.0833 99.9586 19.9559V16.3432H95.8108V11.5392H107.337V23.7278V23.7341Z" fill="white"/>
<path d="M112.074 2.5993H119.612V19.6939H131.22V24.9249H112.074V2.5993Z" fill="white"/>
<path d="M161.31 13.6341C161.31 20.3942 155.607 25.3257 146.35 25.3257C137.092 25.3257 132.109 20.3878 132.109 13.9654C132.109 7.14156 138.016 2.20367 146.827 2.20367C155.639 2.20367 161.31 7.07146 161.31 13.6341ZM140.131 13.7997C140.131 17.6417 142.686 20.4897 146.751 20.4897C150.816 20.4897 153.294 17.6417 153.294 13.7997C153.294 9.95773 150.74 7.03962 146.713 7.03962C142.686 7.03962 140.131 9.95136 140.131 13.7997Z" fill="white"/>
<path d="M165.375 2.89891C166.968 2.66954 170.918 2.40192 174.512 2.40192C178.742 2.40192 180.934 2.6313 183.049 3.33216C185.324 4.05851 187.159 5.68322 187.159 8.06614C187.159 9.95209 185.885 11.7425 182.61 12.7046V12.7683C185.961 13.4946 188.076 15.4825 188.076 18.2668C188.076 20.4522 186.681 22.1725 184.725 23.3003C182.572 24.4918 179.061 25.1862 173.078 25.1862C169.408 25.1862 166.853 24.9887 165.381 24.7912V2.89891H165.375ZM172.836 11.048H174.429C177.939 11.048 179.532 10.2515 179.532 8.86257C179.532 7.60103 178.213 6.87469 175.544 6.87469C174.11 6.87469 173.352 6.93841 172.83 7.0085V11.048H172.836ZM172.836 20.5861C173.435 20.6498 174.155 20.6498 175.27 20.6498C177.901 20.6498 180.099 19.8852 180.099 17.9355C180.099 15.9858 177.825 15.4188 174.792 15.4188H172.836V20.5861Z" fill="white"/>
<path d="M199.637 19.4977L197.923 24.9326H189.984L198.484 2.60699H208.774L217.828 24.9326H209.449L207.455 19.4977H199.637ZM206.302 14.9294L204.868 10.9855C204.39 9.72392 203.83 8.10558 203.352 6.81217H203.275C202.836 8.10558 202.441 9.72391 202.001 11.0173L200.727 14.923H206.308L206.302 14.9294Z" fill="white"/>
<path d="M221.5 2.59918H229.037V19.6938H240.646V24.9248H221.5V2.59918Z" fill="white"/>
<path d="M39.8288 38.3647C39.8288 46.1251 36.4073 49.3236 31.3548 49.3236C25.0343 49.3236 23.0273 43.8441 23.0273 38.7597C23.0273 33.6753 25.6269 28.317 31.6925 28.317C38.4972 28.317 39.8352 34.4654 39.8352 38.3647H39.8288ZM29.0101 38.8235C29.0101 43.6658 30.0869 45.2459 31.5396 45.2459C33.1006 45.2459 33.846 42.812 33.846 38.6068C33.846 35.077 33.2535 32.3947 31.5014 32.3947C30.0869 32.3947 29.0101 34.3125 29.0101 38.8171V38.8235Z" fill="white"/>
<path d="M47.5655 28.5635V41.7142C47.5655 44.4221 48.4575 45.2121 49.4961 45.2121C50.5346 45.2121 51.4266 44.6005 51.4266 41.7142V28.5635H57.1864V40.8605C57.1864 46.1296 54.8417 49.3217 49.5279 49.3217C43.6534 49.3217 41.793 45.9448 41.793 40.7967V28.5572H47.5528L47.5655 28.5635Z" fill="white"/>
<path d="M63.0666 32.9476H58.7148V28.564H73.2163V32.9476H68.8263V49.0801H63.0666V32.9476Z" fill="white"/>
<path d="M74.9969 44.3885C76.0737 44.8727 77.8959 45.1785 79.3486 45.1785C81.5021 45.1785 82.4706 44.3885 82.4706 43.3499C82.4706 42.0693 81.4321 41.4958 79.2339 40.4254C75.1817 38.4503 74.5127 36.1948 74.5127 34.672C74.5127 31.2952 77.1887 28.3707 82.9867 28.3707C84.6942 28.3707 86.3317 28.7339 87.1154 29.1034L86.2999 33.1493C85.5544 32.7861 84.4776 32.4484 83.0313 32.4484C81.1008 32.4484 80.1705 33.2703 80.1705 34.2133C80.1705 35.0989 80.693 35.6724 83.5155 36.9849C86.9752 38.565 88.1285 40.7313 88.1285 42.8275C88.1285 46.6949 84.5987 49.2499 79.3167 49.2499C77.1632 49.2499 75.1498 48.8549 74.2578 48.4599L75.0033 44.3821L74.9969 44.3885Z" fill="white"/>
<path d="M107.009 38.3647C107.009 46.1251 103.587 49.3236 98.5345 49.3236C92.214 49.3236 90.207 43.8441 90.207 38.7597C90.207 33.6753 92.8066 28.317 98.8722 28.317C105.677 28.317 107.015 34.4654 107.015 38.3647H107.009ZM96.1898 38.8235C96.1898 43.6658 97.2666 45.2459 98.7193 45.2459C100.28 45.2459 101.026 42.812 101.026 38.6068C101.026 35.077 100.433 32.3947 98.681 32.3947C97.2666 32.3947 96.1898 34.3125 96.1898 38.8171V38.8235Z" fill="white"/>
<path d="M115.116 28.5635V41.7142C115.116 44.4221 116.008 45.2121 117.047 45.2121C118.085 45.2121 118.977 44.6005 118.977 41.7142V28.5635H124.737V40.8605C124.737 46.1296 122.392 49.3217 117.079 49.3217C111.204 49.3217 109.344 45.9448 109.344 40.7967V28.5572H115.104L115.116 28.5635Z" fill="white"/>
<path d="M128.01 28.8624C129.686 28.6203 131.801 28.4673 133.847 28.4673C136.599 28.4673 139.237 28.7413 140.983 30.022C142.62 31.2071 143.066 32.5769 143.066 34.4055C143.066 36.4125 141.836 38.4833 139.275 39.4581V39.5218C140.912 40.1335 141.728 41.3504 142.174 43.3574C142.62 45.3963 143.365 48.2889 143.85 49.079H137.829C137.529 48.531 136.937 46.403 136.599 44.2367C136.229 41.8028 135.56 41.223 134.293 41.223H133.732V49.079H128.004V28.8688L128.01 28.8624ZM133.738 37.5976H134.484C136.344 37.5976 137.274 36.2915 137.274 34.7942C137.274 33.2969 136.567 32.1755 134.783 32.1182C134.414 32.1182 133.968 32.15 133.745 32.2392V37.5976H133.738Z" fill="white"/>
<path d="M157.498 48.8048C156.829 49.0469 155.415 49.2636 153.669 49.2636C146.603 49.2636 143.742 44.485 143.742 39.1584C143.742 31.5764 149.132 28.3843 154.376 28.3843C156.198 28.3843 157.422 28.6902 157.906 28.9323L157.014 32.889C156.453 32.6787 155.822 32.4939 154.86 32.4939C152.038 32.4939 149.84 34.3799 149.84 38.9482C149.84 43.2426 151.885 45.0966 154.784 45.0966C155.491 45.0966 156.421 44.9756 157.014 44.8545L157.498 48.8112V48.8048Z" fill="white"/>
<path d="M165.045 28.564V49.0801H159.285V28.564H165.045Z" fill="white"/>
<path d="M168.499 49.0801V28.564H173.742L177.272 35.9294C177.903 37.2356 179.094 39.8288 179.725 41.4089H179.802C179.655 39.7332 179.241 35.7447 179.241 31.8836V28.564H184.262V49.0801H179.018L175.635 42.1671C174.851 40.587 173.704 37.8727 173.258 36.3563H173.182C173.29 38.1212 173.513 41.5299 173.513 45.5503V49.0801H168.492H168.499Z" fill="white"/>
<path d="M202.295 48.5308C201.219 48.8685 198.727 49.2636 196.79 49.2636C193.63 49.2636 191.4 48.5309 189.763 47.2247C187.456 45.428 186.341 42.325 186.418 38.8845C186.564 31.6401 191.846 28.3843 197.568 28.3843C199.613 28.3843 201.098 28.722 201.881 29.0215L200.951 33.0673C200.206 32.7615 199.243 32.6086 198.09 32.6086C194.707 32.6086 192.401 34.4054 192.401 39.305C192.401 43.6248 194.484 45.3005 196.415 45.3005C196.638 45.3005 196.861 45.3005 197.045 45.2368V41.0635H195.223V37.2279H202.289V48.5181L202.295 48.5308Z" fill="white"/>
<path d="M5.35156 36.2281H15.9664V39.1589H5.35156V36.2281Z" fill="white"/>
<path d="M13.2394 31.6159L15.9664 32.5334V35.5662L5.35156 31.6095V27.7739L15.9664 23.7408V26.901L13.2394 27.895V31.6223V31.6159ZM11.449 28.3219L9.19354 29.131C8.56914 29.354 7.77272 29.5834 7.14831 29.7809V29.8192C7.77272 30.0103 8.58188 30.2078 9.19354 30.4117L11.449 31.189V28.3219Z" fill="white"/>
<path d="M10.5494 11.483C14.0346 11.483 16.1371 14.0507 16.1371 17.8417C16.1371 21.6327 13.7542 23.9455 10.7278 23.9455C7.70134 23.9455 5.17188 21.4543 5.17188 17.6378C5.17188 13.8213 7.61214 11.483 10.5494 11.483ZM10.6832 20.849C12.7603 20.849 14.2257 19.6512 14.2257 17.6951C14.2257 15.7391 12.6902 14.5795 10.6258 14.5795C8.7144 14.5795 7.07693 15.6818 7.07693 17.7015C7.07693 19.7213 8.61245 20.849 10.6768 20.849H10.6832Z" fill="white"/>
<path d="M5.49644 10.4713C5.37538 9.56657 5.27344 8.29863 5.27344 6.51463C5.27344 4.73062 5.56016 3.41813 6.13359 2.55161C6.66242 1.72332 7.54805 1.17535 8.5866 1.17535C9.62514 1.17535 10.5108 1.58949 11.0969 2.36043C11.8679 3.36075 12.2247 4.8517 12.2247 6.57199C12.2247 6.96065 12.2056 7.30471 12.1673 7.57231H15.9711V10.4777H5.49644V10.4713ZM10.3133 7.56593C10.3579 7.32382 10.377 7.01797 10.377 6.59108C10.377 5.03645 9.73345 4.07435 8.65667 4.07435C7.68184 4.07435 7.09566 4.88992 7.09566 6.3681C7.09566 6.9479 7.13391 7.3493 7.17214 7.56593H10.3069H10.3133Z" fill="white"/>
<path d="M28.0609 6.65779H22.7344V2.59918H39.3129V6.65779H33.9481V25.1414H28.0609V6.65779Z" fill="white"/>
<path d="M47.3638 2.59918V11.6403H53.4868V2.59918H59.374V25.1414H53.4868V15.7053H47.3638V25.1414H41.4766V2.59918H47.3638Z" fill="white"/>
<path d="M76.387 15.2275H69.5059V21.3378H77.2726V25.1415H63.625V2.5993H76.7629V6.40308H69.5122V11.5831H76.3934V15.2275H76.387Z" fill="white"/>
<path d="M208.984 32.7416H208.92L205.231 34.4109L204.492 31.3844L209.475 29.1099H213.317V48.2688H208.984V32.7416Z" fill="white"/>
<path d="M227.653 38.6002C227.653 45.4814 224.818 48.5079 221.288 48.5079C216.554 48.5079 214.961 43.7165 214.961 38.785C214.961 33.2737 216.955 28.8774 221.453 28.8774C226.506 28.8774 227.653 34.0447 227.653 38.6002ZM219.364 38.6958C219.313 43.1813 219.931 45.2074 221.422 45.2074C222.766 45.2074 223.257 43.0858 223.257 38.6958C223.257 34.5862 222.817 32.1842 221.415 32.1842C220.013 32.1842 219.338 34.2549 219.364 38.6958Z" fill="white"/>
<path d="M241.094 38.6003C241.094 45.4815 238.259 48.5079 234.729 48.5079C229.995 48.5079 228.402 43.7166 228.402 38.7851C228.402 33.2738 230.397 28.8775 234.895 28.8775C239.947 28.8775 241.094 34.0447 241.094 38.6003ZM232.805 38.6959C232.754 43.1814 233.372 45.2075 234.863 45.2075C236.207 45.2075 236.698 43.0858 236.698 38.6959C236.698 34.5863 236.258 32.1842 234.857 32.1842C233.455 32.1842 232.78 34.255 232.805 38.6959Z" fill="white"/>
<path d="M4.3692 29.1627C3.18411 31.1378 2.37493 33.7055 2.13281 36.5663H3.12676C3.29241 34.6421 3.73205 32.8645 4.3692 31.3481V29.169V29.1627Z" fill="white"/>
<path d="M18.4033 39.8536H17.4603C17.0207 45.8746 13.9815 50.5322 10.2861 50.5322C10.1586 50.5322 10.0376 50.513 9.91016 50.5003V54.5971H11.1781V51.4687C14.9627 50.787 17.97 45.9511 18.3969 39.8472L18.4033 39.8536Z" fill="white"/>
<path d="M3.054 38.3496C3.054 38.2731 3.054 38.1967 3.054 38.1138H0.0976562V39.2798H2.08554C2.34677 45.2626 5.07376 50.1495 8.64177 51.2963V50.2004C5.43693 48.9453 3.054 44.1221 3.054 38.3432V38.3496Z" fill="white"/>
</svg>
