<svg width="117" height="117" viewBox="0 0 117 117" fill="none" xmlns="http://www.w3.org/2000/svg">
<g clip-path="url(#clip0_26330_59185)">
<mask id="mask0_26330_59185" style="mask-type:luminance" maskUnits="userSpaceOnUse" x="0" y="0" width="118" height="118">
<path d="M117.464 0.624146H0.464844V117.624H117.464V0.624146Z" fill="white"/>
</mask>
<g mask="url(#mask0_26330_59185)">
<path d="M58.9595 114.558C89.576 114.558 114.396 89.7385 114.396 59.1219C114.396 28.5053 89.576 3.68567 58.9595 3.68567C28.343 3.68567 3.52344 28.5053 3.52344 59.1219C3.52344 89.7385 28.343 114.558 58.9595 114.558Z" stroke="white" stroke-width="0.0879067" stroke-miterlimit="22.93"/>
<path d="M58.9681 116.245C90.5149 116.245 116.089 90.6715 116.089 59.1246C116.089 27.5778 90.5149 2.00403 58.9681 2.00403C27.4214 2.00403 1.84766 27.5778 1.84766 59.1246C1.84766 90.6715 27.4214 116.245 58.9681 116.245Z" stroke="white" stroke-width="0.218996" stroke-miterlimit="22.93"/>
<path d="M59.5372 104.212C84.8701 104.212 105.406 83.6751 105.406 58.3421C105.406 33.0092 84.8701 12.4728 59.5372 12.4728C34.2043 12.4728 13.668 33.0092 13.668 58.3421C13.668 83.6751 34.2043 104.212 59.5372 104.212Z" stroke="white" stroke-width="0.218996" stroke-miterlimit="22.93"/>
<path d="M32.7773 33.861V24.1329H34.6952V33.861H32.7773Z" fill="white"/>
<path d="M39.8335 34.0548C38.8787 34.0548 38.0727 33.8422 37.4153 33.4156C36.758 32.9889 36.2897 32.4011 36.0117 31.6506L37.6516 30.6917C38.031 31.6826 38.7773 32.1787 39.889 32.1787C40.4074 32.1787 40.7965 32.0856 41.0564 31.9008C41.3163 31.7159 41.4455 31.4658 41.4455 31.1503C41.4455 30.807 41.2927 30.543 40.9869 30.3582C40.6812 30.1636 40.135 29.9551 39.3471 29.7328C38.4952 29.4729 37.8225 29.1727 37.332 28.8295C36.7205 28.375 36.4147 27.708 36.4147 26.8283C36.4147 25.9486 36.7246 25.2398 37.3459 24.7298C37.9671 24.2017 38.7217 23.9376 39.6111 23.9376C40.3893 23.9376 41.08 24.128 41.6818 24.5074C42.2835 24.8868 42.7519 25.4246 43.0854 26.1195L41.4733 27.0506C41.0842 26.2168 40.463 25.7999 39.6111 25.7999C39.222 25.7999 38.9121 25.8902 38.68 26.0709C38.4479 26.2515 38.3326 26.485 38.3326 26.7727C38.3326 27.0784 38.4576 27.3286 38.7078 27.5231C38.9857 27.7177 39.4763 27.922 40.1809 28.1346L40.848 28.357C40.9689 28.3945 41.1773 28.4723 41.4733 28.5932C41.7513 28.6947 41.9556 28.7919 42.0848 28.8851C42.5393 29.163 42.845 29.4507 43.002 29.7467C43.2425 30.1358 43.3634 30.5944 43.3634 31.1225C43.3634 32.0217 43.034 32.7346 42.3767 33.2627C41.7193 33.7908 40.8716 34.0548 39.8335 34.0548Z" fill="white"/>
<path d="M52.7942 32.5956C51.8117 33.5684 50.6165 34.0548 49.2088 34.0548C47.801 34.0548 46.6058 33.5684 45.6233 32.5956C44.6505 31.6048 44.1641 30.404 44.1641 28.9962C44.1641 27.5884 44.6505 26.3835 45.6233 25.4107C46.5961 24.4379 47.801 23.9376 49.2088 23.9376C50.6165 23.9376 51.8117 24.4282 52.7942 25.4107C53.7768 26.3835 54.2674 27.5787 54.2674 28.9962C54.2674 30.4138 53.7768 31.6131 52.7942 32.5956ZM46.9713 31.2893C47.5647 31.8827 48.3096 32.1787 49.2088 32.1787C50.1079 32.1787 50.8528 31.8827 51.4462 31.2893C52.048 30.6875 52.3495 29.9232 52.3495 28.9962C52.3495 28.0693 52.048 27.3049 51.4462 26.7032C50.8445 26.1014 50.0982 25.7999 49.2088 25.7999C48.3193 25.7999 47.5731 26.1014 46.9713 26.7032C46.3696 27.3049 46.068 28.0693 46.068 28.9962C46.068 29.9232 46.3696 30.6875 46.9713 31.2893Z" fill="white"/>
<path d="M65.5537 27.3147C65.5537 28.0652 65.3592 28.7225 64.97 29.2881H64.9839L61.9543 33.8603H59.7586L61.9265 30.6918C60.9162 30.682 60.0921 30.3624 59.4528 29.7328C58.8233 29.1033 58.5078 28.2973 58.5078 27.3147C58.5078 26.3322 58.8316 25.5039 59.4806 24.8827C60.138 24.2532 60.9857 23.9377 62.0238 23.9377C63.0619 23.9377 63.9097 24.2532 64.567 24.8827C65.2244 25.5122 65.5537 26.3238 65.5537 27.3147ZM60.4117 27.3147C60.4117 27.7872 60.5646 28.1694 60.8703 28.4612C61.1761 28.7531 61.561 28.899 62.0238 28.899C62.4866 28.899 62.8966 28.7531 63.1981 28.4612C63.4997 28.1694 63.6498 27.7872 63.6498 27.3147C63.6498 26.8422 63.4997 26.4628 63.1981 26.1751C62.8966 25.8875 62.5061 25.7443 62.0238 25.7443C61.5416 25.7443 61.1761 25.8902 60.8703 26.1821C60.5646 26.4739 60.4117 26.8519 60.4117 27.3147Z" fill="white"/>
<path d="M70.2428 34.0548C69.0296 34.0548 68.0748 33.5962 67.38 32.679C66.6948 31.7437 66.3516 30.5152 66.3516 28.9962C66.3516 27.4773 66.6948 26.2543 67.38 25.3274C68.0748 24.4004 69.0296 23.9376 70.2428 23.9376C71.456 23.9376 72.4288 24.4004 73.1056 25.3274C73.7908 26.2543 74.134 27.4773 74.134 28.9962C74.134 30.5152 73.7908 31.7437 73.1056 32.679C72.4288 33.5962 71.4755 34.0548 70.2428 34.0548ZM72.2301 28.9962C72.2301 27.9581 72.0606 27.166 71.7228 26.6198C71.3851 26.0736 70.8918 25.7999 70.2428 25.7999C69.5938 25.7999 69.1032 26.0736 68.7697 26.6198C68.4361 27.166 68.2694 27.9581 68.2694 28.9962C68.2694 30.0344 68.4361 30.8237 68.7697 31.3657C69.1032 31.9077 69.5938 32.1787 70.2428 32.1787C70.8918 32.1787 71.3851 31.9049 71.7228 31.3588C72.0606 30.8126 72.2301 30.0246 72.2301 28.9962Z" fill="white"/>
<path d="M79.0045 34.0548C77.7913 34.0548 76.8365 33.5962 76.1417 32.679C75.4565 31.7437 75.1133 30.5152 75.1133 28.9962C75.1133 27.4773 75.4565 26.2543 76.1417 25.3274C76.8365 24.4004 77.7913 23.9376 79.0045 23.9376C80.2177 23.9376 81.1905 24.4004 81.8673 25.3274C82.5525 26.2543 82.8957 27.4773 82.8957 28.9962C82.8957 30.5152 82.5525 31.7437 81.8673 32.679C81.1905 33.5962 80.2372 34.0548 79.0045 34.0548ZM80.9918 28.9962C80.9918 27.9581 80.8223 27.166 80.4846 26.6198C80.1469 26.0736 79.6535 25.7999 79.0045 25.7999C78.3555 25.7999 77.8649 26.0736 77.5314 26.6198C77.1979 27.166 77.0311 27.9581 77.0311 28.9962C77.0311 30.0344 77.1979 30.8237 77.5314 31.3657C77.8649 31.9077 78.3555 32.1787 79.0045 32.1787C79.6535 32.1787 80.1469 31.9049 80.4846 31.3588C80.8223 30.8126 80.9918 30.0246 80.9918 28.9962Z" fill="white"/>
<path d="M83.5273 25.0363L86.0844 24.1329H87.7521V33.861H85.8343V26.1619L83.9999 26.6761L83.5273 25.0363Z" fill="white"/>
<path d="M30.8611 86.53C29.3268 86.53 28.0525 86.0172 27.0366 84.9915C26.0304 83.9757 25.5273 82.711 25.5273 81.1962C25.5273 79.6814 26.0304 78.407 27.0366 77.4009C28.0525 76.3752 29.3282 75.8624 30.8611 75.8624C31.7894 75.8624 32.6469 76.0806 33.4335 76.5142C34.2201 76.9492 34.8329 77.5384 35.2721 78.2805L33.528 79.2923C33.2737 78.8337 32.9123 78.4737 32.444 78.2152C31.9757 77.9567 31.4476 77.8275 30.8611 77.8275C29.8647 77.8275 29.0586 78.1402 28.443 78.7656C27.8371 79.4007 27.5341 80.2123 27.5341 81.1976C27.5341 82.1829 27.8371 82.9806 28.443 83.6157C29.0586 84.2411 29.8647 84.5538 30.8611 84.5538C31.4476 84.5538 31.9771 84.4245 32.451 84.166C32.9248 83.9076 33.2834 83.5532 33.528 83.1029L35.2721 84.1146C34.8329 84.8567 34.2187 85.446 33.4335 85.881C32.6469 86.316 31.7894 86.5328 30.8611 86.5328V86.53Z" fill="white"/>
<path d="M38.651 82.0896V84.391H42.9744V86.3255H36.6289V76.0665H42.9007V78.001H38.651V80.1843H42.5352V82.0896H38.651Z" fill="white"/>
<path d="M52.2048 86.3255H50.0215L47.955 82.765H46.4166V86.3255H44.3945V76.0665H48.4984C49.4462 76.0665 50.2522 76.3987 50.9165 77.063C51.5808 77.7273 51.9129 78.5277 51.9129 79.4658C51.9129 80.1009 51.7323 80.6902 51.3709 81.2322C51.0096 81.7741 50.5302 82.1827 49.9354 82.4565L52.2076 86.3255H52.2048ZM48.497 77.9579H46.4166V80.9917H48.497C48.8778 80.9917 49.2058 80.843 49.4795 80.5442C49.7533 80.2468 49.8895 79.8869 49.8895 79.4672C49.8895 79.0475 49.7519 78.6903 49.4795 78.3971C49.2058 78.1039 48.8792 77.9579 48.497 77.9579Z" fill="white"/>
<path d="M52.6328 76.0665H60.1804V78.001H57.4107V86.3255H55.3886V78.001H52.6328V76.0665Z" fill="white"/>
<path d="M61.3086 86.3255V76.0665H63.3306V86.3255H61.3086Z" fill="white"/>
<path d="M71.3642 76.0669V78.0015H67.2603V80.4335H71.2461V82.368H67.2603V86.3245H65.2383V76.0656H71.3642V76.0669Z" fill="white"/>
<path d="M72.8438 86.3255V76.0665H74.8658V86.3255H72.8438Z" fill="white"/>
<path d="M78.7916 82.0896V84.391H83.115V86.3255H76.7695V76.0665H83.0414V78.001H78.7916V80.1843H82.6759V82.0896H78.7916Z" fill="white"/>
<path d="M84.5352 76.0665H88.6098C90.0162 76.0665 91.1892 76.5599 92.1272 77.5466C93.075 78.5236 93.5489 79.7396 93.5489 81.196C93.5489 82.6525 93.075 83.8685 92.1272 84.8454C91.1892 85.8322 90.0162 86.3255 88.6098 86.3255H84.5352V76.0665ZM86.5572 84.391H88.6084C89.4979 84.391 90.2205 84.0978 90.7778 83.5113C91.3351 82.9054 91.613 82.1341 91.613 81.196C91.613 80.258 91.3351 79.4811 90.7778 78.8946C90.2205 78.2984 89.4979 78.001 88.6084 78.001H86.5572V84.391Z" fill="white"/>
<path d="M45.4324 92.1241C45.4324 92.6744 45.2572 93.1539 44.907 93.5652L45.3462 94.0224L44.7472 94.5533L44.2831 94.0711C43.9537 94.2545 43.5951 94.3463 43.2088 94.3463C42.5987 94.3463 42.0748 94.1322 41.6398 93.7056C41.209 93.2748 40.9922 92.7467 40.9922 92.1241C40.9922 91.5015 41.2076 90.9762 41.6398 90.5481C42.0706 90.1173 42.5945 89.9005 43.2088 89.9005C43.8231 89.9005 44.347 90.1159 44.7778 90.5481C45.2128 90.9762 45.431 91.5001 45.431 92.1241H45.4324ZM43.2102 93.5221C43.3728 93.5221 43.5312 93.4957 43.6869 93.4429L42.9851 92.7105L43.584 92.1797L44.3345 92.9607C44.5054 92.7161 44.5916 92.4382 44.5916 92.1241C44.5916 91.7169 44.4596 91.382 44.1941 91.1165C43.9301 90.8525 43.6021 90.7191 43.2116 90.7191C42.8211 90.7191 42.4931 90.8511 42.229 91.1165C41.965 91.382 41.8316 91.7169 41.8316 92.1241C41.8316 92.5313 41.9636 92.8606 42.229 93.1261C42.4931 93.3901 42.8211 93.5235 43.2116 93.5235L43.2102 93.5221Z" fill="white"/>
<path d="M49.3667 89.9859H50.2339V94.2607H49.3972V91.4882L48.1937 93.4727H48.0965L46.893 91.4937V94.2593H46.0508V89.9845H46.918L48.1451 92.0052L49.3667 89.9845V89.9859Z" fill="white"/>
<path d="M52.4927 94.3468C52.073 94.3468 51.7186 94.2537 51.4295 94.0661C51.1405 93.8785 50.9348 93.62 50.8125 93.2906L51.5324 92.8695C51.6991 93.3045 52.0271 93.5227 52.5149 93.5227C52.7428 93.5227 52.9138 93.4824 53.0277 93.4004C53.1417 93.3184 53.1987 93.2086 53.1987 93.0711C53.1987 92.921 53.1319 92.8042 52.9971 92.7236C52.8623 92.6375 52.6219 92.5471 52.2773 92.4484C51.902 92.3345 51.6074 92.2025 51.392 92.051C51.1238 91.8523 50.989 91.559 50.989 91.1713C50.989 90.7836 51.1252 90.4736 51.3976 90.2499C51.67 90.0178 52.0021 89.9025 52.3926 89.9025C52.7345 89.9025 53.0375 89.9859 53.3029 90.1526C53.5669 90.3194 53.7726 90.5556 53.9199 90.8614L53.2112 91.27C53.0402 90.9031 52.7678 90.721 52.3926 90.721C52.2217 90.721 52.0855 90.7613 51.984 90.8405C51.8826 90.9197 51.8312 91.0226 51.8312 91.1491C51.8312 91.2839 51.8868 91.3936 51.9965 91.4784C52.1188 91.5646 52.3342 91.6535 52.6442 91.7466L52.9374 91.8439C52.9902 91.8606 53.0819 91.8953 53.2126 91.9481C53.3348 91.9926 53.4238 92.0357 53.4808 92.076C53.6809 92.1983 53.8143 92.3248 53.8838 92.454C53.9894 92.6249 54.0422 92.8265 54.0422 93.0585C54.0422 93.4532 53.8977 93.7673 53.6086 93.9994C53.3196 94.2315 52.9471 94.3468 52.4913 94.3468H52.4927Z" fill="white"/>
<path d="M56.8879 92.7956H54.5977V92.0382H56.8879V92.7956Z" fill="white"/>
<path d="M59.2094 94.3468C58.6757 94.3468 58.2574 94.1453 57.9517 93.7423C57.6501 93.3309 57.5 92.7917 57.5 92.1246C57.5 91.4576 57.6501 90.9197 57.9517 90.5126C58.2574 90.1054 58.6757 89.9025 59.2094 89.9025C59.743 89.9025 60.1697 90.1054 60.4671 90.5126C60.7686 90.9197 60.9187 91.4576 60.9187 92.1246C60.9187 92.7917 60.7686 93.3323 60.4671 93.7423C60.1697 94.1453 59.75 94.3468 59.2094 94.3468ZM60.0821 92.1246C60.0821 91.6688 60.0071 91.3214 59.8598 91.081C59.7111 90.8405 59.4943 90.721 59.2094 90.721C58.9245 90.721 58.7091 90.8405 58.5618 91.081C58.4158 91.3214 58.3422 91.6688 58.3422 92.1246C58.3422 92.5805 58.4158 92.9279 58.5618 93.1656C58.7077 93.4032 58.9245 93.5227 59.2094 93.5227C59.4943 93.5227 59.7111 93.4032 59.8598 93.1628C60.0085 92.9223 60.0821 92.5763 60.0821 92.1246Z" fill="white"/>
<path d="M61.207 90.7925V89.9865H63.967V90.7008L62.5203 94.2613H61.6281L63.0331 90.7925H61.207Z" fill="white"/>
<path d="M67.0709 90.6838L66.2704 91.722C66.5678 91.8081 66.8041 91.9582 66.9819 92.1736C67.1584 92.389 67.2474 92.6461 67.2474 92.9435C67.2474 93.3827 67.0987 93.7273 66.8013 93.9761C66.5122 94.2249 66.1523 94.3485 65.7201 94.3485C65.3824 94.3485 65.0836 94.2707 64.8223 94.1137C64.561 93.9566 64.372 93.7343 64.2539 93.4452L64.9738 93.0297C65.0752 93.3591 65.324 93.5244 65.7187 93.5244C65.9341 93.5244 66.1022 93.473 66.2218 93.3688C66.3413 93.2646 66.4024 93.1242 66.4024 92.9449C66.4024 92.7656 66.3427 92.6295 66.2218 92.5238C66.1009 92.4182 65.9341 92.3654 65.7187 92.3654H65.5352L65.2114 91.8776L66.0536 90.7783H64.3804V89.9904H67.0667V90.6866L67.0709 90.6838Z" fill="white"/>
<path d="M70.6836 91.3847C70.6836 91.7141 70.5975 92.0032 70.4265 92.2519H70.4321L69.1007 94.2615H68.1363L69.0882 92.869C68.6449 92.8648 68.2822 92.7244 68.0015 92.4479C67.7249 92.1713 67.5859 91.8169 67.5859 91.3847C67.5859 90.9525 67.7277 90.5884 68.014 90.316C68.303 90.0395 68.6755 89.9005 69.1313 89.9005C69.5871 89.9005 69.9596 90.0395 70.2486 90.316C70.5377 90.5926 70.6822 90.9498 70.6822 91.3847H70.6836ZM68.4239 91.3847C68.4239 91.5918 68.4906 91.76 68.6255 91.8878C68.7603 92.0157 68.9284 92.0796 69.1327 92.0796C69.337 92.0796 69.5163 92.0157 69.6483 91.8878C69.7803 91.76 69.847 91.5918 69.847 91.3847C69.847 91.1777 69.7803 91.0109 69.6483 90.8844C69.5163 90.758 69.3439 90.6954 69.1327 90.6954C68.9215 90.6954 68.7603 90.7594 68.6255 90.8872C68.4906 91.0151 68.4239 91.1818 68.4239 91.3847Z" fill="white"/>
<path d="M73.814 89.3751L71.3709 94.8701H71.0234L73.4666 89.3751H73.814Z" fill="white"/>
<path d="M78.0753 94.2613H77.1595L76.9024 93.4913H75.1986L74.9415 94.2613H74.0312L75.5266 89.9865H76.5703L78.0726 94.2613H78.0753ZM76.0547 90.9579L75.4682 92.7048H76.6412L76.0547 90.9579Z" fill="white"/>
<path d="M65.0714 8.66224L65.3479 5.02255L66.5236 5.11149L66.0692 11.079L65.1742 11.0109L62.8951 7.16829L62.6171 10.8163L61.4414 10.7274L61.8958 4.75989L62.7908 4.82798L65.0714 8.66224Z" fill="white"/>
<path d="M60.7494 10.6701L59.4764 10.7049L58.2145 8.66058L57.3167 8.6856L57.3737 10.7619L56.1938 10.7938L56.0312 4.81243L58.4244 4.74711C58.9775 4.73182 59.4527 4.91249 59.8502 5.29049C60.2477 5.66711 60.4547 6.12989 60.4686 6.67605C60.4784 7.04711 60.3825 7.39315 60.1796 7.71418C59.9767 8.0366 59.7043 8.28119 59.3624 8.45073L60.748 10.6715L60.7494 10.6701ZM58.4549 5.84916L57.2417 5.88252L57.2903 7.65164L58.5036 7.61829C58.7259 7.61273 58.9135 7.51962 59.0692 7.34173C59.2234 7.16385 59.2985 6.95261 59.2915 6.70663C59.2846 6.46203 59.1998 6.25635 59.0358 6.08959C58.8718 5.92282 58.6787 5.84222 58.4563 5.84916H58.4549Z" fill="white"/>
<path d="M72.1824 12.3784L70.933 12.0893L70.826 10.9595L68.5024 10.4217L67.909 11.3903L66.668 11.1026L70.0575 5.74524L71.482 6.0746L72.181 12.3784H72.1824ZM70.4689 7.23503L69.1181 9.43219L70.7176 9.80186L70.4689 7.23503Z" fill="white"/>
<path d="M52.5636 8.72663L52.7303 10.058L55.2332 9.74531L55.3736 10.8654L51.7005 11.3254L50.957 5.38712L54.587 4.93268L54.7274 6.0528L52.2675 6.36132L52.426 7.62458L54.6745 7.34386L54.8121 8.4473L52.5636 8.72802V8.72663Z" fill="white"/>
<path d="M74.2187 6.71594L78.3948 8.11123L78.0377 9.18132L76.5048 8.6699L74.9664 13.2755L73.8477 12.9016L75.3861 8.29606L73.8616 7.78742L74.2187 6.71733V6.71594Z" fill="white"/>
<path d="M45.4102 6.57848L49.7002 5.58899L49.9546 6.68826L48.38 7.05098L49.4723 11.783L48.323 12.0484L47.2307 7.31642L45.6645 7.67775L45.4102 6.57848Z" fill="white"/>
<path d="M77.0938 14.0632L79.2992 8.50012L80.3957 8.93511L78.1902 14.4982L77.0938 14.0632Z" fill="white"/>
<path d="M44.2395 10.7674L43.0568 7.31388L44.1728 6.9317L46.1114 12.5935L45.2623 12.8839L41.6504 10.2532L42.8359 13.715L41.7199 14.0971L39.7812 8.43539L40.6304 8.14493L44.2395 10.7674Z" fill="white"/>
<path d="M84.0683 16.5066C83.2581 16.765 82.4674 16.6969 81.6961 16.3037C80.9248 15.9104 80.405 15.31 80.1396 14.5026C79.8839 13.6868 79.9519 12.8947 80.3466 12.122C80.7427 11.3451 81.3431 10.8267 82.1491 10.5655C82.9621 10.3014 83.7542 10.3667 84.5255 10.76C85.2968 11.1533 85.8152 11.7565 86.0778 12.5695C86.3447 13.3769 86.2794 14.169 85.8833 14.9459C85.4872 15.7227 84.8827 16.2425 84.0697 16.5066H84.0683ZM81.243 14.1635C81.4014 14.654 81.728 15.0251 82.22 15.2766C82.7119 15.5282 83.2039 15.574 83.6945 15.4142C84.192 15.253 84.5714 14.9181 84.8299 14.4108C85.0884 13.9036 85.137 13.4005 84.9758 12.9016C84.8146 12.4027 84.4894 12.0302 84.0016 11.7815C83.5138 11.5327 83.0219 11.4896 82.5229 11.6508C82.024 11.8121 81.646 12.147 81.3875 12.6542C81.129 13.1615 81.0804 13.6646 81.2416 14.1635H81.243Z" fill="white"/>
<path d="M39.6412 15.0629L37.1758 9.60957L38.2514 9.12317L40.7168 14.5765L39.6425 15.0629H39.6412Z" fill="white"/>
<path d="M89.3583 18.244L91.4749 15.27L92.4366 15.9537L88.9664 20.8289L88.2354 20.3078L88.2674 15.8398L86.1453 18.8208L85.1836 18.137L88.6537 13.2618L89.3847 13.783L89.3569 18.244H89.3583Z" fill="white"/>
<path d="M30.3217 13.3011L34.1337 11.0997L34.6979 12.0767L33.2985 12.8841L35.7263 17.0895L34.7049 17.6787L32.277 13.4734L30.8845 14.2766L30.3203 13.2997L30.3217 13.3011Z" fill="white"/>
<path d="M93.6894 24.9086L92.7194 24.0706L93.1516 23.02L91.3463 21.4621L90.3707 22.043L89.4062 21.2106L94.9012 18.049L96.0074 19.0037L93.6894 24.9073V24.9086ZM94.5691 19.5582L92.3511 20.8729L93.5935 21.9457L94.5691 19.5582Z" fill="white"/>
<path d="M33.1405 18.6703L32.1038 19.4096L29.9164 18.4187L29.1854 18.9399L30.3916 20.6312L29.4313 21.3163L25.957 16.4453L27.9054 15.0556C28.3557 14.7346 28.8504 14.6192 29.391 14.7096C29.9316 14.7999 30.3611 15.0681 30.6779 15.5128C30.8933 15.8144 31.0073 16.1549 31.0184 16.5357C31.0309 16.9151 30.942 17.2722 30.7516 17.603L33.1405 18.6703ZM28.5447 15.952L27.5566 16.6566L28.5836 18.0977L29.5717 17.3931C29.7524 17.2639 29.858 17.0818 29.8872 16.8484C29.9164 16.6135 29.8594 16.3967 29.7176 16.198C29.5759 15.9978 29.3897 15.8755 29.1603 15.8283C28.931 15.7824 28.7268 15.8227 28.5447 15.952Z" fill="white"/>
<path d="M24.6871 22.2813L25.5835 23.1749L27.2609 21.4906L28.0141 22.241L25.5515 24.7133L21.5547 20.7318L23.9895 18.2872L24.7427 19.0377L23.0931 20.6942L23.9436 21.542L25.4515 20.0286L26.1936 20.7679L24.6857 22.2813H24.6871Z" fill="white"/>
<path d="M99.3174 22.3943L95.6416 25.5684L97.1328 27.2959L96.2781 28.0338L94.0156 25.4128L98.5447 21.5021L99.316 22.3943H99.3174Z" fill="white"/>
<path d="M23.5244 27.1504C22.9907 27.8035 22.3292 28.169 21.5385 28.2441C20.756 28.3191 20.0417 28.094 19.3969 27.5659C18.7479 27.035 18.3838 26.3805 18.306 25.6022C18.2226 24.8128 18.4477 24.0916 18.9814 23.437C19.3038 23.0423 19.6957 22.7519 20.1543 22.5684C20.6129 22.385 21.0771 22.328 21.5468 22.3989L21.3703 23.494C21.0868 23.4426 20.8075 23.4718 20.5337 23.5815C20.2599 23.6913 20.0209 23.8706 19.818 24.1208C19.4706 24.5446 19.3246 24.9977 19.3761 25.4771C19.4358 25.9566 19.6762 26.3679 20.0959 26.7112C20.5128 27.0517 20.9603 27.2032 21.4426 27.1656C21.9234 27.1212 22.3362 26.8863 22.6836 26.4624C22.8879 26.2123 23.0171 25.9413 23.0713 25.6495C23.1255 25.3576 23.1005 25.0811 22.9935 24.8212L24.0302 24.4307C24.1942 24.8768 24.2304 25.3423 24.1428 25.8287C24.0539 26.3151 23.8482 26.7557 23.5258 27.1518L23.5244 27.1504Z" fill="white"/>
<path fill-rule="evenodd" clip-rule="evenodd" d="M38.1411 42.9525C42.1213 41.2779 47.0826 40.066 52.5984 39.506L52.4872 39.563L52.3399 39.6408L52.2899 39.6672L52.1606 39.7381C52.0953 39.7742 52.03 39.8103 51.9661 39.8465L51.8507 39.9132C51.7868 39.9507 51.7229 39.9882 51.6603 40.0257L51.5297 40.105C51.4602 40.148 51.3907 40.1911 51.3212 40.2356L51.2309 40.2926C51.1614 40.337 51.0933 40.3815 51.0252 40.4274L50.9126 40.5038C50.8501 40.5469 50.7876 40.59 50.725 40.6331L50.6291 40.7011L50.5833 40.7331L50.4304 40.8443L50.4026 40.8651L50.3998 40.8679L50.3067 40.9374L50.2998 40.943L50.2928 40.9485L50.2859 40.9541L50.2789 40.9596L50.1733 41.0402L50.1664 41.0458L50.1594 41.0514L50.1525 41.0569L50.1455 41.0625L50.1386 41.068L50.1316 41.0736L50.0204 41.1598L50.0135 41.1653L50.0065 41.1709L49.9996 41.1764L49.9926 41.182L49.9857 41.1876L49.9787 41.1931L49.9718 41.1987L49.9246 41.2376L49.9218 41.2404H49.919L49.9162 41.2445H49.9134L49.9107 41.2487H49.9079L49.9051 41.2529H49.9023L49.8995 41.257H49.8968L49.894 41.2612H49.8912L49.8884 41.2654H49.8856L49.8829 41.2695L49.8801 41.2723H49.8773L49.8745 41.2765H49.8717L49.869 41.2807L49.8662 41.2834H49.8634L49.8606 41.2876H49.8578L49.8551 41.2918H49.8523L49.8495 41.296L49.8467 41.2987H49.8439L49.8412 41.3029C49.7911 41.3432 49.7411 41.3849 49.6925 41.4266H49.6897L49.6869 41.4308H49.6841L49.6814 41.4349H49.6786L49.6758 41.4391H49.673L49.6702 41.4433H49.6675L49.6647 41.4474H49.6619L49.6591 41.4516H49.6563L49.6536 41.4558H49.6508L49.648 41.4599H49.6452L49.6424 41.4641H49.6397L49.6369 41.4683H49.6341L49.6313 41.4724H49.6285L49.6244 41.478H49.6216L49.6188 41.4822H49.616L49.6063 41.4919H49.6035L49.6007 41.4961H49.598L49.5938 41.5016H49.591L49.5882 41.5058H49.5855L49.5827 41.51H49.5799L49.5757 41.5155H49.573L49.5702 41.5197H49.5674L49.5646 41.5239H49.5618L49.5591 41.528H49.5563L49.5535 41.5322H49.5507L49.5479 41.5364H49.5452L49.5424 41.5405H49.5396L49.5368 41.5447H49.534L49.5313 41.5489H49.5285L49.4673 41.6031L49.3937 41.667L49.3909 41.6698L49.3881 41.6726L49.3853 41.6753L49.3826 41.6781H49.3798L49.377 41.6823L49.3742 41.6851H49.3714L49.3687 41.6892L49.3659 41.692L49.3631 41.6948H49.3603L49.3562 41.7004L49.3534 41.7031L49.3492 41.7073L49.3464 41.7101L49.32 41.7337L49.3172 41.7365L49.3131 41.7407L49.3103 41.7434L49.2922 41.7587C49.2352 41.8101 49.1783 41.8616 49.1213 41.913L49.049 41.9811L49.0365 41.9936C48.974 42.052 48.9128 42.1103 48.8503 42.1701L48.7363 42.2813C48.678 42.3382 48.6196 42.3966 48.5626 42.455L48.5446 42.4731L48.4653 42.5537C48.4098 42.6106 48.3556 42.669 48.3 42.7274L48.2736 42.7552L48.2527 42.7788C48.1985 42.8372 48.1443 42.8955 48.0915 42.9539L48.0095 43.0456C47.9289 43.1373 47.8483 43.2291 47.7705 43.3222L47.7427 43.3555L47.7371 43.3611C47.6857 43.4222 47.6343 43.4848 47.5843 43.5473L47.569 43.5654L47.5398 43.6015C47.4925 43.6599 47.4467 43.7182 47.4008 43.7766L47.3466 43.8475L47.3327 43.8656L47.3188 43.8836L47.3049 43.9017C47.2479 43.9753 47.1924 44.0504 47.1368 44.1254L47.1229 44.1449L47.109 44.163L47.0951 44.1824L47.0812 44.2019C47.0311 44.2714 46.9811 44.3408 46.9325 44.4103L46.9186 44.4298L46.9047 44.4492L46.8908 44.4687L46.8769 44.4882L46.863 44.5076L46.8491 44.5271C46.8088 44.5854 46.7699 44.6424 46.731 44.7008L46.7185 44.7202L46.6406 44.837L46.6281 44.8564L46.6156 44.8759L46.5531 44.9746L46.5406 44.994L46.4905 45.0732L46.4836 45.083L46.428 45.1733L46.4238 45.1802L46.4197 45.1872L46.4155 45.1941L46.3682 45.2706L46.3641 45.2775L46.3599 45.2845L46.3557 45.2914L46.3516 45.2984C46.3196 45.3526 46.2863 45.4068 46.2543 45.461C45.5177 45.322 44.8062 45.1719 44.1225 45.0121C41.7155 44.4465 39.667 43.7572 38.0911 42.9803M28.2852 52.5458C28.6145 49.0909 31.7539 45.9613 36.7055 43.6001C38.483 44.6202 40.9247 45.5027 43.8473 46.1892C44.4324 46.3268 45.0383 46.456 45.6609 46.5783L45.6414 46.6186L45.5705 46.7701C45.5441 46.8257 45.5191 46.8813 45.4941 46.9369C45.4663 47.0008 45.4371 47.0647 45.4093 47.1286L45.3412 47.2885L45.2606 47.4844L45.212 47.6081C45.1814 47.6859 45.1522 47.7637 45.1231 47.843L45.0772 47.9666C45.0508 48.0375 45.0258 48.1084 45.0021 48.1807L44.9577 48.3113C44.9313 48.3905 44.9063 48.4683 44.8812 48.5475L44.8437 48.6698C44.8173 48.7546 44.7923 48.8408 44.7673 48.9256L44.7437 49.0103C44.7173 49.1048 44.6909 49.2007 44.6658 49.2966L44.6478 49.3689C44.6228 49.4689 44.5977 49.569 44.5741 49.6705L44.5588 49.7372C44.5352 49.8414 44.5116 49.9456 44.4907 50.0512L44.4824 50.0901C44.4602 50.1985 44.4393 50.3069 44.4199 50.4167L44.4087 50.482C44.3893 50.5918 44.3712 50.703 44.3531 50.8142V50.8267L44.349 50.8392C44.3309 50.9559 44.3142 51.0727 44.3003 51.1908L44.2962 51.2283C44.2809 51.3478 44.267 51.466 44.2559 51.5855V51.5911L44.2545 51.5994C44.242 51.7217 44.2309 51.8426 44.2211 51.9663V51.9899C44.21 52.1136 44.2031 52.2373 44.1961 52.361V52.3679V52.3721L44.1878 52.5486H28.2879L28.2852 52.5458ZM36.7055 62.7005C31.7525 60.3408 28.6145 57.2111 28.2852 53.7549H44.185L44.1933 53.9314V53.9355V53.9425C44.2003 54.0662 44.2072 54.1898 44.217 54.3135V54.3372C44.2281 54.4594 44.2392 54.5817 44.2517 54.704V54.7124L44.2531 54.7179C44.2656 54.8375 44.2795 54.957 44.2934 55.0751L44.2976 55.1126C44.3128 55.2307 44.3295 55.3475 44.3462 55.4642V55.4767L44.3504 55.4892C44.367 55.6004 44.3865 55.7116 44.406 55.8214L44.4171 55.8867C44.4365 55.9965 44.4574 56.1049 44.4796 56.2133L44.488 56.2522C44.5102 56.3564 44.5324 56.462 44.556 56.5663L44.5713 56.633C44.595 56.733 44.62 56.8345 44.645 56.9346L44.6631 57.0068C44.6881 57.1027 44.7145 57.1986 44.7409 57.2931L44.7645 57.3779C44.7895 57.464 44.8145 57.5488 44.8409 57.6336L44.8785 57.7559C44.9035 57.8351 44.9285 57.9143 44.9549 57.9921L44.9994 58.1228C45.0244 58.1936 45.0494 58.2645 45.0744 58.3368L45.1203 58.4605C45.1495 58.5397 45.1786 58.6175 45.2092 58.6953L45.2579 58.819C45.2843 58.8843 45.3107 58.9497 45.3385 59.015L45.4066 59.1748C45.4344 59.2387 45.4621 59.3026 45.4913 59.3666C45.5163 59.4222 45.5414 59.4778 45.5678 59.5333L45.6386 59.6848L45.6581 59.7251C45.0341 59.8474 44.4296 59.9767 43.8445 60.1143C40.9233 60.8008 38.4802 61.6833 36.7027 62.7019L36.7055 62.7005ZM52.5497 66.7669C47.0325 66.2082 42.0712 64.995 38.0911 63.3204C39.6656 62.5421 41.7155 61.8528 44.1225 61.2886C44.8062 61.1287 45.5177 60.9787 46.2543 60.8397L46.3418 60.9884L46.346 60.9953L46.3502 61.0023L46.3544 61.0092L46.3585 61.0162L46.3627 61.0231L46.4183 61.1135L46.4224 61.1204L46.4266 61.1274L46.4308 61.1343L46.4822 61.2177L46.4892 61.2274L46.5392 61.3066L46.5517 61.3261L46.6142 61.4248L46.6267 61.4442L46.6392 61.4637L46.7157 61.5804L46.7282 61.5999C46.7671 61.6582 46.806 61.7166 46.8463 61.7736L46.8602 61.793L46.8741 61.8125L46.888 61.832L46.9019 61.8514L46.9158 61.8709L46.9297 61.8903C46.9742 61.9543 47.0186 62.0168 47.0659 62.0807L47.0798 62.1002L47.0937 62.1196L47.1076 62.1391L47.1215 62.1585L47.1354 62.178L47.1493 62.1961C47.2007 62.2655 47.2507 62.3336 47.3035 62.4017L47.3174 62.4198L47.3313 62.4379L47.3452 62.4559L47.3994 62.5268C47.4453 62.5852 47.4925 62.6436 47.5384 62.7019L47.5676 62.7381L47.5829 62.7561C47.6329 62.8187 47.6843 62.8812 47.7357 62.9423L47.7413 62.9479L47.7691 62.9813C47.8483 63.0744 47.9275 63.1661 48.0081 63.2578L48.0901 63.3495C48.1429 63.4079 48.1971 63.4677 48.2513 63.5246L48.2722 63.5483L48.2986 63.5761C48.3528 63.6344 48.4084 63.6928 48.464 63.7498L48.5432 63.8304L48.5612 63.8484C48.6182 63.9068 48.6766 63.9652 48.7349 64.0222L48.8489 64.1333C48.9101 64.1931 48.9726 64.2515 49.0351 64.3098L49.0476 64.3223L49.1199 64.3904H49.1227C49.1783 64.4433 49.2352 64.4947 49.2922 64.5447L49.3103 64.5614H49.3131L49.3172 64.5669L49.32 64.5697L49.3464 64.5933H49.3492L49.3534 64.6003L49.3562 64.6031L49.3603 64.6072L49.3631 64.61L49.3673 64.6142H49.3701L49.3728 64.6184L49.3756 64.6211L49.3784 64.6239L49.3812 64.6267L49.3839 64.6295H49.3867L49.3895 64.6336H49.3923L49.3951 64.6378L49.3978 64.6406L49.4006 64.6434H49.4034L49.4673 64.7017L49.5285 64.7545H49.5313L49.534 64.7587H49.5368L49.5396 64.7629H49.5424L49.5452 64.7671H49.5479L49.5507 64.7712H49.5535L49.5563 64.7754H49.5591L49.5618 64.7796H49.5646L49.5674 64.7837H49.5702L49.573 64.7879H49.5757L49.5785 64.7921H49.5813L49.5841 64.7962H49.5869L49.5896 64.8004H49.5924L49.5952 64.8046H49.598L49.6007 64.8088H49.6035L49.6063 64.8129H49.6091L49.6119 64.8171H49.6146L49.6174 64.8213H49.6202L49.623 64.8254H49.6258L49.6285 64.8296H49.6313L49.6341 64.8338H49.6369L49.6397 64.8379H49.6424L49.6452 64.8421H49.648L49.6508 64.8463H49.6536L49.6563 64.8504H49.6591L49.6619 64.8546H49.6647L49.6675 64.8588H49.6702L49.673 64.8629H49.6758L49.6827 64.8699H49.6855L49.6883 64.8741H49.6911C49.7647 64.9366 49.8384 64.9978 49.912 65.0575L49.9204 65.0645L49.9676 65.1034L49.9746 65.1089L49.9815 65.1145L49.9885 65.12L49.9954 65.1256L50.0024 65.1312L50.0093 65.1367L50.0163 65.1423L50.1205 65.2243L50.1275 65.2298L50.1344 65.2354L50.1413 65.241L50.1483 65.2465L50.1552 65.2521L50.1622 65.2576L50.2734 65.3438L50.2803 65.3494L50.2873 65.3549L50.2942 65.3605L50.3012 65.366L50.3943 65.4355L50.3971 65.4383L50.4249 65.4591L50.5777 65.5703L50.6236 65.6023L50.7236 65.6732C50.782 65.7135 50.8404 65.7538 50.8988 65.7941L51.0405 65.8886L51.2128 66.0011L51.3518 66.0901C51.406 66.1248 51.4616 66.1596 51.5172 66.1929L51.6575 66.2777L51.8354 66.3819L51.9786 66.4639C52.0369 66.4973 52.0953 66.5292 52.1551 66.5626L52.319 66.6515L52.465 66.728L52.5956 66.7947L52.5497 66.7669ZM80.8751 63.3204C76.8963 64.9936 71.935 66.2068 66.4178 66.7669L66.5081 66.721C66.5776 66.6849 66.6471 66.6487 66.7166 66.6112L66.7958 66.5695C66.8875 66.5195 66.9779 66.4695 67.0668 66.4181L67.1669 66.3597L67.3447 66.2541L67.4601 66.1846C67.5435 66.1332 67.6269 66.0817 67.7089 66.0289L67.8186 65.9581L67.9757 65.8552L68.1035 65.7691L68.2592 65.662C68.312 65.6245 68.3648 65.5884 68.4176 65.5495C68.4774 65.5064 68.5357 65.4633 68.5941 65.4202L68.7233 65.3229L68.8512 65.2257L68.9818 65.1242L69.0986 65.0311C69.1778 64.9672 69.2556 64.9032 69.3334 64.8379L69.4363 64.7518L69.5641 64.642L69.6837 64.5364C69.7545 64.4738 69.824 64.4099 69.8935 64.346C69.9296 64.3126 69.9658 64.2793 70.0005 64.2459C70.0436 64.2056 70.0867 64.1639 70.1284 64.1236L70.2312 64.0236L70.3493 63.9068C70.3938 63.8623 70.4355 63.8193 70.48 63.7734C70.5453 63.7067 70.6106 63.6386 70.6745 63.5691L70.7496 63.4885L70.8816 63.344L70.9622 63.2536C71.0414 63.1633 71.1206 63.073 71.1984 62.9799L71.2526 62.9159C71.2971 62.8631 71.3416 62.8089 71.3847 62.7547L71.4444 62.6797C71.4875 62.6255 71.5306 62.5727 71.5723 62.5185L71.6126 62.4671C71.6974 62.3573 71.7807 62.2461 71.8641 62.1321L71.9072 62.0738C71.9489 62.0168 71.9906 61.9584 72.0309 61.9001L72.0809 61.8292C72.1587 61.7166 72.2352 61.604 72.3088 61.4901L72.3464 61.4331L72.4492 61.2719L72.5117 61.1704C72.5465 61.1135 72.5826 61.0565 72.616 60.9995L72.6563 60.9328L72.7132 60.8369C73.4498 60.9759 74.1613 61.126 74.8451 61.2858C77.2521 61.8514 79.3005 62.5407 80.8751 63.3176V63.3204ZM90.681 53.7549C90.3516 57.2097 87.2122 60.3394 82.2607 62.7005C80.4832 61.6805 78.0415 60.798 75.1189 60.1115C74.5338 59.9739 73.9293 59.8433 73.3053 59.7223C74.1766 57.9032 74.6978 55.8853 74.7812 53.7549H90.681ZM82.2607 43.6001C87.2136 45.9599 90.3516 49.0895 90.681 52.5458H74.7812C74.6978 50.4153 74.1766 48.3975 73.3053 46.5783C73.9293 46.456 74.5338 46.3268 75.1189 46.1892C78.0401 45.5027 80.4832 44.6202 82.2607 43.6001ZM66.4178 39.5338C71.935 40.0924 76.8949 41.3057 80.8751 42.9803C79.3005 43.7585 77.2507 44.4479 74.8451 45.0121C74.1613 45.1733 73.4498 45.3234 72.7132 45.461L72.6563 45.3651L72.616 45.2984C72.5812 45.2414 72.5465 45.1844 72.5117 45.1274L72.4492 45.026C72.4158 44.9718 72.3811 44.9176 72.3464 44.8648L72.3088 44.8078C72.2338 44.6938 72.1574 44.5813 72.0809 44.4687L72.0309 44.3978C71.9906 44.3395 71.9489 44.2811 71.9072 44.2241L71.8641 44.1657C71.7821 44.0532 71.6988 43.942 71.6126 43.8308L71.5723 43.7794C71.5306 43.7252 71.4875 43.671 71.4444 43.6182L71.3847 43.5431C71.3402 43.4889 71.2971 43.4347 71.2526 43.3819L71.1984 43.318C71.1206 43.2263 71.0414 43.1346 70.9622 43.0442L70.8816 42.9539C70.8385 42.9053 70.794 42.8566 70.7496 42.8094L70.6745 42.7288C70.6106 42.6607 70.5453 42.5926 70.48 42.5245C70.4369 42.48 70.3938 42.4355 70.3493 42.3911L70.2312 42.2743L70.1284 42.1743C70.0867 42.1326 70.0436 42.0923 70.0005 42.052L69.8935 41.9519C69.824 41.888 69.7545 41.824 69.6837 41.7615L69.5641 41.6559C69.5224 41.6184 69.4794 41.5822 69.4363 41.5461L69.3334 41.4599C69.2556 41.3946 69.1778 41.3307 69.0986 41.2668L68.9818 41.1737L68.8512 41.0722L68.7233 40.9749L68.5941 40.8776C68.5357 40.8346 68.476 40.7915 68.4176 40.7484L68.2592 40.6358L68.1035 40.5288L67.9757 40.4427C67.9243 40.4079 67.8715 40.3746 67.8186 40.3398L67.7089 40.2689C67.6269 40.2161 67.5435 40.1647 67.4601 40.1133L67.3447 40.0438L67.1669 39.9382L67.0668 39.8798C66.9765 39.8284 66.8861 39.7784 66.7958 39.7283L66.7166 39.6866C66.6471 39.6491 66.579 39.613 66.5081 39.5769L66.4178 39.531V39.5338ZM73.5665 53.7549C73.479 55.813 72.9481 57.7573 72.0656 59.4944C68.5093 58.8816 64.4305 58.5202 60.089 58.4897V53.7549H73.5665ZM72.0656 46.8048C72.9481 48.542 73.479 50.4862 73.5665 52.5444H60.089V47.8096C64.4305 47.779 68.5093 47.4177 72.0656 46.8048ZM60.089 43.7585C62.3751 43.9031 64.4402 44.8606 65.9981 46.3434C64.1081 46.4963 62.1291 46.5853 60.089 46.6005V43.7585ZM52.968 46.3434C54.5245 44.8606 56.5897 43.9031 58.8772 43.7585V46.6005C56.8384 46.5853 54.8595 46.4977 52.968 46.3434ZM50.0663 52.5444C50.1872 50.6446 50.8737 48.8978 51.9605 47.4691C54.1563 47.6748 56.4757 47.7929 58.8772 47.8096V52.5444H50.0677H50.0663ZM51.9605 58.8301C50.8751 57.4015 50.1872 55.6546 50.0663 53.7549H58.8758V58.4897C56.4757 58.5063 54.1549 58.6245 51.9591 58.8301H51.9605ZM58.8772 62.5407C56.5911 62.3962 54.5259 61.4387 52.968 59.9558C54.8581 59.8016 56.837 59.714 58.8772 59.6987V62.5407ZM65.9981 59.9558C64.4416 61.4387 62.3765 62.3962 60.089 62.5407V59.6987C62.1277 59.714 64.1067 59.8016 65.9981 59.9558Z" fill="white"/>
<path d="M68.2838 106.191C68.5338 101.774 65.1559 97.9909 60.739 97.7409C56.322 97.4908 52.5387 100.869 52.2887 105.286C52.0386 109.703 55.4166 113.486 59.8335 113.736C64.2504 113.986 68.0338 110.608 68.2838 106.191Z" fill="white"/>
<path d="M68.2838 106.191C68.5338 101.774 65.1559 97.9909 60.739 97.7409C56.322 97.4908 52.5387 100.869 52.2887 105.286C52.0386 109.703 55.4166 113.486 59.8335 113.736C64.2504 113.986 68.0338 110.608 68.2838 106.191Z" stroke="white" stroke-width="0.0879067" stroke-miterlimit="22.93"/>
<path fill-rule="evenodd" clip-rule="evenodd" d="M54.6933 103.516L59.5684 108.102L69.498 98.4825L71.3783 100.589L59.5448 112.406L52.7227 105.453L54.6933 103.516Z" fill="#2E2E2E"/>
<path d="M54.6933 103.516L59.5684 108.102L69.498 98.4825L71.3783 100.589L59.5448 112.406L52.7227 105.453L54.6933 103.516Z" stroke="white" stroke-width="0.0879067" stroke-miterlimit="22.93"/>
</g>
</g>
<defs>
<clipPath id="clip0_26330_59185">
<rect width="116.999" height="117" fill="white"/>
</clipPath>
</defs>
</svg>
