<svg width="117" height="117" viewBox="0 0 117 117" fill="none" xmlns="http://www.w3.org/2000/svg">
<g clip-path="url(#clip0_26330_59241)">
<mask id="mask0_26330_59241" style="mask-type:luminance" maskUnits="userSpaceOnUse" x="0" y="0" width="118" height="118">
<path d="M117.383 0.308594H0.382812V117.309H117.383V0.308594Z" fill="white"/>
</mask>
<g mask="url(#mask0_26330_59241)">
<path d="M58.8771 114.239C89.4934 114.239 114.313 89.4191 114.313 58.8029C114.313 28.1866 89.4934 3.36719 58.8771 3.36719C28.2608 3.36719 3.44141 28.1866 3.44141 58.8029C3.44141 89.4191 28.2608 114.239 58.8771 114.239Z" stroke="white" stroke-width="0.0837852" stroke-miterlimit="22.9256"/>
</g>
<mask id="mask1_26330_59241" style="mask-type:luminance" maskUnits="userSpaceOnUse" x="0" y="0" width="118" height="118">
<path d="M117.383 0.308594H0.382812V117.309H117.383V0.308594Z" fill="white"/>
</mask>
<g mask="url(#mask1_26330_59241)">
<path d="M58.8829 115.919C90.4278 115.919 116 90.3468 116 58.8018C116 27.2568 90.4278 1.68457 58.8829 1.68457C27.3379 1.68457 1.76562 27.2568 1.76562 58.8018C1.76562 90.3468 27.3379 115.919 58.8829 115.919Z" stroke="white" stroke-width="0.20947" stroke-miterlimit="22.9256"/>
</g>
<mask id="mask2_26330_59241" style="mask-type:luminance" maskUnits="userSpaceOnUse" x="0" y="0" width="118" height="118">
<path d="M117.383 0.308594H0.382812V117.309H117.383V0.308594Z" fill="white"/>
</mask>
<g mask="url(#mask2_26330_59241)">
<path d="M59.4643 103.899C84.8 103.899 105.339 83.3606 105.339 58.0248C105.339 32.6891 84.8 12.1504 59.4643 12.1504C34.1285 12.1504 13.5898 32.6891 13.5898 58.0248C13.5898 83.3606 34.1285 103.899 59.4643 103.899Z" stroke="white" stroke-width="0.20947" stroke-miterlimit="22.9256"/>
</g>
<mask id="mask3_26330_59241" style="mask-type:luminance" maskUnits="userSpaceOnUse" x="0" y="0" width="118" height="118">
<path d="M117.383 0.308594H0.382812V117.309H117.383V0.308594Z" fill="white"/>
</mask>
<g mask="url(#mask3_26330_59241)">
<path d="M28.7227 33.7451V26.9355H30.0707V33.7451H28.7227Z" fill="white"/>
<path d="M33.6587 33.8705C32.9916 33.8705 32.4219 33.7177 31.9633 33.4258C31.5047 33.134 31.1711 32.7171 30.9766 32.189L32.13 31.5219C32.3941 32.2168 32.9222 32.5642 33.7004 32.5642C34.0617 32.5642 34.3397 32.4947 34.5203 32.3696C34.701 32.2446 34.7983 32.0639 34.7983 31.8415C34.7983 31.6053 34.6871 31.4107 34.4786 31.2856C34.2702 31.1467 33.8811 31.0077 33.3252 30.8548C32.7276 30.6742 32.2551 30.4657 31.9216 30.2295C31.4908 29.9098 31.2823 29.4512 31.2823 28.8259C31.2823 28.2005 31.5047 27.7141 31.9355 27.3528C32.3663 26.9775 32.8944 26.7969 33.5197 26.7969C34.0617 26.7969 34.5481 26.9358 34.965 27.1999C35.382 27.4639 35.7155 27.8392 35.9517 28.3256L34.8261 28.9787C34.5481 28.395 34.1173 28.1032 33.5197 28.1032C33.2418 28.1032 33.0333 28.1727 32.8666 28.2978C32.6998 28.4228 32.6164 28.5896 32.6164 28.7842C32.6164 28.9926 32.6998 29.1733 32.8805 29.3123C33.075 29.4512 33.4225 29.5902 33.9089 29.7431L34.3814 29.8959C34.4647 29.9237 34.6176 29.9793 34.8122 30.0627C35.0067 30.1322 35.1457 30.2017 35.243 30.2712C35.5626 30.4657 35.7711 30.6603 35.8822 30.8687C36.049 31.1467 36.1324 31.4663 36.1324 31.8276C36.1324 32.453 35.8961 32.9533 35.4375 33.3285C34.9789 33.6899 34.3953 33.8705 33.6587 33.8705Z" fill="white"/>
<path d="M42.7349 32.856C42.054 33.537 41.2062 33.8844 40.2196 33.8844C39.2329 33.8844 38.399 33.537 37.7042 32.856C37.0232 32.1612 36.6758 31.3273 36.6758 30.3406C36.6758 29.3539 37.0093 28.5062 37.7042 27.8253C38.3851 27.1443 39.2329 26.7969 40.2196 26.7969C41.2062 26.7969 42.0401 27.1443 42.7349 27.8253C43.4159 28.5062 43.7633 29.3401 43.7633 30.3406C43.7633 31.3412 43.4298 32.1612 42.7349 32.856ZM38.6631 31.9388C39.08 32.3557 39.5942 32.5642 40.2334 32.5642C40.8588 32.5642 41.3869 32.3557 41.8038 31.9388C42.2207 31.5219 42.4292 30.9799 42.4292 30.3406C42.4292 29.6875 42.2207 29.1594 41.8038 28.7425C41.3869 28.3256 40.8588 28.1032 40.2334 28.1032C39.6081 28.1032 39.0939 28.3117 38.6631 28.7425C38.2462 29.1594 38.0238 29.7014 38.0238 30.3406C38.0377 30.9799 38.2462 31.5219 38.6631 31.9388Z" fill="white"/>
<path d="M48.8455 25.9629L44.9543 34.7181H44.3984L48.2896 25.9629H48.8455Z" fill="white"/>
<path d="M49.8008 33.7451V26.9355H51.1488V33.7451H49.8008Z" fill="white"/>
<path d="M53.7465 30.9243V32.4529H56.6093V33.7315H52.3984V26.9219H56.5676V28.2004H53.7465V29.6457H56.3174V30.9104H53.7465V30.9243Z" fill="white"/>
<path d="M60.7977 33.8707C59.7832 33.8707 58.9355 33.5233 58.2545 32.8424C57.5874 32.1614 57.2539 31.3276 57.2539 30.327C57.2539 29.3125 57.5874 28.4787 58.2545 27.8116C58.9355 27.1306 59.7693 26.7832 60.7977 26.7832C61.4091 26.7832 61.9789 26.9222 62.507 27.214C63.0351 27.5059 63.4381 27.895 63.73 28.3814L62.5765 29.0484C62.4097 28.7427 62.1735 28.5064 61.8539 28.3397C61.5481 28.1729 61.1868 28.0756 60.7977 28.0756C60.1306 28.0756 59.6025 28.2841 59.1995 28.701C58.7965 29.1179 58.6019 29.6599 58.6019 30.3131C58.6019 30.9662 58.7965 31.4943 59.1995 31.9112C59.6025 32.3282 60.1445 32.5366 60.7977 32.5366C61.1868 32.5366 61.5342 32.4532 61.8539 32.2726C62.1735 32.1058 62.4097 31.8696 62.5626 31.5638L63.7161 32.2309C63.4242 32.7173 63.0212 33.1203 62.4931 33.3982C61.9789 33.7318 61.4091 33.8707 60.7977 33.8707Z" fill="white"/>
<path d="M71.2388 33.7437H66.6806V32.7431L69.0014 30.3528C69.5156 29.7969 69.7796 29.3522 69.7796 28.9909C69.7796 28.7268 69.6963 28.5045 69.5295 28.3516C69.3627 28.1849 69.1543 28.1015 68.8902 28.1015C68.376 28.1015 67.9869 28.3655 67.7507 28.8936L66.625 28.2266C66.8335 27.7679 67.1392 27.4066 67.5283 27.1565C67.9313 26.9063 68.376 26.7812 68.8624 26.7812C69.4739 26.7812 70.002 26.9758 70.4467 27.3649C70.8914 27.754 71.1138 28.2682 71.1138 28.9214C71.1138 29.6302 70.7386 30.3528 70.002 31.1033L68.6679 32.4374H71.225V33.7437H71.2388Z" fill="white"/>
<path d="M71.7188 28.2141V26.9355H76.1102V28.0751L73.8033 33.7451H72.3858L74.6233 28.2141H71.7188Z" fill="white"/>
<path d="M79.4192 33.8705C78.5714 33.8705 77.9044 33.5509 77.418 32.9116C76.9316 32.2585 76.6953 31.3968 76.6953 30.3406C76.6953 29.2706 76.9316 28.4228 77.418 27.7697C77.9044 27.1165 78.5714 26.7969 79.4192 26.7969C80.2808 26.7969 80.9478 27.1165 81.4203 27.7697C81.9067 28.4228 82.143 29.2706 82.143 30.3406C82.143 31.4107 81.9067 32.2585 81.4203 32.9116C80.9478 33.5509 80.2808 33.8705 79.4192 33.8705ZM80.8089 30.3406C80.8089 29.618 80.6838 29.0621 80.4475 28.673C80.2113 28.2839 79.8639 28.1032 79.4053 28.1032C78.9466 28.1032 78.6131 28.2978 78.3769 28.673C78.1406 29.0621 78.0294 29.6041 78.0294 30.3406C78.0294 31.0633 78.1406 31.6192 78.3769 31.9944C78.6131 32.3696 78.9605 32.5642 79.4053 32.5642C79.85 32.5642 80.2113 32.3696 80.4475 31.9944C80.6977 31.6053 80.8089 31.0494 80.8089 30.3406Z" fill="white"/>
<path d="M85.552 33.8705C84.7042 33.8705 84.0372 33.5509 83.5508 32.9116C83.0644 32.2585 82.8281 31.3968 82.8281 30.3406C82.8281 29.2706 83.0644 28.4228 83.5508 27.7697C84.0372 27.1165 84.7042 26.7969 85.552 26.7969C86.4136 26.7969 87.0806 27.1165 87.5532 27.7697C88.0396 28.4228 88.2758 29.2706 88.2758 30.3406C88.2758 31.4107 88.0396 32.2585 87.5532 32.9116C87.0806 33.5509 86.4136 33.8705 85.552 33.8705ZM86.9417 30.3406C86.9417 29.618 86.8166 29.0621 86.5804 28.673C86.3441 28.2839 85.9967 28.1032 85.5381 28.1032C85.0795 28.1032 84.7459 28.2978 84.5097 28.673C84.2734 29.0621 84.1622 29.6041 84.1622 30.3406C84.1622 31.0633 84.2734 31.6192 84.5097 31.9944C84.7459 32.3696 85.0934 32.5642 85.5381 32.5642C85.9828 32.5642 86.3441 32.3696 86.5804 31.9944C86.8305 31.6053 86.9417 31.0494 86.9417 30.3406Z" fill="white"/>
<path d="M88.7148 27.5609L90.5076 26.9355H91.6749V33.7451H90.3269V28.3531L89.0484 28.7144L88.7148 27.5609Z" fill="white"/>
</g>
<mask id="mask4_26330_59241" style="mask-type:luminance" maskUnits="userSpaceOnUse" x="0" y="0" width="118" height="118">
<path d="M117.383 0.308594H0.382812V117.309H117.383V0.308594Z" fill="white"/>
</mask>
<g mask="url(#mask4_26330_59241)">
<path d="M30.7779 86.2218C29.2492 86.2218 27.9707 85.7076 26.9562 84.6792C25.9556 83.6647 25.4414 82.4001 25.4414 80.8853C25.4414 79.3566 25.9417 78.092 26.9562 77.0914C27.9707 76.063 29.2492 75.5488 30.7779 75.5488C31.709 75.5488 32.5567 75.7712 33.3489 76.202C34.141 76.6328 34.7525 77.2304 35.1833 77.9669L33.4462 78.9814C33.196 78.5228 32.8347 78.1615 32.3622 77.8974C31.8897 77.6334 31.3616 77.5083 30.7779 77.5083C29.7773 77.5083 28.9713 77.828 28.3598 78.4394C27.7483 79.0787 27.4565 79.8847 27.4565 80.8714C27.4565 81.8442 27.7622 82.6503 28.3598 83.2895C28.9713 83.9149 29.7773 84.2206 30.7779 84.2206C31.3616 84.2206 31.8897 84.0956 32.3622 83.8315C32.8347 83.5675 33.196 83.22 33.4462 82.7753L35.1833 83.7898C34.7386 84.5264 34.1271 85.124 33.3489 85.5548C32.5567 85.9995 31.709 86.2218 30.7779 86.2218Z" fill="white"/>
<path d="M38.5719 81.7733V84.0802H42.894V86.0119H36.543V75.7559H42.8106V77.6876H38.5581V79.8694H42.4354V81.7733H38.5719Z" fill="white"/>
<path d="M52.1249 86.0119H49.943L47.8723 82.4543H46.3298V86.0119H44.3008V75.7559H48.4004C49.3454 75.7559 50.1515 76.0894 50.8185 76.7564C51.4856 77.4235 51.8191 78.2157 51.8191 79.1607C51.8191 79.7999 51.6385 80.3836 51.2771 80.9256C50.9158 81.4676 50.4433 81.8706 49.8457 82.1485L52.1249 86.0119ZM48.4143 77.6459H46.3298V80.6754H48.4143C48.7896 80.6754 49.1231 80.5226 49.401 80.2307C49.679 79.9389 49.8179 79.5776 49.8179 79.1468C49.8179 78.7298 49.679 78.3685 49.401 78.0767C49.1231 77.7848 48.8035 77.6459 48.4143 77.6459Z" fill="white"/>
<path d="M52.5508 75.7559H60.0969V77.6876H57.3314V86.0119H55.3024V77.6876H52.5508V75.7559Z" fill="white"/>
<path d="M61.2266 86.0119V75.7559H63.2555V86.0119H61.2266Z" fill="white"/>
<path d="M71.2888 75.7559V77.6876H67.1891V80.1196H71.1776V82.0513H67.1891V86.0119H65.1602V75.7559H71.2888Z" fill="white"/>
<path d="M72.7617 86.0119V75.7559H74.7907V86.0119H72.7617Z" fill="white"/>
<path d="M78.7087 81.7733V84.0802H83.0307V86.0119H76.6797V75.7559H82.9473V77.6876H78.6948V79.8694H82.5721V81.7733H78.7087Z" fill="white"/>
<path d="M84.4609 75.7559H88.5328C89.9364 75.7559 91.1177 76.2561 92.0488 77.2428C92.9938 78.2156 93.4663 79.4386 93.4663 80.8978C93.4663 82.357 92.9938 83.566 92.0488 84.5527C91.1177 85.5394 89.9364 86.0397 88.5328 86.0397H84.4609V75.7559ZM86.476 84.0802H88.5328C89.4222 84.0802 90.1449 83.7884 90.7008 83.2047C91.2566 82.5932 91.5346 81.8289 91.5346 80.8839C91.5346 79.9389 91.2566 79.1746 90.7008 78.577C90.1449 77.9794 89.4222 77.6876 88.5328 77.6876H86.476V84.0802Z" fill="white"/>
</g>
<mask id="mask5_26330_59241" style="mask-type:luminance" maskUnits="userSpaceOnUse" x="0" y="0" width="118" height="118">
<path d="M117.383 0.308594H0.382812V117.309H117.383V0.308594Z" fill="white"/>
</mask>
<g mask="url(#mask5_26330_59241)">
<path d="M40.9492 93.9473V89.667H41.7969V93.9473H40.9492Z" fill="white"/>
<path d="M44.0309 94.032C43.614 94.032 43.2527 93.9348 42.9748 93.7541C42.6829 93.5734 42.4745 93.3094 42.3633 92.9759L43.0859 92.5589C43.2527 92.9898 43.5862 93.2121 44.0726 93.2121C44.295 93.2121 44.4756 93.1704 44.5868 93.087C44.698 93.0037 44.7536 92.8925 44.7536 92.7535C44.7536 92.6006 44.6841 92.4895 44.5451 92.4061C44.4062 92.3227 44.1699 92.2254 43.8225 92.1281C43.4473 92.017 43.1554 91.878 42.9331 91.7251C42.669 91.5306 42.53 91.2387 42.53 90.8496C42.53 90.4605 42.669 90.1547 42.9331 89.9324C43.211 89.6961 43.5445 89.585 43.9337 89.585C44.2811 89.585 44.5729 89.6683 44.837 89.8351C45.101 90.0019 45.3095 90.2381 45.4484 90.5439L44.7397 90.9469C44.5729 90.5856 44.295 90.391 43.9198 90.391C43.753 90.391 43.614 90.4327 43.5167 90.5161C43.4195 90.5994 43.3639 90.6967 43.3639 90.8218C43.3639 90.9608 43.4195 91.072 43.5306 91.1553C43.6557 91.2387 43.8642 91.336 44.1838 91.4194L44.4756 91.5167C44.5312 91.5306 44.6146 91.5722 44.7536 91.6139C44.8787 91.6556 44.962 91.6973 45.0176 91.739C45.2122 91.8641 45.3512 91.9892 45.4207 92.1142C45.5318 92.281 45.5735 92.4895 45.5735 92.7118C45.5735 93.1009 45.4345 93.4206 45.1427 93.6568C44.8648 93.9209 44.4895 94.032 44.0309 94.032Z" fill="white"/>
</g>
<mask id="mask6_26330_59241" style="mask-type:luminance" maskUnits="userSpaceOnUse" x="0" y="0" width="118" height="118">
<path d="M117.383 0.308594H0.382812V117.309H117.383V0.308594Z" fill="white"/>
</mask>
<g mask="url(#mask6_26330_59241)">
<path d="M49.4542 89.668H50.3158V93.9483H49.482V91.1828L48.273 93.17H48.1896L46.9805 91.1967V93.9622H46.1328V89.668H46.9944L48.2174 91.6831L49.4542 89.668Z" fill="white"/>
<path d="M52.5817 94.032C52.1648 94.032 51.8035 93.9348 51.5255 93.7541C51.2337 93.5734 51.0252 93.3094 50.9141 92.9759L51.6367 92.5589C51.8035 92.9898 52.137 93.2121 52.6234 93.2121C52.8458 93.2121 53.0264 93.1704 53.1376 93.087C53.2488 93.0037 53.3044 92.8925 53.3044 92.7535C53.3044 92.6006 53.2349 92.4895 53.0959 92.4061C52.9569 92.3227 52.7207 92.2254 52.3733 92.1281C51.998 92.017 51.7062 91.878 51.4838 91.7251C51.2198 91.5306 51.0808 91.2387 51.0808 90.8496C51.0808 90.4605 51.2198 90.1547 51.4838 89.9324C51.7618 89.6961 52.0953 89.585 52.4844 89.585C52.8319 89.585 53.1237 89.6683 53.3878 89.8351C53.6518 90.0019 53.8603 90.2381 53.9992 90.5439L53.2905 90.9469C53.1237 90.5856 52.8458 90.391 52.4705 90.391C52.3038 90.391 52.1648 90.4327 52.0675 90.5161C51.9702 90.5994 51.9147 90.6967 51.9147 90.8218C51.9147 90.9608 51.9702 91.072 52.0814 91.1553C52.2065 91.2387 52.415 91.336 52.7346 91.4194L53.0264 91.5167C53.082 91.5306 53.1654 91.5722 53.3044 91.6139C53.4294 91.6556 53.5128 91.6973 53.5684 91.739C53.763 91.8641 53.9019 91.9892 53.9714 92.1142C54.0826 92.281 54.1243 92.4895 54.1243 92.7118C54.1243 93.1009 53.9853 93.4206 53.6935 93.6568C53.4016 93.9209 53.0264 94.032 52.5817 94.032Z" fill="white"/>
<path d="M56.9571 92.4751H54.6641V91.7246H56.9571V92.4751Z" fill="white"/>
</g>
<mask id="mask7_26330_59241" style="mask-type:luminance" maskUnits="userSpaceOnUse" x="0" y="0" width="118" height="118">
<path d="M117.383 0.308594H0.382812V117.309H117.383V0.308594Z" fill="white"/>
</mask>
<g mask="url(#mask7_26330_59241)">
<path d="M59.2857 94.0308C58.7577 94.0308 58.3268 93.8224 58.0211 93.4333C57.7154 93.0163 57.5625 92.4883 57.5625 91.8212C57.5625 91.1541 57.7154 90.6122 58.0211 90.2091C58.3268 89.8061 58.7438 89.5977 59.2857 89.5977C59.8277 89.5977 60.2446 89.8061 60.5504 90.2091C60.8561 90.6122 61.009 91.1541 61.009 91.8212C61.009 92.4883 60.8561 93.0302 60.5504 93.4333C60.2585 93.8224 59.8277 94.0308 59.2857 94.0308ZM60.1613 91.8073C60.1613 91.3487 60.0918 91.0013 59.9389 90.765C59.786 90.5288 59.5776 90.4037 59.2857 90.4037C58.9939 90.4037 58.7854 90.5288 58.6326 90.765C58.4797 91.0013 58.4102 91.3487 58.4102 91.8073C58.4102 92.2659 58.4797 92.6133 58.6326 92.8496C58.7854 93.0858 58.9939 93.2109 59.2857 93.2109C59.5637 93.2109 59.786 93.0858 59.9389 92.8496C60.0918 92.5994 60.1613 92.2659 60.1613 91.8073Z" fill="white"/>
<path d="M61.3008 90.474V89.668H64.0663V90.3767L62.621 93.9344H61.7316L63.1352 90.4601H61.3008V90.474Z" fill="white"/>
<path d="M67.1631 90.3628L66.3571 91.4051C66.6489 91.4885 66.8852 91.6414 67.0659 91.8637C67.2465 92.0861 67.3299 92.3362 67.3299 92.6281C67.3299 93.0728 67.177 93.4063 66.8852 93.6564C66.5934 93.9066 66.232 94.0317 65.8012 94.0317C65.4677 94.0317 65.162 93.9483 64.8979 93.7954C64.6339 93.6426 64.4532 93.4202 64.3281 93.1284L65.0508 92.7114C65.1481 93.045 65.3982 93.2117 65.8012 93.2117C66.0236 93.2117 66.1903 93.1562 66.3015 93.0589C66.4266 92.9616 66.4822 92.8087 66.4822 92.6281C66.4822 92.4474 66.4266 92.3084 66.3015 92.2111C66.1764 92.1139 66.0097 92.0583 65.8012 92.0583H65.6206L65.3009 91.5719L66.1487 90.474H64.481V89.668H67.1631V90.3628Z" fill="white"/>
<path d="M70.7648 91.0707C70.7648 91.4043 70.6815 91.6961 70.5147 91.9324L69.1806 93.9475H68.2217L69.1806 92.5577C68.7359 92.5577 68.3745 92.4188 68.0966 92.1408C67.8187 91.8629 67.6797 91.5155 67.6797 91.0847C67.6797 90.6399 67.8187 90.2925 68.1105 90.0146C68.4023 89.7366 68.7776 89.5977 69.2223 89.5977C69.6809 89.5977 70.0561 89.7366 70.334 90.0146C70.6259 90.2786 70.7648 90.6399 70.7648 91.0707ZM68.5135 91.0707C68.5135 91.2792 68.583 91.446 68.722 91.5711C68.8609 91.6961 69.0277 91.7656 69.2223 91.7656C69.4307 91.7656 69.6114 91.6961 69.7365 91.5711C69.8615 91.446 69.931 91.2792 69.931 91.0707C69.931 90.8623 69.8615 90.6955 69.7365 90.5705C69.6114 90.4454 69.4307 90.3759 69.2223 90.3759C69.0138 90.3759 68.847 90.4454 68.722 90.5705C68.5969 90.6955 68.5135 90.8623 68.5135 91.0707Z" fill="white"/>
</g>
<mask id="mask8_26330_59241" style="mask-type:luminance" maskUnits="userSpaceOnUse" x="0" y="0" width="118" height="118">
<path d="M117.383 0.308594H0.382812V117.309H117.383V0.308594Z" fill="white"/>
</mask>
<g mask="url(#mask8_26330_59241)">
<path d="M73.9027 89.0547L71.4568 94.5441H71.1094L73.5553 89.0547H73.9027Z" fill="white"/>
<path d="M78.1708 93.9463H77.2536L77.0034 93.182H75.2941L75.0439 93.9463H74.1406L75.6415 89.666H76.6838L78.1708 93.9463ZM76.1418 90.6388L75.5581 92.3899H76.7255L76.1418 90.6388Z" fill="white"/>
</g>
<mask id="mask9_26330_59241" style="mask-type:luminance" maskUnits="userSpaceOnUse" x="0" y="0" width="118" height="118">
<path d="M117.383 0.308594H0.382812V117.309H117.383V0.308594Z" fill="white"/>
</mask>
<g mask="url(#mask9_26330_59241)">
<path d="M64.9943 8.34455L65.2723 4.7035L66.4535 4.78688L65.9949 10.7488L65.1055 10.6793L62.8264 6.82976L62.5484 10.4847L61.3672 10.4013L61.8258 4.43945L62.7152 4.50894L64.9943 8.34455Z" fill="white"/>
</g>
<mask id="mask10_26330_59241" style="mask-type:luminance" maskUnits="userSpaceOnUse" x="0" y="0" width="118" height="118">
<path d="M117.383 0.308594H0.382812V117.309H117.383V0.308594Z" fill="white"/>
</mask>
<g mask="url(#mask10_26330_59241)">
<path d="M60.6686 10.3567L59.3901 10.3845L58.1254 8.34161L57.2221 8.36941L57.2777 10.4401L56.0965 10.4679L55.9297 4.49211L58.32 4.42262C58.8759 4.40872 59.3484 4.58939 59.7514 4.96461C60.1544 5.33983 60.349 5.79844 60.3768 6.35432C60.3907 6.72954 60.2934 7.07697 60.0849 7.39661C59.8765 7.71624 59.6124 7.96639 59.265 8.13316L60.6686 10.3567ZM58.3756 5.53439L57.1665 5.56218L57.2082 7.32712L58.4173 7.29933C58.6396 7.29933 58.8342 7.20205 58.9871 7.02138C59.1399 6.84072 59.2094 6.63226 59.2094 6.38212C59.2094 6.13197 59.1121 5.93741 58.9593 5.77064C58.7925 5.60388 58.5979 5.52049 58.3756 5.53439Z" fill="white"/>
</g>
<mask id="mask11_26330_59241" style="mask-type:luminance" maskUnits="userSpaceOnUse" x="0" y="0" width="118" height="118">
<path d="M117.383 0.308594H0.382812V117.309H117.383V0.308594Z" fill="white"/>
</mask>
<g mask="url(#mask11_26330_59241)">
<path d="M72.1109 12.0656L70.8602 11.7738L70.749 10.6481L68.4282 10.1061L67.8306 11.0789L66.5938 10.7871L69.9847 5.42279L71.4022 5.75632L72.1109 12.0656ZM70.3877 6.92368L69.0396 9.11943L70.6378 9.49465L70.3877 6.92368Z" fill="white"/>
</g>
<mask id="mask12_26330_59241" style="mask-type:luminance" maskUnits="userSpaceOnUse" x="0" y="0" width="118" height="118">
<path d="M117.383 0.308594H0.382812V117.309H117.383V0.308594Z" fill="white"/>
</mask>
<g mask="url(#mask12_26330_59241)">
<path d="M52.4871 8.41111L52.6538 9.74523L55.1553 9.4256L55.2943 10.5513L51.6116 11.0099L50.875 5.07579L54.5022 4.61719L54.6411 5.74286L52.1813 6.04859L52.3342 7.31323L54.5855 7.03529L54.7245 8.13316L52.4871 8.41111Z" fill="white"/>
</g>
<mask id="mask13_26330_59241" style="mask-type:luminance" maskUnits="userSpaceOnUse" x="0" y="0" width="118" height="118">
<path d="M117.383 0.308594H0.382812V117.309H117.383V0.308594Z" fill="white"/>
</mask>
<g mask="url(#mask13_26330_59241)">
<path d="M74.1369 6.39746L78.3061 7.78717L77.9448 8.85725L76.4161 8.34306L74.8874 12.9569L73.7617 12.5817L75.3043 7.98173L73.7756 7.46754L74.1369 6.39746Z" fill="white"/>
</g>
<mask id="mask14_26330_59241" style="mask-type:luminance" maskUnits="userSpaceOnUse" x="0" y="0" width="118" height="118">
<path d="M117.383 0.308594H0.382812V117.309H117.383V0.308594Z" fill="white"/>
</mask>
<g mask="url(#mask14_26330_59241)">
<path d="M45.332 6.25623L49.6262 5.26953L49.8764 6.3674L48.306 6.72873L49.4039 11.4538L48.2504 11.7178L47.1526 6.99278L45.5822 7.3541L45.332 6.25623Z" fill="white"/>
</g>
<mask id="mask15_26330_59241" style="mask-type:luminance" maskUnits="userSpaceOnUse" x="0" y="0" width="118" height="118">
<path d="M117.383 0.308594H0.382812V117.309H117.383V0.308594Z" fill="white"/>
</mask>
<g mask="url(#mask15_26330_59241)">
<path d="M77.0117 13.7483L79.2214 8.18945L80.3192 8.62026L78.1096 14.1791L77.0117 13.7483Z" fill="white"/>
</g>
<mask id="mask16_26330_59241" style="mask-type:luminance" maskUnits="userSpaceOnUse" x="0" y="0" width="118" height="118">
<path d="M117.383 0.308594H0.382812V117.309H117.383V0.308594Z" fill="white"/>
</mask>
<g mask="url(#mask16_26330_59241)">
<path d="M44.1616 10.3998L42.8552 6.99504L43.9531 6.57812L46.1072 12.1648L45.2733 12.4844L41.5628 9.99682L42.8691 13.4155L41.7712 13.8324L39.6172 8.24578L40.451 7.92615L44.1616 10.3998Z" fill="white"/>
</g>
<mask id="mask17_26330_59241" style="mask-type:luminance" maskUnits="userSpaceOnUse" x="0" y="0" width="118" height="118">
<path d="M117.383 0.308594H0.382812V117.309H117.383V0.308594Z" fill="white"/>
</mask>
<g mask="url(#mask17_26330_59241)">
<path d="M83.9899 16.1935C83.1838 16.4576 82.3917 16.3881 81.6135 15.9851C80.8352 15.5959 80.321 14.9845 80.057 14.1784C79.8068 13.3585 79.8763 12.5664 80.2654 11.802C80.6685 11.0238 81.266 10.5096 82.0721 10.2455C82.8781 9.98149 83.6702 10.051 84.4485 10.4401C85.2267 10.8292 85.7409 11.4407 86.005 12.2467C86.269 13.0528 86.1995 13.8449 85.8104 14.6231C85.4074 15.4153 84.7959 15.9295 83.9899 16.1935ZM81.1688 13.8449C81.3216 14.3313 81.6552 14.7065 82.1416 14.9567C82.628 15.2068 83.1283 15.2485 83.6147 15.0956C84.115 14.9289 84.4902 14.5953 84.7542 14.095C85.0183 13.5948 85.06 13.0806 84.9071 12.5803C84.7403 12.08 84.4207 11.7047 83.9343 11.4546C83.4479 11.2044 82.9476 11.1628 82.4612 11.3295C81.9609 11.4963 81.5857 11.8298 81.3216 12.3301C81.0437 12.8443 81.002 13.3446 81.1688 13.8449Z" fill="white"/>
</g>
<mask id="mask18_26330_59241" style="mask-type:luminance" maskUnits="userSpaceOnUse" x="0" y="0" width="118" height="118">
<path d="M117.383 0.308594H0.382812V117.309H117.383V0.308594Z" fill="white"/>
</mask>
<g mask="url(#mask18_26330_59241)">
<path d="M39.5653 14.7485L37.1055 9.30085L38.1755 8.81445L40.6353 14.2621L39.5653 14.7485Z" fill="white"/>
</g>
<mask id="mask19_26330_59241" style="mask-type:luminance" maskUnits="userSpaceOnUse" x="0" y="0" width="118" height="118">
<path d="M117.383 0.308594H0.382812V117.309H117.383V0.308594Z" fill="white"/>
</mask>
<g mask="url(#mask19_26330_59241)">
<path d="M89.2672 17.9305L91.3796 14.9565L92.3385 15.6375L88.8642 20.5153L88.1277 20.0012L88.1555 15.5263L86.0292 18.5003L85.0703 17.8193L88.5446 12.9414L89.2811 13.4556L89.2672 17.9305Z" fill="white"/>
</g>
<mask id="mask20_26330_59241" style="mask-type:luminance" maskUnits="userSpaceOnUse" x="0" y="0" width="118" height="118">
<path d="M117.383 0.308594H0.382812V117.309H117.383V0.308594Z" fill="white"/>
</mask>
<g mask="url(#mask20_26330_59241)">
<path d="M30.2383 12.9829L34.0461 10.7871L34.6159 11.7599L33.2123 12.5659L35.6443 16.7768L34.6159 17.3605L32.1839 13.1496L30.7942 13.9557L30.2383 12.9829Z" fill="white"/>
</g>
<mask id="mask21_26330_59241" style="mask-type:luminance" maskUnits="userSpaceOnUse" x="0" y="0" width="118" height="118">
<path d="M117.383 0.308594H0.382812V117.309H117.383V0.308594Z" fill="white"/>
</mask>
<g mask="url(#mask21_26330_59241)">
<path d="M93.6123 24.6015L92.6395 23.7677L93.0704 22.7115L91.2637 21.155L90.2909 21.7387L89.332 20.9049L94.8214 17.7363L95.9332 18.6952L93.6123 24.6015ZM94.4879 19.2511L92.2643 20.5713L93.5012 21.6414L94.4879 19.2511Z" fill="white"/>
</g>
<mask id="mask22_26330_59241" style="mask-type:luminance" maskUnits="userSpaceOnUse" x="0" y="0" width="118" height="118">
<path d="M117.383 0.308594H0.382812V117.309H117.383V0.308594Z" fill="white"/>
</mask>
<g mask="url(#mask22_26330_59241)">
<path d="M33.1857 18.2629L32.1434 19.0133L29.9338 18.0127L29.1972 18.5408L30.4063 20.2502L29.4335 20.945L25.9453 16.0115L27.9048 14.6218C28.3634 14.3022 28.8637 14.1771 29.4057 14.2744C29.9477 14.3717 30.3785 14.6357 30.6981 15.0804C30.9205 15.3862 31.0317 15.7336 31.0456 16.1088C31.0595 16.4979 30.9622 16.8454 30.7815 17.1789L33.1857 18.2629ZM28.558 15.5251L27.5574 16.2339L28.5997 17.6792L29.6003 16.9704C29.7809 16.8454 29.8921 16.6508 29.9199 16.4146C29.9477 16.1783 29.8921 15.956 29.7531 15.7614C29.6142 15.5668 29.4196 15.4418 29.1972 15.3862C28.9471 15.3445 28.7386 15.3862 28.558 15.5251Z" fill="white"/>
</g>
<mask id="mask23_26330_59241" style="mask-type:luminance" maskUnits="userSpaceOnUse" x="0" y="0" width="118" height="118">
<path d="M117.383 0.308594H0.382812V117.309H117.383V0.308594Z" fill="white"/>
</mask>
<g mask="url(#mask23_26330_59241)">
<path d="M25.245 21.419L26.1761 22.4057L28.0244 20.6546L28.8027 21.4746L26.0927 24.0455L21.9375 19.6818L24.6057 17.1387L25.384 17.9586L23.5774 19.6818L24.4668 20.613L26.1205 19.0426L26.8988 19.8486L25.245 21.419Z" fill="white"/>
</g>
<mask id="mask24_26330_59241" style="mask-type:luminance" maskUnits="userSpaceOnUse" x="0" y="0" width="118" height="118">
<path d="M117.383 0.308594H0.382812V117.309H117.383V0.308594Z" fill="white"/>
</mask>
<g mask="url(#mask24_26330_59241)">
<path d="M99.2479 22.0713L95.5791 25.2398L97.0661 26.9631L96.2184 27.6996L93.9531 25.0731L98.4836 21.168L99.2479 22.0713Z" fill="white"/>
</g>
<mask id="mask25_26330_59241" style="mask-type:luminance" maskUnits="userSpaceOnUse" x="0" y="0" width="118" height="118">
<path d="M117.383 0.308594H0.382812V117.309H117.383V0.308594Z" fill="white"/>
</mask>
<g mask="url(#mask25_26330_59241)">
<path d="M23.8662 26.5876C23.2825 27.2686 22.5598 27.6438 21.7121 27.6994C20.8783 27.755 20.1139 27.491 19.4469 26.9073C18.7659 26.3236 18.4046 25.6148 18.3351 24.781C18.2656 23.9333 18.5297 23.1689 19.1133 22.488C19.4747 22.0711 19.8916 21.7792 20.3919 21.5986C20.8922 21.4179 21.3786 21.3623 21.8789 21.4596L21.6565 22.627C21.3508 22.5575 21.0589 22.5853 20.7671 22.6964C20.4753 22.8076 20.2112 22.9883 19.9889 23.2523C19.5997 23.697 19.433 24.1695 19.4747 24.6837C19.5302 25.1979 19.7665 25.6426 20.2112 26.0179C20.642 26.3931 21.1145 26.5737 21.6426 26.546C22.1568 26.5182 22.6015 26.268 22.9906 25.8233C23.213 25.5593 23.3659 25.2813 23.4353 24.9617C23.5048 24.6559 23.477 24.3502 23.3798 24.0723L24.5054 23.6831C24.6722 24.1695 24.7 24.6698 24.5888 25.184C24.4498 25.7121 24.2136 26.1846 23.8662 26.5876Z" fill="white"/>
</g>
<mask id="mask26_26330_59241" style="mask-type:luminance" maskUnits="userSpaceOnUse" x="0" y="0" width="118" height="118">
<path d="M117.383 0.308594H0.382812V117.309H117.383V0.308594Z" fill="white"/>
</mask>
<g mask="url(#mask26_26330_59241)">
<path fill-rule="evenodd" clip-rule="evenodd" d="M38.0592 42.6408C42.0338 40.9732 46.9951 39.7502 52.5122 39.1943L52.401 39.2499L52.2482 39.3333L52.1926 39.3611L52.0675 39.4306C51.998 39.4723 51.9424 39.5001 51.873 39.5418L51.7618 39.6113C51.6923 39.6529 51.6367 39.6807 51.5672 39.7224L51.4421 39.8058C51.3727 39.8475 51.3032 39.8892 51.2337 39.9309L51.1503 39.9865C51.0808 40.0282 51.0113 40.0699 50.9418 40.1254L50.8307 40.1949C50.7612 40.2366 50.7056 40.2783 50.6361 40.32L50.5388 40.3895L50.4971 40.4173L50.3443 40.5285L50.3165 40.5424L50.2192 40.6118L50.108 40.6952L49.9968 40.7786L49.9551 40.8203C49.8996 40.862 49.8579 40.9037 49.8023 40.9454L49.7884 40.9593L49.7328 41.0149L49.6633 41.0843L49.6355 41.1121L49.6216 41.126C49.566 41.1816 49.5104 41.2233 49.4549 41.2789L49.3854 41.3484L49.3715 41.3623C49.3159 41.4179 49.2464 41.4735 49.1908 41.543L49.0796 41.6541C49.024 41.7097 48.9685 41.7653 48.899 41.8348L48.8851 41.8487L48.8017 41.9321C48.7461 41.9877 48.6905 42.0433 48.6349 42.0988L48.6071 42.1266L48.5793 42.1544C48.5237 42.21 48.4682 42.2656 48.4126 42.3351L48.3292 42.4324C48.2458 42.5297 48.1624 42.613 48.0929 42.7103L48.0651 42.7381C48.0095 42.7937 47.9679 42.8632 47.9123 42.9188L47.8984 42.9327L47.8706 42.9744C47.8289 43.0299 47.7733 43.0855 47.7316 43.155L47.676 43.2245L47.6621 43.2384L47.6482 43.2523L47.6343 43.2662C47.5787 43.3357 47.5231 43.4191 47.4676 43.4886L47.4537 43.5024L47.4398 43.5163L47.4259 43.5302L47.412 43.5441C47.3564 43.6136 47.3147 43.6831 47.2591 43.7526L47.2452 43.7665L47.2313 43.7804L47.2174 43.7943L47.2035 43.8082L47.1896 43.8221L47.1757 43.836C47.134 43.8916 47.0923 43.9472 47.0645 44.0166L47.0506 44.0305L46.9673 44.1417L46.9534 44.1556L46.9395 44.1695L46.87 44.2668L46.8561 44.2807L46.8005 44.3641V44.378L46.7449 44.4752V44.4891L46.7032 44.5725V44.5864V44.6003C46.6754 44.6559 46.6337 44.7115 46.6059 44.7671C45.8694 44.6281 45.1606 44.4753 44.4797 44.3224C41.6863 44.1 39.6435 43.4191 38.0592 42.6408ZM28.2617 52.2021C28.5953 48.7417 31.736 45.6148 36.6834 43.2523C38.4622 44.2668 40.9081 45.1562 43.8265 45.8372C44.4102 45.9761 45.0217 46.1012 45.647 46.2263L45.6331 46.268L45.5637 46.4208C45.5359 46.4764 45.5081 46.532 45.4942 46.5876C45.4664 46.6571 45.4386 46.7127 45.4108 46.7822L45.3413 46.935L45.2579 47.1296L45.2023 47.2547C45.1745 47.3381 45.1467 47.4075 45.1189 47.4909L45.0773 47.616C45.0495 47.6855 45.0217 47.755 45.0078 47.8245L44.9661 47.9495C44.9383 48.0329 44.9105 48.1024 44.8827 48.1858L44.841 48.3109C44.8132 48.3942 44.7854 48.4776 44.7715 48.561L44.7159 48.6722C44.6881 48.7695 44.6603 48.8667 44.6325 48.964L44.6186 49.0335C44.5909 49.1308 44.5631 49.2281 44.5492 49.3392L44.5353 49.4087C44.5075 49.506 44.4936 49.6172 44.4658 49.7284L44.4519 49.7701C44.4241 49.8812 44.4102 49.9924 44.3824 50.0897L44.3685 50.1592C44.3546 50.2704 44.3268 50.3815 44.3129 50.4927V50.5066V50.5205C44.299 50.6317 44.2851 50.7568 44.2573 50.8679V50.9096C44.2434 51.0347 44.2295 51.1459 44.2156 51.271V51.2848C44.2017 51.4099 44.1878 51.535 44.1878 51.6462V51.674C44.1739 51.799 44.1739 51.9241 44.16 52.0492L44.1461 52.2299H28.2617V52.2021ZM36.6834 62.3609C31.736 59.9984 28.5953 56.8715 28.2617 53.4111H44.16L44.1739 53.5918C44.1739 53.7168 44.1878 53.8419 44.2017 53.967V53.9948C44.2156 54.1199 44.2156 54.2449 44.2295 54.3561V54.37C44.2434 54.4951 44.2573 54.6063 44.2712 54.7313V54.773C44.2851 54.8842 44.299 55.0093 44.3268 55.1205V55.1344V55.1483C44.3407 55.2594 44.3685 55.3706 44.3824 55.4818L44.3963 55.5513C44.4102 55.6624 44.438 55.7736 44.4658 55.8709L44.4797 55.9126C44.5075 56.0238 44.5214 56.121 44.5492 56.2322L44.5631 56.3017C44.5909 56.399 44.6047 56.4963 44.6325 56.6075L44.6464 56.6769C44.6742 56.7742 44.702 56.8715 44.7298 56.9688L44.7576 57.0522C44.7854 57.1355 44.8132 57.2189 44.8271 57.3023L44.8688 57.4274C44.8966 57.5108 44.9244 57.5803 44.9522 57.6636L44.9939 57.7887C45.0217 57.8582 45.0495 57.9277 45.0634 57.9972L45.105 58.1222C45.1328 58.2056 45.1606 58.2751 45.1884 58.3585L45.244 58.4836C45.2718 58.5531 45.2996 58.6086 45.3274 58.6781L45.3969 58.831C45.4247 58.9005 45.4525 58.9561 45.4803 59.0256C45.5081 59.0811 45.5359 59.1367 45.5498 59.1923L45.6192 59.3452L45.6331 59.3869C45.0078 59.512 44.4102 59.637 43.8126 59.776C40.8942 60.457 38.4483 61.3325 36.6834 62.3609ZM52.5261 66.4188C47.009 65.8629 42.0477 64.64 38.0731 62.9723C39.6435 62.1941 41.7002 61.4992 44.1045 60.9434C44.7854 60.7766 45.4942 60.6376 46.2307 60.4986L46.3141 60.6515V60.6654V60.6793V60.6932L46.3697 60.7905V60.8044L46.4253 60.8878V60.9017L46.4809 60.9851L46.4948 60.9989L46.5642 61.0962L46.5781 61.1101L46.592 61.124L46.6754 61.2352L46.6893 61.2491C46.731 61.3047 46.7727 61.3603 46.8005 61.4298L46.8144 61.4437L46.8283 61.4576L46.8422 61.4714L46.8561 61.4853L46.87 61.4992L46.8839 61.5131C46.9256 61.5826 46.9673 61.6382 47.0229 61.7077L47.0368 61.7216L47.0506 61.7355L47.0645 61.7494L47.0784 61.7633L47.0923 61.7772L47.1062 61.7911C47.1618 61.8606 47.2035 61.9301 47.2591 61.9995L47.273 62.0134L47.2869 62.0273L47.3008 62.0412L47.3564 62.1107C47.3981 62.1663 47.4537 62.2219 47.4954 62.2914L47.5231 62.3331L47.537 62.347C47.5926 62.4026 47.6343 62.472 47.6899 62.5276L47.7177 62.5554C47.8011 62.6527 47.8706 62.7361 47.954 62.8334L48.0373 62.9306C48.0929 62.9862 48.1485 63.0418 48.2041 63.1113L48.2319 63.1391L48.2597 63.1669C48.3153 63.2225 48.3709 63.2781 48.4265 63.3337L48.5098 63.417L48.5237 63.4309C48.5793 63.4865 48.6349 63.5421 48.7044 63.6116L48.8156 63.7228C48.8712 63.7784 48.9407 63.834 48.9962 63.9034L49.0101 63.9173L49.0796 63.9868C49.1352 64.0424 49.1908 64.0841 49.2464 64.1397L49.2603 64.1536L49.2881 64.1814L49.3576 64.237L49.4132 64.2926C49.4826 64.3482 49.566 64.4176 49.6355 64.4732H49.6494L49.6911 64.5149L49.7884 64.5983L49.8996 64.6817L49.9968 64.7512L50.0246 64.7651L50.1775 64.8762L50.2192 64.904L50.3165 64.9735C50.3721 65.0152 50.4277 65.0569 50.4971 65.0986L50.6361 65.1959L50.8029 65.3071L50.9418 65.3904C50.9974 65.4182 51.053 65.4599 51.1086 65.4877L51.2476 65.5711L51.4282 65.6823L51.5672 65.7657C51.6228 65.7935 51.6784 65.8352 51.7479 65.8629L51.9146 65.9463L52.0536 66.0297L52.5261 66.4188ZM80.8485 62.9723C76.8739 64.64 71.9126 65.8629 66.3955 66.4188L66.4927 66.3771C66.5622 66.3354 66.6317 66.3077 66.7012 66.266L66.7846 66.2243C66.8819 66.1687 66.9652 66.127 67.0625 66.0714L67.1598 66.0158L67.3405 65.9046L67.4516 65.8351C67.535 65.7796 67.6184 65.7379 67.7018 65.6823L67.813 65.6128L67.9658 65.5155L68.0909 65.4321L68.2438 65.321C68.2994 65.2793 68.355 65.2515 68.3966 65.2098C68.4522 65.1681 68.5217 65.1264 68.5773 65.0847L68.7024 64.9874L68.8275 64.8901L68.9525 64.7929L69.0637 64.6956C69.1471 64.6261 69.2166 64.5705 69.3 64.501L69.3972 64.4176L69.5223 64.3065L69.6474 64.1953C69.7169 64.1258 69.7864 64.0702 69.8558 64.0007C69.8975 63.9729 69.9253 63.9312 69.967 63.9034C70.0087 63.8618 70.0504 63.8201 70.0921 63.7784L70.1894 63.6811L70.3006 63.5699C70.3422 63.5282 70.3839 63.4865 70.4256 63.4309C70.4951 63.3615 70.5507 63.292 70.6202 63.2225L70.6897 63.1391L70.8286 63.0001L70.912 62.9029C70.9954 62.8195 71.0649 62.7222 71.1483 62.6249L71.2039 62.5554C71.2456 62.4998 71.2873 62.4443 71.3428 62.3887L71.3984 62.3192C71.4401 62.2636 71.4818 62.208 71.5235 62.1524L71.5652 62.0968C71.6486 61.9856 71.732 61.8745 71.8153 61.7633L71.857 61.7077C71.8987 61.6521 71.9404 61.5965 71.9821 61.5409L72.0377 61.4714C72.1211 61.3603 72.1906 61.2491 72.2601 61.1379L72.3017 61.0823L72.399 60.9156L72.4685 60.8183C72.5102 60.7627 72.538 60.7071 72.5797 60.6515L72.6214 60.582L72.677 60.4848C73.4135 60.6237 74.1223 60.7766 74.8032 60.9295C77.2213 61.5131 79.2642 62.1941 80.8485 62.9723ZM90.646 53.4111C90.3124 56.8715 87.1717 59.9984 82.2243 62.3609C80.4455 61.3464 77.9996 60.457 75.0812 59.776C74.4975 59.637 73.886 59.512 73.2606 59.3869C74.1362 57.5664 74.6504 55.5513 74.7337 53.425H90.646V53.4111ZM82.2243 43.2523C87.1717 45.6148 90.3124 48.7417 90.646 52.2021H74.7476C74.6642 50.0758 74.1362 48.0607 73.2745 46.2402C73.8999 46.1151 74.4975 45.99 75.0951 45.8511C78.0135 45.1562 80.4594 44.2807 82.2243 43.2523ZM66.3816 39.1943C71.8987 39.7502 76.86 40.9732 80.8346 42.6408C79.2642 43.4191 77.2074 44.1139 74.8032 44.6698C74.1223 44.8366 73.4135 44.9755 72.677 45.1145L72.6214 45.0172L72.5797 44.9478C72.5519 44.8922 72.5102 44.8366 72.4685 44.781L72.399 44.6837C72.3712 44.6281 72.3295 44.5725 72.3017 44.5169L72.2601 44.4614C72.1906 44.3502 72.1072 44.239 72.0377 44.1278L71.9821 44.0583C71.9404 44.0027 71.8987 43.9472 71.857 43.8916L71.8153 43.836C71.732 43.7248 71.6486 43.6136 71.5652 43.5024L71.5235 43.4469C71.4818 43.3913 71.4401 43.3357 71.3984 43.2801L71.3428 43.2106C71.3011 43.155 71.2595 43.0994 71.2039 43.0438L71.1483 42.9744C71.0649 42.8771 70.9954 42.7937 70.912 42.6964L70.8286 42.5991C70.787 42.5435 70.7453 42.5019 70.6897 42.4602L70.6202 42.3768C70.5507 42.3073 70.4951 42.2378 70.4256 42.1683C70.3839 42.1266 70.3422 42.0849 70.3006 42.0294L70.1894 41.9182L70.0921 41.8209C70.0504 41.7792 70.0087 41.7375 69.967 41.6958L69.8558 41.5985C69.7864 41.5291 69.7169 41.4735 69.6474 41.404L69.5223 41.2928C69.4806 41.2511 69.4389 41.2233 69.3972 41.1816L69.3 41.0982C69.2166 41.0288 69.1471 40.9732 69.0637 40.9037L68.9525 40.8064L68.8275 40.7091L68.7024 40.6118L68.5773 40.5146C68.5217 40.4729 68.4661 40.4312 68.3966 40.3895L68.2438 40.2783L68.0909 40.1671L67.9658 40.0838C67.9102 40.056 67.8686 40.0143 67.813 39.9865L67.7018 39.917C67.6184 39.8614 67.535 39.8197 67.4516 39.7641L67.3405 39.6946L67.1598 39.5835L67.0625 39.5279C66.9791 39.4723 66.8819 39.4306 66.7846 39.375L66.7012 39.3333C66.6317 39.2916 66.5622 39.2638 66.4927 39.2221L66.3816 39.1943ZM73.5386 53.4111C73.4552 55.4679 72.9132 57.4135 72.0377 59.1506C68.48 58.5392 64.4082 58.1778 60.0584 58.15V53.4111H73.5386ZM72.0377 46.4625C72.9132 48.1997 73.4552 50.1453 73.5386 52.2021H60.0584V47.4631C64.4082 47.4353 68.48 47.074 72.0377 46.4625ZM60.0584 43.4191C62.3514 43.558 64.4082 44.5169 65.9646 46.0039C64.0746 46.1568 62.1012 46.2402 60.0584 46.2541V43.4191ZM52.943 46.0039C54.4995 44.5169 56.5702 43.558 58.8493 43.4191V46.2541C56.8064 46.2402 54.833 46.1568 52.943 46.0039ZM50.0385 52.2021C50.1636 50.2981 50.8446 48.561 51.9285 47.1296C54.1243 47.3381 56.4451 47.4492 58.8493 47.477V52.216H50.0385V52.2021ZM51.9285 58.4836C50.8446 57.0522 50.1497 55.315 50.0385 53.4111H58.8493V58.15C56.4451 58.1639 54.1243 58.289 51.9285 58.4836ZM58.8493 62.1941C56.5563 62.0551 54.4995 61.0962 52.943 59.6092C54.833 59.4564 56.8064 59.373 58.8493 59.3591V62.1941ZM65.9646 59.6092C64.4082 61.0962 62.3375 62.0551 60.0584 62.1941V59.3591C62.1012 59.373 64.0746 59.4564 65.9646 59.6092Z" fill="white"/>
</g>
<mask id="mask27_26330_59241" style="mask-type:luminance" maskUnits="userSpaceOnUse" x="-49" y="42" width="125" height="124">
<path d="M-41.5107 42.3884L-48.1172 159.201L68.6956 165.808L75.3021 48.9949L-41.5107 42.3884Z" fill="white"/>
</mask>
<g mask="url(#mask27_26330_59241)">
<path d="M68.1859 105.87C68.4355 101.456 65.0598 97.6756 60.6459 97.4259C56.2321 97.1763 52.4516 100.552 52.202 104.966C51.9524 109.38 55.3281 113.16 59.7419 113.41C64.1558 113.659 67.9362 110.284 68.1859 105.87Z" fill="white"/>
</g>
<mask id="mask28_26330_59241" style="mask-type:luminance" maskUnits="userSpaceOnUse" x="-49" y="42" width="125" height="124">
<path d="M-41.5107 42.3884L-48.1172 159.201L68.6956 165.808L75.3021 48.9949L-41.5107 42.3884Z" fill="white"/>
</mask>
<g mask="url(#mask28_26330_59241)">
<path d="M68.1859 105.87C68.4355 101.456 65.0598 97.6756 60.6459 97.4259C56.2321 97.1763 52.4516 100.552 52.202 104.966C51.9524 109.38 55.3281 113.16 59.7419 113.41C64.1558 113.659 67.9362 110.284 68.1859 105.87Z" stroke="white" stroke-width="0.0837852" stroke-miterlimit="22.9256"/>
</g>
<mask id="mask29_26330_59241" style="mask-type:luminance" maskUnits="userSpaceOnUse" x="0" y="0" width="118" height="118">
<path d="M117.383 0.308594H0.382812V117.309H117.383V0.308594Z" fill="white"/>
</mask>
<g mask="url(#mask29_26330_59241)">
<path fill-rule="evenodd" clip-rule="evenodd" d="M54.614 103.205L59.4919 107.791L69.4145 98.1738L71.2906 100.272L59.4641 112.085L52.6406 105.136L54.614 103.205Z" fill="#2E2E2E"/>
</g>
<mask id="mask30_26330_59241" style="mask-type:luminance" maskUnits="userSpaceOnUse" x="0" y="0" width="118" height="118">
<path d="M117.383 0.308594H0.382812V117.309H117.383V0.308594Z" fill="white"/>
</mask>
<g mask="url(#mask30_26330_59241)">
<path d="M54.614 103.205L59.4919 107.791L69.4145 98.1738L71.2906 100.272L59.4641 112.085L52.6406 105.136L54.614 103.205Z" stroke="white" stroke-width="0.0837852" stroke-miterlimit="22.9256"/>
</g>
</g>
<defs>
<clipPath id="clip0_26330_59241">
<rect width="117" height="117" fill="white"/>
</clipPath>
</defs>
</svg>
