<svg width="151" height="87" viewBox="0 0 151 87" fill="none" xmlns="http://www.w3.org/2000/svg">
<g clip-path="url(#clip0_26330_59497)">
<path d="M95.5725 1.11839C77.4212 2.05725 59.0033 7.35428 45.2102 15.6302C38.0586 19.9072 32.2168 25.0072 27.4182 31.1387C26.8502 31.869 26.3866 32.4949 26.375 32.5296C26.375 32.5644 28.8902 32.634 31.9734 32.6571L37.5602 32.7151L39.5306 30.791C41.7561 28.6119 43.1818 27.3485 45.6158 25.436C56.9865 16.4879 72.5182 9.20881 90.7043 4.30588C95.0741 3.1352 100.835 1.84862 104.439 1.25748C105.007 1.16475 104.984 1.16475 103.918 1.09521C102.423 0.990892 97.7747 1.00248 95.5725 1.11839Z" fill="white"/>
<path d="M17.3226 37.9077C14.5292 38.4641 12.7906 40.8634 12.9529 43.9466C13.0804 46.2879 14.3322 47.76 17.0792 48.8147C22.2487 50.7852 22.4574 50.9011 22.9558 51.9327C23.234 52.4891 23.2687 52.6745 23.2224 53.3584C23.1296 54.6218 22.5617 55.3868 21.4026 55.8272C20.5449 56.1518 19.0265 56.0938 18.3078 55.7345C17.1372 55.1202 16.291 53.5322 16.291 51.8979V51.2952H14.6104H12.9297V54.8304V58.3656H14.4945H16.0592V57.4847V56.5922L16.6504 57.1949C17.6935 58.2613 18.8063 58.6438 20.8115 58.6438C23.0021 58.6438 24.4394 58.1338 25.5637 56.9863C26.8503 55.6649 27.4183 53.9263 27.1865 52.037C26.9894 50.4722 26.5374 49.4754 25.6565 48.6872C24.8567 47.9686 23.9062 47.505 20.9853 46.4038C18.2151 45.3723 17.4733 44.9318 17.0908 44.1436C16.8822 43.7148 16.8474 43.4829 16.8938 42.8339C16.9633 41.8602 17.3574 41.1184 18.0529 40.6548C18.5049 40.365 18.6092 40.3418 19.8147 40.3418C20.9158 40.3418 21.1708 40.3766 21.5765 40.5968C22.6312 41.1648 23.3035 42.3818 23.4426 43.9466L23.5121 44.8043H25.1117H26.7228V41.443V38.0816H25.1581H23.5933V38.893V39.7043L23.1644 39.2291C22.0749 38.0237 19.5828 37.4557 17.3226 37.9077Z" fill="white"/>
<path d="M55.8757 37.8029C52.5491 38.2782 50.3121 39.8313 48.8748 42.6827C47.4839 45.4529 47.3332 50.0429 48.5271 53.1608C49.2921 55.1313 50.8916 56.8699 52.8389 57.832C54.5775 58.6897 54.96 58.7129 62.9809 58.5506L67.7563 58.4463V57.1829C67.7563 56.1049 67.7331 55.9079 67.5593 55.8499C67.3506 55.7688 63.63 55.989 63.12 56.1165C62.8418 56.1745 62.8418 56.1745 63.1779 55.9195C64.1052 55.224 64.8702 54.2736 65.4266 53.1029C66.0872 51.7352 66.3191 50.889 66.5045 49.1736C66.7479 46.9134 66.3422 44.63 65.2991 42.4857C64.7891 41.4193 64.592 41.1411 63.7111 40.2834C62.0073 38.5911 60.2686 37.8841 57.6143 37.8029C56.8493 37.7682 56.0727 37.7798 55.8757 37.8029ZM58.9936 40.6079C59.8282 40.9788 60.4889 41.57 61.0684 42.4625C62.0536 43.9577 62.4245 45.5341 62.4245 48.2463C62.4245 50.7963 61.9957 52.4654 60.9525 54.007C59.9093 55.5486 58.4605 56.2672 56.687 56.1281C55.2266 56.0238 54.0559 55.3515 53.2562 54.1808C52.1434 52.5349 51.6682 50.0429 51.8884 47.0525C52.1666 43.3666 53.5459 41.1063 55.9221 40.4341C56.7218 40.2138 58.2982 40.295 58.9936 40.6079Z" fill="white"/>
<path d="M0.0625 39.3565V40.6315H1.27954H2.49658V48.2235V55.8155H1.27954H0.0625V57.0905V58.3655H4.46703H8.87156V57.0905V55.8155H7.65452H6.43748V48.2235V40.6315H7.65452H8.87156V39.3565V38.0815H4.46703H0.0625V39.3565Z" fill="white"/>
<path d="M29.6211 41.5587V45.0359H31.2438H32.8665V42.8916V40.7473H34.4313H35.9961V48.2814V55.8154H34.6052H33.2143V57.0904V58.3654H37.9086H42.6029V57.0904V55.8154H41.2699H39.937V48.2814V40.7473H41.5017H43.0665V42.8916V45.0359H44.6892H46.3119V41.5587V38.0814H37.9665H29.6211V41.5587Z" fill="white"/>
<path d="M69.6094 39.3451V40.6317H70.7685H71.9275V48.2237V55.8157H70.7685H69.6094V57.1023V58.3889L75.6134 58.331C82.2086 58.2846 82.4057 58.2614 83.7618 57.5312C86.6248 56.0128 87.297 51.7358 85.0484 49.3133C84.353 48.5483 83.843 48.2469 82.9157 48.0035L82.313 47.8528L82.9852 47.6442C84.8977 47.0415 85.9525 45.4999 85.9525 43.3092C85.9525 40.7476 84.747 39.0438 82.4173 38.3367C81.9305 38.186 80.8062 38.1513 75.7294 38.1165L69.6094 38.0701V39.3451ZM80.1571 40.7592C82.1623 41.1881 82.7882 44.1322 81.2466 45.8476C80.6323 46.5315 80.0991 46.659 77.7809 46.6937L75.8105 46.7169L75.7757 43.6685L75.7525 40.6317H77.6534C78.7082 40.6317 79.8325 40.6897 80.1571 40.7592ZM79.7746 49.3249C80.7366 49.4524 81.1307 49.6262 81.6523 50.1478C82.255 50.7389 82.3941 51.1446 82.4521 52.2921C82.4984 53.1614 82.4636 53.4396 82.2782 53.8685C81.9421 54.6103 81.3973 55.1667 80.7134 55.4796C80.1571 55.723 79.8905 55.7462 77.9316 55.7926L75.7525 55.8389V52.6051C75.7525 50.8201 75.7873 49.3249 75.8337 49.2901C75.9496 49.1742 78.8125 49.1974 79.7746 49.3249Z" fill="white"/>
<path d="M88.2484 38.1626C88.3874 38.1858 88.5961 38.1858 88.712 38.1626C88.8163 38.1278 88.7004 38.1047 88.4454 38.1162C88.1904 38.1162 88.0977 38.1394 88.2484 38.1626Z" fill="white"/>
<path d="M87.0452 38.7078C86.767 38.9859 86.5352 39.2873 86.5352 39.3684C86.5352 39.4612 86.5931 39.438 86.6742 39.2989C86.8945 38.8932 87.277 38.5223 87.6363 38.36C87.8797 38.2557 87.9145 38.2093 87.7638 38.1978C87.6479 38.1978 87.3233 38.4296 87.0452 38.7078Z" fill="white"/>
<path d="M89.3037 38.441C89.524 38.5685 89.8021 38.7888 89.918 38.9279L90.1383 39.1829L90.0224 38.9279C89.9065 38.696 89.2226 38.1976 89.014 38.1976C88.956 38.1976 89.0835 38.302 89.3037 38.441Z" fill="white"/>
<path d="M87.4609 40.11C87.4609 41.1185 87.4841 41.2112 87.6812 41.2112C87.8666 41.2112 87.913 41.1185 87.9478 40.7707C87.9709 40.423 88.0289 40.3303 88.2491 40.3071C88.5968 40.2491 88.8287 40.4578 88.875 40.8403C88.8982 41.0605 88.9909 41.1648 89.1532 41.188C89.385 41.2228 89.3966 41.188 89.3155 40.7707C89.2807 40.5273 89.1996 40.2607 89.1532 40.1912C89.1184 40.1216 89.13 40.0405 89.1996 39.9941C89.3618 39.8898 89.3502 39.3219 89.1764 39.148C89.0952 39.0669 88.7128 39.0089 88.2491 39.0089H87.4609V40.11ZM88.7939 39.6464C88.7939 39.8319 88.7012 39.8898 88.365 39.913C87.9593 39.9478 87.9246 39.9246 87.9246 39.6464C87.9246 39.3682 87.9593 39.3451 88.365 39.3798C88.7012 39.403 88.7939 39.461 88.7939 39.6464Z" fill="white"/>
<path d="M90.1917 39.5296C90.2844 39.9584 90.3539 40.0512 90.3539 39.7498C90.3539 39.6339 90.296 39.4484 90.238 39.3557C90.1453 39.2282 90.1337 39.2746 90.1917 39.5296Z" fill="white"/>
<path d="M86.4492 40.1103C86.4492 40.4233 86.4724 40.5508 86.4956 40.3653C86.5188 40.1915 86.5188 39.9365 86.4956 39.7858C86.4724 39.6467 86.4492 39.7858 86.4492 40.1103Z" fill="white"/>
<path d="M90.1938 40.6427C90.1474 40.8629 89.9272 41.199 89.6374 41.4772C89.3708 41.7322 89.2665 41.8829 89.394 41.8134C89.8924 41.5468 90.5299 40.5384 90.3328 40.3297C90.2981 40.3066 90.2401 40.4456 90.1938 40.6427Z" fill="white"/>
<path d="M86.5352 40.7931C86.5352 41.164 87.532 42.0217 87.9492 42.0217C88.0304 42.0217 87.8797 41.9174 87.6131 41.8015C87.3465 41.674 87.0104 41.3958 86.8365 41.1408C86.6742 40.8974 86.5352 40.7351 86.5352 40.7931Z" fill="white"/>
<path d="M88.8258 41.9871C88.907 42.0218 89.0113 42.0102 89.0461 41.9755C89.0924 41.9407 89.0229 41.9059 88.8954 41.9175C88.7679 41.9175 88.7331 41.9523 88.8258 41.9871Z" fill="white"/>
<path d="M88.3649 42.1035C88.446 42.1382 88.5503 42.1266 88.5851 42.0919C88.6315 42.0571 88.5619 42.0223 88.4344 42.0339C88.3069 42.0339 88.2722 42.0687 88.3649 42.1035Z" fill="white"/>
<path d="M97.5214 62.7238C97.0462 62.9672 96.8491 63.4541 96.8491 64.335V65.0884H96.3855H95.9219V65.552V66.0156H96.3855H96.8491V68.2179V70.4202H97.4866H98.1241V68.2179V66.0156H98.6457H99.1673V65.552V65.0884H98.6457H98.1241V64.5088C98.1241 63.767 98.4255 63.4077 98.9471 63.5236C99.2716 63.5931 99.2832 63.5931 99.2832 63.1411C99.2832 62.8281 99.2253 62.6543 99.0978 62.6079C98.7616 62.4804 97.8344 62.55 97.5214 62.7238Z" fill="white"/>
<path d="M79.4609 66.5372V70.4202H80.0984H80.7359V66.5372V62.6543H80.0984H79.4609V66.5372Z" fill="white"/>
<path d="M59.6046 62.8513C59.5582 62.8861 59.5234 63.1759 59.5234 63.4888V64.0452H60.2189H60.9143V63.4077V62.7702H60.3C59.9523 62.7702 59.6393 62.8049 59.6046 62.8513Z" fill="white"/>
<path d="M12.9526 65.0535C11.8167 71.0576 11.0633 78.6264 11.0865 83.6916L11.098 85.5461L11.3183 84.1205C12.2224 78.2323 14.2392 71.1503 16.8239 64.7637C17.1717 63.906 17.4498 63.199 17.4498 63.1642C17.4498 63.141 16.5226 63.1178 15.3867 63.1178H13.3235L12.9526 65.0535Z" fill="white"/>
<path d="M86.1877 63.3724C85.4923 63.7317 85.1445 64.2649 85.1445 64.9951C85.1445 66.0383 85.585 66.6294 86.802 67.2437C87.9843 67.8464 88.2509 68.4955 87.567 69.1678C87.2425 69.5039 87.1729 69.5155 86.605 69.4576C86.2573 69.4228 85.8168 69.3069 85.6198 69.2142L85.2604 69.0171V69.6546V70.2921L85.7473 70.4312C86.4079 70.6051 87.6482 70.5123 88.1929 70.2458C88.8768 69.9212 89.2361 69.2837 89.2477 68.4144C89.2593 67.406 89.0043 67.0119 87.8916 66.3512C87.4048 66.0615 86.8948 65.7253 86.7673 65.6094C86.4543 65.3312 86.4659 64.6937 86.7788 64.3808C86.9875 64.1721 87.115 64.149 87.6829 64.1953C88.0422 64.2301 88.4479 64.2881 88.5986 64.3344C88.8536 64.4156 88.8652 64.404 88.8304 63.8592C88.7841 63.2101 88.6797 63.1521 87.4627 63.129C86.8832 63.1174 86.5702 63.1869 86.1877 63.3724Z" fill="white"/>
<path d="M22.668 66.827V70.4202H23.3634H24.0589V66.827V63.2338H23.3634H22.668V66.827Z" fill="white"/>
<path d="M32.3473 63.8133C31.7678 64.0104 31.7678 64.0104 31.733 64.5435C31.6982 65.0767 31.6866 65.0883 31.2925 65.0883C30.91 65.0883 30.8984 65.0999 30.8984 65.5519C30.8984 66.004 30.91 66.0156 31.3041 66.0156H31.7098L31.7214 67.6615C31.7214 68.6235 31.7793 69.4928 31.8605 69.7247C32.0923 70.3853 33.0543 70.7215 33.8425 70.4201C34.0859 70.3274 34.1439 70.2347 34.1439 69.8985C34.1439 69.5044 34.1323 69.4928 33.6802 69.4928C33.0543 69.4928 32.9848 69.2842 32.9848 67.4528V66.0156H33.5643H34.1439V65.5519V65.0883H33.5643H32.9964L32.9616 64.3581L32.9268 63.6163L32.3473 63.8133Z" fill="white"/>
<path d="M56.664 63.802L56.0496 63.9643V64.5207V65.0886H55.644C55.2499 65.0886 55.2383 65.1002 55.2383 65.5523C55.2383 66.0043 55.2499 66.0159 55.644 66.0159H56.0496V67.7545C56.0496 69.1222 56.0844 69.5859 56.2351 69.8525C56.5133 70.3972 57.3478 70.6638 58.1128 70.4668C58.3215 70.4088 58.3678 70.3161 58.3678 69.9452C58.3678 69.5163 58.3562 69.4931 57.9853 69.4931C57.371 69.4931 57.3246 69.3772 57.3246 67.6154V66.0159H57.8462H58.3678V65.5523V65.0886H57.8462H57.3362L57.3015 64.3584L57.2667 63.6398L56.664 63.802Z" fill="white"/>
<path d="M101.195 63.8009C100.615 63.9979 100.615 64.0095 100.581 64.5427C100.546 65.0759 100.534 65.0875 100.14 65.0875C99.7577 65.0875 99.7461 65.0991 99.7461 65.5511C99.7461 66.0032 99.7577 66.0148 100.152 66.0148H100.557V67.4868C100.569 69.2138 100.662 69.7702 101.056 70.1643C101.392 70.4888 102.18 70.6279 102.679 70.4309C102.934 70.3266 102.992 70.2338 102.992 69.8977C102.992 69.5036 102.98 69.492 102.539 69.492C102.238 69.492 102.064 69.4341 102.018 69.3066C101.983 69.2022 101.948 68.4257 101.948 67.5679V66.0148H102.47H102.992V65.5511V65.0875H102.47H101.948V64.3341C101.948 63.9168 101.914 63.5807 101.867 63.5923C101.809 63.5923 101.519 63.685 101.195 63.8009Z" fill="white"/>
<path d="M27.7684 65.1C27.6061 65.1695 27.3396 65.355 27.1657 65.5172L26.8411 65.8302V65.4593V65.0884H26.1921H25.543L25.6125 65.4477C25.6473 65.6447 25.6821 66.8502 25.6821 68.1136V70.4202H26.3196H26.9571V68.6236C26.9571 67.534 27.0034 66.7227 27.0846 66.5488C27.3511 65.9577 28.2436 65.9577 28.4639 66.5372C28.5334 66.7111 28.5798 67.6499 28.5798 68.6352V70.4202H29.2289H29.878L29.8316 68.2411C29.7968 65.7606 29.7041 65.4709 28.9043 65.1463C28.3943 64.9493 28.1741 64.9377 27.7684 65.1Z" fill="white"/>
<path d="M36.5388 65.1339C35.9361 65.3542 35.6579 65.6208 35.3449 66.3046C34.9856 67.058 34.9624 68.4953 35.287 69.2023C35.8086 70.3498 37.0604 70.7903 38.5324 70.3498C38.996 70.2223 39.1235 70.1296 39.0772 70.0021C39.0424 69.8978 39.0076 69.666 39.0076 69.4805C39.0076 69.156 38.996 69.1444 38.7526 69.3067C38.3585 69.5617 37.582 69.6544 37.1067 69.4921C36.6431 69.3414 36.3997 69.0517 36.2838 68.4721L36.2026 68.1012H37.779H39.3554V67.6955C39.3554 66.351 38.741 65.3426 37.7906 65.0992C37.1647 64.9369 37.0836 64.9485 36.5388 65.1339ZM37.779 66.1192C37.8949 66.2467 38.0108 66.5596 38.0456 66.8146L38.1151 67.2898H37.1647C36.6547 67.2898 36.2258 67.2551 36.2258 67.1971C36.2258 66.861 36.504 66.2235 36.7242 66.0728C37.072 65.8294 37.5356 65.8526 37.779 66.1192Z" fill="white"/>
<path d="M42.6496 65.1347C42.4526 65.2275 42.186 65.4477 42.0469 65.6215L41.8035 65.9577L41.7919 65.5172V65.0884H41.2124H40.6328V67.7543V70.4202H41.2587H41.8962L41.931 68.6352C41.9658 66.9197 41.9774 66.827 42.2439 66.5488C42.4526 66.3286 42.6496 66.2475 42.9742 66.2475H43.4262L43.3914 65.6447C43.3567 64.9609 43.2292 64.8797 42.6496 65.1347Z" fill="white"/>
<path d="M46.5434 65.1462C46.3232 65.2505 46.0566 65.436 45.9523 65.5751C45.7552 65.8185 45.7552 65.8185 45.6741 65.4592C45.6045 65.0998 45.5698 65.0882 45.025 65.0882H44.457V67.7541V70.42H45.0829H45.7088L45.7552 68.5887C45.7784 67.1166 45.8248 66.6994 45.987 66.456C46.3463 65.9112 47.2041 65.9923 47.3663 66.5951C47.4127 66.7573 47.4475 67.6846 47.4591 68.6466L47.4707 70.42H48.1197H48.7688L48.7225 68.2989C48.6877 66.0271 48.6182 65.7142 48.0502 65.2969C47.6329 64.9955 47.0302 64.9376 46.5434 65.1462Z" fill="white"/>
<path d="M51.146 65.1345C50.4158 65.3316 50.323 65.4475 50.4158 65.9459C50.4621 66.1777 50.5085 66.3632 50.5317 66.3632C50.5548 66.3632 50.7287 66.282 50.9026 66.1893C51.9457 65.6445 52.9194 66.0155 52.9194 66.9427C52.9194 67.1514 52.8382 67.1745 52.2587 67.1745C50.5317 67.1745 49.6392 68.0091 49.9173 69.3536C50.1492 70.4548 51.6444 70.8952 52.5601 70.1302L52.8962 69.8404L52.9657 70.1302C53.0353 70.3852 53.1048 70.42 53.5916 70.42H54.148L54.1132 68.5307C54.0901 67.4991 54.0437 66.4907 54.0089 66.282C53.9162 65.6793 53.4641 65.2389 52.7919 65.0998C52.0732 64.9375 51.853 64.9491 51.146 65.1345ZM52.9194 68.2641C52.9194 69.1218 52.5485 69.6086 51.8762 69.6086C51.3662 69.6086 51.0648 69.3073 51.0648 68.7973C51.0648 68.2177 51.5401 67.8816 52.3746 67.87H52.9194V68.2641Z" fill="white"/>
<path d="M63.8002 65.1462C63.1627 65.3549 62.6064 65.9228 62.4325 66.5603C62.2239 67.2905 62.2818 68.6699 62.5252 69.2262C63.3598 71.046 66.1184 70.9417 66.7559 69.064C67.1036 68.0555 66.9645 66.6646 66.4429 65.8881C65.9561 65.1462 64.797 64.8333 63.8002 65.1462ZM65.1216 66.1315C65.7475 66.6183 65.817 68.5771 65.2375 69.2726C64.7043 69.8985 63.9625 69.6319 63.7075 68.7162C63.4293 67.731 63.6264 66.5256 64.1248 66.1315C64.4957 65.8417 64.7391 65.8417 65.1216 66.1315Z" fill="white"/>
<path d="M70.3399 65.1C70.1428 65.1579 69.8647 65.3318 69.7487 65.494C69.4474 65.8765 69.3778 65.8534 69.3778 65.4361C69.3778 65.1 69.3662 65.0884 68.7983 65.0884H68.2188V67.7543V70.4202H68.8447H69.4822L69.5169 68.5077C69.5517 66.7227 69.5633 66.5836 69.8067 66.3518C70.1312 66.0272 70.734 66.004 70.9542 66.3054C71.0817 66.4677 71.1165 67.0125 71.1165 68.4729V70.4202H71.754H72.3915V68.3338C72.3915 66.0736 72.2987 65.61 71.7887 65.2854C71.4294 65.042 70.7919 64.9609 70.3399 65.1Z" fill="white"/>
<path d="M74.8847 65.146C74.5717 65.2387 74.2703 65.3082 74.224 65.3198C74.166 65.3198 74.1313 65.5632 74.1313 65.853C74.1313 66.3166 74.1544 66.3746 74.3399 66.305C74.9658 66.0385 75.3831 65.911 75.6612 65.8994C76.0901 65.8994 76.5653 66.3398 76.6001 66.7687L76.6233 67.1164L75.754 67.1859C74.4442 67.2903 73.7603 67.7539 73.5981 68.6232C73.3199 70.13 75.1976 71.1268 76.3219 70.0837L76.6696 69.7591L76.7044 70.0605C76.7392 70.3387 76.7856 70.3618 77.3187 70.3966L77.8983 70.4314L77.8403 68.2407C77.7824 65.853 77.7128 65.6212 77.0406 65.2619C76.5306 65.0069 75.5569 64.9489 74.8847 65.146ZM76.6349 68.4146C76.5306 69.1796 76.2408 69.5389 75.7076 69.5853C75.1165 69.6316 74.8267 69.365 74.8267 68.7739C74.8267 68.3914 74.8847 68.2987 75.2092 68.1016C75.441 67.9509 75.7887 67.8698 76.1481 67.8698H76.716L76.6349 68.4146Z" fill="white"/>
<path d="M92.1676 65.0999C91.1592 65.3433 90.5912 66.1199 90.4985 67.4181C90.3478 69.4928 91.4142 70.6983 93.1876 70.4896C94.6132 70.3274 95.3667 69.006 95.1117 67.1631C94.9726 66.2126 94.6017 65.5983 93.9526 65.2621C93.5353 65.0419 92.7008 64.9724 92.1676 65.0999ZM93.1876 66.0271C93.941 66.3749 94.0917 68.5887 93.4194 69.319C93.0717 69.6899 92.5733 69.7015 92.2371 69.3421C91.5764 68.6467 91.7039 66.4444 92.411 66.0271C92.6776 65.8649 92.8398 65.8765 93.1876 66.0271Z" fill="white"/>
<path d="M113.015 65.1456C112.702 65.2384 112.401 65.3079 112.355 65.3195C112.297 65.3195 112.262 65.5629 112.262 65.8527C112.262 66.3163 112.285 66.3743 112.47 66.3047C113.096 66.0381 113.514 65.9106 113.792 65.8991C114.209 65.8991 114.684 66.3395 114.719 66.7684L114.754 67.1161L113.885 67.1856C112.795 67.2784 112.134 67.5913 111.868 68.1477C111.335 69.272 112.1 70.5354 113.317 70.5354C113.687 70.5354 114.58 70.1065 114.58 69.9327C114.58 69.8863 114.638 69.8399 114.696 69.8399C114.765 69.8399 114.812 69.9674 114.812 70.1297C114.812 70.3963 114.847 70.4195 115.403 70.4195H115.994L115.948 68.2984C115.913 65.9686 115.82 65.5977 115.171 65.2616C114.661 65.0066 113.687 64.9486 113.015 65.1456ZM114.754 68.4143C114.626 69.3647 114.151 69.7588 113.363 69.5618C112.98 69.469 112.772 68.9011 112.98 68.4954C113.177 68.0665 113.583 67.8695 114.267 67.8695H114.823L114.754 68.4143Z" fill="white"/>
<path d="M119.497 65.1347C119.3 65.2275 119.033 65.4245 118.906 65.5984L118.663 65.8997L118.593 65.494C118.512 65.0884 118.5 65.0884 117.921 65.0884C117.434 65.0884 117.353 65.1231 117.411 65.2738C117.446 65.3781 117.48 66.572 117.48 67.9397V70.4202H118.118H118.755V68.7279C118.755 66.6068 118.906 66.259 119.833 66.2475H120.274L120.239 65.6447C120.204 64.9609 120.077 64.8797 119.497 65.1347Z" fill="white"/>
<path d="M122.639 65.1114C122.175 65.2737 121.688 65.7373 121.387 66.3052C121.016 66.9775 121.028 68.6466 121.387 69.3421C121.851 70.1882 122.801 70.6286 123.937 70.4895C124.934 70.3736 125.131 70.2577 125.131 69.7941C125.131 69.2841 125.05 69.2377 124.482 69.4348C123.323 69.852 122.349 69.3652 122.349 68.3916V68.1018H123.868H125.398L125.34 67.3021C125.27 66.3632 124.911 65.6098 124.366 65.2968C123.914 65.0303 123.091 64.9375 122.639 65.1114ZM123.856 66.2473C123.972 66.4096 124.099 66.7109 124.134 66.908L124.204 67.2905H123.276C122.361 67.2905 122.349 67.2905 122.349 67.0007C122.349 66.6414 122.627 66.0618 122.836 65.9691C123.172 65.83 123.659 65.9691 123.856 66.2473Z" fill="white"/>
<path d="M59.6445 67.7543V70.4202H60.282H60.9195V67.7543V65.0884H60.282H59.6445V67.7543Z" fill="white"/>
<path d="M103.57 65.2276C103.57 65.3087 103.883 66.5026 104.254 67.8703L104.926 70.3623L105.633 70.3971L106.341 70.4319L106.456 69.9914C106.514 69.748 106.711 68.9019 106.885 68.1021C107.048 67.3024 107.221 66.5953 107.268 66.5142C107.303 66.433 107.546 67.2792 107.801 68.3919L108.253 70.4203H108.972H109.679L110.374 67.7776L111.07 65.1465L110.502 65.1117C110.177 65.0885 109.899 65.0885 109.876 65.1117C109.853 65.1349 109.656 66.0389 109.424 67.1169C109.203 68.1948 108.995 69.0873 108.972 69.1105C108.96 69.1337 108.821 68.5889 108.682 67.8935C108.531 67.2096 108.346 66.3055 108.241 65.8651L108.068 65.0885H107.349H106.619L106.178 67.1169C105.935 68.2412 105.726 69.1337 105.703 69.1105C105.668 69.0758 104.845 65.2508 104.845 65.1349C104.845 65.1117 104.556 65.0885 104.208 65.0885C103.779 65.0885 103.57 65.1349 103.57 65.2276Z" fill="white"/>
<path d="M82.755 74.2918C82.3725 74.6743 82.3609 74.7207 82.3609 75.5668V76.4477H81.8972H81.4336V76.9114V77.375H81.8972H82.3609V79.5773V81.7795H82.9984H83.6359V79.5773V77.375H84.0995H84.5631V76.9114V76.4477H84.0995H83.6359V75.8218C83.6359 75.0684 83.8213 74.825 84.4009 74.825C84.8065 74.825 84.8065 74.8134 84.7718 74.3846L84.737 73.9557L83.9488 73.9209C83.1838 73.8862 83.149 73.8978 82.755 74.2918Z" fill="white"/>
<path d="M76.2148 77.8966V81.7795H76.8523H77.4898V77.8966V74.0137H76.8523H76.2148V77.8966Z" fill="white"/>
<path d="M148.541 75.5437V77.0736L148.182 76.7259C147.88 76.4362 147.741 76.3898 147.15 76.3898C146.547 76.3898 146.42 76.4362 146.107 76.7375C145.516 77.2939 145.365 77.7575 145.365 79.0557C145.354 80.0525 145.388 80.2959 145.632 80.7711C145.98 81.5014 146.443 81.7795 147.255 81.7795C147.799 81.7795 147.915 81.7332 148.263 81.3855L148.657 80.9914V81.3855V81.7795H149.237H149.816V77.8966V74.0137H149.179H148.541V75.5437ZM148.135 77.5605C148.634 78.0936 148.68 79.8786 148.217 80.493C147.915 80.9102 147.266 80.9682 146.93 80.6089C146.652 80.3075 146.513 79.3686 146.629 78.4646C146.768 77.3518 147.521 76.8998 148.135 77.5605Z" fill="white"/>
<path d="M40.75 74.767V75.4045H41.4455H42.1409V74.767V74.1295H41.4455H40.75V74.767Z" fill="white"/>
<path d="M79.1172 74.767V75.4045H79.7547H80.3922V74.767V74.1295H79.7547H79.1172V74.767Z" fill="white"/>
<path d="M85.7227 74.767V75.4045H86.4181H87.1136V74.767V74.1295H86.4181H85.7227V74.767Z" fill="white"/>
<path d="M102.641 74.767V75.4045H103.336H104.032V74.767V74.1295H103.336H102.641V74.767Z" fill="white"/>
<path d="M60.1626 74.465C58.7485 74.8243 57.9023 76.192 57.9023 78.1277C57.9023 80.2372 58.8412 81.5934 60.4871 81.8368C60.9855 81.9179 61.1014 81.9874 61.5303 82.5438L62.0171 83.1581H62.7473C63.1414 83.1697 63.466 83.1349 63.466 83.1002C63.466 83.0654 63.1762 82.7061 62.8169 82.3004L62.1794 81.5586L62.6314 81.1065C63.3153 80.4227 63.6166 79.5418 63.6166 78.1856C63.6398 75.937 62.7357 74.6273 61.0319 74.4302C60.7421 74.407 60.3596 74.4186 60.1626 74.465ZM61.3912 75.6009C61.5766 75.7168 61.8432 76.0413 61.9939 76.3311C62.2141 76.7716 62.2489 77.0382 62.2489 78.1277C62.2489 79.2288 62.2141 79.4722 61.9707 79.959C61.5535 80.8052 60.8696 81.0718 60.151 80.6313C59.5251 80.2488 59.3512 79.704 59.3512 78.1277C59.3512 76.5513 59.5251 76.0066 60.151 75.6241C60.603 75.3459 60.9507 75.3459 61.3912 75.6009Z" fill="white"/>
<path d="M22.171 74.5468C22.1246 74.5932 22.0898 74.8366 22.0898 75.08V75.5205H22.9012H23.7126V78.65V81.7795H24.408H25.1035V78.65V75.5205H25.9264H26.7378L26.703 75.0221L26.6682 74.5353L24.4544 74.5005C23.2489 74.4889 22.2173 74.5121 22.171 74.5468Z" fill="white"/>
<path d="M124.551 78.1168V81.7795H125.803C127.854 81.7795 128.654 81.397 128.955 80.2611C129.187 79.4266 128.816 78.4646 128.156 78.1748C127.958 78.0821 127.796 77.9893 127.796 77.9546C127.796 77.9198 127.947 77.8155 128.132 77.6996C128.654 77.4098 128.874 76.8766 128.816 76.0884C128.723 74.8598 128.225 74.57 126.092 74.5005L124.551 74.4541V78.1168ZM127.275 75.8102C127.472 75.9957 127.564 76.2159 127.564 76.5057C127.564 77.1432 127.159 77.4909 126.405 77.4909H125.826V76.5057V75.5205H126.405C126.881 75.5205 127.054 75.5784 127.275 75.8102ZM127.379 78.8239C127.611 79.0441 127.68 79.2064 127.68 79.6005C127.669 80.3886 127.275 80.7364 126.359 80.7364H125.826V79.6352V78.5341H126.452C126.95 78.5341 127.124 78.5921 127.379 78.8239Z" fill="white"/>
<path d="M37.7694 75.1263C37.3058 75.3002 37.2826 75.3234 37.2478 75.845C37.2131 76.3781 37.2131 76.3897 36.7842 76.4245C36.3553 76.4593 36.3438 76.4709 36.3438 76.9229C36.3438 77.375 36.3438 77.375 36.8074 77.375H37.271V79.1368C37.271 80.6899 37.2942 80.9565 37.5028 81.2811C37.7694 81.7215 38.0244 81.8027 38.9053 81.7563L39.5312 81.7215L39.566 81.2463C39.6008 80.7827 39.6008 80.7711 39.2415 80.829C38.604 80.9218 38.546 80.7711 38.546 78.9861V77.375H39.0676H39.5892V76.9113V76.4477H39.0676H38.546V75.6943C38.546 74.8597 38.546 74.8597 37.7694 75.1263Z" fill="white"/>
<path d="M99.7232 75.126L99.1668 75.2999V75.8678V76.4474H98.7611C98.3671 76.4474 98.3555 76.459 98.3555 76.911C98.3555 77.3631 98.3671 77.3746 98.7611 77.3746H99.1668V79.1133C99.1668 81.0605 99.2596 81.4199 99.8391 81.6517C100.025 81.7328 100.453 81.7792 100.801 81.756L101.427 81.7212L101.462 81.246C101.497 80.7708 101.497 80.7708 101.126 80.8287C100.523 80.9215 100.442 80.6896 100.442 78.9162V77.3746H100.963H101.485V76.911V76.4474H100.963H100.442V75.694C100.442 75.2767 100.407 74.9406 100.361 74.9522C100.303 74.9522 100.025 75.0333 99.7232 75.126Z" fill="white"/>
<path d="M27.9745 76.5628C27.2095 76.9685 26.7227 77.9769 26.7227 79.1707C26.7227 80.3066 27.2558 81.2687 28.0788 81.6164C28.5308 81.8134 29.7247 81.825 30.3274 81.6396C30.7447 81.5237 30.7795 81.4773 30.7795 81.0832C30.7795 80.5385 30.7215 80.4921 30.339 80.6891C30.1651 80.7819 29.7247 80.8514 29.3538 80.8514C28.7626 80.8514 28.6351 80.805 28.3338 80.5153C28.1136 80.2835 27.9977 80.0516 27.9977 79.8198V79.4605H29.5045H31.0113V78.9041C31.0113 77.7103 30.5013 76.7598 29.7015 76.4585C29.2031 76.2614 28.4497 76.3194 27.9745 76.5628ZM29.5972 77.6407C29.6667 77.7798 29.7363 78.0464 29.7595 78.2435L29.7942 78.5912L28.9017 78.626L27.9977 78.6607V78.3362C27.9977 77.5828 28.5656 77.0728 29.1567 77.2698C29.3306 77.3394 29.5276 77.5016 29.5972 77.6407Z" fill="white"/>
<path d="M32.9256 76.5971C32.346 76.9217 31.9983 77.5592 32.1026 78.1271C32.1838 78.5444 32.659 79.008 33.621 79.6224C34.2238 79.9933 34.3976 80.3642 34.1426 80.6887C33.9688 80.8974 33.1922 80.8974 32.6126 80.6887L32.1838 80.538L32.1142 80.9901C32.0563 81.2799 32.0795 81.5001 32.1606 81.5812C32.3808 81.8014 34.1426 81.8246 34.641 81.6276C35.1626 81.4074 35.5335 80.8278 35.5335 80.2483C35.5335 79.7035 35.1858 79.2978 34.1426 78.614C33.2733 78.0576 33.1342 77.7331 33.621 77.4201C33.8876 77.2462 34.0035 77.2346 34.5135 77.3621C34.8381 77.4317 35.1163 77.4781 35.1394 77.4665C35.151 77.4433 35.1858 77.2231 35.209 76.9681C35.2438 76.5392 35.2206 76.5044 34.896 76.4349C34.1426 76.2726 33.4008 76.3306 32.9256 76.5971Z" fill="white"/>
<path d="M45.5596 76.4584C45.4321 76.5279 45.2118 76.7249 45.0727 76.8988L44.8062 77.2002V76.8177V76.4468H44.1571C43.6123 76.4468 43.5196 76.4815 43.5775 76.6322C43.6123 76.7365 43.6471 77.9304 43.6471 79.2981V81.7786H44.2846H44.9221V79.8661C44.9221 77.9768 44.9221 77.942 45.2118 77.6638C45.49 77.374 45.8957 77.2929 46.1507 77.4668C46.4752 77.6754 46.5448 78.1159 46.5448 79.9124V81.7786H47.1823H47.8198L47.8082 79.7154C47.8082 77.3856 47.7155 76.9915 47.1359 76.5974C46.7071 76.3077 45.9652 76.2497 45.5596 76.4584Z" fill="white"/>
<path d="M50.1247 76.5986C49.522 77.0043 49.1974 77.6998 49.1279 78.7429C49.012 80.3888 49.5915 81.5247 50.6463 81.7218C51.1679 81.8261 51.8054 81.6059 52.1068 81.235L52.3386 80.9336V81.5827C52.3386 82.1391 52.2922 82.2897 52.0024 82.6143C51.6895 82.9736 51.6083 82.9968 50.9245 82.9852C50.4724 82.9852 50.0552 82.9156 49.8234 82.7881C49.4061 82.5679 49.3249 82.6606 49.3249 83.3445C49.3249 83.785 49.3829 83.8197 50.4493 83.982C51.4577 84.1443 52.327 83.9704 52.8602 83.4952C53.5208 82.9272 53.6136 82.3941 53.6136 79.2066V76.4479H53.034C52.4545 76.4479 52.4545 76.4479 52.4545 76.8189V77.2014L52.1879 76.8884C51.6547 76.2625 50.8086 76.135 50.1247 76.5986ZM51.6895 77.3868C52.1183 77.5838 52.3386 78.1634 52.3386 79.1138C52.3386 80.0991 52.1415 80.5395 51.6315 80.725C51.0172 80.9336 50.6579 80.6207 50.484 79.6934C50.3102 78.7893 50.4493 77.9663 50.8433 77.5838C51.2027 77.2245 51.2722 77.2014 51.6895 77.3868Z" fill="white"/>
<path d="M71.4068 76.5058C71.1518 76.5986 70.9316 76.6797 70.92 76.6797C70.8736 76.6797 70.8736 77.7229 70.92 77.7229C70.9316 77.7229 71.1518 77.6185 71.4068 77.491C71.8936 77.2476 72.6239 77.1897 72.9716 77.3751C73.1454 77.4679 73.4352 78.0358 73.4352 78.3024C73.4352 78.3488 73.0527 78.4299 72.6007 78.4647C71.6039 78.569 70.862 78.8588 70.5955 79.2645C70.1666 79.9251 70.2709 80.9104 70.8389 81.4435C71.0591 81.6522 71.2909 81.7217 71.8589 81.7565C72.5427 81.8029 72.6123 81.7797 73.0064 81.4435L73.4236 81.0726L73.4584 81.3972C73.4932 81.6985 73.5395 81.7217 74.0727 81.7565L74.6523 81.7913L74.5943 79.589C74.5248 77.1317 74.4668 76.9463 73.6554 76.5406C73.1686 76.2856 72.0559 76.274 71.4068 76.5058ZM73.4352 79.3108C73.4236 80.2729 72.9948 80.9683 72.4268 80.9683C71.8936 80.9683 71.5807 80.6785 71.5807 80.1801C71.5807 79.6238 71.685 79.4731 72.2298 79.2876C72.8905 79.0442 73.4352 79.0674 73.4352 79.3108Z" fill="white"/>
<path d="M89.972 76.5057C88.8245 76.9114 88.2102 78.2559 88.4883 79.7627C88.7433 81.142 89.5199 81.768 90.934 81.7795C92.1974 81.7795 92.3481 81.6636 92.1395 80.887C92.0815 80.6784 92.0235 80.6552 91.7801 80.748C90.679 81.1652 89.7749 80.4118 89.7749 79.0557C89.7749 77.6648 90.5283 77.0621 91.7801 77.4214C92.0815 77.5141 92.0931 77.5025 92.0931 77.0389C92.0931 76.6332 92.0467 76.5405 91.7917 76.4477C91.3745 76.2855 90.4936 76.3087 89.972 76.5057Z" fill="white"/>
<path d="M94.0431 76.5173C93.4635 76.6912 93.394 76.8302 93.5562 77.4446C93.6258 77.688 93.6258 77.688 94.0662 77.4793C94.7153 77.1664 95.3992 77.1896 95.7469 77.5489C95.9092 77.6996 96.0367 77.9546 96.0367 78.1052C96.0367 78.3718 95.9903 78.395 95.2021 78.4646C93.6837 78.6152 92.9883 79.16 92.9883 80.2148C92.9883 81.1884 93.591 81.7795 94.5994 81.7795C95.1558 81.7795 95.9092 81.4318 95.9324 81.1652C95.9324 81.0841 95.9903 81.2 96.0483 81.397C96.1526 81.7564 96.1874 81.7795 96.7089 81.7795H97.2537L97.2189 79.67C97.1726 77.2011 97.0799 76.8882 96.338 76.5521C95.7701 76.2971 94.808 76.2739 94.0431 76.5173ZM96.0367 79.5193C96.0367 80.0525 95.7701 80.69 95.4803 80.8407C94.8428 81.1768 94.1821 80.8059 94.1821 80.122C94.1821 79.5193 94.7269 79.1484 95.6658 79.1252C96.0135 79.1136 96.0367 79.1368 96.0367 79.5193Z" fill="white"/>
<path d="M106.921 76.4477C105.913 76.7491 105.426 77.6184 105.426 79.1136C105.437 80.9914 106.133 81.7795 107.779 81.7795C109.158 81.7795 109.923 80.9914 110.039 79.4614C110.143 77.9777 109.703 76.9925 108.729 76.5521C108.254 76.3318 107.454 76.2855 106.921 76.4477ZM108.254 77.4446C108.613 77.8039 108.718 78.14 108.718 79.0557C108.718 80.122 108.497 80.6784 107.999 80.8639C107.361 81.1073 106.84 80.5741 106.736 79.5425C106.643 78.6384 106.782 77.9082 107.106 77.5605C107.431 77.2127 107.976 77.1548 108.254 77.4446Z" fill="white"/>
<path d="M113.422 76.413C113.33 76.4477 113.075 76.6332 112.878 76.8302L112.495 77.1896V76.8187C112.495 76.4477 112.495 76.4477 111.915 76.4477H111.336V79.1136V81.7795H111.973H112.611V80.0525C112.611 77.8618 112.773 77.3866 113.561 77.375C114.153 77.375 114.234 77.6764 114.234 79.8323V81.7795H114.871H115.509V79.5889C115.509 77.5141 115.497 77.3866 115.242 77.0157C115.103 76.8071 114.848 76.5637 114.697 76.4825C114.408 76.3318 113.735 76.2971 113.422 76.413Z" fill="white"/>
<path d="M117.77 76.4822C117.226 76.7372 116.785 77.3168 116.785 77.792C116.785 78.4527 117.063 78.8236 118.002 79.4031C118.605 79.7856 118.895 80.0406 118.953 80.2493C119.092 80.8172 118.257 81.0374 117.26 80.6781L116.785 80.5158V81.0374C116.785 81.4895 116.82 81.5706 117.087 81.6633C117.527 81.8372 118.953 81.8024 119.312 81.617C120.112 81.1997 120.448 80.3883 120.1 79.7045C119.996 79.5074 119.613 79.1481 119.242 78.9163C118.304 78.3136 118.06 78.0702 118.06 77.7572C118.06 77.3631 118.524 77.2125 119.242 77.3747C119.555 77.4327 119.834 77.4906 119.857 77.4906C119.984 77.4906 119.903 76.575 119.787 76.4938C119.509 76.3315 118.118 76.32 117.77 76.4822Z" fill="white"/>
<path d="M131.562 76.5511C131.307 76.667 131.006 76.864 130.901 76.9799C130.078 77.9072 130.044 80.1327 130.832 81.0367C131.342 81.6163 131.724 81.7786 132.617 81.7786C133.903 81.7786 134.599 81.2106 134.877 79.9356C135.097 78.9156 134.842 77.5827 134.309 76.9799C133.996 76.6206 133.231 76.3309 132.605 76.3309C132.292 76.3309 131.817 76.4352 131.562 76.5511ZM133.289 77.6406C133.625 78.0927 133.706 79.7038 133.417 80.3065C133.173 80.8165 132.709 81.0367 132.281 80.8397C131.84 80.6427 131.62 80.0747 131.62 79.1358C131.62 77.8261 131.956 77.2234 132.64 77.2813C132.93 77.3045 133.115 77.4088 133.289 77.6406Z" fill="white"/>
<path d="M137.011 76.5058C136.756 76.5986 136.536 76.6797 136.524 76.6797C136.478 76.6797 136.478 77.7229 136.524 77.7229C136.536 77.7229 136.756 77.6185 137.011 77.491C137.463 77.2592 138.147 77.1897 138.518 77.3288C138.715 77.4099 139.04 77.9547 139.04 78.2213C139.04 78.3488 138.808 78.4067 138.205 78.4647C136.721 78.6154 136.119 79.021 135.968 79.9947C135.794 81.0263 136.49 81.7797 137.614 81.7797C138.124 81.7797 138.286 81.7217 138.622 81.4319L139.028 81.0726L139.063 81.3972C139.097 81.6985 139.144 81.7217 139.677 81.7565L140.257 81.7913L140.222 79.7281C140.187 77.4679 140.094 77.0854 139.468 76.6333C139.051 76.3204 137.683 76.2508 137.011 76.5058ZM139.04 79.4267C139.04 80.3424 138.611 80.9683 137.996 80.9683C137.498 80.9683 137.185 80.6669 137.185 80.1685C137.185 79.5195 137.707 79.1485 138.669 79.1254C139.005 79.1138 139.04 79.1485 139.04 79.4267Z" fill="white"/>
<path d="M143.318 76.7839L142.866 77.2359V76.8418V76.4477H142.287H141.707V79.1136V81.7795H142.345H142.982V80.0989C142.982 78.2443 143.075 77.8734 143.62 77.63C143.782 77.5489 144.048 77.4909 144.199 77.4909C144.466 77.4909 144.489 77.4446 144.489 76.9114C144.489 76.3434 144.489 76.3318 144.13 76.3318C143.863 76.3318 143.643 76.4477 143.318 76.7839Z" fill="white"/>
<path d="M40.75 79.1136V81.7795H41.3875H42.025V79.1136V76.4477H41.3875H40.75V79.1136Z" fill="white"/>
<path d="M64.9727 78.3834C64.9727 80.5857 65.0654 81.0609 65.5638 81.4782C65.8536 81.7216 66.039 81.7795 66.5606 81.7795C67.1286 81.7795 67.2445 81.7332 67.5922 81.3855L67.9863 80.9914V81.3855V81.7795H68.6354C69.2613 81.7795 69.2845 81.768 69.2149 81.513C69.1801 81.3739 69.1454 80.18 69.1454 78.8471V76.4477H68.5079H67.8704V78.2907C67.8704 79.983 67.8472 80.1452 67.627 80.435C67.4299 80.69 67.3024 80.7364 66.9663 80.7132C66.3288 80.6552 66.2477 80.4002 66.2477 78.2675V76.4477H65.6102H64.9727V78.3834Z" fill="white"/>
<path d="M79.1172 79.1136V81.7795H79.7547H80.3922V79.1136V76.4477H79.7547H79.1172V79.1136Z" fill="white"/>
<path d="M85.7227 79.1136V81.7795H86.3602H86.9977V79.1136V76.4477H86.3602H85.7227V79.1136Z" fill="white"/>
<path d="M102.641 79.1136V81.7795H103.336H104.032V79.1136V76.4477H103.336H102.641V79.1136Z" fill="white"/>
<path d="M10.9805 85.8943C10.9805 86.0798 11.0037 86.1493 11.0384 86.0334C11.0616 85.9291 11.0616 85.7668 11.0384 85.6857C11.0037 85.6162 10.9805 85.6973 10.9805 85.8943Z" fill="white"/>
</g>
<defs>
<clipPath id="clip0_26330_59497">
<rect width="151" height="85.5406" fill="white" transform="translate(0 0.729736)"/>
</clipPath>
</defs>
</svg>
