<svg width="113" height="113" viewBox="0 0 113 113" fill="none" xmlns="http://www.w3.org/2000/svg">
<g clip-path="url(#clip0_26330_59680)">
<path d="M46.5081 87.0188H40.2174C40.0485 87.0188 39.9219 86.8921 39.9219 86.7233C39.9219 86.5544 40.0485 86.4277 40.2174 86.4277H46.5081C46.677 86.4277 46.8036 86.5544 46.8036 86.7233C46.8458 86.8921 46.7192 87.0188 46.5081 87.0188Z" fill="white"/>
<path d="M46.5044 88.5385H37.8073C37.6384 88.5385 37.5117 88.4118 37.5117 88.2429C37.5117 88.074 37.6384 87.9474 37.8073 87.9474H46.5044C46.6733 87.9474 46.8 88.074 46.8 88.2429C46.8422 88.4118 46.7155 88.5385 46.5044 88.5385Z" fill="white"/>
<path d="M46.5081 90.0588H40.2174C40.0485 90.0588 39.9219 89.9322 39.9219 89.7633C39.9219 89.5944 40.0485 89.4678 40.2174 89.4678H46.5081C46.677 89.4678 46.8036 89.5944 46.8036 89.7633C46.8458 89.89 46.7192 90.0588 46.5081 90.0588Z" fill="white"/>
<path d="M74.0081 90.0569H67.7174C67.5485 90.0569 67.4219 89.9302 67.4219 89.7614C67.4219 89.5925 67.5485 89.4658 67.7174 89.4658H74.0081C74.177 89.4658 74.3036 89.5925 74.3036 89.7614C74.3036 89.888 74.177 90.0569 74.0081 90.0569Z" fill="white"/>
<path d="M76.4146 88.5365H67.7174C67.5485 88.5365 67.4219 88.4098 67.4219 88.241C67.4219 88.0721 67.5485 87.9454 67.7174 87.9454H76.4146C76.5835 87.9454 76.7101 88.0721 76.7101 88.241C76.7101 88.4098 76.5835 88.5365 76.4146 88.5365Z" fill="white"/>
<path d="M74.0081 87.0168H67.7174C67.5485 87.0168 67.4219 86.8902 67.4219 86.7213C67.4219 86.5524 67.5485 86.4258 67.7174 86.4258H74.0081C74.177 86.4258 74.3036 86.5524 74.3036 86.7213C74.3036 86.8902 74.177 87.0168 74.0081 87.0168Z" fill="white"/>
<path d="M101.818 31.0768C102.662 31.6679 103.38 31.5412 103.338 29.0925C103.296 27.8681 102.789 26.0949 102.24 24.7017C101.691 23.2662 101.058 22.2108 101.1 22.2108C101.1 22.2108 99.9604 24.6595 100.171 27.066C100.214 27.7837 100.34 28.417 100.467 28.9236C99.6649 27.5726 98.8205 26.2638 97.9339 24.9972C98.0605 25.0817 98.145 25.1239 98.2716 25.2083C99.1582 25.6727 99.876 25.4616 99.496 23.0129C99.2849 21.7886 98.5672 20.142 97.8072 18.791C97.0473 17.4822 96.3295 16.4689 96.3295 16.4689C96.3295 16.4689 95.5696 19.0443 96.0762 21.4086C96.2451 22.1263 96.414 22.7174 96.6251 23.1818C96.3295 22.8018 95.9918 22.3796 95.654 21.9997C95.9496 21.493 95.5274 20.0998 92.7409 17.3555C91.1788 15.8356 89.0256 14.4424 87.2524 13.5136C85.4792 12.5848 84.0859 12.0781 84.0859 12.0781C84.0859 12.0781 85.1414 13.0914 86.4924 14.4846C87.8857 15.8779 89.5322 17.6511 91.0099 19.1287C93.6275 21.7041 94.7252 22.5063 95.3163 22.2952C95.654 22.6752 95.9496 23.0974 96.2451 23.4773C95.8229 23.1818 95.3163 22.8863 94.6408 22.5907C92.4454 21.7041 89.9544 22.5907 89.9544 22.5907L91.8543 23.984C92.9098 24.7439 94.2186 25.6727 95.2318 26.1794C97.3006 27.1504 97.765 26.686 97.6806 25.6727C97.6806 25.5461 97.6383 25.4194 97.5961 25.2928C98.4827 26.5593 99.3271 27.8681 100.087 29.1769C99.7071 28.797 99.2427 28.4592 98.6094 28.0792C96.5406 26.8971 93.9652 27.4037 93.9652 27.4037L95.654 29.0503C96.5828 29.9369 97.765 31.0768 98.736 31.6679C100.636 32.9345 101.185 32.5123 101.227 31.499C101.227 31.3723 101.227 31.2457 101.227 31.119C101.945 32.47 102.578 33.9055 103.169 35.2987C102.874 34.8765 102.409 34.4543 101.86 34.0322C99.9604 32.5967 97.3428 32.7234 97.3428 32.7234L98.7783 34.581C99.5804 35.5943 100.594 36.8608 101.438 37.6208C103.169 39.1407 103.76 38.8029 103.929 37.7897C103.929 37.663 103.971 37.5364 103.971 37.4097C104.478 38.8452 104.942 40.3228 105.322 41.8427C105.069 41.3783 104.689 40.9139 104.182 40.4073C102.536 38.7185 99.8759 38.5074 99.8759 38.5074L101.058 40.5339C101.734 41.6738 102.536 43.0249 103.296 43.9115C104.816 45.6425 105.407 45.3891 105.744 44.4181C105.787 44.2914 105.787 44.1648 105.829 44.0381C106.124 45.558 106.378 47.0779 106.589 48.5978C106.378 48.1334 106.082 47.5845 105.66 46.9935C104.267 45.0936 101.649 44.5025 101.691 44.5448L102.578 46.7402C103.085 47.9645 103.718 49.4422 104.309 50.371C105.576 52.2709 106.209 52.1442 106.631 51.2154C106.673 51.0887 106.715 50.9621 106.758 50.8354C106.842 52.3553 106.884 53.9174 106.842 55.4796C106.715 54.9729 106.504 54.4241 106.167 53.7908C105.027 51.722 102.536 50.7932 102.578 50.7932L103.169 53.0731C103.507 54.3396 103.887 55.9017 104.393 56.915C105.364 58.9838 106.04 58.9415 106.589 58.0549C106.673 57.9283 106.715 57.8438 106.758 57.7172C106.631 59.2371 106.462 60.7992 106.209 62.3191C106.167 61.8124 105.998 61.2214 105.744 60.5459C104.9 58.3082 102.578 57.0839 102.578 57.0839L102.831 59.4059C103 60.7147 103.169 62.2769 103.507 63.3746C104.182 65.57 104.858 65.6122 105.533 64.81C105.618 64.7256 105.702 64.5989 105.744 64.5145C105.407 66.0344 105.027 67.512 104.562 68.9897C104.562 68.4831 104.52 67.8498 104.351 67.1743C103.845 64.8522 101.691 63.2901 101.691 63.2901L101.607 65.6544C101.565 66.9632 101.565 68.5675 101.734 69.7075C102.114 71.9873 102.747 72.114 103.549 71.3962C103.633 71.3118 103.718 71.2273 103.802 71.1007C103.296 72.5361 102.705 73.9716 102.029 75.3648C102.114 74.8582 102.156 74.2249 102.071 73.5072C101.86 71.1429 99.9604 69.2853 99.9604 69.3275L99.5804 71.6495C99.3693 72.9583 99.116 74.5205 99.1582 75.6604C99.2004 77.9402 99.8337 78.1935 100.72 77.6025C100.847 77.518 100.931 77.4336 101.016 77.3491C100.298 78.7002 99.496 80.0512 98.6516 81.36C98.8205 80.8533 98.9049 80.2623 98.9471 79.5445C99.0738 77.1803 97.4272 75.1115 97.4272 75.1115L96.7095 77.3491C96.3295 78.6157 95.8651 80.1356 95.7385 81.2755C95.4851 83.5554 96.0762 83.8509 97.005 83.4287C97.1317 83.3865 97.2161 83.3021 97.3428 83.2176C96.4562 84.4842 95.4851 85.6663 94.4719 86.8485C94.683 86.3841 94.8941 85.793 95.0207 85.1175C95.4851 82.7954 94.1341 80.5156 94.1341 80.5156L93.1209 82.6266C92.572 83.8087 91.8965 85.2441 91.601 86.3841C91.0521 88.5795 91.601 89.0017 92.572 88.6639C92.6987 88.6217 92.8253 88.5795 92.952 88.5373C91.8965 89.635 90.7566 90.7327 89.6167 91.7459C89.9122 91.3237 90.1655 90.7749 90.4188 90.0994C91.1788 87.8617 90.2077 85.413 90.2077 85.413L88.8989 87.3551C88.1812 88.4528 87.3368 89.8038 86.9146 90.8593C86.028 92.9703 86.5347 93.4347 87.5479 93.2658C87.6746 93.2658 87.8012 93.2236 87.9279 93.1814C86.9569 93.9413 87.1557 93.8834 86.1424 94.6012C85.5935 94.8123 86.1971 94.2249 86.0282 94.3515C85.6905 94.5626 86.1596 94.4746 86.3707 94.8124C86.5818 95.1501 86.5786 95.4268 86.9164 95.2157C87.1275 95.089 85.9506 95.419 86.3728 94.9968C87.3861 94.3213 87.2524 94.3213 88.2234 93.5613C88.139 93.688 88.0968 93.8147 88.0545 93.8991C87.6324 94.8279 87.8857 95.5456 90.2922 94.9968C91.5165 94.7435 93.1209 93.8991 94.4297 93.0547C95.6962 92.2103 96.6673 91.4504 96.6673 91.4504C96.6673 91.4504 94.0497 90.8171 91.7276 91.4504C91.0099 91.6615 90.461 91.8726 89.9544 92.0837C91.1366 91.0704 92.2765 89.9727 93.332 88.875C93.2897 89.0017 93.2475 89.1283 93.2053 89.255C92.9098 90.226 93.2475 90.9015 95.5696 90.0572C96.7517 89.635 98.2294 88.5795 99.3693 87.5662C100.551 86.5952 101.354 85.6663 101.354 85.6663C101.354 85.6663 98.6938 85.413 96.4562 86.3418C95.7807 86.6374 95.2318 86.9329 94.8096 87.2285C95.8229 86.0463 96.794 84.822 97.7228 83.5554C97.6806 83.682 97.6806 83.8087 97.6383 83.9353C97.4695 84.9486 97.9339 85.5397 100.087 84.3998C101.185 83.8087 102.536 82.5843 103.507 81.4022C104.52 80.2623 105.196 79.249 105.196 79.249C105.196 79.249 102.494 79.3757 100.467 80.6C99.8337 80.98 99.3271 81.36 98.9471 81.6977C99.7915 80.3889 100.594 79.0379 101.311 77.6869C101.311 77.8136 101.269 77.9402 101.269 78.0669C101.269 79.0801 101.776 79.629 103.76 78.1935C104.773 77.4758 105.913 76.0403 106.758 74.7738C107.602 73.5072 108.151 72.4095 108.151 72.4095C108.151 72.4095 105.491 72.8739 103.633 74.3938C103.085 74.8582 102.62 75.2804 102.282 75.7026C102.958 74.3094 103.549 72.8317 104.056 71.3962C104.056 71.5229 104.056 71.6495 104.098 71.7762C104.225 72.7895 104.816 73.2539 106.589 71.5229C107.475 70.6785 108.404 69.1164 109.08 67.7231C109.755 66.3299 110.135 65.19 110.135 65.19C110.135 65.19 107.56 66.0344 105.956 67.7654C105.449 68.3142 105.069 68.7786 104.773 69.243C105.238 67.7654 105.618 66.2455 105.956 64.7256C105.956 64.8522 105.998 64.9789 106.04 65.1055C106.293 66.0766 106.927 66.4566 108.489 64.5145C109.249 63.5434 109.966 61.8547 110.431 60.4192C110.895 58.9838 111.106 57.7594 111.106 57.7594C111.106 57.7594 108.7 58.9415 107.307 60.9258C106.884 61.5169 106.589 62.0658 106.336 62.5302C106.589 61.0103 106.758 59.4482 106.884 57.8861C106.927 58.0127 106.969 58.1394 107.011 58.266C107.391 59.1948 108.109 59.4904 109.333 57.3794C109.966 56.3239 110.431 54.5507 110.684 53.0308C110.937 51.5109 111.022 50.2866 111.022 50.2866C111.022 50.2866 108.784 51.8065 107.687 53.9174C107.349 54.5929 107.138 55.1418 106.969 55.6484C107.011 54.0863 106.969 52.5242 106.884 50.9621C106.927 51.0887 107.011 51.2154 107.053 51.2998C107.56 52.1864 108.278 52.3553 109.249 50.0755C109.713 48.9356 109.966 47.1201 110.009 45.6002C110.051 44.0803 109.966 42.856 109.966 42.856C109.966 42.856 107.982 44.6714 107.18 46.909C106.927 47.6268 106.8 48.2178 106.715 48.7245C106.547 47.1624 106.293 45.6425 105.956 44.1226C106.04 44.2492 106.124 44.3337 106.167 44.4603C106.8 45.2625 107.56 45.3469 108.151 42.9404C108.446 41.7583 108.446 39.9006 108.278 38.3807C108.109 36.8608 107.855 35.6787 107.855 35.6787C107.855 35.6787 106.124 37.7474 105.66 40.1117C105.533 40.8295 105.449 41.4627 105.449 41.9694C105.069 40.4495 104.605 38.9718 104.098 37.4941C104.182 37.5786 104.267 37.7052 104.351 37.7897C105.069 38.5074 105.829 38.4652 106.124 36.0165C106.251 34.7921 105.998 32.9767 105.618 31.499C105.238 30.0213 104.816 28.8814 104.816 28.8814C104.816 28.8814 103.38 31.1612 103.253 33.5677C103.211 34.3277 103.211 34.9188 103.296 35.4254C102.705 33.9899 102.029 32.5545 101.311 31.2035C101.607 30.9079 101.691 30.9924 101.818 31.0768Z" fill="white"/>
<path d="M13.0318 31.372C13.0318 32.3853 13.5807 32.8075 15.5228 31.5409C16.4938 30.9076 17.6337 29.8099 18.6048 28.9233L20.2935 27.2768C20.2935 27.2768 17.7182 26.7701 15.6494 27.9523C15.0161 28.29 14.5517 28.67 14.1717 29.05C14.9317 27.699 15.7761 26.4324 16.6627 25.1658C16.6205 25.2925 16.6205 25.4191 16.5782 25.5458C16.4516 26.559 16.9582 27.0235 19.027 26.0524C20.0402 25.588 21.349 24.617 22.4045 23.857L24.3044 22.4638C24.3044 22.4638 21.8134 21.5772 19.618 22.4638C18.9425 22.7171 18.4359 23.0126 18.0137 23.3504C18.3092 22.9704 18.647 22.5482 18.9425 22.1682C19.5758 22.3793 20.6313 21.6194 23.2489 19.0018C24.7266 17.5663 26.3731 15.7509 27.7664 14.3577C29.1174 12.9644 30.2151 11.9512 30.1729 11.9512C30.1729 11.9512 28.7796 12.4578 27.0064 13.3866C25.2332 14.3155 23.08 15.7087 21.5179 17.2286C18.7314 19.9728 18.3092 21.3661 18.6048 21.8727C18.267 22.2527 17.9715 22.6749 17.6337 23.0548C17.8448 22.5904 18.0137 21.9994 18.1826 21.2816C18.6892 18.9174 17.9293 16.342 17.9293 16.342C17.9293 16.342 17.1693 17.313 16.4516 18.664C15.6916 19.9728 14.9317 21.6616 14.7628 22.886C14.3828 25.3347 15.1006 25.5458 15.9872 25.0814C16.1138 25.0392 16.1983 24.9547 16.3249 24.8703C15.4383 26.1369 14.5939 27.4457 13.7918 28.7967C13.9184 28.29 14.0029 27.699 14.0873 26.939C14.2984 24.5325 13.1585 22.0838 13.1585 22.0838C13.1585 22.0838 12.5674 23.1815 12.0186 24.5747C11.4697 26.0102 10.9209 27.7412 10.9209 28.9655C10.8786 31.4565 11.5964 31.5409 12.4407 30.9499C12.5674 30.8654 12.6518 30.781 12.7363 30.6965C12.0186 32.0898 11.343 33.483 10.752 34.9185C10.7942 34.4118 10.8364 33.7785 10.7942 33.0608C10.6675 30.6543 9.23208 28.3745 9.23208 28.3745C9.23208 28.3745 8.80989 29.5144 8.42991 30.9921C8.04994 32.4697 7.79662 34.2852 7.92328 35.5095C8.21882 37.9583 8.97876 38.0005 9.69649 37.2827C9.78093 37.1983 9.86537 37.1139 9.94981 36.9872C9.40096 38.4649 8.97876 39.9426 8.59879 41.4625C8.59879 40.9558 8.51435 40.3225 8.38769 39.6048C7.92328 37.2405 6.19229 35.214 6.19229 35.1718C6.19229 35.1718 5.89676 36.3539 5.7701 37.8738C5.60122 39.3937 5.60122 41.2091 5.89676 42.4335C6.53005 44.84 7.28999 44.7556 7.88106 43.9534C7.9655 43.869 8.04994 43.7423 8.09216 43.6156C7.75441 45.1355 7.50109 46.6554 7.33221 48.2175C7.24777 47.7109 7.0789 47.1198 6.8678 46.4021C6.06563 44.1223 4.08133 42.3491 4.08133 42.3491C4.08133 42.3491 3.95467 43.5734 4.03911 45.0933C4.08133 46.6132 4.33464 48.4286 4.79905 49.5686C5.7701 51.8484 6.48783 51.6795 6.99446 50.7929C7.0789 50.6663 7.12111 50.5818 7.16333 50.4552C7.0789 52.0173 7.03668 53.5794 7.0789 55.1415C6.91002 54.6349 6.69892 54.086 6.36117 53.4105C5.26347 51.2573 3.02585 49.7797 3.02585 49.7797C3.02585 49.7797 3.06806 51.004 3.3636 52.5239C3.61691 54.0438 4.12355 55.7748 4.71462 56.8725C5.9812 59.0257 6.6567 58.7301 7.03668 57.7591C7.0789 57.6324 7.12111 57.5058 7.16333 57.3791C7.28999 58.9412 7.45887 60.4611 7.71219 62.0233C7.50109 61.5588 7.16334 61.01 6.74114 60.4189C5.34791 58.4346 2.94141 57.2947 2.94141 57.2525C2.94141 57.2525 3.1525 58.4768 3.65913 59.9123C4.12355 61.39 4.84127 63.0365 5.60122 64.0076C7.16334 65.9496 7.79663 65.5697 8.04994 64.5986C8.09216 64.472 8.09216 64.3453 8.13438 64.2187C8.47213 65.7385 8.85211 67.2584 9.31652 68.7361C9.02099 68.3139 8.64101 67.8073 8.13438 67.2584C6.48783 65.4852 3.95467 64.6831 3.95467 64.6831C3.95467 64.6831 4.33464 65.8652 5.01015 67.2162C5.68566 68.6095 6.61448 70.1716 7.50109 71.016C9.2743 72.747 9.86537 72.2403 9.99203 71.2693C9.99203 71.1426 10.0342 71.016 10.0342 70.8893C10.5409 72.367 11.1742 73.8024 11.8075 75.1957C11.4697 74.7735 11.0053 74.3513 10.4564 73.8869C8.59879 72.367 5.93898 71.9026 5.93898 71.9026C5.93898 71.9026 6.48783 73.0003 7.33221 74.2668C8.1766 75.5334 9.31652 76.9689 10.3298 77.6866C12.3563 79.1221 12.8629 78.6154 12.8207 77.56C12.8207 77.4333 12.8207 77.3066 12.7785 77.18C13.4962 78.5732 14.2984 79.882 15.1428 81.1908C14.7628 80.8531 14.2562 80.4731 13.6229 80.0931C11.5964 78.8265 8.89433 78.7421 8.89433 78.7421C8.89433 78.7421 9.61206 79.7553 10.5831 80.8953C11.5964 82.0352 12.9052 83.3018 14.0029 83.8928C16.1983 85.075 16.6205 84.4417 16.4516 83.4284C16.4516 83.3018 16.4094 83.1751 16.3671 83.0485C17.2537 84.315 18.2248 85.5394 19.2803 86.7215C18.8581 86.426 18.3092 86.1305 17.6337 85.8349C15.4383 85.075 12.7785 85.3283 12.7785 85.3283C12.7785 85.3283 13.6229 86.2571 14.7628 87.2282C15.9027 88.2414 17.4226 89.2547 18.5625 89.7191C20.8846 90.5635 21.2224 89.888 20.9268 88.9169C20.8846 88.7903 20.8424 88.6636 20.8002 88.537C21.8556 89.6769 22.9956 90.7324 24.1777 91.7456C23.7133 91.5345 23.1222 91.3234 22.4045 91.1123C20.0824 90.4791 17.4648 91.1123 17.4648 91.1123C17.4648 91.1123 18.4359 91.9145 19.7025 92.7167C20.969 93.5611 22.6156 94.3632 23.84 94.6588C26.2465 95.1654 26.4998 94.4477 26.0776 93.5611C26.0354 93.4344 25.9509 93.3077 25.9087 93.2233C26.8797 93.9833 28.0273 94.5066 29.0405 95.2243C29.4627 95.6465 30.2678 95.846 30.4789 95.9726C30.8589 96.226 29.8773 96.2631 30.0884 95.9253C30.2995 95.5876 30.8906 95.8831 30.5528 95.6298C30.3417 95.5031 29.7084 95.2498 29.1596 95.0387C28.1463 94.3632 27.1753 93.6033 26.2042 92.8433C26.3309 92.8855 26.4576 92.9278 26.5842 92.9278C27.5975 93.0966 28.1041 92.6322 27.2175 90.5213C26.7953 89.4658 25.9087 88.1148 25.2332 87.0171L23.9244 85.075C23.9244 85.075 22.9534 87.5237 23.7133 89.7613C23.9666 90.4368 24.2199 90.9857 24.5155 91.4079C23.3333 90.3946 22.2356 89.3391 21.1801 88.1992C21.3068 88.2414 21.4335 88.3259 21.5601 88.3259C22.5312 88.6636 23.08 88.2414 22.5312 86.046C22.2356 84.9483 21.5601 83.5129 21.0113 82.2885L19.998 80.1776C19.998 80.1776 18.6892 82.4574 19.1114 84.7794C19.2381 85.4972 19.4492 86.046 19.6602 86.5104C18.647 85.3283 17.6759 84.1462 16.7893 82.8796C16.916 82.964 17.0004 83.0062 17.1271 83.0907C18.0559 83.5129 18.647 83.2173 18.3937 80.9375C18.267 79.7976 17.8026 78.2777 17.4226 77.0111L16.7049 74.7735C16.7049 74.7735 15.1006 76.8422 15.185 79.2065C15.2272 79.9242 15.3117 80.5153 15.4805 81.0219C14.6362 79.7131 13.834 78.4043 13.1163 77.0111C13.2007 77.0955 13.3274 77.18 13.4118 77.2644C14.2562 77.8555 14.8895 77.6022 14.9739 75.3223C15.0161 74.1824 14.7628 72.6203 14.5517 71.3115L14.1717 68.9894C14.1717 68.9894 12.2719 70.8471 12.0608 73.1691C11.9763 73.8869 12.0186 74.4779 12.103 75.0268C11.4275 73.6336 10.8364 72.1981 10.3298 70.7626C10.4142 70.8471 10.4987 70.9737 10.5831 71.0582C11.343 71.7337 12.0186 71.607 12.3985 69.3694C12.6096 68.2295 12.5674 66.6252 12.5252 65.3164L12.4407 62.9521C12.4407 62.9521 10.3298 64.5142 9.78093 66.8362C9.61206 67.554 9.56984 68.145 9.56984 68.6517C9.10542 67.174 8.72545 65.6963 8.38769 64.1764C8.47213 64.3031 8.55657 64.3875 8.64101 64.472C9.31652 65.2741 9.99203 65.1897 10.6675 63.0365C11.0053 61.9388 11.1742 60.3767 11.343 59.0679L11.5964 56.7458C11.5964 56.7458 9.2743 58.0124 8.42991 60.2078C8.1766 60.8833 8.04994 61.4744 7.9655 61.981C7.71219 60.4611 7.54331 58.9412 7.41665 57.3791C7.45887 57.5058 7.54331 57.6324 7.58553 57.7169C8.13438 58.6035 8.80989 58.6457 9.78093 56.577C10.2876 55.5637 10.6675 54.0016 11.0053 52.735L11.5964 50.4552C11.5964 50.4552 9.14764 51.384 8.00772 53.4527C7.66997 54.086 7.45887 54.6349 7.33221 55.1415C7.28999 53.5794 7.33221 52.0595 7.41665 50.4974C7.45887 50.624 7.50109 50.7507 7.54331 50.8774C7.9655 51.8062 8.64101 51.9751 9.86537 50.033C10.4987 49.0619 11.0897 47.6265 11.5964 46.4021L12.483 44.2067C12.483 44.2067 9.90759 44.7556 8.51435 46.6554C8.09216 47.2465 7.79662 47.7531 7.58553 48.2598C7.7544 46.7399 8.00772 45.22 8.30326 43.7001C8.30326 43.8267 8.34547 43.9534 8.38769 44.0801C8.68323 45.0511 9.31652 45.3044 10.8364 43.5734C11.5964 42.729 12.3985 41.3358 13.074 40.1959L14.2562 38.1694C14.2562 38.1694 11.6386 38.3804 9.94981 40.0692C9.44318 40.5759 9.0632 41.0825 8.80989 41.5047C9.18986 40.027 9.65427 38.5493 10.1609 37.0716C10.1609 37.1983 10.1609 37.325 10.2031 37.4516C10.372 38.4649 10.9631 38.8026 12.6941 37.2827C13.5807 36.5228 14.5517 35.2984 15.3539 34.243L16.7893 32.3853C16.7893 32.3853 14.1717 32.2164 12.2719 33.6941C11.723 34.1163 11.2586 34.5807 10.9631 34.9607C11.5541 33.5252 12.1874 32.132 12.9052 30.781C13.074 31.1187 13.0318 31.2454 13.0318 31.372Z" fill="white"/>
<path d="M98.0185 73.1689C93.29 78.0242 87.7593 81.9928 81.6797 84.9059L88.7303 99.5982C96.5409 95.8407 103.676 90.7322 109.713 84.5259C106.547 83.8504 103.465 83.0483 100.509 82.035C99.8762 78.9952 99.0318 75.9976 98.0185 73.1689Z" fill="white"/>
<path d="M93.1211 85.4551C89.1525 85.6662 85.3105 85.4551 81.6797 84.9062L88.7303 99.5986C93.1633 99.8097 97.7652 99.5563 102.409 98.8386L93.1211 85.4551Z" fill="white"/>
<path d="M16.1986 73.1689C20.9272 78.0242 26.4579 81.9928 32.5375 84.9059L28.4688 91.7557L25.0538 99.1651C17.2432 95.4076 10.5413 90.7322 4.50391 84.5259C7.67035 83.8504 10.7524 83.0483 13.7077 82.035C14.3832 78.9952 15.1854 75.9976 16.1986 73.1689Z" fill="white"/>
<path d="M21.0929 85.4551C25.0615 85.6662 28.9035 85.4551 32.5344 84.9062L29.0091 92.2524L24.1704 96.6063C19.7374 96.8174 16.4488 99.5563 11.8047 98.8386L21.0929 85.4551Z" fill="white"/>
<path fill-rule="evenodd" clip-rule="evenodd" d="M80.9177 92.041C85.224 90.31 89.3193 88.0724 93.119 85.4548L102.365 98.8806C97.5943 102.216 92.4435 105.002 87.0395 107.198C68.0408 114.966 46.129 114.966 27.1303 107.198C21.7262 105.002 16.5755 102.216 11.8047 98.8806L21.0929 85.4548C24.8927 88.0724 28.9879 90.31 33.2943 92.041C48.3244 98.2051 65.8454 98.2051 80.9177 92.041ZM28.8331 95.417C28.2421 95.1637 27.6088 94.9526 27.1444 94.8259C26.5136 96.2021 25.8634 97.5783 25.2069 98.9677L25.2069 98.9677L25.2068 98.9679L25.2065 98.9685C24.8964 99.6249 24.5849 100.284 24.2734 100.948C24.4212 101.011 24.5795 101.085 24.7379 101.159C24.8962 101.233 25.0545 101.307 25.2023 101.37C25.4134 100.927 25.6139 100.473 25.8144 100.019C26.015 99.565 26.2155 99.1112 26.4266 98.6679C26.5744 98.7312 26.7116 98.7945 26.8488 98.8579C26.986 98.9212 27.1232 98.9845 27.271 99.0479C28.0732 99.4278 28.3265 99.8922 28.1576 100.863C28.031 101.708 27.9887 102.341 28.031 102.552C28.1998 102.615 28.3581 102.679 28.5164 102.742L28.5165 102.742C28.6748 102.805 28.8331 102.869 29.002 102.932C28.9598 102.637 29.002 101.961 29.1287 100.99C29.2131 100.272 29.0864 99.6811 28.622 99.3012V99.259C29.4242 99.3434 30.2264 99.0056 30.5641 98.1612C30.7752 97.6546 30.733 97.148 30.5219 96.7258C30.2686 96.2192 29.7197 95.797 28.8331 95.417ZM27.6088 98.4568C27.3132 98.2879 27.0177 98.1613 26.7222 98.0346C27.0599 97.2746 27.3977 96.5147 27.6932 95.797C27.8446 95.797 28.0979 95.8988 28.4531 96.0416L28.5798 96.0925C29.5086 96.4725 29.973 97.1058 29.6353 97.9079C29.382 98.6257 28.5798 98.879 27.6088 98.4568ZM34.8723 101.622C33.9435 101.327 33.0147 101.031 32.1281 100.694C31.9803 101.074 31.8431 101.464 31.7059 101.855C31.5687 102.245 31.4315 102.636 31.2837 103.016C32.339 103.396 33.3943 103.733 34.4495 104.071L34.4496 104.071L34.4496 104.071L34.4497 104.071L34.4497 104.071L34.4498 104.071L34.4498 104.071L34.4499 104.071L34.4499 104.071L34.45 104.071L34.4501 104.071C34.4079 104.198 34.3763 104.314 34.3446 104.43L34.3446 104.43C34.3129 104.546 34.2813 104.662 34.2391 104.789C32.8458 104.367 31.4526 103.902 30.1016 103.396C30.5026 102.319 30.9037 101.253 31.3048 100.187C31.7059 99.1209 32.107 98.0549 32.5081 96.9783C33.6902 97.4427 34.9145 97.8226 36.1388 98.2026L36.1389 98.2026C36.0967 98.3293 36.065 98.4454 36.0334 98.5615L36.0334 98.5616L36.0333 98.5616L36.0333 98.5617C36.0017 98.6777 35.97 98.7938 35.9278 98.9204C34.999 98.6248 34.0702 98.3293 33.1413 97.9915C33.0147 98.3292 32.8986 98.6669 32.7825 99.0046L32.7825 99.0048C32.6664 99.3425 32.5503 99.6803 32.4236 100.018C33.3102 100.356 34.2391 100.651 35.1679 100.947C34.999 101.158 34.9146 101.369 34.8723 101.622ZM38.7119 106.099C39.6407 106.31 40.4007 106.31 40.7806 106.226C40.7806 106.014 40.7384 105.761 40.654 105.55C40.2318 105.634 39.5985 105.592 39.0074 105.466C37.192 105.043 36.432 103.692 36.8965 102.088C37.4031 100.357 38.7541 99.6815 40.3584 100.061C40.9495 100.188 41.4139 100.399 41.7094 100.653C41.8361 100.399 41.9627 100.188 42.0894 99.9772L42.0894 99.9771C41.8783 99.8082 41.3717 99.5126 40.5273 99.3015C38.4586 98.7949 36.6009 99.7237 35.9676 101.792C35.3343 103.946 36.5587 105.592 38.7119 106.099ZM48.8439 104.241C48.6328 106.563 46.8596 107.661 44.9175 107.365C42.891 107.07 41.7511 105.381 42.1733 103.354C42.6377 101.243 44.242 100.146 46.0997 100.399C47.9995 100.652 49.055 102.214 48.8439 104.241ZM43.1865 103.523C42.891 104.959 43.5243 106.394 45.0864 106.647C46.6485 106.901 47.6618 105.719 47.8729 104.156C48.0417 102.805 47.4507 101.328 45.973 101.074C44.4531 100.863 43.4821 102.045 43.1865 103.523ZM53.2745 108.084C54.2878 108.126 55.1744 107.915 55.6388 107.788C55.6388 107.419 55.6436 107.055 55.6483 106.694V106.694V106.694V106.694V106.694V106.694V106.694V106.694V106.694V106.694V106.693V106.693V106.693C55.6576 105.98 55.6668 105.28 55.6388 104.58C55.2377 104.559 54.8366 104.548 54.4355 104.537C54.0345 104.527 53.6334 104.516 53.2323 104.495C53.2323 104.622 53.2217 104.738 53.2112 104.854C53.2006 104.97 53.1901 105.086 53.1901 105.213C53.4434 105.213 53.6967 105.223 53.95 105.234L53.9501 105.234C54.2034 105.245 54.4567 105.255 54.71 105.255C54.71 105.593 54.6994 105.931 54.6889 106.268C54.6783 106.606 54.6678 106.944 54.6678 107.282C54.4567 107.366 53.9922 107.451 53.359 107.408C51.5857 107.366 50.488 106.226 50.6569 104.495C50.8258 102.764 52.0079 101.835 53.7389 101.92C54.4567 101.962 54.9211 102.089 55.301 102.258C55.3346 102.056 55.395 101.881 55.4608 101.69C55.4777 101.642 55.4949 101.592 55.5121 101.54C55.2166 101.371 54.5833 101.202 53.7811 101.16C51.4169 101.075 49.8548 102.384 49.6437 104.411C49.517 105.466 49.8548 106.395 50.4458 107.028C51.1635 107.704 52.0924 108.042 53.2745 108.084ZM57.1672 108.125C57.1672 106.985 57.1567 105.845 57.1461 104.705C57.1356 103.565 57.125 102.425 57.125 101.285H58.096C58.6936 102.181 59.3433 103.052 60.0042 103.937C60.1838 104.177 60.3643 104.419 60.5448 104.663C61.063 105.329 61.4839 105.963 61.8643 106.536L61.8645 106.536C61.9179 106.616 61.9705 106.696 62.0224 106.774H62.0647C61.8958 105.887 61.8113 105.043 61.7269 103.987C61.6847 103.523 61.653 103.048 61.6214 102.573C61.5897 102.098 61.558 101.623 61.5158 101.158C61.7781 101.158 62.0071 101.125 62.2618 101.088L62.3602 101.074C62.4657 102.214 62.5607 103.343 62.6557 104.473C62.7507 105.602 62.8457 106.731 62.9513 107.871C62.7824 107.892 62.6135 107.903 62.4446 107.914C62.2757 107.924 62.1069 107.935 61.938 107.956C61.0514 106.858 60.1648 105.76 59.3626 104.62C58.8138 103.86 58.3071 103.101 57.9272 102.383H57.8849C57.9694 103.227 58.0116 104.072 58.0116 105.211C58.0116 105.697 58.0222 106.183 58.0327 106.668C58.0433 107.154 58.0538 107.639 58.0538 108.125C57.8849 108.096 57.6785 108.106 57.4721 108.115C57.3689 108.12 57.2657 108.125 57.1672 108.125ZM65.2703 104.178L65.2702 104.176L65.2701 104.176L65.2701 104.176L65.27 104.175C65.1329 103.047 64.9958 101.918 64.8481 100.779L64.8472 100.779C64.5519 100.821 64.2568 100.863 64.0038 100.906C64.1956 102.978 64.4224 105.015 64.6523 107.081L64.6523 107.081L64.6523 107.081L64.6523 107.081L64.6523 107.081L64.7215 107.703C65.0167 107.661 65.354 107.619 65.6913 107.576L65.6925 107.576C65.5448 106.437 65.4077 105.308 65.2705 104.179L65.2705 104.179L65.2705 104.179L65.2705 104.179L65.2703 104.178ZM67.8431 101.117C67.4842 101.18 67.1254 101.233 66.7665 101.286L66.7664 101.286C66.4076 101.339 66.0488 101.392 65.6899 101.455C65.6477 101.202 65.6055 100.948 65.6055 100.695C67.3365 100.484 69.0252 100.188 70.7562 99.8083C70.7984 100.062 70.8407 100.315 70.9251 100.526C70.2074 100.695 69.4896 100.822 68.7719 100.948C68.9408 101.94 69.1202 102.943 69.2997 103.946C69.4791 104.949 69.6585 105.951 69.8274 106.943C69.6585 106.965 69.4896 106.996 69.3208 107.028C69.1519 107.06 68.983 107.091 68.8141 107.112C68.5186 105.086 68.1809 103.102 67.8432 101.118L67.8431 101.118L67.8431 101.117ZM73.1872 102.743C72.9233 101.634 72.6594 100.526 72.4061 99.4285C72.1106 99.5129 71.8151 99.5551 71.5195 99.5973C71.9114 101.486 72.3334 103.344 72.7601 105.223C72.839 105.57 72.9181 105.919 72.9972 106.268C73.2778 106.233 73.5293 106.169 73.8001 106.1L73.8001 106.1L73.8004 106.099C73.8554 106.085 73.9112 106.071 73.9682 106.057C73.7149 104.959 73.4511 103.851 73.1872 102.743ZM80.8471 100.399C81.6493 102.595 80.5516 104.326 78.6095 104.917C76.6252 105.508 74.8942 104.495 74.3876 102.51C73.8809 100.399 74.852 98.7106 76.6674 98.1618C78.4828 97.5707 80.1716 98.4995 80.8471 100.399ZM75.4008 102.215C75.7808 103.608 76.9629 104.664 78.4828 104.199C80.0027 103.735 80.4249 102.215 79.9183 100.737C79.4539 99.4706 78.314 98.3729 76.8363 98.7951C75.4008 99.3017 74.9786 100.779 75.4008 102.215ZM82.0509 100.041C82.452 101.107 82.8531 102.173 83.2542 103.228L84.1408 102.848C83.9719 102.405 83.7924 101.951 83.613 101.497C83.4336 101.043 83.2542 100.589 83.0853 100.146C82.6631 99.0905 82.3675 98.3728 81.9876 97.5706L82.0298 97.5284C82.6209 98.0773 83.3808 98.6261 84.1408 99.1328C85.3227 99.8926 86.5468 100.61 87.7709 101.328L87.7716 101.328C87.9194 101.265 88.0777 101.191 88.2361 101.117C88.3944 101.043 88.5527 100.969 88.7004 100.906C87.7294 98.8795 86.7584 96.8109 85.7875 94.7422L85.7873 94.7419C85.6607 94.8053 85.5234 94.8686 85.3862 94.9319C85.249 94.9953 85.1118 95.0586 84.9851 95.1219C85.1751 95.5652 85.3757 95.998 85.5762 96.4307C85.7768 96.8635 85.9773 97.2962 86.1673 97.7395C86.5895 98.7106 86.9695 99.4283 87.4339 100.23C86.8006 99.7238 86.1251 99.2594 85.2807 98.7528C84.0563 98.035 82.9164 97.2751 81.7765 96.4729C81.6287 96.5363 81.4704 96.5996 81.3121 96.6629C81.1538 96.7262 80.9954 96.7896 80.8477 96.8529C81.2487 97.9084 81.6498 98.9745 82.0509 100.041Z" fill="white"/>
<path d="M46.0898 5.40619H48.5386V15.4122H46.0898V5.40619Z" fill="white"/>
<path d="M53.6477 5.40625H56.1386L60.2761 15.4122H57.743L56.8986 13.1746H52.7611L51.8745 15.4122H49.4258L53.6477 5.40625ZM53.4366 11.528H56.3075L54.9143 7.85497H54.8721L53.4366 11.528Z" fill="white"/>
<path d="M66.2275 5.15332C69.6473 5.15332 71.6738 7.47538 71.6738 10.4307C71.6738 13.3016 69.6473 15.6237 66.2275 15.6237C62.8078 15.6237 60.7812 13.3016 60.7812 10.4307C60.7812 7.47538 62.8078 5.15332 66.2275 5.15332ZM66.2275 13.7661C68.4229 13.7661 69.2251 12.0773 69.2251 10.4307C69.2251 8.69974 68.4229 7.01097 66.2275 7.01097C64.0321 7.01097 63.23 8.69974 63.23 10.4307C63.23 12.0773 64.0321 13.7661 66.2275 13.7661Z" fill="white"/>
<path d="M73.3196 5.40625H78.3014C81.0457 5.40625 82.1434 6.96836 82.1434 8.61492C82.1434 10.2193 81.0879 11.8236 78.3014 11.8236H75.7261V15.4122H73.2773V5.40625H73.3196ZM75.7683 10.0926H77.6681C78.8081 10.0926 79.8213 9.8815 79.8213 8.61492C79.8213 7.34834 78.8081 7.13724 77.6681 7.13724H75.7683V10.0926Z" fill="white"/>
<path d="M35.2825 10.0086V9.8819H31.6094V10.8107H34.4381C35.0291 14.2727 39.2933 17.0592 44.6974 17.6502C44.9085 17.6925 45.1196 17.6925 45.3306 17.6925V17.5658V17.4391V17.017V16.9325V16.8059C45.1196 16.8059 44.9085 16.7636 44.6974 16.7636C39.2933 16.0881 35.2825 13.3439 35.2825 10.0086Z" fill="white"/>
<path d="M48.582 2.32422V2.45088V2.57753V2.99973V3.12638V3.25304C50.4397 3.42192 52.1285 3.80189 53.5639 4.39296H55.5904C53.7328 3.29526 51.2841 2.53532 48.582 2.32422Z" fill="white"/>
<path d="M46.1743 2.28223C40.5591 2.49332 35.8728 5.02648 34.6484 8.3618H34.7751H34.9017H35.3239H35.4506H35.5773C36.8861 5.40645 41.5302 3.21105 46.8498 3.21105H46.9765V0.466797H46.0476V2.28223H46.1743Z" fill="white"/>
<path d="M58.5067 36.7344C58.7178 36.6499 58.8444 36.4389 58.76 36.27C58.6755 36.0589 58.4222 35.9744 58.2111 36.0167C57.7045 36.1855 57.1979 36.3122 56.6912 36.3966C56.269 36.4389 55.8891 36.4389 55.6357 36.27C54.7914 35.7633 49.8517 32.2169 48.754 31.457L50.3583 25.4618L50.865 25.2507C53.2715 25.293 54.4958 25.1241 55.4246 25.0396C57.029 24.8708 57.6623 24.7863 62.3908 26.0107L65.3462 31.8369C65.2617 31.8792 65.1773 31.9636 65.0929 32.0058C64.924 32.1325 64.7129 32.2591 64.544 32.3858C64.3751 32.5125 64.3329 32.7658 64.4596 32.9346C64.5862 33.1035 64.8818 33.1457 65.0506 33.0191C65.2195 32.8924 65.3884 32.7658 65.5995 32.6391C65.7684 32.5125 65.9372 32.428 66.1483 32.3014C66.3172 32.2169 66.4017 32.0058 66.3172 31.7947L65.9372 31.9636L66.3172 31.7947L63.1508 25.5041C63.1086 25.3774 63.0241 25.293 62.8552 25.2507L62.7286 25.6307L62.8552 25.2507C57.7889 23.9419 57.1134 24.0264 55.3824 24.2375C54.4958 24.3219 53.2715 24.4908 50.865 24.4486C50.7805 24.4486 50.7383 24.4486 50.6539 24.4908L49.8939 24.7863C49.7673 24.8285 49.6406 24.913 49.5984 25.0819L50.0206 25.1663L49.5984 25.0819L47.8674 31.457C47.8252 31.5836 47.8674 31.7525 47.994 31.8792L48.2474 31.5836L47.994 31.8792C47.994 31.8792 54.1581 36.27 55.1291 36.9033C55.5935 37.1988 56.1424 37.241 56.7757 37.1566C57.3667 37.0721 57.9578 36.9033 58.5067 36.7344Z" fill="white"/>
<path d="M54.3283 25.0395C54.4549 24.8706 54.4127 24.6173 54.2016 24.4907C53.9905 24.364 53.7372 24.4485 53.6105 24.6173C53.6105 24.6173 50.8241 28.5015 53.2728 29.5148H53.315C54.2861 29.8525 55.046 29.3459 55.8482 28.797C56.9881 27.9949 58.2969 27.1083 60.7878 29.8103L60.83 29.8525C61.1256 30.1058 64.0809 32.7657 64.4187 33.4412C64.4609 33.5678 64.5031 33.6945 64.4609 33.8634C64.4187 33.99 64.3765 34.1167 64.292 34.2011C64.2076 34.2855 64.0387 34.37 63.8276 34.37C63.5743 34.4122 63.2365 34.37 62.8144 34.2011L59.4368 31.2458C59.2679 31.1191 59.0146 31.1191 58.8457 31.2458C58.6769 31.4146 58.6769 31.6679 58.8457 31.7946L62.2655 34.7922C62.3077 34.8344 62.3499 34.8344 62.3922 34.8766C62.9832 35.1299 63.5321 35.1722 63.9543 35.1299C64.3342 35.0877 64.672 34.9188 64.8831 34.7077C65.0942 34.4966 65.2631 34.2433 65.3053 33.9478C65.3475 33.6523 65.3053 33.3567 65.1786 33.1034C64.7564 32.3012 61.6744 29.5148 61.4211 29.2614C58.4235 25.9683 56.777 27.1505 55.3415 28.1637C54.7505 28.5859 54.2016 28.9659 53.6528 28.797C52.0907 28.1637 54.3283 25.0395 54.3283 25.0395Z" fill="white"/>
<path d="M57.8353 32.8928C57.6664 32.7662 57.3709 32.7662 57.2442 32.9351C57.0754 33.1039 57.1176 33.315 57.2864 33.4839L60.4951 36.0171C60.7906 36.2282 61.2973 36.397 61.7617 36.397C62.015 36.397 62.3105 36.3548 62.5216 36.2282C62.775 36.1015 62.986 35.8904 63.1127 35.6371C63.2394 35.2993 63.2394 34.8771 63.0283 34.3705C62.9438 34.1594 62.6905 34.075 62.4794 34.1594C62.2683 34.2439 62.1417 34.4549 62.2261 34.6238C62.3528 34.9616 62.395 35.2149 62.3105 35.3838C62.2683 35.4682 62.2261 35.5526 62.1417 35.5949C62.015 35.6371 61.8883 35.6793 61.7617 35.6793C61.5084 35.6793 61.2128 35.5949 61.0862 35.5104L57.8353 32.8928Z" fill="white"/>
<path d="M56.9443 34.6663C56.7754 34.5396 56.5221 34.5396 56.3532 34.6663C56.1843 34.8352 56.1843 35.0463 56.3532 35.2151L58.5908 37.0728L58.8864 36.7772L58.5908 37.0728C58.6331 37.115 58.6753 37.115 58.7175 37.1572C59.0553 37.2839 61.124 38.1283 61.2929 35.8484C61.2929 35.6373 61.124 35.4685 60.9129 35.4262C60.6596 35.4262 60.4907 35.5529 60.4485 35.764C60.3641 36.9039 59.3508 36.5662 59.1397 36.4817L56.9443 34.6663Z" fill="white"/>
<path d="M45.964 22.4641L49.7215 23.2663C50.0593 23.3507 50.3548 23.5196 50.5237 23.7729C50.6926 24.0262 50.777 24.3217 50.6504 24.6173L48.5816 32.0901C48.4972 32.3856 48.2861 32.6389 47.9905 32.8078C47.695 32.9767 47.3573 33.0189 47.0195 32.9345L43.262 32.1323C42.9242 32.0479 42.6287 31.879 42.4598 31.6257C42.2909 31.3724 42.2065 31.0768 42.2909 30.7813L44.3597 23.3085C44.4441 23.0129 44.6552 22.7596 44.9508 22.5908C45.2885 22.4219 45.6263 22.3797 45.964 22.4641ZM49.5104 23.984L45.7529 23.1818C45.6263 23.1396 45.5418 23.1818 45.4152 23.224C45.3307 23.2663 45.2463 23.3507 45.2041 23.4774L43.1353 30.9502C43.0931 31.0346 43.1353 31.1613 43.1775 31.2457C43.2198 31.3301 43.3464 31.4146 43.4309 31.4146L47.1884 32.2168C47.315 32.259 47.3995 32.2168 47.5261 32.1745C47.6106 32.1323 47.695 32.0479 47.7372 31.9212L49.806 24.4484C49.8482 24.364 49.806 24.2373 49.7638 24.1529C49.7215 24.0684 49.6371 24.0262 49.5104 23.984Z" fill="white"/>
<path d="M66.6916 23.2658L63.1874 24.7013C63.0607 24.7435 63.0185 24.8279 62.9763 24.9124C62.9341 24.9968 62.9341 25.1235 62.9763 25.2079L66.5649 32.1741C66.6072 32.2585 66.6916 32.343 66.8183 32.3852C66.9027 32.4274 67.0293 32.4274 67.156 32.3852L70.6602 30.9497C70.7446 30.9075 70.8291 30.8231 70.8713 30.7386C70.9135 30.6542 70.9135 30.5275 70.8713 30.4431L67.2827 23.4769C67.2404 23.3925 67.156 23.3081 67.0293 23.2658C66.9027 23.2236 66.8183 23.2236 66.6916 23.2658ZM62.8496 24.0258L66.3538 22.5903C66.6916 22.4637 67.0293 22.4637 67.3249 22.5481C67.6204 22.6325 67.916 22.8436 68.0426 23.1392L71.6312 30.1054C71.7579 30.4009 71.8001 30.6964 71.6735 30.992C71.5468 31.2875 71.3357 31.4986 70.998 31.6253L67.4938 33.0607C67.156 33.1874 66.8183 33.1874 66.5227 33.1029C66.2272 33.0185 65.9316 32.8074 65.805 32.5119L62.2164 25.5457C62.0897 25.2501 62.0475 24.9546 62.1741 24.6591C62.3008 24.3635 62.5119 24.1524 62.8496 24.0258Z" fill="white"/>
<path d="M30.5204 50.2756V50.7086H27.1436V50.2756H30.5204ZM27.2962 44.7055V50.7086H26.7891V44.7055H27.2962ZM30.0998 47.3978V47.8307H27.1436V47.3978H30.0998ZM30.4997 44.7055V45.1425H27.1436V44.7055H30.4997Z" fill="white"/>
<path d="M31.7284 44.7055L33.4188 47.2411L35.1134 44.7055H35.7153L33.728 47.6617L35.7772 50.7086H35.1711L33.4188 48.0905L31.6665 50.7086H31.0646L33.1137 47.6617L31.1264 44.7055H31.7284Z" fill="white"/>
<path d="M40.399 48.8367H40.9061C40.8649 49.2408 40.7536 49.5899 40.5722 49.884C40.3908 50.1753 40.1434 50.3993 39.83 50.556C39.5167 50.7127 39.1388 50.791 38.6962 50.791C38.3554 50.791 38.0462 50.7264 37.7686 50.5972C37.4937 50.4681 37.2573 50.2853 37.0594 50.0489C36.8615 49.8098 36.7089 49.5239 36.6017 49.1913C36.4946 48.8587 36.441 48.489 36.441 48.0822V47.3318C36.441 46.925 36.4946 46.5567 36.6017 46.2269C36.7089 45.8943 36.8629 45.6084 37.0635 45.3693C37.2642 45.1302 37.5047 44.946 37.785 44.8168C38.0654 44.6876 38.3815 44.623 38.7333 44.623C39.1594 44.623 39.5277 44.7014 39.8383 44.8581C40.1489 45.012 40.3935 45.2346 40.5722 45.526C40.7536 45.8173 40.8649 46.1692 40.9061 46.5815H40.399C40.3605 46.2571 40.2753 45.9823 40.1434 45.7569C40.0115 45.5315 39.8287 45.3597 39.595 45.2415C39.3641 45.1206 39.0769 45.0601 38.7333 45.0601C38.453 45.0601 38.2028 45.1137 37.9829 45.2209C37.7631 45.3281 37.5761 45.482 37.4222 45.6827C37.2683 45.8806 37.1501 46.1183 37.0676 46.3959C36.9879 46.6735 36.9481 46.9828 36.9481 47.3236V48.0822C36.9481 48.4121 36.9866 48.7158 37.0635 48.9934C37.1405 49.271 37.2532 49.5115 37.4016 49.7149C37.5528 49.9183 37.7369 50.0764 37.9541 50.1891C38.1712 50.3018 38.4186 50.3581 38.6962 50.3581C39.0508 50.3581 39.3463 50.3018 39.5827 50.1891C39.8218 50.0736 40.0073 49.9032 40.1393 49.6778C40.2712 49.4524 40.3578 49.1721 40.399 48.8367Z" fill="white"/>
<path d="M45.8743 50.2756V50.7086H42.4976V50.2756H45.8743ZM42.6502 44.7055V50.7086H42.143V44.7055H42.6502ZM45.4538 47.3978V47.8307H42.4976V47.3978H45.4538ZM45.8537 44.7055V45.1425H42.4976V44.7055H45.8537Z" fill="white"/>
<path d="M50.422 50.2756V50.7086H47.3091V50.2756H50.422ZM47.4575 44.7055V50.7086H46.9504V44.7055H47.4575Z" fill="white"/>
<path d="M54.8748 50.2756V50.7086H51.7619V50.2756H54.8748ZM51.9104 44.7055V50.7086H51.4032V44.7055H51.9104Z" fill="white"/>
<path d="M59.5873 50.2756V50.7086H56.2106V50.2756H59.5873ZM56.3632 44.7055V50.7086H55.8561V44.7055H56.3632ZM59.1668 47.3978V47.8307H56.2106V47.3978H59.1668ZM59.5667 44.7055V45.1425H56.2106V44.7055H59.5667Z" fill="white"/>
<path d="M65.1328 44.7055V50.7086H64.6215L61.1706 45.5796V50.7086H60.6634V44.7055H61.1706L64.6297 49.8345V44.7055H65.1328Z" fill="white"/>
<path d="M70.406 48.8367H70.9132C70.8719 49.2408 70.7606 49.5899 70.5792 49.884C70.3978 50.1753 70.1504 50.3993 69.8371 50.556C69.5237 50.7127 69.1458 50.791 68.7033 50.791C68.3624 50.791 68.0532 50.7264 67.7756 50.5972C67.5007 50.4681 67.2643 50.2853 67.0664 50.0489C66.8685 49.8098 66.716 49.5239 66.6088 49.1913C66.5016 48.8587 66.448 48.489 66.448 48.0822V47.3318C66.448 46.925 66.5016 46.5567 66.6088 46.2269C66.716 45.8943 66.8699 45.6084 67.0706 45.3693C67.2712 45.1302 67.5117 44.946 67.7921 44.8168C68.0724 44.6876 68.3885 44.623 68.7404 44.623C69.1664 44.623 69.5347 44.7014 69.8453 44.8581C70.1559 45.012 70.4005 45.2346 70.5792 45.526C70.7606 45.8173 70.8719 46.1692 70.9132 46.5815H70.406C70.3676 46.2571 70.2824 45.9823 70.1504 45.7569C70.0185 45.5315 69.8357 45.3597 69.6021 45.2415C69.3712 45.1206 69.0839 45.0601 68.7404 45.0601C68.46 45.0601 68.2099 45.1137 67.99 45.2209C67.7701 45.3281 67.5832 45.482 67.4293 45.6827C67.2753 45.8806 67.1571 46.1183 67.0747 46.3959C66.995 46.6735 66.9551 46.9828 66.9551 47.3236V48.0822C66.9551 48.4121 66.9936 48.7158 67.0706 48.9934C67.1475 49.271 67.2602 49.5115 67.4086 49.7149C67.5598 49.9183 67.744 50.0764 67.9611 50.1891C68.1783 50.3018 68.4256 50.3581 68.7033 50.3581C69.0578 50.3581 69.3533 50.3018 69.5897 50.1891C69.8288 50.0736 70.0144 49.9032 70.1463 49.6778C70.2782 49.4524 70.3648 49.1721 70.406 48.8367Z" fill="white"/>
<path d="M75.8814 50.2756V50.7086H72.5046V50.2756H75.8814ZM72.6572 44.7055V50.7086H72.1501V44.7055H72.6572ZM75.4608 47.3978V47.8307H72.5046V47.3978H75.4608ZM75.8607 44.7055V45.1425H72.5046V44.7055H75.8607Z" fill="white"/>
<path d="M79.6374 44.7055V50.7086H79.1303V44.7055H79.6374Z" fill="white"/>
<path d="M85.7394 44.7055V50.7086H85.2281L81.7772 45.5796V50.7086H81.2701V44.7055H81.7772L85.2364 49.8345V44.7055H85.7394Z" fill="white"/>
<path d="M38.6632 60.6317C38.6632 60.4668 38.6358 60.3198 38.5808 60.1906C38.5258 60.0614 38.4351 59.946 38.3087 59.8443C38.185 59.7398 38.0173 59.6436 37.8057 59.5556C37.5968 59.4649 37.3356 59.3756 37.0223 59.2877C36.7227 59.2024 36.4519 59.109 36.2101 59.0073C35.9682 58.9056 35.7607 58.7888 35.5875 58.6568C35.4171 58.5249 35.2865 58.371 35.1958 58.1951C35.1051 58.0164 35.0598 57.8089 35.0598 57.5725C35.0598 57.3416 35.1092 57.1313 35.2082 56.9417C35.3071 56.752 35.4459 56.5885 35.6246 56.451C35.806 56.3136 36.019 56.2078 36.2637 56.1336C36.511 56.0594 36.7818 56.0223 37.0759 56.0223C37.4964 56.0223 37.8593 56.102 38.1644 56.2614C38.4722 56.4208 38.71 56.6366 38.8776 56.9087C39.048 57.1781 39.1333 57.4804 39.1333 57.8158H38.6261C38.6261 57.5546 38.5643 57.3224 38.4406 57.119C38.3197 56.9128 38.1437 56.752 37.9129 56.6366C37.6847 56.5184 37.4057 56.4593 37.0759 56.4593C36.7461 56.4593 36.4684 56.5101 36.243 56.6118C36.0204 56.7108 35.8514 56.8441 35.7359 57.0118C35.6232 57.1767 35.5669 57.3608 35.5669 57.5642C35.5669 57.7072 35.5944 57.8391 35.6493 57.9601C35.7043 58.0782 35.7936 58.1896 35.9173 58.294C36.0438 58.3957 36.2101 58.4919 36.4162 58.5826C36.6224 58.6706 36.8766 58.7544 37.179 58.8341C37.4978 58.9221 37.7809 59.0197 38.0283 59.1269C38.2757 59.2341 38.4846 59.3577 38.655 59.4979C38.8254 59.6354 38.9546 59.7962 39.0426 59.9803C39.1305 60.1645 39.1745 60.3789 39.1745 60.6235C39.1745 60.8681 39.1223 61.088 39.0178 61.2832C38.9161 61.4756 38.7718 61.6391 38.5849 61.7738C38.4007 61.9085 38.1822 62.0116 37.9293 62.083C37.6792 62.1545 37.4057 62.1902 37.1089 62.1902C36.8423 62.1902 36.577 62.1559 36.3131 62.0872C36.0493 62.0184 35.8074 61.9126 35.5875 61.7697C35.3704 61.624 35.1958 61.4371 35.0639 61.209C34.9347 60.9808 34.8701 60.7087 34.8701 60.3926H35.3731C35.3731 60.6455 35.424 60.8585 35.5257 61.0317C35.6274 61.2048 35.762 61.345 35.9297 61.4522C36.1001 61.5594 36.287 61.6378 36.4904 61.6872C36.6966 61.734 36.9027 61.7573 37.1089 61.7573C37.425 61.7573 37.6985 61.7106 37.9293 61.6171C38.163 61.5237 38.343 61.3931 38.4695 61.2255C38.5986 61.055 38.6632 60.8571 38.6632 60.6317Z" fill="white"/>
<path d="M42.2832 56.1047V62.1078H41.7802V56.1047H42.2832ZM44.3406 56.1047V56.5417H39.727V56.1047H44.3406Z" fill="white"/>
<path d="M45.3054 56.1047H47.2555C47.6706 56.1047 48.0306 56.1721 48.3357 56.3067C48.6408 56.4414 48.8759 56.6407 49.0408 56.9046C49.2084 57.1657 49.2923 57.4873 49.2923 57.8693C49.2923 58.1525 49.2318 58.4095 49.1109 58.6403C48.9927 58.8712 48.8291 59.065 48.6202 59.2217C48.4113 59.3756 48.1694 59.4814 47.8946 59.5392L47.7173 59.6051H45.6352L45.6269 59.1722H47.371C47.6843 59.1722 47.9454 59.1117 48.1543 58.9908C48.3632 58.8699 48.5199 58.7104 48.6244 58.5125C48.7315 58.3119 48.7851 58.0975 48.7851 57.8693C48.7851 57.5972 48.7261 57.3622 48.6079 57.1643C48.4924 56.9637 48.3206 56.8097 48.0925 56.7025C47.8643 56.5953 47.5854 56.5417 47.2555 56.5417H45.8125V62.1078H45.3054V56.1047ZM49.0119 62.1078L47.4575 59.4237L48.0018 59.4196L49.552 62.0542V62.1078H49.0119Z" fill="white"/>
<path d="M52.6566 56.4634L50.5786 62.1078H50.0509L52.3185 56.1047H52.6855L52.6566 56.4634ZM54.5449 62.1078L52.4628 56.4634L52.434 56.1047H52.8009L55.0727 62.1078H54.5449ZM54.1739 59.9886V60.4256H50.9868V59.9886H54.1739Z" fill="white"/>
<path d="M57.4393 56.1047V62.1078H56.9363V56.1047H57.4393ZM59.4966 56.1047V56.5417H54.883V56.1047H59.4966Z" fill="white"/>
<path d="M64.2051 61.6749V62.1078H60.8284V61.6749H64.2051ZM60.9809 56.1047V62.1078H60.4738V56.1047H60.9809ZM63.7845 58.797V59.2299H60.8284V58.797H63.7845ZM64.1845 56.1047V56.5417H60.8284V56.1047H64.1845Z" fill="white"/>
<path d="M69.6103 59.2547V61.3904C69.5416 61.4921 69.4234 61.6048 69.2557 61.7285C69.0881 61.8521 68.8627 61.9607 68.5796 62.0542C68.2965 62.1449 67.9446 62.1902 67.5241 62.1902C67.1723 62.1902 66.8493 62.127 66.5552 62.0006C66.2611 61.8741 66.0054 61.6913 65.7883 61.4522C65.5739 61.2103 65.4076 60.9204 65.2894 60.5823C65.174 60.2442 65.1163 59.8649 65.1163 59.4443V58.7187C65.1163 58.3064 65.1699 57.9353 65.2771 57.6055C65.3843 57.2729 65.5396 56.9884 65.743 56.752C65.9464 56.5156 66.191 56.3356 66.4768 56.2119C66.7655 56.0855 67.0884 56.0223 67.4457 56.0223C67.891 56.0223 68.2662 56.0992 68.5713 56.2531C68.8764 56.4071 69.1142 56.6187 69.2846 56.8881C69.4578 57.1547 69.565 57.4571 69.6062 57.7951H69.0991C69.0606 57.556 68.9809 57.3361 68.8599 57.1355C68.739 56.9321 68.5631 56.7685 68.3322 56.6448C68.104 56.5211 67.8086 56.4593 67.4457 56.4593C67.1544 56.4593 66.8946 56.5129 66.6665 56.6201C66.4411 56.7273 66.2515 56.8798 66.0975 57.0777C65.9436 57.2756 65.8268 57.5134 65.7471 57.791C65.6674 58.0659 65.6275 58.3724 65.6275 58.7104V59.4443C65.6275 59.7962 65.6715 60.1136 65.7594 60.3967C65.8502 60.6798 65.9793 60.9231 66.147 61.1265C66.3147 61.3299 66.5153 61.4866 66.749 61.5965C66.9826 61.7037 67.2423 61.7573 67.5282 61.7573C67.8333 61.7573 68.0931 61.7285 68.3074 61.6707C68.5218 61.613 68.6936 61.5443 68.8228 61.4646C68.9548 61.3821 69.0496 61.3052 69.1073 61.2337V59.6876H67.4952V59.2547H69.6103Z" fill="white"/>
<path d="M71.68 56.1047V62.1078H71.1729V56.1047H71.68Z" fill="white"/>
<path d="M77.0523 60.2359H77.5594C77.5182 60.64 77.4069 60.9891 77.2254 61.2832C77.044 61.5745 76.7967 61.7985 76.4833 61.9552C76.17 62.1119 75.792 62.1902 75.3495 62.1902C75.0087 62.1902 74.6994 62.1256 74.4218 61.9964C74.147 61.8673 73.9106 61.6845 73.7127 61.4481C73.5148 61.209 73.3622 60.9231 73.255 60.5905C73.1478 60.2579 73.0942 59.8882 73.0942 59.4814V58.7311C73.0942 58.3243 73.1478 57.9559 73.255 57.6261C73.3622 57.2935 73.5161 57.0076 73.7168 56.7685C73.9174 56.5294 74.158 56.3452 74.4383 56.216C74.7187 56.0868 75.0348 56.0223 75.3866 56.0223C75.8126 56.0223 76.181 56.1006 76.4916 56.2573C76.8022 56.4112 77.0468 56.6338 77.2254 56.9252C77.4069 57.2165 77.5182 57.5684 77.5594 57.9807H77.0523C77.0138 57.6563 76.9286 57.3815 76.7967 57.1561C76.6647 56.9307 76.4819 56.7589 76.2483 56.6407C76.0174 56.5198 75.7302 56.4593 75.3866 56.4593C75.1062 56.4593 74.8561 56.5129 74.6362 56.6201C74.4163 56.7273 74.2294 56.8812 74.0755 57.0819C73.9216 57.2798 73.8034 57.5175 73.7209 57.7951C73.6412 58.0727 73.6013 58.382 73.6013 58.7228V59.4814C73.6013 59.8113 73.6398 60.115 73.7168 60.3926C73.7938 60.6702 73.9064 60.9107 74.0549 61.1141C74.2061 61.3175 74.3902 61.4756 74.6074 61.5883C74.8245 61.701 75.0719 61.7573 75.3495 61.7573C75.7041 61.7573 75.9995 61.701 76.2359 61.5883C76.4751 61.4728 76.6606 61.3024 76.7925 61.077C76.9245 60.8516 77.0111 60.5713 77.0523 60.2359Z" fill="white"/>
<path d="M29.2628 71.0621H27.5518V70.6291H29.2628C29.6202 70.6291 29.9102 70.5714 30.1328 70.456C30.3582 70.3378 30.5217 70.1784 30.6234 69.9777C30.7279 69.7771 30.7801 69.5517 30.7801 69.3015C30.7801 69.0569 30.7279 68.8315 30.6234 68.6254C30.5217 68.4192 30.3582 68.2543 30.1328 68.1306C29.9102 68.0042 29.6202 67.941 29.2628 67.941H27.7291V73.507H27.222V67.5039H29.2628C29.7026 67.5039 30.0723 67.5795 30.3719 67.7307C30.6743 67.8819 30.9024 68.0921 31.0563 68.3615C31.2103 68.6309 31.2872 68.9415 31.2872 69.2933C31.2872 69.6616 31.2103 69.9791 31.0563 70.2457C30.9024 70.5096 30.6757 70.7116 30.3761 70.8518C30.0764 70.992 29.7054 71.0621 29.2628 71.0621Z" fill="white"/>
<path d="M33.827 67.8626L31.749 73.507H31.2213L33.4889 67.5039H33.8558L33.827 67.8626ZM35.7153 73.507L33.6332 67.8626L33.6043 67.5039H33.9713L36.243 73.507H35.7153ZM35.3442 71.3878V71.8248H32.1572V71.3878H35.3442Z" fill="white"/>
<path d="M37.1212 67.5039H39.0714C39.4865 67.5039 39.8465 67.5713 40.1516 67.7059C40.4567 67.8406 40.6917 68.0399 40.8567 68.3038C41.0243 68.5649 41.1082 68.8865 41.1082 69.2686C41.1082 69.5517 41.0477 69.8087 40.9268 70.0396C40.8086 70.2704 40.645 70.4642 40.4361 70.6209C40.2272 70.7748 39.9853 70.8806 39.7105 70.9384L39.5332 71.0043H37.4511L37.4428 70.5714H39.1869C39.5002 70.5714 39.7613 70.5109 39.9702 70.39C40.1791 70.2691 40.3358 70.1096 40.4402 69.9117C40.5474 69.7111 40.601 69.4967 40.601 69.2686C40.601 68.9964 40.5419 68.7614 40.4237 68.5635C40.3083 68.3629 40.1365 68.209 39.9084 68.1018C39.6802 67.9946 39.4013 67.941 39.0714 67.941H37.6284V73.507H37.1212V67.5039ZM40.8278 73.507L39.2734 70.8229L39.8177 70.8188L41.3679 73.4534V73.507H40.8278Z" fill="white"/>
<path d="M44.1839 67.5039V73.507H43.6809V67.5039H44.1839ZM46.2413 67.5039V67.941H41.6277V67.5039H46.2413Z" fill="white"/>
<path d="M51.6877 67.5039V73.507H51.1765L47.7255 68.378V73.507H47.2184V67.5039H47.7255L51.1847 72.6329V67.5039H51.6877Z" fill="white"/>
<path d="M56.9528 73.0741V73.507H53.576V73.0741H56.9528ZM53.7286 67.5039V73.507H53.2215V67.5039H53.7286ZM56.5322 70.1962V70.6291H53.576V70.1962H56.5322ZM56.9321 67.5039V67.941H53.576V67.5039H56.9321Z" fill="white"/>
<path d="M58.0165 67.5039H59.9667C60.3817 67.5039 60.7418 67.5713 61.0469 67.7059C61.352 67.8406 61.587 68.0399 61.7519 68.3038C61.9196 68.5649 62.0034 68.8865 62.0034 69.2686C62.0034 69.5517 61.9429 69.8087 61.822 70.0396C61.7038 70.2704 61.5403 70.4642 61.3314 70.6209C61.1225 70.7748 60.8806 70.8806 60.6057 70.9384L60.4284 71.0043H58.3463L58.3381 70.5714H60.0821C60.3955 70.5714 60.6566 70.5109 60.8655 70.39C61.0744 70.2691 61.231 70.1096 61.3355 69.9117C61.4427 69.7111 61.4963 69.4967 61.4963 69.2686C61.4963 68.9964 61.4372 68.7614 61.319 68.5635C61.2036 68.3629 61.0318 68.209 60.8036 68.1018C60.5755 67.9946 60.2965 67.941 59.9667 67.941H58.5236V73.507H58.0165V67.5039ZM61.723 73.507L60.1687 70.8229L60.7129 70.8188L62.2632 73.4534V73.507H61.723Z" fill="white"/>
<path d="M66.7943 72.031C66.7943 71.866 66.7668 71.719 66.7119 71.5898C66.6569 71.4606 66.5662 71.3452 66.4397 71.2435C66.316 71.139 66.1484 71.0428 65.9367 70.9549C65.7278 70.8641 65.4667 70.7748 65.1534 70.6869C64.8538 70.6017 64.583 70.5082 64.3411 70.4065C64.0993 70.3048 63.8917 70.188 63.7186 70.056C63.5482 69.9241 63.4176 69.7702 63.3269 69.5943C63.2362 69.4156 63.1908 69.2081 63.1908 68.9717C63.1908 68.7408 63.2403 68.5305 63.3393 68.3409C63.4382 68.1512 63.577 67.9877 63.7557 67.8503C63.9371 67.7128 64.1501 67.607 64.3947 67.5328C64.6421 67.4586 64.9129 67.4215 65.207 67.4215C65.6275 67.4215 65.9903 67.5012 66.2954 67.6606C66.6033 67.82 66.841 68.0358 67.0087 68.3079C67.1791 68.5773 67.2643 68.8796 67.2643 69.215H66.7572C66.7572 68.9538 66.6954 68.7216 66.5717 68.5182C66.4507 68.312 66.2748 68.1512 66.0439 68.0358C65.8158 67.9176 65.5368 67.8585 65.207 67.8585C64.8771 67.8585 64.5995 67.9093 64.3741 68.011C64.1515 68.11 63.9824 68.2433 63.867 68.411C63.7543 68.5759 63.698 68.7601 63.698 68.9635C63.698 69.1064 63.7254 69.2383 63.7804 69.3593C63.8354 69.4775 63.9247 69.5888 64.0484 69.6932C64.1748 69.7949 64.3411 69.8911 64.5473 69.9818C64.7534 70.0698 65.0077 70.1536 65.31 70.2333C65.6289 70.3213 65.912 70.4189 66.1594 70.5261C66.4068 70.6333 66.6157 70.757 66.7861 70.8971C66.9565 71.0346 67.0857 71.1954 67.1736 71.3795C67.2616 71.5637 67.3056 71.7781 67.3056 72.0227C67.3056 72.2673 67.2533 72.4872 67.1489 72.6824C67.0472 72.8748 66.9029 73.0383 66.716 73.173C66.5318 73.3077 66.3133 73.4108 66.0604 73.4822C65.8103 73.5537 65.5368 73.5894 65.2399 73.5894C64.9733 73.5894 64.7081 73.5551 64.4442 73.4864C64.1803 73.4176 63.9385 73.3118 63.7186 73.1689C63.5014 73.0232 63.3269 72.8363 63.195 72.6082C63.0658 72.38 63.0012 72.1079 63.0012 71.7918H63.5042C63.5042 72.0447 63.555 72.2577 63.6567 72.4309C63.7584 72.604 63.8931 72.7442 64.0608 72.8514C64.2312 72.9586 64.4181 73.037 64.6215 73.0864C64.8277 73.1332 65.0338 73.1565 65.2399 73.1565C65.556 73.1565 65.8295 73.1098 66.0604 73.0163C66.2941 72.9229 66.4741 72.7923 66.6005 72.6247C66.7297 72.4542 66.7943 72.2563 66.7943 72.031Z" fill="white"/>
<path d="M72.4387 70.1962V70.6291H68.7898V70.1962H72.4387ZM68.9094 67.5039V73.507H68.4023V67.5039H68.9094ZM72.8468 67.5039V73.507H72.3397V67.5039H72.8468Z" fill="white"/>
<path d="M74.999 67.5039V73.507H74.4919V67.5039H74.999Z" fill="white"/>
<path d="M78.6726 71.0621H76.9616V70.6291H78.6726C79.0299 70.6291 79.3199 70.5714 79.5426 70.456C79.7679 70.3378 79.9315 70.1784 80.0332 69.9777C80.1376 69.7771 80.1899 69.5517 80.1899 69.3015C80.1899 69.0569 80.1376 68.8315 80.0332 68.6254C79.9315 68.4192 79.7679 68.2543 79.5426 68.1306C79.3199 68.0042 79.0299 67.941 78.6726 67.941H77.1389V73.507H76.6317V67.5039H78.6726C79.1124 67.5039 79.4821 67.5795 79.7817 67.7307C80.084 67.8819 80.3122 68.0921 80.4661 68.3615C80.62 68.6309 80.697 68.9415 80.697 69.2933C80.697 69.6616 80.62 69.9791 80.4661 70.2457C80.3122 70.5096 80.0854 70.7116 79.7858 70.8518C79.4862 70.992 79.1151 71.0621 78.6726 71.0621Z" fill="white"/>
<path d="M85.2323 72.031C85.2323 71.866 85.2048 71.719 85.1498 71.5898C85.0948 71.4606 85.0041 71.3452 84.8777 71.2435C84.754 71.139 84.5863 71.0428 84.3747 70.9549C84.1658 70.8641 83.9047 70.7748 83.5913 70.6869C83.2917 70.6017 83.021 70.5082 82.7791 70.4065C82.5372 70.3048 82.3297 70.188 82.1565 70.056C81.9861 69.9241 81.8555 69.7702 81.7648 69.5943C81.6741 69.4156 81.6288 69.2081 81.6288 68.9717C81.6288 68.7408 81.6783 68.5305 81.7772 68.3409C81.8762 68.1512 82.015 67.9877 82.1936 67.8503C82.375 67.7128 82.5881 67.607 82.8327 67.5328C83.0801 67.4586 83.3508 67.4215 83.6449 67.4215C84.0655 67.4215 84.4283 67.5012 84.7334 67.6606C85.0412 67.82 85.279 68.0358 85.4467 68.3079C85.6171 68.5773 85.7023 68.8796 85.7023 69.215H85.1952C85.1952 68.9538 85.1333 68.7216 85.0096 68.5182C84.8887 68.312 84.7128 68.1512 84.4819 68.0358C84.2537 67.9176 83.9748 67.8585 83.6449 67.8585C83.3151 67.8585 83.0375 67.9093 82.8121 68.011C82.5894 68.11 82.4204 68.2433 82.305 68.411C82.1923 68.5759 82.1359 68.7601 82.1359 68.9635C82.1359 69.1064 82.1634 69.2383 82.2184 69.3593C82.2733 69.4775 82.3627 69.5888 82.4864 69.6932C82.6128 69.7949 82.7791 69.8911 82.9852 69.9818C83.1914 70.0698 83.4456 70.1536 83.748 70.2333C84.0668 70.3213 84.3499 70.4189 84.5973 70.5261C84.8447 70.6333 85.0536 70.757 85.224 70.8971C85.3944 71.0346 85.5236 71.1954 85.6116 71.3795C85.6995 71.5637 85.7435 71.7781 85.7435 72.0227C85.7435 72.2673 85.6913 72.4872 85.5868 72.6824C85.4851 72.8748 85.3408 73.0383 85.1539 73.173C84.9698 73.3077 84.7513 73.4108 84.4984 73.4822C84.2482 73.5537 83.9748 73.5894 83.6779 73.5894C83.4113 73.5894 83.146 73.5551 82.8822 73.4864C82.6183 73.4176 82.3764 73.3118 82.1565 73.1689C81.9394 73.0232 81.7648 72.8363 81.6329 72.6082C81.5037 72.38 81.4391 72.1079 81.4391 71.7918H81.9421C81.9421 72.0447 81.993 72.2577 82.0947 72.4309C82.1964 72.604 82.3311 72.7442 82.4987 72.8514C82.6692 72.9586 82.8561 73.037 83.0595 73.0864C83.2656 73.1332 83.4718 73.1565 83.6779 73.1565C83.994 73.1565 84.2675 73.1098 84.4984 73.0163C84.732 72.9229 84.912 72.7923 85.0385 72.6247C85.1677 72.4542 85.2323 72.2563 85.2323 72.031Z" fill="white"/>
<path d="M52.4259 89.5904V90.3944H49.2842V89.7141L50.7313 88.1927C50.8592 88.0463 50.9622 87.9154 51.0406 87.8C51.1189 87.6825 51.1756 87.5763 51.2106 87.4815C51.2477 87.3867 51.2663 87.3011 51.2663 87.2248C51.2663 87.095 51.2467 86.9867 51.2075 86.9002C51.1704 86.8115 51.1148 86.7445 51.0406 86.6992C50.9684 86.6538 50.8787 86.6311 50.7715 86.6311C50.6643 86.6311 50.5705 86.6621 50.4901 86.7239C50.4097 86.7857 50.3469 86.8703 50.3015 86.9775C50.2582 87.0847 50.2366 87.2053 50.2366 87.3393H49.1914C49.1914 87.063 49.2584 86.8105 49.3924 86.5817C49.5285 86.3528 49.7171 86.1704 49.9583 86.0343C50.1995 85.8962 50.4788 85.8271 50.7963 85.8271C51.1282 85.8271 51.4065 85.8787 51.6312 85.9818C51.8559 86.0848 52.0249 86.2343 52.1383 86.4301C52.2537 86.6239 52.3115 86.8579 52.3115 87.1321C52.3115 87.2887 52.2867 87.4392 52.2373 87.5835C52.1878 87.7278 52.1167 87.8711 52.0239 88.0134C51.9311 88.1535 51.8177 88.2978 51.6837 88.4463C51.5518 88.5947 51.4013 88.7524 51.2323 88.9194L50.6509 89.5904H52.4259Z" fill="white"/>
<path d="M56.5906 87.732V88.5545C56.5906 88.8782 56.5525 89.1595 56.4762 89.3987C56.402 89.6378 56.2948 89.8357 56.1546 89.9924C56.0165 90.1491 55.8516 90.2655 55.6599 90.3418C55.4681 90.4181 55.2568 90.4562 55.026 90.4562C54.8404 90.4562 54.6673 90.4325 54.5065 90.3851C54.3457 90.3356 54.2003 90.2614 54.0705 90.1625C53.9426 90.0614 53.8324 89.9357 53.7396 89.7852C53.6468 89.6347 53.5757 89.4574 53.5262 89.2533C53.4767 89.0472 53.452 88.8142 53.452 88.5545V87.732C53.452 87.4062 53.4891 87.1249 53.5633 86.8878C53.6396 86.6487 53.7478 86.4507 53.888 86.2941C54.0282 86.1374 54.1941 86.0209 54.3859 85.9447C54.5776 85.8684 54.7889 85.8302 55.0198 85.8302C55.2053 85.8302 55.3774 85.855 55.5362 85.9045C55.697 85.9519 55.8423 86.0261 55.9722 86.1271C56.1021 86.226 56.2123 86.3508 56.303 86.5013C56.3958 86.6517 56.4669 86.8301 56.5164 87.0362C56.5659 87.2403 56.5906 87.4722 56.5906 87.732ZM55.5485 88.6813V87.599C55.5485 87.4547 55.5403 87.3289 55.5238 87.2217C55.5094 87.1145 55.4867 87.0238 55.4558 86.9496C55.4269 86.8754 55.3908 86.8156 55.3475 86.7703C55.3043 86.7229 55.2548 86.6889 55.1991 86.6682C55.1455 86.6456 55.0857 86.6342 55.0198 86.6342C54.9373 86.6342 54.8631 86.6517 54.7971 86.6868C54.7332 86.7198 54.6786 86.7734 54.6332 86.8476C54.5879 86.9218 54.5528 87.0208 54.5281 87.1444C54.5054 87.2681 54.4941 87.4196 54.4941 87.599V88.6813C54.4941 88.8276 54.5013 88.9555 54.5157 89.0647C54.5322 89.1719 54.5549 89.2636 54.5838 89.3399C54.6147 89.4141 54.6518 89.475 54.6951 89.5224C54.7384 89.5677 54.7879 89.6007 54.8435 89.6213C54.8992 89.6419 54.96 89.6522 55.026 89.6522C55.1064 89.6522 55.1785 89.6357 55.2424 89.6028C55.3063 89.5698 55.3609 89.5162 55.4063 89.442C55.4537 89.3657 55.4888 89.2657 55.5114 89.142C55.5362 89.0163 55.5485 88.8627 55.5485 88.6813Z" fill="white"/>
<path d="M60.7863 89.5904V90.3944H57.6446V89.7141L59.0917 88.1927C59.2196 88.0463 59.3226 87.9154 59.401 87.8C59.4793 87.6825 59.536 87.5763 59.571 87.4815C59.6082 87.3867 59.6267 87.3011 59.6267 87.2248C59.6267 87.095 59.6071 86.9867 59.568 86.9002C59.5308 86.8115 59.4752 86.7445 59.401 86.6992C59.3288 86.6538 59.2391 86.6311 59.1319 86.6311C59.0247 86.6311 58.931 86.6621 58.8506 86.7239C58.7702 86.7857 58.7073 86.8703 58.6619 86.9775C58.6186 87.0847 58.597 87.2053 58.597 87.3393H57.5518C57.5518 87.063 57.6188 86.8105 57.7528 86.5817C57.8889 86.3528 58.0775 86.1704 58.3187 86.0343C58.5599 85.8962 58.8392 85.8271 59.1567 85.8271C59.4886 85.8271 59.7669 85.8787 59.9916 85.9818C60.2163 86.0848 60.3853 86.2343 60.4987 86.4301C60.6142 86.6239 60.6719 86.8579 60.6719 87.1321C60.6719 87.2887 60.6471 87.4392 60.5977 87.5835C60.5482 87.7278 60.4771 87.8711 60.3843 88.0134C60.2915 88.1535 60.1782 88.2978 60.0442 88.4463C59.9122 88.5947 59.7617 88.7524 59.5927 88.9194L59.0113 89.5904H60.7863Z" fill="white"/>
<path d="M64.9665 89.5904V90.3944H61.8248V89.7141L63.272 88.1927C63.3998 88.0463 63.5028 87.9154 63.5812 87.8C63.6595 87.6825 63.7162 87.5763 63.7513 87.4815C63.7884 87.3867 63.8069 87.3011 63.8069 87.2248C63.8069 87.095 63.7873 86.9867 63.7482 86.9002C63.7111 86.8115 63.6554 86.7445 63.5812 86.6992C63.509 86.6538 63.4194 86.6311 63.3122 86.6311C63.205 86.6311 63.1112 86.6621 63.0308 86.7239C62.9504 86.7857 62.8875 86.8703 62.8421 86.9775C62.7988 87.0847 62.7772 87.2053 62.7772 87.3393H61.732C61.732 87.063 61.799 86.8105 61.933 86.5817C62.0691 86.3528 62.2577 86.1704 62.4989 86.0343C62.7401 85.8962 63.0194 85.8271 63.3369 85.8271C63.6688 85.8271 63.9471 85.8787 64.1718 85.9818C64.3965 86.0848 64.5655 86.2343 64.6789 86.4301C64.7944 86.6239 64.8521 86.8579 64.8521 87.1321C64.8521 87.2887 64.8273 87.4392 64.7779 87.5835C64.7284 87.7278 64.6573 87.8711 64.5645 88.0134C64.4717 88.1535 64.3584 88.2978 64.2244 88.4463C64.0924 88.5947 63.9419 88.7524 63.7729 88.9194L63.1916 89.5904H64.9665Z" fill="white"/>
</g>
<defs>
<clipPath id="clip0_26330_59680">
<rect width="113" height="113" fill="white"/>
</clipPath>
</defs>
</svg>
