<svg width="172" height="75" viewBox="0 0 172 75" fill="none" xmlns="http://www.w3.org/2000/svg">
<g clip-path="url(#clip0_26330_59568)">
<path d="M32.5067 33.2682H28.8257V12.9826C28.8257 11.3806 28.9281 9.42825 29.1328 7.12551H29.0452C28.8141 8.12546 28.4988 9.10407 28.1028 10.0509L17.3891 33.2682H15.595L4.85702 10.2229C4.4443 9.22305 4.12871 8.18581 3.91461 7.12551H3.83019C3.94627 8.33422 4.00467 10.3003 4.00537 13.0238V33.2682H0.453125V3.06036H5.31715L14.9576 24.1259C15.5216 25.2965 15.9974 26.5075 16.3812 27.7488H16.5353C17.2649 25.8113 17.7687 24.5755 18.0466 24.0415L27.8844 3.06036H32.5067V33.2682Z" fill="white"/>
<path d="M42.7313 33.2686H39.1432V11.6976H42.7313V33.2686ZM43.3455 3.96622C43.3522 4.26963 43.293 4.57088 43.1718 4.84913C43.0506 5.12738 42.8704 5.37597 42.6437 5.57771C42.1873 5.98782 41.5965 6.21644 40.9829 6.22033C40.3694 6.22422 39.7757 6.00311 39.3141 5.59882C39.089 5.39248 38.9115 5.13951 38.7941 4.85754C38.6767 4.57557 38.6223 4.2714 38.6345 3.96622C38.6323 3.67282 38.6905 3.38212 38.8054 3.11216C38.9204 2.8422 39.0896 2.59875 39.3025 2.39694C39.5217 2.17857 39.783 2.0071 40.0706 1.89298C40.3582 1.77886 40.666 1.72447 40.9752 1.73313C41.2859 1.72462 41.5952 1.77799 41.8851 1.89014C42.175 2.00229 42.4397 2.17098 42.6638 2.38638C42.8815 2.58799 43.0545 2.83306 43.1716 3.10574C43.2887 3.37843 43.3472 3.67265 43.3434 3.96938" fill="white"/>
<path d="M64.0026 32.2758C62.1229 33.3231 59.9968 33.8472 57.8458 33.7933C55.9222 33.8237 54.0236 33.3555 52.3348 32.4341C50.7241 31.5463 49.4047 30.2114 48.5356 28.5906C47.6149 26.8756 47.1471 24.9541 47.1764 23.0078C47.1042 21.4341 47.3497 19.862 47.8982 18.3853C48.4467 16.9085 49.2869 15.5572 50.3687 14.4121C51.484 13.3171 52.8131 12.4638 54.273 11.9056C55.7329 11.3474 57.2923 11.0963 58.8536 11.168C60.6453 11.1327 62.4214 11.5077 64.0458 12.2645V15.8031C62.4755 14.7133 60.612 14.1246 58.7006 14.1145C57.6395 14.0781 56.5832 14.2731 55.6051 14.686C54.627 15.099 53.7505 15.72 53.0366 16.5059C51.5421 18.2101 50.7613 20.4244 50.8563 22.6891C50.7373 24.8707 51.481 27.0116 52.9269 28.6496C53.6452 29.3865 54.5117 29.9627 55.4691 30.34C56.4266 30.7173 57.4531 30.8871 58.4811 30.8384C60.4726 30.8281 62.4081 30.1784 64.0026 28.9852V32.2716" fill="white"/>
<path d="M80.0094 15.1939C79.1895 14.6819 78.2302 14.4391 77.2655 14.4995C76.4882 14.4964 75.7233 14.6934 75.0442 15.0716C74.3652 15.4497 73.7949 15.9963 73.3882 16.6587C72.3288 18.3333 71.8087 20.2925 71.8981 22.272V33.2686H68.3047V11.6976H71.8981V16.1426H71.9857C72.404 14.7727 73.2017 13.5492 74.2863 12.6136C75.2825 11.764 76.5526 11.3037 77.8618 11.3177C78.5894 11.2872 79.3167 11.387 80.0094 11.6121V15.1928" fill="white"/>
<path d="M98.905 22.5262C99.0551 20.2895 98.3896 18.0741 97.0318 16.2903C96.3577 15.5514 95.5266 14.9729 94.5996 14.5975C93.6726 14.222 92.6732 14.059 91.6749 14.1205C90.6553 14.0709 89.6372 14.244 88.6913 14.6278C87.7454 15.0116 86.8945 15.597 86.1978 16.343C84.7584 18.1027 84.0383 20.3419 84.1821 22.6107C84.0496 24.8155 84.7758 26.986 86.2083 28.6672C86.9108 29.4001 87.7622 29.9739 88.7052 30.3498C89.6483 30.7257 90.6609 30.8951 91.6749 30.8465C92.6733 30.9105 93.6733 30.7508 94.6021 30.3791C95.5309 30.0074 96.3649 29.433 97.0434 28.6978C98.392 26.9345 99.0536 24.7411 98.905 22.5262ZM102.586 22.3996C102.655 23.9103 102.423 25.4197 101.902 26.8395C101.381 28.2593 100.582 29.5609 99.5519 30.6681C98.4864 31.7258 97.2125 32.5502 95.8112 33.0889C94.4099 33.6276 92.9118 33.8688 91.4122 33.7972C89.9498 33.8667 88.4889 33.6321 87.1218 33.1082C85.7547 32.5843 84.5112 31.7826 83.4697 30.7536C82.4639 29.6831 81.6829 28.4217 81.173 27.0441C80.6631 25.6664 80.4346 24.2005 80.5011 22.7331C80.4181 21.1914 80.6448 19.6487 81.168 18.1961C81.6911 16.7435 82.4999 15.4104 83.5468 14.2756C84.6577 13.2097 85.9762 12.384 87.4202 11.85C88.8642 11.3161 90.4027 11.0852 91.9398 11.1719C93.3817 11.0913 94.8242 11.3171 96.1725 11.8345C97.5207 12.3518 98.7441 13.1489 99.7619 14.1733C101.744 16.4404 102.759 19.3932 102.59 22.3996" fill="white"/>
<path d="M119.282 27.4949C119.3 28.3778 119.105 29.2521 118.714 30.044C118.323 30.8359 117.748 31.522 117.036 32.0445C115.3 33.2841 113.195 33.9004 111.065 33.7932C109.129 33.8374 107.214 33.3878 105.5 32.4867V28.7793C107.149 30.1145 109.206 30.8432 111.328 30.8435C114.176 30.8435 115.6 29.8395 115.601 27.8316C115.613 27.4595 115.545 27.0891 115.401 26.7456C115.258 26.4021 115.042 26.0937 114.768 25.8412C113.603 24.9824 112.328 24.2845 110.977 23.7664C109.398 23.2149 107.961 22.3187 106.771 21.1429C105.914 20.099 105.476 18.7737 105.543 17.4249C105.538 16.5572 105.737 15.7004 106.126 14.9244C106.514 14.1484 107.08 13.4753 107.778 12.9598C109.404 11.7201 111.41 11.0857 113.453 11.1657C115.108 11.1417 116.747 11.4871 118.252 12.1768V15.653C116.761 14.6186 114.982 14.0803 113.168 14.1144C112.147 14.0658 111.14 14.3633 110.309 14.9586C109.967 15.2065 109.69 15.5331 109.501 15.9108C109.312 16.2885 109.217 16.7062 109.224 17.1284C109.198 17.5335 109.259 17.9394 109.403 18.3191C109.546 18.6988 109.769 19.0434 110.057 19.3298C111.101 20.1135 112.262 20.7282 113.497 21.1513C115.172 21.735 116.703 22.6685 117.989 23.8899C118.863 24.8821 119.326 26.1709 119.282 27.4928" fill="white"/>
<path d="M140.123 22.5226C140.273 20.2859 139.607 18.0707 138.25 16.2867C137.576 15.5478 136.745 14.9694 135.818 14.594C134.891 14.2185 133.892 14.0555 132.893 14.1169C131.874 14.0672 130.855 14.2403 129.909 14.6242C128.963 15.008 128.112 15.5933 127.415 16.3394C125.978 18.1001 125.26 20.339 125.405 22.6071C125.273 24.812 125.999 26.9825 127.432 28.6636C128.135 29.3956 128.986 29.9685 129.929 30.3437C130.872 30.7189 131.884 30.8877 132.898 30.8387C133.896 30.9028 134.896 30.7431 135.824 30.3714C136.753 29.9996 137.587 29.4252 138.265 28.69C139.614 26.9269 140.276 24.7335 140.128 22.5184M143.809 22.3918C143.878 23.9026 143.645 25.412 143.124 26.8318C142.603 28.2516 141.804 29.5531 140.773 30.6603C139.708 31.7179 138.434 32.5421 137.033 33.0807C135.632 33.6192 134.134 33.8602 132.635 33.7883C131.172 33.8581 129.711 33.6236 128.344 33.0997C126.977 32.5758 125.734 31.7739 124.692 30.7447C123.686 29.6742 122.906 28.4128 122.396 27.0352C121.886 25.6576 121.657 24.1917 121.724 22.7242C121.641 21.1826 121.868 19.64 122.39 18.1875C122.913 16.7349 123.722 15.4018 124.768 14.2668C125.879 13.2006 127.197 12.3746 128.641 11.84C130.085 11.3055 131.623 11.074 133.16 11.1599C134.602 11.0794 136.045 11.3053 137.393 11.8226C138.741 12.3399 139.964 13.137 140.982 14.1612C142.963 16.4289 143.977 19.3815 143.809 22.3876" fill="white"/>
<path d="M158.519 4.36639C157.784 3.97858 156.962 3.78291 156.131 3.79756C153.619 3.79756 152.363 5.32112 152.362 8.36822V11.6967H157.62V14.6242H152.362V33.2678H148.769V14.6242H144.957V11.6967H148.769V8.19936C148.727 7.22405 148.884 6.25039 149.23 5.33776C149.577 4.42512 150.106 3.59263 150.785 2.89103C151.456 2.2216 152.257 1.6968 153.139 1.34902C154.02 1.00125 154.964 0.837887 155.911 0.869013C156.796 0.836487 157.68 0.964855 158.519 1.24788V4.36639Z" fill="white"/>
<path d="M171.569 33.0578C170.517 33.5629 169.358 33.8017 168.192 33.7532C164.279 33.7532 162.321 31.6327 162.32 27.3917V14.6221H158.465V11.6978H162.32V6.43167L165.913 5.31512V11.6978H171.567V14.6253H165.913V26.8017C165.814 27.8874 166.085 28.9747 166.681 29.8875C167.013 30.2209 167.415 30.4761 167.858 30.6347C168.302 30.7933 168.775 30.8514 169.243 30.8046C170.071 30.8232 170.883 30.5798 171.565 30.1091V33.0578" fill="white"/>
<path d="M56.3621 53.8673C56.3621 49.8641 53.9085 47.8628 49.0012 47.8635H44.6849V60.2499H48.5411C50.609 60.3879 52.6607 59.8033 54.3454 58.5962C55.0244 58.0177 55.5598 57.2895 55.9096 56.4689C56.2594 55.6483 56.415 54.7578 56.3621 53.8673ZM60.2173 53.6773C60.2636 55.0171 60.0046 56.3499 59.46 57.5749C58.9153 58.7999 58.0992 59.8849 57.0734 60.7481C54.743 62.6191 51.8092 63.5742 48.8239 63.4339H44.6849V74.8695H41.0039V44.6658H49.6365C52.9967 44.6658 55.5998 45.4559 57.446 47.0361C58.3794 47.8636 59.1135 48.8915 59.5934 50.0429C60.0733 51.1942 60.2866 52.4393 60.2173 53.6847" fill="white"/>
<path d="M75.3735 63.9587L69.9396 64.6975C68.5532 64.7869 67.2119 65.2251 66.0401 65.9713C65.6434 66.3355 65.3361 66.7864 65.1422 67.2889C64.9484 67.7914 64.8732 68.3318 64.9225 68.8682C64.9056 69.3663 65.0058 69.8615 65.2152 70.3139C65.4245 70.7662 65.737 71.1632 66.1277 71.4727C67.0103 72.152 68.1039 72.4988 69.2167 72.4521C70.0385 72.4768 70.8564 72.3283 71.6171 72.0163C72.3778 71.7044 73.0644 71.2358 73.6322 70.6411C74.2085 70.0395 74.6594 69.3291 74.9583 68.5515C75.2573 67.7738 75.3984 66.9444 75.3735 66.1116V63.9587ZM78.9669 74.8709H75.3735V71.5002H75.2859C74.6708 72.4793 73.8585 73.3196 72.9009 73.9677C71.9433 74.6157 70.8613 75.0573 69.7237 75.2644C68.5861 75.4715 67.4178 75.4395 66.2933 75.1704C65.1687 74.9013 64.1125 74.4011 63.1918 73.7016C62.5466 73.1357 62.0366 72.4322 61.6995 71.643C61.3623 70.8537 61.2065 69.9989 61.2436 69.1415C61.2436 65.1249 63.7124 62.7796 68.65 62.1056L75.3756 61.199C75.3756 57.549 73.8348 55.7233 70.7532 55.7219C68.0796 55.7129 65.4884 56.6471 63.4356 58.3602V54.8164C64.4783 54.1751 65.6191 53.7091 66.8126 53.4371C68.1931 53.0262 69.6225 52.8029 71.0625 52.7733C76.3349 52.7733 78.9732 55.4626 78.9774 60.8413V74.8709" fill="white"/>
<path d="M96.3098 56.7954C95.4916 56.2844 94.5342 56.0416 93.5712 56.101C92.7938 56.0975 92.0285 56.2943 91.3492 56.6725C90.6699 57.0507 90.0995 57.5975 89.6929 58.2602C88.6335 59.9347 88.1134 61.894 88.2028 63.8735V74.8701H84.6094V53.2991H88.2028V57.7441H88.2904C88.7087 56.3742 89.5064 55.1507 90.591 54.2151C91.5865 53.3665 92.8553 52.9066 94.1633 52.9202C94.891 52.8898 95.6182 52.9895 96.3109 53.2146L96.3098 56.7954Z" fill="white"/>
<path d="M110.805 74.6565C109.753 75.1617 108.594 75.4005 107.428 75.352C103.513 75.352 101.555 73.2315 101.556 68.9904V56.2209H97.7031V53.2965H101.559V48.0304L105.153 46.9139V53.2965H110.805V56.2251H105.153V68.4005C105.053 69.4862 105.323 70.5738 105.92 71.4863C106.252 71.8202 106.655 72.0758 107.098 72.2344C107.541 72.3931 108.015 72.4508 108.483 72.4034C109.311 72.422 110.124 72.1786 110.805 71.7079V74.6565Z" fill="white"/>
<path d="M133.102 74.8697H129.514V62.5677C129.514 58.003 127.775 55.7207 124.298 55.7207C123.464 55.7047 122.637 55.8687 121.872 56.2014C121.107 56.5341 120.423 57.0278 119.866 57.6488C118.653 58.9933 118.012 60.7581 118.08 62.5677V74.8697H114.492V53.2987H118.08V56.8794H118.168C118.902 55.5869 119.977 54.5206 121.275 53.7964C122.573 53.0722 124.044 52.7179 125.53 52.7721C126.585 52.7039 127.642 52.8777 128.619 53.28C129.597 53.6824 130.47 54.3028 131.172 55.0938C132.569 56.9852 133.253 59.31 133.102 61.6569V74.8697Z" fill="white"/>
<path d="M152.929 62.0206C153.005 60.3423 152.471 58.6932 151.427 57.3771C150.907 56.8157 150.269 56.3763 149.558 56.0904C148.848 55.8045 148.084 55.6792 147.32 55.7234C146.528 55.7104 145.742 55.8567 145.008 56.1535C144.274 56.4502 143.607 56.8915 143.047 57.451C141.82 58.6885 141.035 60.2949 140.812 62.0227H152.929M156.609 64.9502H140.768C140.683 66.9982 141.403 68.9982 142.773 70.5224C143.482 71.1875 144.318 71.7014 145.232 72.0327C146.145 72.364 147.117 72.5058 148.087 72.4494C150.6 72.4593 153.045 71.6292 155.032 70.0907V73.3137C152.713 74.8059 149.986 75.5351 147.232 75.3991C145.841 75.4765 144.451 75.2499 143.157 74.735C141.863 74.2201 140.696 73.4293 139.739 72.4177C137.942 70.4316 137.043 67.6828 137.044 64.1714C137.02 62.1432 137.482 60.1387 138.392 58.3259C139.221 56.6387 140.508 55.2188 142.105 54.228C143.686 53.2581 145.508 52.7543 147.363 52.7748C148.627 52.7048 149.892 52.9127 151.067 53.3841C152.243 53.8554 153.301 54.5786 154.167 55.5028C155.795 57.3222 156.609 59.8677 156.609 63.1392V64.9502Z" fill="white"/>
<path d="M172.457 56.7954C171.638 56.2847 170.681 56.0419 169.718 56.101C168.941 56.0976 168.176 56.2945 167.496 56.6726C166.817 57.0508 166.247 57.5976 165.84 58.2602C164.781 59.9347 164.26 61.894 164.35 63.8735V74.8701H160.762V53.2991H164.35V57.7441H164.437C164.855 56.3743 165.653 55.1507 166.737 54.2151C167.733 53.367 169.001 52.9072 170.309 52.9202C171.037 52.8898 171.764 52.9895 172.457 53.2146V56.7954Z" fill="white"/>
</g>
<defs>
<clipPath id="clip0_26330_59568">
<rect width="172" height="74.5335" fill="white" transform="translate(0 0.233215)"/>
</clipPath>
</defs>
</svg>
