<svg width="157" height="83" viewBox="0 0 157 83" fill="none" xmlns="http://www.w3.org/2000/svg">
<path d="M25.2351 3.1285C23.438 3.33652 21.9298 4.56155 21.3924 6.24886C21.3462 6.39909 18.9684 15.269 16.1081 25.9649C13.2506 36.6579 9.13928 52.0314 6.97526 60.127C4.81123 68.2197 3.01414 74.9689 2.97947 75.122C2.8899 75.5323 2.89279 76.4019 2.98525 76.8295C3.41574 78.8549 4.98747 80.285 7.00993 80.4988C7.41153 80.5393 115.569 80.5364 115.913 80.496C116.774 80.389 117.45 79.999 117.728 79.4529C117.771 79.3692 118.063 78.5053 118.381 77.5374C121.804 67.0842 125.664 56.9662 130.183 46.6083C132.318 41.7169 134.349 37.3831 136.831 32.4367C140.604 24.9132 144.349 18.2102 148.272 11.9522C150.202 8.87226 152.407 5.593 153.912 3.56477C154.091 3.32207 154.239 3.11694 154.239 3.11117C154.239 3.08516 25.4547 3.1025 25.2351 3.1285ZM152.473 4.79269C147.391 9.94128 141.46 17.5688 136.184 25.7337C133.153 30.4229 130.423 35.1064 127.742 40.2145C127.12 41.3991 125.777 44.06 125.381 44.8892C125.208 45.2533 124.945 45.808 124.797 46.1172C120.903 54.311 117.985 61.7247 115.321 70.1843L115.171 70.6582L114.599 68.9998C112.816 63.8136 110.871 58.301 109.268 53.8892C108.82 52.6555 107.693 49.6044 107.581 49.3155L107.549 49.2375H105.05C103.674 49.2375 102.551 49.2433 102.551 49.2491C102.551 49.2548 102.831 50.0407 103.172 50.9942C106.506 60.3408 109.745 69.6903 112.186 77.0318C112.879 79.1207 112.955 79.3258 113.073 79.4934L113.128 79.5743H60.1282C13.2824 79.5743 7.09949 79.5685 6.87991 79.531C6.14027 79.4009 5.50464 79.0802 4.96725 78.5602C4.23628 77.8523 3.8549 76.9653 3.8549 75.9657C3.8549 75.749 3.87513 75.4947 3.90113 75.3531C3.92424 75.2231 5.73 68.4364 7.91425 60.2772C19.9305 15.3354 22.2679 6.61001 22.317 6.46265C22.395 6.24019 22.5799 5.87614 22.7417 5.62767C22.9151 5.36475 23.4265 4.85625 23.6951 4.67712C24.1314 4.3882 24.6573 4.1744 25.1224 4.09639C25.3304 4.06171 34.5933 4.05594 89.2861 4.05305L153.207 4.05016L152.473 4.79269Z" fill="white"/>
<path d="M48.0489 9.12379C47.812 9.17869 47.6618 9.26537 47.4884 9.43583C47.2544 9.67274 47.0984 10.0339 47.0117 10.5424L46.977 10.7533H46.7372C46.5147 10.7533 46.4945 10.7591 46.4396 10.8284C46.3674 10.918 46.3269 11.0567 46.3009 11.2791C46.2778 11.5103 46.3009 11.5334 46.587 11.5334C46.8123 11.5334 46.8181 11.5363 46.8037 11.597C46.795 11.6345 46.6563 12.299 46.4974 13.0791C46.168 14.6826 46.1709 14.6682 46.0814 14.8011C45.9802 14.9542 45.8502 15.0062 45.622 14.9889C45.388 14.9716 45.3591 14.9947 45.2955 15.272C45.2059 15.6592 45.2551 15.7199 45.674 15.7459C46.2663 15.7805 46.7025 15.5581 46.951 15.0929C47.0781 14.856 47.1533 14.5353 47.4797 12.8971L47.7513 11.5334H48.0865C48.3696 11.5334 48.4274 11.5247 48.465 11.4814C48.5834 11.3456 48.6759 10.8833 48.6037 10.7967C48.5748 10.762 48.4968 10.7533 48.2396 10.7533C47.9131 10.7533 47.9102 10.7533 47.9218 10.6869C48.0345 10.1408 48.0865 10.0166 48.2367 9.90388C48.3263 9.83743 48.5545 9.82298 48.8088 9.86921L48.9417 9.89233L48.9908 9.75364C49.0168 9.67563 49.0457 9.52828 49.0544 9.42138C49.0717 9.23936 49.0688 9.22492 49.0053 9.18447C48.8377 9.07757 48.3581 9.04867 48.0489 9.12379Z" fill="white"/>
<path d="M57.5494 9.16669C57.5003 9.18114 57.4454 9.21003 57.428 9.22737C57.4136 9.24759 57.3154 9.66942 57.2171 10.1635L57.0322 11.0649L56.8935 10.9378C56.4775 10.5622 55.7552 10.5795 55.2265 10.9811C54.4782 11.5445 54.065 13.0758 54.4435 13.8877C54.6111 14.2488 54.8538 14.4164 55.2525 14.4424C55.6772 14.4713 56.0643 14.3124 56.4082 13.9715C56.5237 13.853 56.6133 13.7779 56.6046 13.7981C56.596 13.8212 56.5728 13.9455 56.5526 14.0726C56.5237 14.2575 56.5237 14.3153 56.5526 14.3442C56.5757 14.3673 56.6913 14.3788 56.9022 14.3788C57.1796 14.3788 57.2258 14.3731 57.2749 14.3211C57.3183 14.2748 57.4338 13.749 57.8354 11.7583C58.1128 10.3831 58.3295 9.24181 58.3179 9.22448C58.2688 9.14069 57.7632 9.10313 57.5494 9.16669ZM56.4255 11.507C56.5035 11.5272 56.5931 11.5907 56.7057 11.7063L56.8675 11.8739L56.8011 12.1975C56.7115 12.6106 56.6884 12.6886 56.5613 12.9313C56.229 13.5727 55.5558 13.8588 55.3536 13.4485C55.2756 13.2896 55.2814 12.7638 55.368 12.4431C55.5645 11.7092 55.943 11.3741 56.4255 11.507Z" fill="white"/>
<path d="M61.1785 9.16457C61.1265 9.17613 61.0658 9.20502 61.0456 9.22525C61.0224 9.24836 60.7826 10.3954 60.5082 11.7735C59.9448 14.631 59.965 14.3681 60.2944 14.3883C60.54 14.4056 60.7335 14.3738 60.7971 14.3103C60.826 14.2814 60.8578 14.1976 60.8693 14.1225C60.8809 14.0502 60.9011 13.9896 60.9127 13.9896C60.9242 13.9896 60.9849 14.0416 61.0456 14.108C61.4154 14.4865 61.9961 14.5616 62.548 14.2958C62.9033 14.1282 63.172 13.8538 63.3829 13.4435C63.8337 12.5652 63.8654 11.4124 63.4494 10.9588C63.2298 10.7219 62.7993 10.6121 62.4179 10.6987C62.1897 10.7508 61.8777 10.9241 61.6927 11.1032C61.5945 11.1957 61.5252 11.2506 61.5396 11.2217C61.5801 11.1321 61.9499 9.27147 61.9354 9.23103C61.9037 9.14724 61.4327 9.1039 61.1785 9.16457ZM62.6202 11.5771C62.782 11.7331 62.808 12.178 62.6809 12.6692C62.4931 13.3944 62.0828 13.7526 61.6003 13.6082C61.4472 13.562 61.1756 13.3135 61.1756 13.221C61.1756 13.0621 61.3229 12.4756 61.4038 12.3023C61.583 11.9296 61.8805 11.6146 62.1521 11.5135C62.3168 11.4528 62.5191 11.4817 62.6202 11.5771Z" fill="white"/>
<path d="M45.3732 9.27703C45.1623 9.33192 45.0467 9.48794 44.9889 9.7942C44.9312 10.1091 45.0178 10.2016 45.3992 10.2276C45.873 10.2565 46.0522 10.1005 46.11 9.60929C46.1273 9.47349 46.1215 9.45327 46.0435 9.36659C45.9597 9.27414 45.9482 9.26836 45.7141 9.26258C45.5812 9.2568 45.4281 9.26547 45.3732 9.27703Z" fill="white"/>
<path d="M49.7131 9.27703C49.5021 9.33192 49.3866 9.48794 49.3288 9.7942C49.271 10.1091 49.3577 10.2016 49.7391 10.2276C50.2129 10.2565 50.392 10.1005 50.4498 9.60929C50.4671 9.47349 50.4614 9.45327 50.3834 9.36659C50.2996 9.27414 50.288 9.26836 50.054 9.26258C49.9211 9.2568 49.768 9.26547 49.7131 9.27703Z" fill="white"/>
<path d="M33.4804 9.46478C32.9516 9.57168 32.5356 9.79993 32.1658 10.1958C31.7555 10.6291 31.4695 11.2012 31.3221 11.8888C31.2383 12.2818 31.2297 12.9867 31.3077 13.267C31.4695 13.8651 31.8624 14.2522 32.4547 14.3967C32.7147 14.4631 33.3677 14.4487 33.6826 14.3707C34.0149 14.2869 34.2951 14.1482 34.3789 14.0269C34.4511 13.92 34.5494 13.449 34.5234 13.3392C34.4974 13.2381 34.4222 13.2468 34.1795 13.371C33.8733 13.5299 33.6797 13.5877 33.3908 13.605C32.8823 13.6368 32.5471 13.4577 32.3911 13.0705C32.3333 12.9261 32.3276 12.8596 32.3276 12.5158C32.3304 12.0217 32.4113 11.6895 32.6425 11.2243C32.9719 10.5598 33.4457 10.2333 34.0264 10.2709C34.3009 10.2882 34.5205 10.3749 34.7429 10.5511C34.8238 10.6147 34.9076 10.6667 34.9279 10.6667C35.0376 10.6667 35.159 10.3893 35.1908 10.0744C35.2052 9.9155 35.1994 9.89239 35.1301 9.8086C35.0376 9.69881 34.7689 9.56013 34.5205 9.49368C34.2807 9.43011 33.7346 9.41567 33.4804 9.46478Z" fill="white"/>
<path d="M42.6966 9.88931C42.6475 9.90375 42.5926 9.93264 42.5753 9.94998C42.5608 9.9702 42.5175 10.1291 42.4828 10.3054C42.4481 10.4787 42.4135 10.6521 42.4048 10.6867C42.3904 10.7474 42.373 10.7532 42.165 10.7532C41.9194 10.7532 41.8848 10.7734 41.8067 10.9612C41.7518 11.0912 41.7172 11.357 41.7432 11.4582C41.7605 11.5304 41.7692 11.5333 41.9917 11.5333C42.1188 11.5333 42.2228 11.5448 42.2228 11.5564C42.2228 11.5679 42.1419 11.9695 42.0465 12.4434C41.8299 13.5066 41.8125 13.784 41.9425 14.0498C41.9917 14.1509 42.061 14.2405 42.1303 14.2867C42.4106 14.4832 43.0144 14.5063 43.3554 14.3329C43.4392 14.2896 43.4738 14.2462 43.5229 14.1133C43.5547 14.0238 43.5923 13.8678 43.6009 13.7666C43.6212 13.5499 43.5952 13.5297 43.3958 13.5962C43.1445 13.6828 42.9249 13.6453 42.8613 13.5066C42.8093 13.391 42.8209 13.2841 43.0029 12.3971C43.0982 11.932 43.1762 11.5448 43.1762 11.539C43.1762 11.5362 43.3496 11.5333 43.5605 11.5333C43.8956 11.5333 43.9534 11.5275 43.9939 11.4813C44.1094 11.357 44.2019 10.8832 44.1297 10.7965C44.1008 10.7618 44.0199 10.7532 43.7223 10.7532C43.4276 10.7532 43.3496 10.7445 43.3496 10.7127C43.3496 10.6925 43.3814 10.5163 43.4218 10.3198C43.4623 10.1233 43.494 9.95865 43.494 9.95287C43.494 9.94709 43.4478 9.92109 43.3929 9.89797C43.2802 9.85175 42.844 9.84597 42.6966 9.88931Z" fill="white"/>
<path d="M36.8088 10.7069C36.3205 10.8196 35.9276 11.0768 35.6502 11.461C35.1533 12.1602 34.9684 13.2957 35.2602 13.8677C35.3815 14.1075 35.6358 14.2925 35.9652 14.382C36.4217 14.5092 37.3347 14.4369 37.7363 14.2462C37.8836 14.1769 37.9732 13.9978 37.9992 13.7146C38.0223 13.4719 37.9992 13.4633 37.6236 13.5817C37.0949 13.7435 36.595 13.7724 36.3523 13.6568C36.1385 13.5557 36.0345 13.2755 36.0836 12.9374L36.1039 12.8045H36.4361C37.7392 12.8045 38.473 12.4318 38.5452 11.7384C38.5944 11.279 38.3257 10.9063 37.8316 10.7474C37.5918 10.6723 37.0573 10.6492 36.8088 10.7069ZM37.4213 11.3859C37.6265 11.4813 37.69 11.6979 37.5687 11.8829C37.4849 12.0071 37.2422 12.1284 36.9966 12.1689C36.751 12.2064 36.2454 12.2064 36.2454 12.1689C36.2454 12.1053 36.4217 11.7557 36.5055 11.6488C36.725 11.3715 37.1295 11.2559 37.4213 11.3859Z" fill="white"/>
<path d="M40.9544 10.7125C40.7088 10.802 40.4516 11.0014 40.3014 11.2152C40.2581 11.2788 40.2147 11.3279 40.209 11.3192C40.2032 11.3134 40.2205 11.1979 40.2494 11.0592C40.2899 10.8598 40.2927 10.8049 40.2638 10.776C40.2378 10.75 40.1281 10.7385 39.9143 10.7385C39.6513 10.7385 39.5907 10.7471 39.5415 10.7905C39.4953 10.8338 39.4231 11.1516 39.1457 12.5616C38.8337 14.1391 38.8106 14.2864 38.851 14.3298C38.9406 14.4164 39.5733 14.4136 39.6947 14.324C39.7322 14.298 39.79 14.0697 39.9258 13.3908C40.1309 12.3622 40.1945 12.1946 40.4921 11.8682C40.755 11.5821 40.9457 11.5128 41.2144 11.6052C41.3386 11.6515 41.3415 11.6515 41.4051 11.5792C41.4687 11.5041 41.5467 11.2123 41.5756 10.932C41.5929 10.7702 41.5929 10.7645 41.512 10.7269C41.3791 10.6662 41.0988 10.6576 40.9544 10.7125Z" fill="white"/>
<path d="M52.2034 10.7069C51.7151 10.8196 51.3221 11.0768 51.0448 11.461C50.5478 12.1602 50.3629 13.2957 50.6547 13.8677C50.7761 14.1075 51.0303 14.2925 51.3597 14.382C51.8162 14.5092 52.7292 14.4369 53.1308 14.2462C53.2781 14.1769 53.3677 13.9978 53.3937 13.7146C53.4168 13.4719 53.3937 13.4633 53.0181 13.5817C52.4894 13.7435 51.9896 13.7724 51.7469 13.6568C51.5331 13.5557 51.429 13.2755 51.4782 12.9374L51.4984 12.8045H51.8306C53.1337 12.8045 53.8675 12.4318 53.9398 11.7384C53.9889 11.279 53.7202 10.9063 53.2261 10.7474C52.9863 10.6723 52.4518 10.6492 52.2034 10.7069ZM52.8159 11.3859C53.021 11.4813 53.0846 11.6979 52.9632 11.8829C52.8794 12.0071 52.6367 12.1284 52.3912 12.1689C52.1456 12.2064 51.64 12.2064 51.64 12.1689C51.64 12.1053 51.8162 11.7557 51.9 11.6488C52.1196 11.3715 52.5241 11.2559 52.8159 11.3859Z" fill="white"/>
<path d="M45.0283 10.7536C44.9763 10.7651 44.9156 10.794 44.8954 10.8142C44.8723 10.8373 44.7047 11.6261 44.5169 12.568C44.2049 14.1542 44.1847 14.2871 44.228 14.3304C44.2627 14.3651 44.3465 14.3795 44.5574 14.3882C44.8867 14.4026 45.0745 14.3622 45.1121 14.2697C45.1583 14.1686 45.8084 10.8402 45.7911 10.8113C45.7448 10.7333 45.2623 10.6987 45.0283 10.7536Z" fill="white"/>
<path d="M49.3603 10.7536C49.3083 10.7651 49.2477 10.794 49.2274 10.8142C49.2043 10.8373 49.0368 11.6261 48.849 12.568C48.5369 14.1542 48.5167 14.2871 48.56 14.3304C48.5947 14.3651 48.6785 14.3795 48.8894 14.3882C49.2188 14.4026 49.4066 14.3622 49.4441 14.2697C49.4904 14.1686 50.1404 10.8402 50.1231 10.8113C50.0769 10.7333 49.5944 10.6987 49.3603 10.7536Z" fill="white"/>
<path d="M64.5447 10.7438C64.4464 10.7669 64.3858 10.842 64.3858 10.9374C64.3887 10.9865 64.5158 11.7781 64.6718 12.694L64.9521 14.364L64.4956 14.962C64.2442 15.2885 64.0391 15.5746 64.0391 15.5948C64.0391 15.6843 64.1344 15.7075 64.5129 15.7075C64.8365 15.7075 64.9058 15.6988 64.9983 15.6497C65.0821 15.6034 65.2265 15.4243 65.6455 14.8262C66.4891 13.633 66.6856 13.3152 67.0814 12.5293C67.3328 12.0266 67.7026 11.1136 67.7286 10.9403C67.7517 10.7582 67.7113 10.738 67.2923 10.738C66.7809 10.738 66.8012 10.7264 66.6943 11.0789C66.5585 11.5181 66.31 12.1393 66.1222 12.5149C65.9662 12.824 65.6859 13.3036 65.6859 13.2603C65.6859 13.2112 65.3363 10.8767 65.3219 10.8305C65.3132 10.8016 65.2728 10.7669 65.2323 10.7496C65.1601 10.7236 64.6516 10.7178 64.5447 10.7438Z" fill="white"/>
<path d="M28.3198 23.1534C27.7997 25.0978 27.375 26.7042 27.375 26.7216C27.375 26.7505 28.1175 26.7591 30.9865 26.7591C33.1477 26.7591 34.598 26.7707 34.598 26.7851C34.598 26.8111 30.322 42.8058 30.2787 42.9358L30.2613 42.9965H34.2196C37.964 42.9965 38.1778 42.9936 38.1922 42.9445C38.2298 42.8145 42.5145 26.7909 42.5145 26.7765C42.5145 26.7678 44.6236 26.7591 47.2037 26.7591H51.89L52.8377 23.2112C53.3577 21.2609 53.7853 19.6574 53.7824 19.643C53.7824 19.6314 48.2669 19.6228 41.5235 19.6228H29.2645L28.3198 23.1534Z" fill="white"/>
<path d="M55.4925 23.182L54.5391 26.7444L58.2806 26.7588L62.025 26.7733L63.1865 34.8775C63.825 39.3356 64.3479 42.9847 64.3479 42.9904C64.3508 42.9933 65.9977 42.9933 68.0115 42.9904L71.675 42.9818L77.2136 31.3093C80.2617 24.8895 82.7551 19.634 82.7551 19.6282C82.7551 19.6254 80.9263 19.6254 78.6929 19.6282L74.6307 19.6369L72.013 26.0539C69.5514 32.0808 69.3925 32.465 69.3723 32.3524C69.3636 32.2888 69.1036 29.3967 68.7945 25.9267L68.2368 19.6225H62.3428H56.4459L55.4925 23.182Z" fill="white"/>
<path d="M82.5312 26.1325C81.5748 29.7094 80.7514 32.8066 80.7052 33.0146C80.5896 33.5231 80.4827 34.1588 80.4134 34.7482C80.3382 35.3722 80.3065 36.6897 80.3556 37.2502C80.5174 39.0849 81.0692 40.5613 82.0429 41.769C82.3145 42.1041 82.8692 42.6357 83.2275 42.8987C84.2185 43.6354 85.3395 44.0832 86.7436 44.3057C87.2781 44.3895 88.7834 44.3982 89.3439 44.3173C91.9587 43.9474 94.2874 42.7918 96.2029 40.9167C97.688 39.4605 98.7541 37.7847 99.4822 35.7507C99.7047 35.1296 99.852 34.5864 102.663 24.0436C103.299 21.6514 103.828 19.678 103.833 19.6578C103.842 19.6318 101.877 19.6231 94.0591 19.6231H84.2734L82.5312 26.1325ZM89.4971 20.6632L89.5982 20.9377L89.9622 20.9522L90.3292 20.9666L90.0836 21.2613C89.9449 21.4231 89.8351 21.5705 89.8351 21.5849C89.8351 21.6022 89.8871 21.7351 89.9507 21.8796C90.0142 22.027 90.0662 22.157 90.0662 22.1714C90.0662 22.183 89.9131 22.1945 89.7253 22.1945H89.3844L89.1128 22.5123C88.9394 22.7146 88.8325 22.8157 88.821 22.7926C88.8094 22.7753 88.7661 22.6308 88.7227 22.4748L88.6418 22.1945H88.3154H87.9889L88.1767 21.9027L88.3674 21.6109L88.2663 21.2902L88.1651 20.9666L88.561 20.9579L88.9539 20.9493L89.1532 20.6459C89.263 20.4783 89.3642 20.3541 89.3757 20.3657C89.3902 20.3801 89.4451 20.513 89.4971 20.6632ZM95.8244 20.4292C95.8678 20.4466 95.9024 20.4754 95.9024 20.4928C95.9024 20.5101 95.8216 20.6084 95.7233 20.7124C95.5211 20.9233 95.3102 21.0417 94.9201 21.1689C94.5041 21.3047 93.6922 21.3047 93.4033 21.166C93.279 21.1082 93.2617 21.0591 93.331 20.9724C93.4524 20.8193 94.1429 20.5275 94.6023 20.435C94.689 20.4177 94.7872 20.3974 94.819 20.3917C94.923 20.3657 95.7407 20.3974 95.8244 20.4292ZM99.3002 20.8568L99.3464 20.9811H99.722H100.098L99.9936 21.1024C99.9358 21.1717 99.8144 21.3133 99.7278 21.4202L99.566 21.6167L99.696 21.9258L99.826 22.2379L99.4706 22.2465L99.1153 22.2552L98.8437 22.5672C98.6963 22.7406 98.5721 22.8735 98.5692 22.8648C98.5663 22.8533 98.523 22.7117 98.4739 22.5499L98.3843 22.2552L98.0549 22.2465L97.7227 22.2379L97.9105 21.9576C98.0145 21.8016 98.0983 21.66 98.0983 21.6398C98.0983 21.6196 98.0549 21.4636 98 21.2902L97.9018 20.9811H98.3034H98.705L98.9101 20.6719L99.1181 20.3657L99.1846 20.5506C99.2222 20.6517 99.2742 20.7904 99.3002 20.8568ZM97.0061 20.6084C97.2575 20.6777 97.3355 20.851 97.243 21.14C97.1679 21.3855 96.9859 21.5676 96.6248 21.7583C96.3272 21.9172 96.1914 22.0385 96.1914 22.1396C96.1914 22.2379 95.9371 22.9717 95.8042 23.252C95.2639 24.3903 94.4781 25.1155 93.4582 25.4189C92.9554 25.5662 92.3487 25.5431 91.8893 25.3582C91.5166 25.2051 91.4097 25.0924 91.4704 24.9133C91.5108 24.8035 91.6177 24.8035 91.8951 24.9162C92.1291 25.0086 92.1378 25.0115 92.5943 25.0115H93.0566L93.2386 24.9133C93.4668 24.789 93.7066 24.5319 93.8338 24.2805C94.1574 23.6334 93.9898 23.0757 93.3773 22.7666C93.0508 22.6019 92.6636 22.5615 92.1465 22.6424C91.9962 22.6655 91.7882 22.6857 91.6871 22.6857H91.5022L91.5195 22.5326C91.5513 22.2148 91.7246 21.8969 91.95 21.7323C92.184 21.5618 92.7532 21.452 93.2155 21.4867C93.5882 21.5156 93.5622 21.4953 93.542 21.7698C93.516 22.1656 93.6257 22.3245 93.9262 22.3217C94.2123 22.3159 94.4145 22.1021 94.4723 21.7438L94.4896 21.6254L94.7265 21.5762C95.183 21.478 95.6193 21.2584 95.9313 20.9695C96.1076 20.8077 96.3329 20.6864 96.5727 20.6228C96.7605 20.5708 96.8674 20.5679 97.0061 20.6084ZM86.8679 22.7608C87.0268 22.8417 87.1481 22.9775 87.1944 23.1335C87.2204 23.2231 87.2435 23.4513 87.2521 23.7403C87.2608 23.9945 87.281 24.2574 87.2984 24.3239C87.3504 24.5319 87.4862 24.6561 87.8935 24.8613C88.2518 25.0433 89.3353 25.5431 89.7311 25.7049L89.9275 25.7887L89.8033 25.8465C88.9423 26.2365 88.5927 26.4619 88.116 26.9357C87.9716 27.0773 87.8386 27.1929 87.8213 27.1929C87.8011 27.1929 87.6624 27.008 87.5122 26.7797C87.3619 26.5544 87.1539 26.2654 87.0499 26.1354C86.8216 25.8523 86.6685 25.7685 86.368 25.7656C86.1022 25.7627 86.0069 25.8263 85.8653 26.1094C85.7035 26.4301 85.6168 26.4821 85.2095 26.4937L84.8945 26.5052L84.9494 26.3492C85.0997 25.9158 85.221 25.7772 85.4753 25.7454C85.7671 25.7107 85.8855 25.5229 85.718 25.3582C85.6284 25.2658 85.5331 25.2658 85.299 25.3582C85.0477 25.4565 84.9639 25.4507 84.8079 25.3264C84.7356 25.2687 84.6663 25.2051 84.6547 25.182C84.6114 25.1069 84.8021 24.8295 84.9523 24.7515C85.0188 24.7168 85.0563 24.7168 85.2297 24.7544C85.5937 24.8353 85.6544 24.8382 85.718 24.7659C85.7584 24.7197 85.7729 24.6648 85.7729 24.5521C85.77 24.3586 85.7353 24.3008 85.5446 24.1592C85.3077 23.983 85.2846 23.9396 85.3279 23.7143C85.3655 23.5062 85.3799 23.4947 85.6313 23.4947C85.7815 23.4947 85.8826 23.5438 85.9635 23.6507C86.0762 23.8067 86.2091 23.9281 86.2987 23.957C86.5009 24.0234 86.7436 23.9078 86.7436 23.7432C86.7436 23.7027 86.6916 23.5698 86.6252 23.4456C86.5154 23.2404 86.5067 23.2058 86.5183 23.044C86.5385 22.7435 86.6483 22.651 86.8679 22.7608ZM93.2819 23.1653C93.3542 23.2173 93.4379 23.3127 93.49 23.408C93.5651 23.5467 93.5766 23.5958 93.5766 23.7836C93.5766 23.9425 93.5593 24.035 93.5131 24.1361C93.4264 24.3268 93.2357 24.5203 93.0479 24.6128C92.9092 24.6821 92.8485 24.6908 92.6232 24.6937H92.3632L91.9731 24.4972C91.5888 24.3037 91.5744 24.3008 91.3086 24.2834C91.1584 24.2748 90.8954 24.2834 90.7221 24.3008C90.4505 24.3297 90.3898 24.3297 90.2396 24.2863C90.046 24.2314 89.968 24.165 89.9247 24.0003C89.8553 23.7489 89.8987 23.486 90.0171 23.4485C90.0893 23.4253 90.1211 23.46 90.2396 23.7056C90.3609 23.9541 90.4332 23.9887 90.699 23.931C90.7885 23.9136 90.9792 23.8905 91.1208 23.8818C91.4964 23.8587 91.7304 23.9136 92.0771 24.113C92.4123 24.3037 92.5972 24.3499 92.8225 24.3037C93.1664 24.2314 93.3773 23.9541 93.3542 23.5958C93.3368 23.3127 93.2155 23.1826 92.9208 23.1335C92.7388 23.1046 92.7908 23.0526 92.9843 23.0671C93.1172 23.0757 93.1866 23.0989 93.2819 23.1653ZM99.2337 23.6247C98.9015 23.9396 98.6443 24.2314 98.5605 24.3903C98.523 24.4597 98.471 24.737 98.4941 24.737C98.5027 24.737 98.679 24.6359 98.887 24.5088C99.0979 24.3846 99.3204 24.2574 99.3868 24.2228C99.4533 24.191 99.566 24.1159 99.6382 24.061C99.7133 24.0032 99.774 23.9656 99.774 23.9714C99.774 24.0118 99.6411 24.2459 99.5429 24.3759C99.4764 24.4683 99.3782 24.5521 99.2799 24.6041C99.0026 24.7515 98.7628 24.9393 98.6068 25.1329C98.4507 25.3178 98.2543 25.6529 98.2803 25.6789C98.3092 25.7078 98.757 25.5374 98.9881 25.4073C99.5949 25.0693 100.124 24.5117 100.491 23.8269C100.6 23.6189 100.612 23.6074 100.595 23.7114C100.563 23.9021 100.441 24.3037 100.335 24.5637C100.19 24.9248 99.9907 25.234 99.7364 25.5056C99.4909 25.7656 99.3435 25.8552 98.8206 26.0545C98.3121 26.251 98.0174 26.4677 97.8845 26.7393C97.7371 27.034 97.7313 27.5569 97.8642 27.9181C97.896 28.0047 97.9942 28.1983 98.0838 28.3486C98.3294 28.7704 98.4421 29.0015 98.549 29.2933C98.7339 29.8076 98.8177 29.9059 98.965 29.7989L99.043 29.7383L98.9477 29.9607C98.7946 30.3132 98.8263 30.4721 99.0401 30.4057C99.095 30.3883 99.1384 30.3855 99.1326 30.3941C99.1268 30.4057 99.0661 30.527 98.9968 30.6628C98.8928 30.8737 98.8783 30.9229 98.9043 30.9749C98.9448 31.05 98.9968 31.05 99.2048 30.9806L99.3666 30.9229L99.0026 31.3389C98.8003 31.5672 98.5605 31.8618 98.4681 31.9948C98.3756 32.1277 98.2514 32.3039 98.1936 32.3906C98.0347 32.6159 97.6562 32.9915 97.3875 33.1938C97.1073 33.3989 96.6594 33.6358 96.3821 33.7196C96.2723 33.7543 96.0065 33.8005 95.7869 33.8236C95.3824 33.8641 95.1455 33.9305 94.9461 34.0577C94.7843 34.1588 94.5821 34.4044 94.5127 34.5835C94.3741 34.9331 94.455 35.6901 94.6716 36.1119C94.8074 36.3748 95.0935 36.6695 95.3737 36.8313C95.5789 36.9555 95.7638 37.0104 96.1538 37.074C96.6363 37.1549 96.6219 37.1491 96.4918 37.2358C96.2492 37.3976 96.1654 37.5189 96.2203 37.6229C96.2434 37.6663 96.2896 37.6807 96.4167 37.6865L96.5814 37.6952L96.4456 37.7761C96.2925 37.8656 96.2203 37.9523 96.2203 38.0477C96.2203 38.1372 96.3012 38.1719 96.5005 38.1719H96.6681L96.5814 38.2297C96.4254 38.3366 96.1971 38.3828 95.8158 38.3886C95.5182 38.3944 95.4315 38.4059 95.3246 38.455C95.1021 38.5591 94.9403 38.7469 94.7323 39.1398C94.062 40.411 93.8973 40.6971 93.6489 41.0264C93.3022 41.4887 92.9526 41.7343 92.5972 41.7661C92.4181 41.7834 92.3458 41.8239 92.132 42.0377C92.0453 42.1186 91.9789 42.159 91.8893 42.1735C91.7246 42.1995 91.4531 42.1648 91.4328 42.1157C91.3808 41.977 91.6842 41.5812 91.8431 41.5812C91.9529 41.5812 92.1609 41.4772 92.2331 41.3876C92.3429 41.246 92.2851 41.0611 92.1291 41.0611C92.0165 41.0611 91.8951 41.1362 91.6784 41.3414C91.5484 41.4627 91.4646 41.5234 91.4299 41.5118C91.4039 41.5061 91.3057 41.4829 91.2104 41.4627C91.1179 41.4425 91.037 41.4107 91.0283 41.3905C91.0139 41.3529 91.0832 41.2056 91.1728 41.0842C91.2999 40.9138 91.4357 40.8531 91.8315 40.7866C92.0425 40.7549 92.158 40.5497 92.0396 40.4197C91.9818 40.3561 91.8893 40.3533 91.7015 40.411C91.4646 40.4833 91.193 40.4515 91.089 40.3359C91.0486 40.2897 91.0515 40.2781 91.1641 40.1655C91.3317 39.9979 91.5628 39.8968 91.7709 39.8968C91.9009 39.8997 91.9818 39.9228 92.1725 40.0152C92.6781 40.2637 92.8746 40.2088 93.1057 39.7494C93.2386 39.4865 93.4119 39.2207 93.6778 38.8798C93.9031 38.5879 93.9667 38.4637 93.9869 38.2759C93.9985 38.1546 93.9898 38.1141 93.9407 38.0506C93.8511 37.9408 93.7326 37.9263 93.3397 37.9841C92.3083 38.1343 91.8604 37.8107 91.7824 36.8573C91.7506 36.4297 91.8951 35.9934 92.2043 35.5861C92.4065 35.3231 92.4383 35.2191 92.4556 34.8204C92.4729 34.4246 92.4412 34.231 92.3025 33.9565C92.1089 33.5694 91.7449 33.3209 91.2797 33.2602C90.751 33.1909 90.228 32.9973 89.8524 32.7286C89.656 32.5899 89.341 32.2692 89.2081 32.0728C89.0521 31.8474 88.795 31.284 88.795 31.1713C88.795 31.1453 89.0088 31.1367 89.7137 31.1338C91.1786 31.1309 92.4094 30.9749 93.0652 30.7062L93.2357 30.6397L93.2848 30.7957C93.4697 31.3765 93.9118 32.0034 94.4087 32.3848C94.6456 32.5668 95.0097 32.7546 95.3102 32.8442C95.5384 32.9135 95.6193 32.9222 95.9891 32.9251C96.3387 32.928 96.4485 32.9164 96.6508 32.8615C97.1593 32.7228 97.5291 32.5235 97.8556 32.2143C98.3554 31.7376 98.5547 31.2118 98.523 30.4317C98.4999 29.7758 98.3207 29.2558 97.8989 28.6086C97.5869 28.1261 97.4597 27.6754 97.5204 27.2564C97.5349 27.138 97.5753 26.9444 97.6071 26.8231C97.6504 26.6641 97.6649 26.511 97.6649 26.2625C97.6649 25.7078 97.8093 25.1155 98.078 24.5666C98.2745 24.1621 98.6241 23.8414 99.2973 23.4456C99.4417 23.3618 99.5631 23.2924 99.5718 23.2924C99.5804 23.2924 99.4273 23.4427 99.2337 23.6247ZM95.9602 24.2892C95.8562 25.2947 95.5933 26.3434 95.1744 27.4096C94.8421 28.2532 94.2123 29.4551 93.8511 29.929C93.7529 30.059 93.7384 30.0676 93.2877 30.2179C93.0335 30.3017 92.7994 30.3797 92.7705 30.3883C92.707 30.4086 92.8254 30.2381 93.6315 29.1142C93.9147 28.7155 94.166 28.3515 94.1863 28.2994C94.2845 28.0654 94.1949 27.8661 94.0071 27.895C93.7789 27.9325 93.7326 27.9903 92.681 29.5563L91.9471 30.6513L91.5542 30.6715C91.3375 30.683 91.1526 30.6888 91.1468 30.6802C91.1381 30.6744 91.4675 30.1948 91.8778 29.6169C92.2851 29.0391 92.6434 28.519 92.6723 28.4641C92.7388 28.3399 92.7416 28.1088 92.6781 28.0481C92.5827 27.9499 92.4094 28.0192 92.2534 28.2099C92.1985 28.2792 91.9182 28.6722 91.6264 29.0853C91.3346 29.4985 90.933 30.059 90.7308 30.3277L90.3638 30.8217L90.0633 30.8102C89.8987 30.8044 89.7571 30.7928 89.7513 30.7871C89.7311 30.7668 89.7946 30.6657 90.2685 29.981C91.3693 28.3861 91.4444 28.2619 91.3664 28.1174C91.2913 27.9759 91.1179 27.9845 90.9532 28.1405C90.907 28.1839 90.4476 28.7964 89.9275 29.5014C89.4104 30.2034 88.9683 30.7871 88.9481 30.7957C88.925 30.8044 88.7776 30.7928 88.6187 30.7726L88.3327 30.7322L88.4541 30.5588C88.5205 30.4635 88.8788 29.9636 89.2457 29.4436C89.6155 28.9264 89.942 28.4526 89.9767 28.3919C90.0893 28.1781 90.0402 27.973 89.8727 27.973C89.708 27.973 89.6068 28.0885 88.665 29.3482C88.1507 30.0388 87.7144 30.6022 87.6971 30.6022C87.6364 30.6022 87.2175 30.5039 87.1972 30.4866C87.1828 30.475 87.437 30.0763 87.7635 29.6025C88.8268 28.0452 88.8239 28.051 88.7256 27.9007C88.6621 27.8054 88.4945 27.7996 88.3876 27.895C88.3154 27.9556 87.7144 28.7906 87.1106 29.6632C86.7292 30.2179 86.5269 30.3999 86.342 30.3508C86.2062 30.3161 86.2438 30.1659 86.5125 29.6574C87.281 28.2099 88.1131 27.2275 89.1417 26.563C89.7744 26.1528 90.1038 26.0747 91.5397 25.9939C92.7185 25.9274 93.2473 25.8465 93.8338 25.6414C94.4521 25.4276 94.8566 25.1589 95.2668 24.6937C95.4517 24.4828 95.8244 23.9858 95.9198 23.8183L95.9747 23.72L95.9833 23.8472C95.9891 23.9165 95.9805 24.113 95.9602 24.2892ZM100.178 26.5572L100.28 26.8433L100.661 26.8519L101.045 26.8606L100.785 27.164C100.644 27.3316 100.528 27.4818 100.525 27.4991C100.525 27.5165 100.577 27.6523 100.641 27.7996C100.704 27.947 100.756 28.0799 100.756 28.0943C100.756 28.1059 100.603 28.1174 100.415 28.1174H100.072L99.8 28.4352C99.6382 28.6259 99.5226 28.7357 99.5111 28.7155C99.5024 28.6953 99.4591 28.5537 99.4128 28.3977L99.3319 28.1174H99.0055H98.679L98.8668 27.8227L99.0575 27.5309L98.9592 27.2102L98.8581 26.8895L99.2511 26.8808L99.644 26.8722L99.8433 26.5717C99.9531 26.4041 100.051 26.2683 100.06 26.2683C100.069 26.2683 100.124 26.3983 100.178 26.5572ZM84.6403 27.8198L84.7414 28.103L85.117 28.1174L85.4955 28.1319L85.2384 28.4352C85.0968 28.6028 84.9812 28.7502 84.9812 28.7675C84.9841 28.7819 85.039 28.9264 85.1083 29.0853L85.2326 29.3742L84.8772 29.3829L84.5218 29.3916L84.2502 29.7036L83.9787 30.0185L83.9411 29.8972C83.9238 29.8336 83.8804 29.692 83.8486 29.5851L83.7909 29.3916L83.4615 29.3829L83.1321 29.3742L83.3228 29.0853C83.5424 28.7617 83.5366 28.8368 83.3806 28.3399L83.3112 28.1174H83.7071H84.1029L84.2994 27.8285C84.4063 27.6696 84.5045 27.5396 84.516 27.5396C84.5305 27.5396 84.5854 27.6667 84.6403 27.8198ZM96.6103 29.6256L96.6883 29.8481L97.0668 29.8567L97.4424 29.8654L97.2142 30.1399C97.0899 30.2901 96.9686 30.4346 96.9483 30.4606C96.9195 30.4981 96.9368 30.5588 97.0437 30.8044C97.1159 30.9691 97.1737 31.1049 97.1737 31.1107C97.1737 31.1164 97.0148 31.1222 96.8212 31.1251H96.4658L96.2087 31.4285C96.0671 31.5932 95.9429 31.7289 95.9313 31.7289C95.9227 31.7289 95.8736 31.596 95.8273 31.4314L95.7407 31.1367L95.4171 31.128C95.2379 31.1251 95.0935 31.1135 95.0935 31.1049C95.0935 31.0991 95.1744 30.972 95.2726 30.8246C95.3708 30.6773 95.4488 30.5357 95.4488 30.5097C95.446 30.4837 95.4055 30.3363 95.3564 30.1861C95.3073 30.033 95.2668 29.8943 95.2668 29.8798C95.2668 29.8625 95.4228 29.851 95.6655 29.851H96.0614L96.2607 29.5447C96.489 29.198 96.4514 29.1893 96.6103 29.6256ZM86.6714 30.7726C87.1423 30.8997 87.7029 31.0298 88.2171 31.1309C88.3963 31.1684 88.4049 31.1742 88.3992 31.2493C88.3905 31.3678 88.1825 31.7723 88.0149 31.9948C87.8762 32.1768 87.6855 32.3328 87.648 32.2952C87.6393 32.2866 87.6537 32.1999 87.6826 32.1045C87.7549 31.8705 87.726 31.7752 87.5786 31.7636C87.4342 31.7521 87.3128 31.8763 87.2492 32.0959C87.1597 32.405 86.9054 32.824 86.8448 32.7633C86.8361 32.7546 86.8563 32.6766 86.891 32.5928C86.9892 32.3415 86.9372 32.1334 86.7725 32.1334C86.6541 32.1334 86.5501 32.2577 86.3911 32.5957C86.264 32.8702 86.1947 32.9713 86.134 32.9713C86.1225 32.9713 86.1369 32.9164 86.1658 32.8471C86.2496 32.6564 86.2554 32.4397 86.1745 32.4108C86.1398 32.3964 86.082 32.4339 85.9809 32.5321C85.9 32.613 85.8046 32.6911 85.77 32.7084C85.7324 32.7257 85.5446 32.7604 85.351 32.7864C85.1459 32.8095 84.9523 32.85 84.8945 32.8817C84.701 32.98 84.6172 33.2718 84.6894 33.5838C84.7443 33.8178 84.5738 34.257 84.3629 34.4304C84.2213 34.5459 84.2069 34.5488 84.152 34.4795C84.0018 34.2888 83.9642 34.101 84.0422 33.9161C84.1347 33.6936 84.0624 33.4914 83.8862 33.4914C83.7533 33.4914 83.6637 33.5867 83.5915 33.8034C83.5019 34.0779 83.4384 34.1906 83.3199 34.2975C83.1726 34.4275 82.9905 34.543 82.9674 34.5228C82.9443 34.4968 82.9472 34.1414 82.9732 33.9825C82.9905 33.8727 83.0223 33.8236 83.1783 33.6763C83.343 33.5174 83.3633 33.4856 83.3633 33.3874C83.3633 33.2573 83.3459 33.2256 83.2564 33.1764C83.1466 33.1187 83.1032 33.1389 82.8605 33.3729C82.534 33.6849 82.4849 33.7081 82.2133 33.6676C82.0949 33.6503 81.988 33.6272 81.9735 33.6185C81.9389 33.5983 82.222 33.1418 82.3723 32.9713C82.5167 32.8095 82.6381 32.7546 82.9154 32.7257C83.2217 32.6939 83.3517 32.6073 83.3835 32.4137C83.395 32.3357 83.3864 32.301 83.3372 32.2519C83.2795 32.1941 83.2477 32.1912 82.9356 32.197C82.7247 32.1999 82.5572 32.1883 82.4907 32.1652C82.3694 32.1248 82.2249 31.9745 82.2567 31.9225C82.3665 31.7347 82.5918 31.5614 82.7999 31.4978C82.8981 31.4689 82.9732 31.4718 83.2737 31.5238C84.4149 31.7174 85.5504 31.388 85.9664 30.7437C86.0329 30.6426 86.0733 30.605 86.1051 30.6166C86.1311 30.6282 86.3854 30.6975 86.6714 30.7726ZM91.5455 33.7716C91.9356 33.9479 92.1522 34.3726 92.0627 34.7886C92.0049 35.066 91.8922 35.2538 91.6437 35.4994C91.4328 35.7074 91.349 35.7623 90.8348 36.0425C89.5317 36.7533 89.2746 36.97 89.1966 37.4294C89.159 37.6576 89.1764 38.0766 89.2284 38.2123C89.2457 38.2586 89.2977 38.3453 89.3468 38.4059L89.4364 38.5186H89.3584C89.1619 38.5186 89.0261 38.6775 89.0261 38.9086C89.0261 38.9809 89.0203 39.0387 89.0146 39.0387C89.0059 39.0387 88.9048 39.0011 88.7892 38.952C88.3674 38.7844 88.2085 38.8075 88.1738 39.0473C88.1622 39.1138 88.168 39.238 88.1825 39.3218C88.1969 39.4056 88.2027 39.472 88.1969 39.472C88.1651 39.472 87.9282 39.2929 87.7606 39.1427C87.6104 39.0069 87.5613 38.9809 87.4717 38.9809C87.2088 38.9809 86.4374 39.2207 86.0098 39.4345C85.6775 39.6021 85.6515 39.6281 85.5706 39.9054C85.4753 40.2319 85.4435 40.3099 85.377 40.4053L85.3221 40.4862L85.2412 40.3735C85.1315 40.2232 84.9003 40.1077 84.7067 40.1077C84.5045 40.1077 84.3311 40.203 84.0133 40.4862C83.8718 40.6133 83.7013 40.7462 83.6377 40.778C83.5337 40.8329 83.5077 40.8329 83.3315 40.8011C83.0801 40.7577 83.0252 40.7029 83.0743 40.5497C83.1639 40.2752 83.1986 40.2377 83.4268 40.1712C83.5424 40.1395 83.6955 40.1048 83.7677 40.0932C83.9873 40.0643 84.0624 39.9314 83.944 39.787C83.8862 39.7147 83.8804 39.7147 83.4499 39.7379C83.2506 39.7465 83.0252 39.683 82.9559 39.5963C82.9241 39.5587 82.9414 39.5298 83.0772 39.3998C83.2708 39.2149 83.343 39.1918 83.5828 39.238C83.7822 39.2785 83.866 39.264 83.9642 39.1745C84.0451 39.0993 84.0509 38.9173 83.9729 38.8393C83.9295 38.796 83.8602 38.7844 83.6031 38.7729C83.2477 38.7555 83.0686 38.6948 83.135 38.6139C83.2043 38.5331 83.5279 38.3164 83.7215 38.2268C83.8978 38.1459 83.9209 38.1401 84.0047 38.1748C84.1376 38.2297 84.3629 38.4175 84.464 38.5562C84.5738 38.7093 84.6432 38.7469 84.8107 38.7497C85.0939 38.7497 85.5042 38.5677 86.1947 38.1286C86.4258 37.9841 86.8852 37.7241 87.2146 37.5507C87.5642 37.3716 87.8098 37.2271 87.804 37.2069C87.7953 37.1896 87.7664 37.1173 87.7375 37.0451C87.7115 36.9729 87.6855 36.9122 87.6826 36.9064C87.6797 36.9035 87.6017 36.944 87.5093 37.0018C87.3648 37.0884 87.3128 37.1029 87.1655 37.1029C86.9834 37.1029 86.8072 37.0393 86.6627 36.9295L86.5876 36.8689L86.709 36.8891C86.8592 36.9122 86.9748 36.8486 86.9748 36.7417C86.9748 36.6608 86.8968 36.6002 86.7292 36.5568C86.6627 36.5395 86.5732 36.4846 86.5269 36.4355L86.4403 36.3459L86.605 36.3632C86.9574 36.4066 86.9834 36.2708 86.683 35.9588L86.4749 35.7478L86.7032 35.7392C86.9228 35.7305 86.9314 35.7276 86.9372 35.6583C86.943 35.6034 86.917 35.5658 86.8245 35.4994C86.6945 35.404 86.6396 35.3145 86.7321 35.352C86.7639 35.3636 86.8968 35.3809 87.0326 35.3896C87.3908 35.4127 87.5988 35.352 88.1016 35.0891C88.6563 34.8002 89.7715 34.1906 89.8669 34.1241C90.0287 34.0114 90.4765 33.8063 90.6759 33.7514C90.959 33.6763 91.349 33.6849 91.5455 33.7716ZM97.7573 34.3495L97.8613 34.6326L98.2369 34.6471L98.6154 34.6615L98.3554 34.9735C98.0578 35.326 98.0694 35.2538 98.2543 35.6785L98.3554 35.9183H98H97.6475L97.3731 36.2361L97.1015 36.5539L97.0668 36.447C97.0466 36.3864 97.0032 36.2419 96.9715 36.1263L96.9079 35.9183H96.5785H96.2492L96.4427 35.6265L96.6334 35.3318L96.5439 35.04C96.4947 34.8782 96.4456 34.7251 96.4341 34.6962C96.4167 34.6499 96.4485 34.6471 96.8241 34.6471H97.2315L97.4222 34.3581C97.5291 34.1992 97.6244 34.0692 97.6331 34.0692C97.6446 34.0692 97.6995 34.1963 97.7573 34.3495ZM84.5421 35.745L84.9205 35.7594L84.6605 36.0714L84.3976 36.3864L84.5305 36.7013L84.6605 37.0162H84.3051H83.9527L83.6782 37.334C83.4326 37.6201 83.4037 37.6461 83.3864 37.5883C83.3748 37.5507 83.3315 37.4091 83.291 37.2676L83.2159 37.0162H82.8865H82.5572L82.7421 36.7273C82.8461 36.5684 82.9299 36.4239 82.9299 36.4037C82.9299 36.3835 82.8836 36.2275 82.8316 36.0541L82.7334 35.745H83.135H83.5366L83.7417 35.4358L83.9498 35.1267L84.0567 35.43L84.1636 35.7305L84.5421 35.745ZM88.7979 41.0264L88.9019 41.3067L89.2775 41.3211L89.656 41.3356L89.3988 41.639C89.2573 41.8065 89.1417 41.9568 89.1417 41.9741C89.1417 41.9914 89.1995 42.1388 89.2688 42.3006L89.3988 42.5924H89.0434H88.6852L88.4165 42.9073L88.1449 43.2251L88.0467 42.9102L87.9484 42.5953L87.6191 42.5866L87.2926 42.578L87.4833 42.2919L87.674 42.0059L87.5844 41.7083C87.5353 41.5436 87.4862 41.3905 87.4775 41.3645C87.463 41.3269 87.5151 41.3211 87.8618 41.3211H88.2634L88.4627 41.0322C88.5696 40.8733 88.6679 40.7433 88.6765 40.7433C88.6852 40.7433 88.7401 40.8704 88.7979 41.0264Z" fill="white"/>
<path d="M44.5544 28.1235C44.5428 28.1611 43.9852 30.2442 43.312 32.7549C42.6359 35.2656 42.0639 37.4441 42.0379 37.5944C41.827 38.8194 41.9628 39.9288 42.4366 40.891C43.2485 42.5262 45.0224 43.7108 47.3627 44.1789C48.1977 44.3465 48.4664 44.3696 49.6047 44.3696C50.7055 44.3667 51.1447 44.332 51.9161 44.1789C55.2214 43.5201 57.4403 41.5844 58.4977 38.4293C58.6162 38.0769 61.3205 28.1755 61.3205 28.0946C61.3205 28.0686 60.5202 28.0599 57.813 28.0599C54.4962 28.0599 54.3026 28.0628 54.2882 28.1091C54.2795 28.1379 53.797 29.9408 53.2163 32.1193C52.6355 34.2949 52.127 36.1873 52.0866 36.3231C51.8439 37.1147 51.3412 37.603 50.6795 37.6839C49.9428 37.7735 49.5094 37.3979 49.4198 36.5947C49.3967 36.4069 49.4054 36.3 49.4603 35.9764C49.5412 35.5083 49.4227 35.9619 50.5755 31.6512C51.0985 29.6923 51.5261 28.0831 51.5261 28.0744C51.5261 28.0657 49.9601 28.0599 48.0474 28.0599H44.5688L44.5544 28.1235Z" fill="white"/>
<path d="M47.2385 47.0767C47.2154 47.1403 46.9062 48.3018 46.9062 48.322C46.9062 48.3336 47.0796 48.3422 47.2934 48.3422H47.6806L47.7123 48.2469C47.7268 48.1978 47.8019 47.9262 47.8741 47.6488C47.9464 47.3714 48.0157 47.1201 48.0215 47.0912C48.0359 47.045 48.0042 47.0421 47.643 47.0421C47.357 47.0421 47.2472 47.0507 47.2385 47.0767Z" fill="white"/>
<path d="M49.6115 47.0623C49.597 47.0883 49.2734 48.296 49.2734 48.3249C49.2734 48.3336 49.4468 48.3422 49.6606 48.3422C50.0073 48.3422 50.0506 48.3364 50.0651 48.2902C50.0738 48.2642 50.146 47.9926 50.2269 47.6922C50.3078 47.3888 50.38 47.1201 50.3887 47.0912C50.4031 47.045 50.3713 47.0421 50.0131 47.0421C49.7993 47.0421 49.6173 47.0507 49.6115 47.0623Z" fill="white"/>
<path d="M76.0791 49.1646C75.7497 49.2166 75.377 49.3177 75.0245 49.4593C73.2765 50.1527 71.9417 52.0076 71.5545 54.2785C71.4823 54.6945 71.4823 55.5237 71.5517 55.8531C71.7655 56.847 72.3 57.4566 73.2043 57.7398C73.5799 57.8553 73.8688 57.8842 74.4784 57.8669C74.9205 57.8553 75.0823 57.838 75.3279 57.7802C76.0357 57.6126 76.5616 57.3295 77.0729 56.8383C77.2145 56.6996 77.3214 56.6159 77.3127 56.6476C77.229 56.925 77.0845 57.7253 77.1105 57.7658C77.1163 57.7802 77.281 57.7889 77.4745 57.7889H77.827L78.3731 55.7433C78.6736 54.6194 78.948 53.5937 78.9856 53.4608L79.0492 53.2239L77.3127 53.2297L75.5734 53.2384L75.481 53.5851C75.429 53.7758 75.3856 53.9491 75.3856 53.9664C75.3856 53.9953 75.663 54.004 76.6713 54.004H77.957L77.9397 54.082C77.8733 54.3652 77.6681 54.9112 77.5121 55.2319C76.9689 56.3414 76.186 56.925 75.0563 57.0666C74.7125 57.1099 74.1779 57.0897 73.9121 57.0203C73.3805 56.8874 72.95 56.5436 72.7276 56.0813C72.4618 55.5208 72.4097 54.9228 72.5542 54.0762C72.7507 52.9321 73.2996 51.7735 73.993 51.0512C74.5593 50.4618 75.1401 50.1296 75.8826 49.9707C76.2062 49.8984 76.9545 49.8984 77.2636 49.9678C78.0582 50.1469 78.5175 50.6727 78.61 51.5106L78.6302 51.6926H79.0723H79.5143L79.5346 51.5626C79.5808 51.2419 79.4768 50.6554 79.3121 50.3318C79.0203 49.7482 78.5089 49.387 77.7259 49.2021C77.3965 49.127 76.4778 49.1039 76.0791 49.1646Z" fill="white"/>
<path d="M28.5706 49.2721C28.5388 49.3645 28.3828 49.977 28.3828 50.0088C28.3828 50.0377 28.6804 50.0464 29.7696 50.0464C30.7086 50.0464 31.1565 50.0551 31.1565 50.0753C31.1565 50.0926 30.6942 51.829 30.1308 53.9353C29.5674 56.0415 29.1051 57.7722 29.1051 57.7779C29.1051 57.7837 29.3103 57.7895 29.5616 57.7895H30.0152L30.9195 54.4149C31.4165 52.56 31.8817 50.8178 31.9568 50.5433L32.0897 50.0464H33.4996C34.2768 50.0464 34.9124 50.0406 34.9124 50.0319C34.9124 50.0262 34.9587 49.8499 35.0136 49.6448C35.0685 49.4397 35.1147 49.2634 35.1147 49.2547C35.1147 49.2461 33.6441 49.2374 31.8499 49.2374C29.2611 49.2374 28.5793 49.2461 28.5706 49.2721Z" fill="white"/>
<path d="M36.2035 49.2721C36.1833 49.327 33.9644 57.6161 33.9441 57.7086L33.9297 57.7895H34.3775H34.8253L34.9005 57.5063C34.9438 57.3532 35.1894 56.4316 35.4494 55.4637L35.9204 53.7012L38.3068 53.6926L40.6905 53.6868L40.6673 53.7793C40.6529 53.8313 40.4131 54.7327 40.1328 55.7815C39.8526 56.8303 39.6186 57.7115 39.6099 57.7404C39.5954 57.7866 39.6243 57.7895 40.049 57.7837L40.5055 57.775L41.6381 53.5423C42.2622 51.2136 42.7736 49.2923 42.7765 49.2721C42.7765 49.2461 42.6696 49.2374 42.3286 49.2374H41.8837L41.8577 49.3299C41.8433 49.3819 41.6266 50.2024 41.3723 51.1501L40.9129 52.8778H38.5235H36.1342L36.1602 52.7969C36.1746 52.7536 36.3884 51.9591 36.6369 51.0287C36.8854 50.0984 37.0934 49.3154 37.102 49.2865C37.1165 49.2403 37.0818 49.2374 36.6658 49.2374C36.3335 49.2374 36.2122 49.2461 36.2035 49.2721Z" fill="white"/>
<path d="M44.2526 51.9766C43.851 53.4819 43.5014 54.8167 43.4754 54.9438C43.4436 55.0999 43.4292 55.3397 43.4263 55.6806C43.4234 56.1284 43.432 56.2122 43.4898 56.4173C43.5881 56.7583 43.7412 57.0241 43.9579 57.2408C44.4057 57.6828 45.0009 57.8764 45.9197 57.8764C46.8644 57.8764 47.6301 57.6655 48.2946 57.2234C49.014 56.7467 49.6034 55.9088 49.9617 54.8572C50.0483 54.6087 51.4698 49.333 51.4698 49.2665C51.4698 49.2463 51.3312 49.2376 51.0162 49.2434L50.5655 49.2521L49.8606 51.8813C49.4763 53.3259 49.1122 54.6491 49.0545 54.8196C48.6904 55.9175 48.0663 56.6369 47.2227 56.9287C46.9482 57.0241 46.6709 57.0703 46.2953 57.0876C44.7986 57.1541 44.1226 56.3076 44.4462 54.7705C44.4751 54.626 44.8131 53.3403 45.1974 51.9073C45.5787 50.4771 45.8937 49.2897 45.8937 49.2723C45.8937 49.2463 45.7636 49.2376 45.44 49.2376H44.9836L44.2526 51.9766Z" fill="white"/>
<path d="M53.6196 49.272C53.5936 49.3442 51.3516 57.7345 51.3516 57.7605C51.3516 57.7778 51.5278 57.7894 51.7994 57.7894C52.2386 57.7894 52.2472 57.7894 52.2617 57.7229C52.2703 57.6882 52.5044 56.8215 52.7788 55.7958L53.2787 53.9323H54.5615C55.7143 53.9323 55.8616 53.938 56.0292 53.9843C56.3817 54.0854 56.5868 54.227 56.7053 54.4523C56.7515 54.539 56.7688 54.6372 56.7775 54.8453C56.792 55.1775 56.766 55.3278 56.5233 56.2292C56.3239 56.9804 56.2343 57.4109 56.2343 57.6333V57.7894H56.6822H57.13V57.6594C57.13 57.46 57.2224 57.0266 57.4276 56.2725C57.6818 55.3422 57.7165 55.1486 57.7021 54.7008C57.6934 54.4119 57.6761 54.3021 57.6241 54.1721C57.5316 53.9352 57.3438 53.7387 57.0867 53.6116L56.8729 53.5047L57.0982 53.4267C58.1817 53.0539 58.93 51.9965 58.93 50.8408C58.9329 50.3727 58.8029 50.0434 58.511 49.766C58.2279 49.5002 57.8956 49.3557 57.3987 49.2806C57.0144 49.2228 53.6398 49.2171 53.6196 49.272ZM57.078 50.0983C57.5085 50.2167 57.7396 50.3843 57.8754 50.679C57.9736 50.8928 57.9794 51.228 57.8841 51.5602C57.6905 52.2565 57.2311 52.739 56.5522 52.9644C56.1766 53.0857 55.8905 53.1088 54.6568 53.1088H53.4983L53.8825 51.67C54.0934 50.8812 54.2812 50.1849 54.2986 50.1243L54.3303 50.0116L55.5929 50.0232C56.7631 50.0376 56.8729 50.0405 57.078 50.0983Z" fill="white"/>
<path d="M61.2633 49.3442C61.1939 49.6129 59.0328 57.694 59.0184 57.7402C59.0039 57.7865 59.0328 57.7894 59.4575 57.7836L59.914 57.7749L61.0495 53.5422C61.6735 51.2135 62.1849 49.2922 62.1849 49.2719C62.1849 49.2459 62.078 49.2373 61.7371 49.2373H61.2922L61.2633 49.3442Z" fill="white"/>
<path d="M64.4613 49.2711C64.4469 49.3116 62.2366 57.5805 62.2077 57.7105L62.1875 57.7914L62.6296 57.7828L63.0745 57.7741L63.7852 55.116C64.1782 53.6541 64.6202 51.9697 64.7647 51.3745C64.912 50.7793 65.0392 50.2708 65.0449 50.2477C65.0623 50.1957 65.0132 50.0686 65.8452 52.4146C66.2208 53.4721 66.8045 55.1102 67.1425 56.055L67.7579 57.7741L68.3415 57.7828C68.6622 57.7857 68.9252 57.7828 68.9252 57.7741C68.9252 57.7597 71.1672 49.3809 71.1961 49.2856C71.2105 49.2394 71.1759 49.2365 70.7656 49.2365H70.3235L69.6041 51.9148C68.8587 54.7029 68.6478 55.5205 68.4918 56.2342L68.3964 56.656L68.1884 56.0464C67.9081 55.2258 67.5239 54.1626 66.5358 51.4814L65.7095 49.2365H65.0912C64.6231 49.2365 64.47 49.2451 64.4613 49.2711Z" fill="white"/>
<path d="M80.9763 53.4757C80.3523 55.8102 79.8438 57.7345 79.8438 57.7547C79.8438 57.7836 80.4014 57.7893 82.5769 57.7836L85.313 57.7749L85.4662 57.4138C85.55 57.2144 85.6193 57.0353 85.6222 57.015C85.6222 56.989 85.1368 56.9804 83.2819 56.9804C81.9962 56.9804 80.9417 56.9746 80.9417 56.9688C80.9417 56.9601 81.1381 56.2263 81.375 55.3364C81.6148 54.4465 81.8084 53.7098 81.8084 53.7011C81.8084 53.6924 82.7763 53.6867 83.9609 53.6867H86.1105L86.1422 53.5624C86.1596 53.496 86.2058 53.3226 86.2463 53.181C86.2838 53.0366 86.3156 52.9124 86.3156 52.8979C86.3156 52.8863 85.3535 52.8777 84.1776 52.8777C83.0017 52.8777 82.0396 52.8719 82.0396 52.8661C82.0396 52.8517 82.7532 50.1849 82.7792 50.0954C82.7936 50.0491 82.9265 50.0462 85.0443 50.0462H87.295L87.3239 49.9365C87.3413 49.8787 87.3875 49.7053 87.4279 49.5551C87.4684 49.4048 87.5002 49.2719 87.5002 49.2575C87.5002 49.2459 86.2867 49.2373 84.8045 49.2373H82.1118L80.9763 53.4757Z" fill="white"/>
<path d="M89.1587 49.2721C89.1327 49.3501 86.8906 57.7404 86.8906 57.7664C86.8906 57.7808 87.0871 57.7866 87.3298 57.7837L87.7689 57.775L88.471 55.1603C89.1529 52.612 89.5805 50.9623 89.6787 50.4942C89.7076 50.3671 89.7365 50.2544 89.7481 50.2429C89.7567 50.2313 89.9185 50.6618 90.1092 51.1963C90.4617 52.196 92.3772 57.567 92.435 57.7086L92.4668 57.7895H93.0447C93.3625 57.7895 93.6225 57.7808 93.6225 57.7722C93.6225 57.749 95.879 49.3241 95.8963 49.2721C95.9079 49.2461 95.8096 49.2374 95.46 49.2374C95.2116 49.2374 95.0093 49.2461 95.0093 49.2547C95.0093 49.2634 94.6828 50.4884 94.2841 51.9764C93.6138 54.4813 93.2671 55.8277 93.1429 56.4258L93.0909 56.6656L92.828 55.8913C92.513 54.9725 92.3541 54.5362 91.2476 51.5257L90.4039 49.2374H89.7885C89.3205 49.2374 89.1673 49.2461 89.1587 49.2721Z" fill="white"/>
<path d="M54.3035 62.837C54.2688 62.8659 53.6361 63.9609 52.8936 65.2697C51.6252 67.5031 51.5472 67.6533 51.5963 67.688C51.6743 67.7458 51.9084 67.74 51.9806 67.6765C52.0153 67.6504 52.648 66.5554 53.3905 65.2466C54.6589 63.0133 54.7369 62.863 54.6878 62.8283C54.6098 62.7706 54.3757 62.7763 54.3035 62.837Z" fill="white"/>
<path d="M29.8036 63.2819C29.6187 63.3166 29.3356 63.4581 29.1969 63.5824C28.9369 63.8193 28.8184 64.2469 28.9195 64.5936C28.9831 64.819 29.2229 65.0588 29.5985 65.2754C29.9279 65.4632 30.107 65.6308 30.1359 65.7753C30.1879 66.0671 30.0377 66.3589 29.7603 66.5005C29.6043 66.5785 29.5638 66.5872 29.3067 66.5872C29.0293 66.5872 29.0264 66.5872 28.7462 66.4456L28.4631 66.3011L28.411 66.3676C28.3446 66.4485 28.3099 66.6247 28.3475 66.6854C28.437 66.827 28.8126 66.9714 29.1651 66.9974C29.7834 67.0436 30.341 66.7634 30.5664 66.2982C30.6386 66.148 30.6502 66.0902 30.6531 65.8648C30.6531 65.6308 30.6444 65.5904 30.5693 65.4546C30.4537 65.2466 30.3613 65.1657 29.9308 64.9027C29.7256 64.7756 29.5176 64.6254 29.4714 64.5705C29.3211 64.3827 29.3414 64.0995 29.5205 63.8973C29.7719 63.6084 30.237 63.5795 30.6762 63.8222C30.812 63.8973 30.8149 63.9002 30.8553 63.8453C30.9102 63.7731 30.9391 63.617 30.916 63.5246C30.8669 63.3339 30.2399 63.1952 29.8036 63.2819Z" fill="white"/>
<path d="M32.8455 63.2963C32.0885 63.4639 31.5627 64.062 31.3229 65.0356C31.2304 65.4083 31.2304 66.0555 31.3258 66.2924C31.4125 66.512 31.5425 66.6796 31.7158 66.7981C31.9441 66.9483 32.1261 66.9916 32.5566 66.9916C32.8888 66.9887 32.9582 66.9801 33.1604 66.9107C33.4522 66.8067 33.6054 66.7172 33.8221 66.5178C34.1428 66.2202 34.371 65.7897 34.5126 65.2205C34.5935 64.8883 34.605 64.2671 34.5299 64.0302C34.4259 63.6922 34.1948 63.4552 33.8567 63.3339C33.6227 63.253 33.1258 63.2328 32.8455 63.2963ZM33.5563 63.7008C33.7441 63.7557 33.9521 63.9551 34.0099 64.1313C34.1081 64.4318 34.0763 64.9576 33.9376 65.3997C33.7152 66.1162 33.2876 66.5265 32.7213 66.564C32.2879 66.5958 31.999 66.4629 31.8574 66.174C31.7794 66.018 31.7765 65.9891 31.7794 65.6337C31.7909 64.6716 32.2099 63.9146 32.8484 63.7124C33.0593 63.6459 33.3482 63.6401 33.5563 63.7008Z" fill="white"/>
<path d="M37.431 63.3073C37.1045 63.394 36.8792 63.5269 36.8156 63.6684C36.755 63.7956 36.7434 63.9574 36.7896 63.9862C36.807 63.9978 36.9225 63.9545 37.0439 63.8909C37.4599 63.6742 37.746 63.6309 37.9742 63.7464C38.3787 63.9574 38.2342 64.5728 37.6275 65.2257C37.5553 65.3037 37.2057 65.6244 36.8474 65.9394C36.4198 66.315 36.1771 66.549 36.1453 66.6154C36.0875 66.7368 36.0818 66.8639 36.1309 66.913C36.1569 66.939 36.44 66.9477 37.2288 66.9477H38.292L38.3325 66.8812C38.3902 66.7946 38.4162 66.6732 38.3931 66.6039C38.3758 66.5432 38.3585 66.5432 37.5668 66.5432H36.7578L37.2721 66.0983C38.3556 65.165 38.6994 64.7114 38.7456 64.1452C38.7774 63.7696 38.6301 63.4922 38.3267 63.3477C38.1013 63.2408 37.7344 63.2235 37.431 63.3073Z" fill="white"/>
<path d="M43.4309 63.2964C43.1853 63.3541 43.0409 63.4408 42.8444 63.6373C42.5555 63.9291 42.3417 64.4 42.203 65.0646C42.1423 65.365 42.1279 65.5124 42.125 65.8649C42.125 66.2549 42.1308 66.3156 42.1915 66.4687C42.2897 66.7143 42.4573 66.8703 42.7 66.9454C43.1882 67.0957 43.7256 66.9628 44.0723 66.6016C44.4884 66.1682 44.7773 65.2581 44.7773 64.3769C44.7773 63.9262 44.7513 63.8049 44.6039 63.5911C44.4017 63.3021 43.9134 63.1779 43.4309 63.2964ZM44.0145 63.7182C44.107 63.7644 44.1648 63.8222 44.2168 63.9146C44.2832 64.036 44.289 64.0735 44.2861 64.4058C44.2832 65.183 44.0232 66.044 43.6996 66.3705C43.5523 66.5178 43.3587 66.6016 43.1651 66.6016C42.7375 66.6016 42.5699 66.3387 42.6104 65.7348C42.6711 64.7785 42.9889 63.9435 43.3616 63.75C43.5841 63.6344 43.8267 63.6228 44.0145 63.7182Z" fill="white"/>
<path d="M46.3489 63.2964C46.1033 63.3542 45.9589 63.4409 45.7624 63.6373C45.4735 63.9291 45.2597 64.4001 45.121 65.0646C45.0603 65.3651 45.0459 65.5124 45.043 65.8649C45.043 66.255 45.0487 66.3156 45.1094 66.4688C45.2077 66.7144 45.3752 66.8704 45.6179 66.9455C46.1062 67.0957 46.6436 66.9628 46.9903 66.6017C47.4063 66.1683 47.6953 65.2582 47.6953 64.377C47.6953 63.9263 47.6693 63.8049 47.5219 63.5911C47.3197 63.3022 46.8314 63.178 46.3489 63.2964ZM46.9325 63.7182C47.025 63.7645 47.0828 63.8222 47.1348 63.9147C47.2012 64.0361 47.207 64.0736 47.2041 64.4059C47.2012 65.1831 46.9412 66.0441 46.6176 66.3705C46.4702 66.5179 46.2767 66.6017 46.0831 66.6017C45.6555 66.6017 45.4879 66.3388 45.5284 65.7349C45.589 64.7786 45.9068 63.9436 46.2796 63.75C46.502 63.6344 46.7447 63.6229 46.9325 63.7182Z" fill="white"/>
<path d="M73.6068 63.3073C73.2803 63.394 73.055 63.5269 72.9914 63.6684C72.9307 63.7956 72.9192 63.9574 72.9654 63.9862C72.9827 63.9978 73.0983 63.9545 73.2197 63.8909C73.6357 63.6742 73.9217 63.6309 74.15 63.7464C74.5545 63.9574 74.41 64.5728 73.8033 65.2257C73.731 65.3037 73.3814 65.6244 73.0232 65.9394C72.5956 66.315 72.3529 66.549 72.3211 66.6154C72.2633 66.7368 72.2575 66.8639 72.3067 66.913C72.3327 66.939 72.6158 66.9477 73.4046 66.9477H74.4678L74.5082 66.8812C74.566 66.7946 74.592 66.6732 74.5689 66.6039C74.5516 66.5432 74.5342 66.5432 73.7426 66.5432H72.9336L73.4479 66.0983C74.5314 65.165 74.8752 64.7114 74.9214 64.1452C74.9532 63.7696 74.8058 63.4922 74.5025 63.3477C74.2771 63.2408 73.9102 63.2235 73.6068 63.3073Z" fill="white"/>
<path d="M80.767 63.3073C80.4405 63.394 80.2151 63.5269 80.1516 63.6684C80.0909 63.7956 80.0793 63.9574 80.1256 63.9862C80.1429 63.9978 80.2585 63.9545 80.3798 63.8909C80.7959 63.6742 81.0819 63.6309 81.3101 63.7464C81.7146 63.9574 81.5702 64.5728 80.9634 65.2257C80.8912 65.3037 80.5416 65.6244 80.1833 65.9394C79.7557 66.315 79.513 66.549 79.4813 66.6154C79.4235 66.7368 79.4177 66.8639 79.4668 66.913C79.4928 66.939 79.776 66.9477 80.5647 66.9477H81.628L81.6684 66.8812C81.7262 66.7946 81.7522 66.6732 81.7291 66.6039C81.7117 66.5432 81.6944 66.5432 80.9028 66.5432H80.0938L80.6081 66.0983C81.6915 65.165 82.0353 64.7114 82.0816 64.1452C82.1133 63.7696 81.966 63.4922 81.6626 63.3477C81.4373 63.2408 81.0703 63.2235 80.767 63.3073Z" fill="white"/>
<path d="M83.6939 63.3076C83.4079 63.3827 83.1363 63.53 83.0843 63.6369C83.0294 63.7554 83.0092 63.9316 83.0497 63.9576C83.0699 63.9692 83.1854 63.9258 83.3068 63.8623C83.8384 63.5878 84.2227 63.5849 84.4047 63.8565C84.4654 63.9432 84.4711 63.9836 84.4596 64.1368C84.4365 64.4401 84.2747 64.6568 83.9626 64.8013C83.8124 64.8706 83.746 64.8822 83.4657 64.8908C83.0901 64.9053 83.0439 64.9313 83.041 65.1364L83.0381 65.2578L83.4281 65.2751C83.8442 65.2924 83.9742 65.33 84.1129 65.4802C84.3758 65.7634 84.2053 66.2979 83.7864 66.503C83.4628 66.6619 83.0843 66.6273 82.6683 66.4048C82.4776 66.3008 82.4689 66.3008 82.4314 66.3528C82.3765 66.4279 82.3476 66.6417 82.3822 66.7082C82.4256 66.7862 82.7029 66.9162 82.9312 66.9653C83.3357 67.0491 83.7777 66.9971 84.1418 66.818C84.3874 66.6966 84.552 66.5233 84.6821 66.2546C84.7572 66.0899 84.7687 66.035 84.7716 65.8212C84.7716 65.6131 84.7601 65.5525 84.6994 65.4311C84.6098 65.2549 84.4105 65.1104 84.2198 65.0815L84.0869 65.0613L84.2371 65.0122C84.5925 64.8908 84.893 64.573 84.9594 64.2408C85.0259 63.9316 84.9536 63.6196 84.7803 63.4607C84.5723 63.2671 84.0927 63.1978 83.6939 63.3076Z" fill="white"/>
<path d="M86.6381 63.3073C86.3116 63.394 86.0862 63.5269 86.0227 63.6684C85.962 63.7956 85.9504 63.9574 85.9967 63.9862C86.014 63.9978 86.1296 63.9545 86.2509 63.8909C86.667 63.6742 86.953 63.6309 87.1812 63.7464C87.5857 63.9574 87.4413 64.5728 86.8345 65.2257C86.7623 65.3037 86.4127 65.6244 86.0544 65.9394C85.6268 66.315 85.3841 66.549 85.3524 66.6154C85.2946 66.7368 85.2888 66.8639 85.3379 66.913C85.3639 66.939 85.6471 66.9477 86.4358 66.9477H87.499L87.5395 66.8812C87.5973 66.7946 87.6233 66.6732 87.6002 66.6039C87.5828 66.5432 87.5655 66.5432 86.7739 66.5432H85.9649L86.4792 66.0983C87.5626 65.165 87.9064 64.7114 87.9527 64.1452C87.9844 63.7696 87.8371 63.4922 87.5337 63.3477C87.3084 63.2408 86.9414 63.2235 86.6381 63.3073Z" fill="white"/>
<path d="M89.5611 63.3076C89.2751 63.3827 89.0035 63.53 88.9515 63.6369C88.8966 63.7554 88.8764 63.9316 88.9168 63.9576C88.9371 63.9692 89.0526 63.9258 89.174 63.8623C89.7056 63.5878 90.0899 63.5849 90.2719 63.8565C90.3326 63.9432 90.3383 63.9836 90.3268 64.1368C90.3037 64.4401 90.1419 64.6568 89.8298 64.8013C89.6796 64.8706 89.6131 64.8822 89.3329 64.8908C88.9573 64.9053 88.9111 64.9313 88.9082 65.1364L88.9053 65.2578L89.2953 65.2751C89.7114 65.2924 89.8414 65.33 89.9801 65.4802C90.243 65.7634 90.0725 66.2979 89.6536 66.503C89.33 66.6619 88.9515 66.6273 88.5355 66.4048C88.3448 66.3008 88.3361 66.3008 88.2985 66.3528C88.2437 66.4279 88.2148 66.6417 88.2494 66.7082C88.2928 66.7862 88.5701 66.9162 88.7984 66.9653C89.2029 67.0491 89.6449 66.9971 90.009 66.818C90.2545 66.6966 90.4192 66.5233 90.5492 66.2546C90.6244 66.0899 90.6359 66.035 90.6388 65.8212C90.6388 65.6131 90.6273 65.5525 90.5666 65.4311C90.477 65.2549 90.2777 65.1104 90.087 65.0815L89.9541 65.0613L90.1043 65.0122C90.4597 64.8908 90.7602 64.573 90.8266 64.2408C90.8931 63.9316 90.8208 63.6196 90.6475 63.4607C90.4395 63.2671 89.9598 63.1978 89.5611 63.3076Z" fill="white"/>
<path d="M27.8446 63.3081C27.7897 63.3312 27.7493 63.5017 27.4286 65.1283C27.1339 66.6221 27.0819 66.9312 27.1136 66.9514C27.1628 66.9861 27.5066 66.9717 27.5412 66.9341C27.5528 66.9168 27.7233 66.0991 27.9168 65.1168C28.1971 63.7011 28.2607 63.3226 28.2318 63.3052C28.1827 63.2735 27.9226 63.2764 27.8446 63.3081Z" fill="white"/>
<path d="M49.5863 63.3304C49.1934 63.5326 48.6213 63.8765 48.5867 63.9314C48.5173 64.0354 48.5 64.2261 48.5578 64.2492C48.5867 64.2607 48.7745 64.1798 49.0374 64.044C49.4274 63.8476 49.4708 63.8302 49.4563 63.8909C49.439 63.9602 48.9218 66.549 48.9218 66.5634C48.9218 66.5692 48.7427 66.5721 48.5231 66.5721C48.0579 66.5721 48.0175 66.5923 48.0146 66.8119L48.0117 66.9332L49.0316 66.9419L50.0515 66.9477L50.0948 66.8437C50.118 66.7859 50.1353 66.705 50.1295 66.6617L50.1208 66.5865L49.7684 66.5779C49.5083 66.5721 49.413 66.5605 49.413 66.5345C49.413 66.5143 49.5546 65.7833 49.7308 64.9108C49.9735 63.6944 50.0399 63.3188 50.0111 63.3015C49.9475 63.2611 49.6875 63.2784 49.5863 63.3304Z" fill="white"/>
<path d="M56.5087 63.3081C56.4538 63.3312 56.4133 63.5017 56.0926 65.1283C55.7979 66.6221 55.7459 66.9312 55.7777 66.9514C55.8268 66.9861 56.1706 66.9717 56.2053 66.9341C56.2169 66.9168 56.3873 66.0991 56.5809 65.1168C56.8612 63.7011 56.9247 63.3226 56.8958 63.3052C56.8467 63.2735 56.5867 63.2764 56.5087 63.3081Z" fill="white"/>
<path d="M63.9223 63.3304C63.5293 63.5326 62.9573 63.8765 62.9226 63.9314C62.8533 64.0354 62.8359 64.2261 62.8937 64.2492C62.9226 64.2607 63.1104 64.1798 63.3733 64.044C63.7634 63.8476 63.8067 63.8302 63.7923 63.8909C63.7749 63.9602 63.2578 66.549 63.2578 66.5634C63.2578 66.5692 63.0786 66.5721 62.859 66.5721C62.3939 66.5721 62.3534 66.5923 62.3505 66.8119L62.3477 66.9332L63.3675 66.9419L64.3874 66.9477L64.4308 66.8437C64.4539 66.7859 64.4712 66.705 64.4655 66.6617L64.4568 66.5865L64.1043 66.5779C63.8443 66.5721 63.7489 66.5605 63.7489 66.5345C63.7489 66.5143 63.8905 65.7833 64.0667 64.9108C64.3094 63.6944 64.3759 63.3188 64.347 63.3015C64.2834 63.2611 64.0234 63.2784 63.9223 63.3304Z" fill="white"/>
<path d="M71.0863 63.3304C70.6934 63.5326 70.1213 63.8765 70.0867 63.9314C70.0173 64.0354 70 64.2261 70.0578 64.2492C70.0867 64.2607 70.2745 64.1798 70.5374 64.044C70.9274 63.8476 70.9708 63.8302 70.9563 63.8909C70.939 63.9602 70.4218 66.549 70.4218 66.5634C70.4218 66.5692 70.2427 66.5721 70.0231 66.5721C69.5579 66.5721 69.5175 66.5923 69.5146 66.8119L69.5117 66.9332L70.5316 66.9419L71.5515 66.9477L71.5948 66.8437C71.618 66.7859 71.6353 66.705 71.6295 66.6617L71.6208 66.5865L71.2684 66.5779C71.0083 66.5721 70.913 66.5605 70.913 66.5345C70.913 66.5143 71.0546 65.7833 71.2308 64.9108C71.4735 63.6944 71.5399 63.3188 71.5111 63.3015C71.4475 63.2611 71.1875 63.2784 71.0863 63.3304Z" fill="white"/>
<path d="M76.9535 63.3304C76.5606 63.5326 75.9885 63.8765 75.9539 63.9314C75.8845 64.0354 75.8672 64.2261 75.925 64.2492C75.9539 64.2607 76.1417 64.1798 76.4046 64.044C76.7946 63.8476 76.838 63.8302 76.8235 63.8909C76.8062 63.9602 76.289 66.549 76.289 66.5634C76.289 66.5692 76.1099 66.5721 75.8903 66.5721C75.4251 66.5721 75.3847 66.5923 75.3818 66.8119L75.3789 66.9332L76.3988 66.9419L77.4187 66.9477L77.462 66.8437C77.4851 66.7859 77.5025 66.705 77.4967 66.6617L77.488 66.5865L77.1355 66.5779C76.8755 66.5721 76.7802 66.5605 76.7802 66.5345C76.7802 66.5143 76.9217 65.7833 77.098 64.9108C77.3407 63.6944 77.4071 63.3188 77.3782 63.3015C77.3147 63.2611 77.0547 63.2784 76.9535 63.3304Z" fill="white"/>
<path d="M39.6593 63.3827C39.6333 63.426 39.6102 63.5185 39.6102 63.5936L39.6073 63.7265L40.5059 63.7409L41.4044 63.7554L40.3961 65.3156C39.8442 66.1736 39.3906 66.8902 39.3906 66.9075C39.3906 66.9277 39.4108 66.9508 39.4369 66.9595C39.5149 66.9913 39.8067 66.9769 39.876 66.9393C39.9511 66.8988 41.8927 63.8392 41.9534 63.6629C41.9765 63.5965 41.9909 63.4925 41.9851 63.4318L41.9765 63.322L40.8439 63.3133L39.7113 63.3075L39.6593 63.3827Z" fill="white"/>
<path d="M57.9607 63.374C57.9203 63.4173 57.8856 63.4607 57.8856 63.478C57.8856 63.4924 57.7441 64.235 57.5678 65.1277C57.3945 66.0205 57.25 66.7804 57.25 66.8179C57.25 66.9479 57.2904 66.9537 58.0214 66.9393C58.7957 66.9248 58.9026 66.9075 59.3013 66.711C59.492 66.6186 59.5932 66.5434 59.7636 66.373C60.0236 66.1072 60.145 65.9107 60.2721 65.538C60.4744 64.9428 60.4773 64.3216 60.2808 63.9374C60.1999 63.7756 59.9803 63.5647 59.8127 63.4838C59.5354 63.3509 59.4082 63.3306 58.7033 63.3162L58.033 63.3017L57.9607 63.374ZM59.1973 63.7438C59.5527 63.816 59.8098 64.0645 59.8821 64.3996C59.9254 64.6134 59.8994 65.0208 59.8214 65.2982C59.6567 65.8847 59.3331 66.2719 58.8448 66.4597C58.7062 66.5117 58.605 66.5261 58.2208 66.5377C57.7845 66.5492 57.7643 66.5492 57.7787 66.4972C57.799 66.4365 58.319 63.764 58.319 63.7322C58.319 63.6976 59.0211 63.7091 59.1973 63.7438Z" fill="white"/>
<path d="M65.9786 63.3774C65.915 63.4583 65.6174 64.8943 65.6319 65.0503L65.6405 65.1427H66.1461C66.6286 65.1427 66.6575 65.1456 66.7933 65.215C67.01 65.3248 67.0562 65.4057 67.0534 65.6715C67.0476 66.4602 66.2039 66.8416 65.3689 66.4342C65.2216 66.362 65.2129 66.3591 65.1754 66.4111C65.1176 66.492 65.0916 66.7087 65.1349 66.7607C65.1898 66.8271 65.4123 66.9196 65.6261 66.9658C66.1982 67.0872 66.8309 66.9225 67.192 66.5585C67.4578 66.2898 67.611 65.891 67.585 65.5328C67.5445 65.0012 67.1111 64.7267 66.3484 64.7556C66.1866 64.7642 66.0884 64.7556 66.0912 64.7382C66.0912 64.7209 66.1346 64.4955 66.1866 64.2326L66.279 63.7559L66.9927 63.7472L67.7063 63.7415L67.7525 63.6692C67.7786 63.6317 67.7988 63.5363 67.8017 63.4612L67.8074 63.3225L66.9205 63.3139L66.0364 63.3081L65.9786 63.3774Z" fill="white"/>
<path d="M92.0059 63.3764C91.9424 63.4573 91.6448 64.8933 91.6592 65.0493L91.6679 65.1418H92.1735C92.656 65.1418 92.6849 65.1446 92.8207 65.214C93.0374 65.3238 93.0836 65.4047 93.0807 65.6705C93.0749 66.4592 92.2313 66.8406 91.3963 66.4332C91.2489 66.361 91.2403 66.3581 91.2027 66.4101C91.1449 66.491 91.1189 66.7077 91.1623 66.7597C91.2172 66.8262 91.4396 66.9186 91.6534 66.9649C92.2255 67.0862 92.8582 66.9215 93.2194 66.5575C93.4852 66.2888 93.6383 65.8901 93.6123 65.5318C93.5719 65.0002 93.1385 64.7257 92.3757 64.7546C92.2139 64.7633 92.1157 64.7546 92.1186 64.7373C92.1186 64.7199 92.1619 64.4946 92.2139 64.2317L92.3064 63.7549L93.02 63.7463L93.7337 63.7405L93.7799 63.6683C93.8059 63.6307 93.8261 63.5354 93.829 63.4602L93.8348 63.3215L92.9478 63.3129L92.0637 63.3071L92.0059 63.3764Z" fill="white"/>
<path d="M61.4368 64.3865C61.3386 64.4356 61.2634 64.6003 61.2548 64.7823C61.2461 64.9788 61.301 65.0221 61.5206 65.0048C61.7141 64.9903 61.7922 64.9123 61.8413 64.6869C61.8759 64.5165 61.8499 64.398 61.769 64.3662C61.691 64.3373 61.5148 64.346 61.4368 64.3865Z" fill="white"/>
<path d="M61.0301 66.35C60.9319 66.3991 60.8568 66.5638 60.8481 66.7459C60.8423 66.925 60.8914 66.977 61.0763 66.977C61.3219 66.977 61.4202 66.8903 61.4606 66.639C61.4866 66.4656 61.4519 66.3529 61.3682 66.3298C61.2641 66.3009 61.1081 66.3096 61.0301 66.35Z" fill="white"/>
<path d="M57.8354 72.5735C57.8007 72.5793 57.7603 72.6024 57.7429 72.6197C57.7285 72.64 57.5436 73.5038 57.3356 74.544C57.0466 75.9683 56.9628 76.4393 56.9888 76.4653C57.0322 76.5086 57.5811 76.5086 57.6274 76.4624C57.6447 76.4451 57.7227 76.1272 57.7978 75.7545C57.8729 75.3847 57.9538 75.0322 57.9798 74.9744C58.0867 74.7231 58.315 74.4573 58.5057 74.3706C58.653 74.3013 58.757 74.3013 58.8408 74.3706C58.9506 74.4573 58.9304 74.7202 58.7542 75.639C58.6386 76.237 58.6068 76.4364 58.6328 76.4624C58.679 76.5086 59.072 76.5231 59.1962 76.4826C59.2627 76.4624 59.306 76.4277 59.3147 76.3873C59.3233 76.3526 59.4013 75.9481 59.488 75.4887C59.6585 74.5931 59.6787 74.3359 59.6007 74.1048C59.4909 73.7812 59.1066 73.6338 58.6906 73.7552C58.5028 73.8101 58.3728 73.8852 58.211 74.0383C58.1416 74.099 58.0867 74.1452 58.0867 74.1366C58.0867 74.1308 58.107 74.0672 58.1301 73.995C58.1821 73.8361 58.4046 72.7786 58.4046 72.6804C58.4046 72.6313 58.3814 72.6024 58.3294 72.5822C58.2572 72.5533 57.9596 72.5504 57.8354 72.5735Z" fill="white"/>
<path d="M85.3646 72.5734C85.3299 72.5791 85.2894 72.6023 85.275 72.6196C85.2577 72.6398 85.1912 72.9259 85.1248 73.261C85.0583 73.5933 84.9976 73.8966 84.989 73.9342L84.9716 74.0006L84.8965 73.9313C84.518 73.5759 83.8477 73.6597 83.4403 74.1133C82.929 74.6825 82.7643 75.8411 83.1341 76.2889C83.2814 76.468 83.423 76.5258 83.7119 76.5258C83.9373 76.5258 83.9748 76.5172 84.1771 76.416C84.3244 76.3438 84.44 76.26 84.5267 76.1676L84.6538 76.0231L84.6191 76.2225C84.5989 76.3322 84.596 76.4391 84.6076 76.4594C84.6423 76.5172 85.1074 76.5114 85.1652 76.4536C85.2028 76.4131 85.9337 72.8218 85.9337 72.6716C85.9337 72.6312 85.9077 72.5994 85.8586 72.582C85.7864 72.5531 85.4888 72.5503 85.3646 72.5734ZM84.5556 74.356C84.6076 74.3762 84.6943 74.4427 84.752 74.5005L84.8561 74.6074L84.8012 74.8876C84.7029 75.3759 84.492 75.7111 84.1944 75.8584C83.9373 75.9884 83.7524 75.9335 83.6773 75.7111C83.5964 75.4597 83.7293 74.8414 83.9257 74.5698C84.0904 74.3445 84.3331 74.2607 84.5556 74.356Z" fill="white"/>
<path d="M68.785 72.6511C68.7359 72.6742 68.6695 72.7262 68.6348 72.7666C68.5568 72.8677 68.5019 73.1249 68.5394 73.2231C68.6117 73.4167 69.152 73.408 69.2733 73.2116C69.3311 73.122 69.386 72.8562 69.3629 72.7666C69.3513 72.7262 69.308 72.6771 69.2618 72.6539C69.1606 72.5991 68.9035 72.5991 68.785 72.6511Z" fill="white"/>
<path d="M43.4368 73.1108C43.3761 73.1426 43.3559 73.1859 43.3154 73.391C43.2865 73.5268 43.2576 73.6655 43.249 73.7002C43.2345 73.7551 43.2114 73.7638 43.0554 73.7724C42.8878 73.7811 42.8734 73.7869 42.8214 73.8735C42.7867 73.9342 42.7665 74.0324 42.7636 74.148L42.7578 74.33L42.9398 74.3387C43.1132 74.3474 43.1247 74.3503 43.1103 74.4109C43.0381 74.6999 42.83 75.8353 42.83 75.9249C42.83 76.3467 43.1074 76.5663 43.5928 76.5345C43.7055 76.5258 43.8528 76.497 43.9193 76.4681C44.0204 76.4276 44.0493 76.3958 44.0897 76.2889C44.1186 76.2138 44.1417 76.0953 44.1417 76.0231C44.1446 75.8758 44.1533 75.8787 43.8644 75.922C43.6564 75.9509 43.5812 75.8902 43.5812 75.6937C43.5812 75.6129 43.639 75.2777 43.7055 74.9512L43.8297 74.3589L44.1302 74.3445L44.4336 74.33L44.4885 74.2174C44.5202 74.1538 44.5433 74.0382 44.5462 73.9429L44.5491 73.7811L44.2544 73.7724C44.0435 73.7666 43.9568 73.7551 43.9568 73.7291C43.9597 73.7089 43.9828 73.5788 44.0117 73.4373C44.0724 73.1512 44.0695 73.1166 43.9771 73.0906C43.8615 73.0617 43.5119 73.0732 43.4368 73.1108Z" fill="white"/>
<path d="M55.8001 73.1108C55.7394 73.1426 55.7192 73.1859 55.6787 73.391C55.6498 73.5268 55.6209 73.6655 55.6123 73.7002C55.5978 73.7551 55.5747 73.7638 55.4187 73.7724C55.2511 73.7811 55.2367 73.7869 55.1847 73.8735C55.15 73.9342 55.1298 74.0324 55.1269 74.148L55.1211 74.33L55.3031 74.3387C55.4765 74.3474 55.488 74.3503 55.4736 74.4109C55.4013 74.6999 55.1933 75.8353 55.1933 75.9249C55.1933 76.3467 55.4707 76.5663 55.9561 76.5345C56.0688 76.5258 56.2161 76.497 56.2826 76.4681C56.3837 76.4276 56.4126 76.3958 56.453 76.2889C56.4819 76.2138 56.505 76.0953 56.505 76.0231C56.5079 75.8758 56.5166 75.8787 56.2277 75.922C56.0196 75.9509 55.9445 75.8902 55.9445 75.6937C55.9445 75.6129 56.0023 75.2777 56.0688 74.9512L56.193 74.3589L56.4935 74.3445L56.7968 74.33L56.8517 74.2174C56.8835 74.1538 56.9066 74.0382 56.9095 73.9429L56.9124 73.7811L56.6177 73.7724C56.4068 73.7666 56.3201 73.7551 56.3201 73.7291C56.323 73.7089 56.3461 73.5788 56.375 73.4373C56.4357 73.1512 56.4328 73.1166 56.3403 73.0906C56.2248 73.0617 55.8752 73.0732 55.8001 73.1108Z" fill="white"/>
<path d="M48.9637 73.7377C48.5534 73.8244 48.1605 74.1508 47.9553 74.5755C47.8138 74.8674 47.7531 75.1043 47.7271 75.4625C47.6751 76.2311 48.0796 76.5836 48.9579 76.5315C49.3393 76.5113 49.6398 76.4391 49.7438 76.3409C49.8362 76.26 49.9142 75.9913 49.8767 75.893C49.8536 75.8324 49.842 75.8352 49.5097 75.9364C49.3422 75.9884 49.2208 76.0028 48.9839 76.0057C48.6372 76.0057 48.5563 75.9739 48.4638 75.7861C48.4118 75.6879 48.3916 75.399 48.435 75.3383C48.4465 75.3181 48.6141 75.3007 48.8597 75.2892C49.2988 75.2718 49.608 75.2083 49.8478 75.0869C50.4516 74.7749 50.4314 74.0324 49.8102 73.7955C49.6166 73.7232 49.1804 73.6914 48.9637 73.7377ZM49.4375 74.2404C49.6224 74.3184 49.6513 74.4975 49.5011 74.6478C49.3768 74.772 49.2439 74.8096 48.851 74.8269L48.5274 74.8442L48.5534 74.7691C48.7268 74.3126 49.0908 74.0959 49.4375 74.2404Z" fill="white"/>
<path d="M64.3582 73.7377C63.9479 73.8244 63.555 74.1508 63.3499 74.5755C63.2083 74.8674 63.1476 75.1043 63.1216 75.4625C63.0696 76.2311 63.4741 76.5836 64.3524 76.5315C64.7338 76.5113 65.0343 76.4391 65.1383 76.3409C65.2308 76.26 65.3088 75.9913 65.2712 75.893C65.2481 75.8324 65.2365 75.8352 64.9043 75.9364C64.7367 75.9884 64.6154 76.0028 64.3784 76.0057C64.0317 76.0057 63.9508 75.9739 63.8584 75.7861C63.8064 75.6879 63.7861 75.399 63.8295 75.3383C63.841 75.3181 64.0086 75.3007 64.2542 75.2892C64.6934 75.2718 65.0025 75.2083 65.2423 75.0869C65.8462 74.7749 65.8259 74.0324 65.2048 73.7955C65.0112 73.7232 64.5749 73.6914 64.3582 73.7377ZM64.832 74.2404C65.017 74.3184 65.0458 74.4975 64.8956 74.6478C64.7714 74.772 64.6385 74.8096 64.2455 74.8269L63.9219 74.8442L63.9479 74.7691C64.1213 74.3126 64.4853 74.0959 64.832 74.2404Z" fill="white"/>
<path d="M67.3979 73.7812C67.2448 73.8592 67.0657 74.0123 66.9674 74.1539L66.9068 74.2377L66.953 74.0181C66.9761 73.8968 66.9877 73.787 66.9732 73.7754C66.9617 73.7639 66.8432 73.7523 66.7103 73.7523C66.5312 73.7523 66.456 73.7639 66.4243 73.7956C66.3578 73.8592 65.8695 76.4191 65.9129 76.4624C65.9591 76.5086 66.352 76.5231 66.4763 76.4826C66.5427 76.4624 66.5861 76.4277 66.5947 76.3873C66.6005 76.3526 66.6612 76.0492 66.7247 75.717C66.8605 74.9976 66.9443 74.7924 67.1986 74.5526C67.3777 74.3822 67.4673 74.3504 67.6406 74.3966C67.71 74.4168 67.7764 74.4313 67.7909 74.4313C67.8342 74.4313 67.9324 74.1366 67.9527 73.9488L67.9729 73.7754L67.8804 73.7408C67.7273 73.6887 67.5568 73.7032 67.3979 73.7812Z" fill="white"/>
<path d="M71.0458 73.761C70.8262 73.8361 70.6558 73.9488 70.4998 74.1135C70.4246 74.1944 70.3697 74.2377 70.3784 74.2088C70.3871 74.1799 70.4073 74.0788 70.4246 73.9834C70.4506 73.8303 70.4477 73.8072 70.4044 73.7725C70.3322 73.7205 69.9508 73.7379 69.893 73.7956C69.8266 73.8621 69.3383 76.4191 69.3816 76.4624C69.4279 76.5086 69.8208 76.5231 69.945 76.4826C70.0115 76.4624 70.0548 76.4277 70.0635 76.3873C70.0693 76.3526 70.1299 76.0435 70.1935 75.7054C70.2715 75.3067 70.338 75.0293 70.3842 74.9311C70.494 74.7029 70.6673 74.5006 70.8378 74.4024C71.1036 74.2493 71.2856 74.307 71.3116 74.5497C71.3232 74.6393 71.2741 74.9542 71.1614 75.5552C71.0371 76.211 71.0054 76.4393 71.0285 76.4624C71.0747 76.5086 71.4676 76.5231 71.5919 76.4826C71.6583 76.4624 71.7017 76.4277 71.7103 76.3873C71.719 76.3526 71.797 75.9481 71.8837 75.4916C72.1004 74.359 72.0946 74.1366 71.8548 73.8939C71.6699 73.709 71.3463 73.657 71.0458 73.761Z" fill="white"/>
<path d="M73.4795 73.7606C73.0432 73.905 72.7196 74.3008 72.5434 74.9076C72.37 75.5085 72.4307 76.0979 72.6936 76.3406C72.8496 76.488 72.9565 76.5255 73.2224 76.5255C73.4419 76.5255 73.4882 76.5169 73.6615 76.4302C73.7684 76.3782 73.9158 76.2771 73.988 76.2077C74.0602 76.1355 74.1065 76.1008 74.092 76.1297C74.0776 76.1586 74.0371 76.2915 74.0024 76.4244C73.9244 76.7278 73.8782 76.8058 73.7337 76.8867C73.5633 76.9849 73.1906 76.9965 72.9045 76.9156C72.7861 76.8838 72.659 76.8491 72.6243 76.8405C72.5752 76.826 72.5492 76.8434 72.5029 76.9185C72.4365 77.0283 72.3989 77.2276 72.4278 77.3172C72.4712 77.4588 73.1732 77.5657 73.6153 77.4963C73.9215 77.4501 74.1325 77.3576 74.3087 77.1958C74.5745 76.9531 74.6005 76.878 74.9414 75.2543C75.1495 74.2691 75.2361 73.8039 75.2159 73.7837C75.1986 73.7663 75.0917 73.749 74.9761 73.7432C74.7016 73.7317 74.6323 73.7692 74.6005 73.9455L74.5745 74.0784L74.4589 73.9628C74.3954 73.8992 74.2827 73.8212 74.2076 73.7866C74.0198 73.7028 73.6904 73.6912 73.4795 73.7606ZM74.0833 74.3586C74.196 74.4077 74.3087 74.5002 74.352 74.5811C74.3896 74.6533 74.2798 75.1272 74.1758 75.3438C74.0602 75.5779 73.8898 75.7686 73.7077 75.8581C73.4593 75.9824 73.2888 75.9448 73.205 75.7426C73.0923 75.4768 73.2339 74.8382 73.4708 74.5262C73.6153 74.3355 73.8638 74.2691 74.0833 74.3586Z" fill="white"/>
<path d="M76.7566 73.7377C76.3464 73.8244 75.9534 74.1508 75.7483 74.5755C75.6067 74.8674 75.5461 75.1043 75.5201 75.4625C75.4681 76.2311 75.8725 76.5836 76.7509 76.5315C77.1322 76.5113 77.4327 76.4391 77.5367 76.3409C77.6292 76.26 77.7072 75.9913 77.6696 75.893C77.6465 75.8324 77.635 75.8352 77.3027 75.9364C77.1351 75.9884 77.0138 76.0028 76.7769 76.0057C76.4302 76.0057 76.3493 75.9739 76.2568 75.7861C76.2048 75.6879 76.1846 75.399 76.2279 75.3383C76.2395 75.3181 76.4071 75.3007 76.6526 75.2892C77.0918 75.2718 77.4009 75.2083 77.6408 75.0869C78.2446 74.7749 78.2244 74.0324 77.6032 73.7955C77.4096 73.7232 76.9733 73.6914 76.7566 73.7377ZM77.2305 74.2404C77.4154 74.3184 77.4443 74.4975 77.294 74.6478C77.1698 74.772 77.0369 74.8096 76.644 74.8269L76.3204 74.8442L76.3464 74.7691C76.5197 74.3126 76.8838 74.0959 77.2305 74.2404Z" fill="white"/>
<path d="M79.9755 73.761C79.7559 73.8361 79.5855 73.9488 79.4294 74.1135C79.3543 74.1944 79.2994 74.2377 79.3081 74.2088C79.3168 74.1799 79.337 74.0788 79.3543 73.9834C79.3803 73.8303 79.3774 73.8072 79.3341 73.7725C79.2619 73.7205 78.8805 73.7379 78.8227 73.7956C78.7563 73.8621 78.268 76.4191 78.3113 76.4624C78.3575 76.5086 78.7505 76.5231 78.8747 76.4826C78.9412 76.4624 78.9845 76.4277 78.9932 76.3873C78.9989 76.3526 79.0596 76.0435 79.1232 75.7054C79.2012 75.3067 79.2676 75.0293 79.3139 74.9311C79.4237 74.7029 79.597 74.5006 79.7675 74.4024C80.0333 74.2493 80.2153 74.307 80.2413 74.5497C80.2529 74.6393 80.2037 74.9542 80.0911 75.5552C79.9668 76.211 79.9351 76.4393 79.9582 76.4624C80.0044 76.5086 80.3973 76.5231 80.5216 76.4826C80.588 76.4624 80.6314 76.4277 80.64 76.3873C80.6487 76.3526 80.7267 75.9481 80.8134 75.4916C81.0301 74.359 81.0243 74.1366 80.7845 73.8939C80.5996 73.709 80.276 73.657 79.9755 73.761Z" fill="white"/>
<path d="M87.241 73.7387C86.8308 73.8253 86.4378 74.1518 86.2327 74.5765C86.0911 74.8683 86.0304 75.1053 86.0044 75.4635C85.9524 76.232 86.3569 76.5845 87.2352 76.5325C87.6166 76.5123 87.9171 76.4401 88.0211 76.3418C88.1136 76.2609 88.1916 75.9922 88.154 75.894C88.1309 75.8333 88.1193 75.8362 87.7871 75.9373C87.6195 75.9894 87.4982 76.0038 87.2612 76.0067C86.9145 76.0067 86.8336 75.9749 86.7412 75.7871C86.6892 75.6889 86.669 75.4 86.7123 75.3393C86.7239 75.3191 86.8914 75.3017 87.137 75.2902C87.5762 75.2728 87.8853 75.2093 88.1251 75.0879C88.729 74.7759 88.7087 74.0334 88.0876 73.7964C87.894 73.7242 87.4577 73.6924 87.241 73.7387ZM87.7149 74.2414C87.8998 74.3194 87.9287 74.4985 87.7784 74.6488C87.6542 74.773 87.5213 74.8106 87.1283 74.8279L86.8048 74.8452L86.8308 74.7701C87.0041 74.3136 87.3682 74.0969 87.7149 74.2414Z" fill="white"/>
<path d="M28.4446 73.7755C28.4013 73.7986 28.3695 73.8419 28.3637 73.8882C28.358 73.9286 28.4071 74.5122 28.4735 75.1854C28.5631 76.0955 28.6035 76.422 28.6353 76.4538C28.67 76.4885 28.7567 76.4971 29.0369 76.4971C29.3605 76.4971 29.401 76.4913 29.4501 76.4393C29.4819 76.4076 29.6581 76.0348 29.8488 75.6101C30.0366 75.1854 30.1955 74.8445 30.2042 74.8532C30.2128 74.8589 30.2446 75.2172 30.2793 75.6448C30.3197 76.1475 30.3544 76.4393 30.3775 76.4625C30.4238 76.5087 30.9091 76.526 31.0478 76.4856C31.1403 76.4567 31.1807 76.4133 31.3281 76.1851C31.7095 75.5957 32.0244 74.9601 32.2729 74.2695C32.4173 73.8679 32.426 73.8102 32.348 73.7668C32.27 73.7264 31.8539 73.7321 31.7701 73.7755C31.7152 73.8015 31.669 73.9084 31.5361 74.2869C31.4436 74.5498 31.3483 74.8156 31.3223 74.8792C31.2096 75.1392 30.9178 75.7315 30.9005 75.7315C30.8918 75.7315 30.8514 75.3068 30.8167 74.7838C30.7387 73.6686 30.7647 73.7379 30.4064 73.7379C30.2128 73.7379 30.1724 73.7466 30.1117 73.8015C30.0713 73.8419 29.869 74.2522 29.6263 74.7983C29.3981 75.3097 29.2074 75.7257 29.2045 75.7199C29.1987 75.717 29.1698 75.2837 29.1352 74.7607C29.086 73.9604 29.0687 73.8044 29.0312 73.7726C28.9676 73.7264 28.54 73.7264 28.4446 73.7755Z" fill="white"/>
<path d="M32.7454 73.7755C32.7021 73.7986 32.6703 73.8419 32.6645 73.8882C32.6587 73.9286 32.7079 74.5122 32.7743 75.1854C32.8639 76.0955 32.9043 76.422 32.9361 76.4538C32.9708 76.4885 33.0575 76.4971 33.3377 76.4971C33.6613 76.4971 33.7018 76.4913 33.7509 76.4393C33.7827 76.4076 33.9589 76.0348 34.1496 75.6101C34.3374 75.1854 34.4963 74.8445 34.505 74.8532C34.5136 74.8589 34.5454 75.2172 34.5801 75.6448C34.6205 76.1475 34.6552 76.4393 34.6783 76.4625C34.7245 76.5087 35.2099 76.526 35.3486 76.4856C35.4411 76.4567 35.4815 76.4133 35.6289 76.1851C36.0102 75.5957 36.3252 74.9601 36.5736 74.2695C36.7181 73.8679 36.7268 73.8102 36.6488 73.7668C36.5707 73.7264 36.1547 73.7321 36.0709 73.7755C36.016 73.8015 35.9698 73.9084 35.8369 74.2869C35.7444 74.5498 35.6491 74.8156 35.6231 74.8792C35.5104 75.1392 35.2186 75.7315 35.2013 75.7315C35.1926 75.7315 35.1521 75.3068 35.1175 74.7838C35.0395 73.6686 35.0655 73.7379 34.7072 73.7379C34.5136 73.7379 34.4732 73.7466 34.4125 73.8015C34.3721 73.8419 34.1698 74.2522 33.9271 74.7983C33.6989 75.3097 33.5082 75.7257 33.5053 75.7199C33.4995 75.717 33.4706 75.2837 33.4359 74.7607C33.3868 73.9604 33.3695 73.8044 33.3319 73.7726C33.2684 73.7264 32.8408 73.7264 32.7454 73.7755Z" fill="white"/>
<path d="M37.0579 73.7755C37.0146 73.7986 36.9828 73.8419 36.977 73.8882C36.9712 73.9286 37.0204 74.5122 37.0868 75.1854C37.1764 76.0955 37.2168 76.422 37.2486 76.4538C37.2833 76.4885 37.37 76.4971 37.6502 76.4971C37.9738 76.4971 38.0143 76.4913 38.0634 76.4393C38.0952 76.4076 38.2714 76.0348 38.4621 75.6101C38.6499 75.1854 38.8088 74.8445 38.8175 74.8532C38.8261 74.8589 38.8579 75.2172 38.8926 75.6448C38.933 76.1475 38.9677 76.4393 38.9908 76.4625C39.037 76.5087 39.5224 76.526 39.6611 76.4856C39.7536 76.4567 39.794 76.4133 39.9414 76.1851C40.3227 75.5957 40.6377 74.9601 40.8861 74.2695C41.0306 73.8679 41.0393 73.8102 40.9613 73.7668C40.8832 73.7264 40.4672 73.7321 40.3834 73.7755C40.3285 73.8015 40.2823 73.9084 40.1494 74.2869C40.0569 74.5498 39.9616 74.8156 39.9356 74.8792C39.8229 75.1392 39.5311 75.7315 39.5138 75.7315C39.5051 75.7315 39.4646 75.3068 39.43 74.7838C39.352 73.6686 39.378 73.7379 39.0197 73.7379C38.8261 73.7379 38.7857 73.7466 38.725 73.8015C38.6846 73.8419 38.4823 74.2522 38.2396 74.7983C38.0114 75.3097 37.8207 75.7257 37.8178 75.7199C37.812 75.717 37.7831 75.2837 37.7484 74.7607C37.6993 73.9604 37.682 73.8044 37.6444 73.7726C37.5809 73.7264 37.1533 73.7264 37.0579 73.7755Z" fill="white"/>
<path d="M45.1829 73.7638C45.1482 73.7782 45.1106 73.8042 45.102 73.8216C45.0904 73.8389 45.0037 74.2376 44.9084 74.7115C44.7119 75.6909 44.6888 75.948 44.787 76.1676C44.8651 76.341 44.9806 76.445 45.154 76.497C45.5354 76.6126 45.9658 76.4768 46.2894 76.1445C46.3963 76.0318 46.4137 76.0232 46.4021 76.0809C46.3241 76.4219 46.3212 76.4363 46.3761 76.4768C46.4397 76.523 46.8268 76.5143 46.8788 76.4623C46.928 76.4132 47.4567 73.8158 47.422 73.7811C47.4076 73.7667 47.2631 73.7522 47.1071 73.7522C46.8904 73.7522 46.8095 73.7638 46.7777 73.7956C46.7517 73.8216 46.6766 74.1105 46.6015 74.4745C46.4512 75.1997 46.3588 75.4366 46.1334 75.6765C45.8965 75.9307 45.6683 76 45.5325 75.8614C45.4256 75.7574 45.4371 75.6216 45.6307 74.6595C45.7463 74.0961 45.7925 73.8014 45.7752 73.7811C45.7376 73.7436 45.2609 73.732 45.1829 73.7638Z" fill="white"/>
<path d="M50.773 73.7749C50.7267 73.7981 50.6978 73.8414 50.6921 73.8905C50.6747 74.0407 51.007 76.407 51.0503 76.4532C51.1139 76.5197 51.6888 76.5312 51.8189 76.4706C52.1049 76.329 52.9688 74.7342 53.1768 73.957C53.2115 73.8298 53.2086 73.8154 53.1566 73.7778C53.0872 73.7258 52.6654 73.7229 52.5672 73.7749C52.5123 73.8009 52.4718 73.8818 52.3909 74.1274C52.1916 74.7168 51.9518 75.2484 51.7177 75.6125L51.6195 75.7656L51.6022 75.6558C51.5935 75.5923 51.5386 75.1531 51.4808 74.6764C51.3999 73.9974 51.3652 73.8009 51.3277 73.772C51.267 73.7258 50.8683 73.7258 50.773 73.7749Z" fill="white"/>
<path d="M60.6086 73.7638C60.574 73.7782 60.5364 73.8042 60.5278 73.8216C60.5162 73.8389 60.4295 74.2376 60.3342 74.7115C60.1377 75.6909 60.1146 75.948 60.2128 76.1676C60.2908 76.341 60.4064 76.445 60.5798 76.497C60.9611 76.6126 61.3916 76.4768 61.7152 76.1445C61.8221 76.0318 61.8395 76.0232 61.8279 76.0809C61.7499 76.4219 61.747 76.4363 61.8019 76.4768C61.8655 76.523 62.2526 76.5143 62.3046 76.4623C62.3537 76.4132 62.8825 73.8158 62.8478 73.7811C62.8333 73.7667 62.6889 73.7522 62.5329 73.7522C62.3162 73.7522 62.2353 73.7638 62.2035 73.7956C62.1775 73.8216 62.1024 74.1105 62.0273 74.4745C61.877 75.1997 61.7846 75.4366 61.5592 75.6765C61.3223 75.9307 61.094 76 60.9582 75.8614C60.8513 75.7574 60.8629 75.6216 61.0565 74.6595C61.172 74.0961 61.2183 73.8014 61.2009 73.7811C61.1634 73.7436 60.6867 73.732 60.6086 73.7638Z" fill="white"/>
<path d="M68.5562 73.7588C68.5216 73.7646 68.4811 73.7877 68.4638 73.8051C68.4493 73.8253 68.3222 74.4234 68.1835 75.1341C67.9986 76.0962 67.9408 76.4371 67.9668 76.4631C68.0333 76.5296 68.4956 76.5238 68.6025 76.4574C68.6429 76.4314 69.1572 73.8686 69.1341 73.808C69.1283 73.7877 69.0936 73.7646 69.059 73.756C68.9896 73.7386 68.6574 73.7386 68.5562 73.7588Z" fill="white"/>
<path d="M53.3508 74.8703C53.2901 74.9685 53.2525 75.1563 53.2699 75.2719L53.2785 75.3412L53.8853 75.3499C54.2204 75.3528 54.518 75.3499 54.5498 75.3441C54.6538 75.3181 54.7636 75.0061 54.726 74.85L54.7087 74.7778H54.0586H53.4085L53.3508 74.8703Z" fill="white"/>
<path d="M41.3235 75.6916C41.1964 75.7465 41.1126 75.8996 41.0808 76.1279C41.0462 76.4081 41.1444 76.5121 41.4507 76.5121C41.6702 76.5121 41.7829 76.4515 41.8523 76.2955C41.9187 76.1452 41.9534 75.917 41.9245 75.8043C41.8869 75.6569 41.5547 75.5963 41.3235 75.6916Z" fill="white"/>
<path d="M81.6282 75.6916C81.5011 75.7465 81.4173 75.8996 81.3855 76.1279C81.3509 76.4081 81.4491 76.5121 81.7554 76.5121C81.9749 76.5121 82.0876 76.4515 82.157 76.2955C82.2234 76.1452 82.2581 75.917 82.2292 75.8043C82.1916 75.6569 81.8594 75.5963 81.6282 75.6916Z" fill="white"/>
</svg>
