<svg xmlns="http://www.w3.org/2000/svg" width="142" height="90" viewBox="0 0 142 90" fill="none"><mask id="path-1-inside-1_33428_14355" fill="white"><rect x="0.00317383" y="0.289062" width="142" height="89.6116" rx="0.417987"></rect></mask><rect x="0.00317383" y="0.289062" width="142" height="89.6116" rx="0.417987" stroke="#FBFBFD" stroke-width="6.6878" mask="url(#path-1-inside-1_33428_14355)"></rect><path d="M15.5129 35.6443V20.6331H19.2547V35.6443H15.5129Z" fill="#FBFBFD"></path><path d="M22.8375 35.6443V24.3756H25.7352V29.208H25.5298C25.5298 28.0564 25.6895 27.0968 26.0089 26.3291C26.3436 25.5614 26.8455 24.9856 27.5148 24.6018C28.1841 24.2179 28.9978 24.026 29.9561 24.026H30.1158C31.576 24.026 32.6864 24.4578 33.4469 25.3215C34.2227 26.1715 34.6105 27.467 34.6105 29.208V35.6443H30.96V29.0229C30.96 28.4197 30.7622 27.9262 30.3668 27.5424C29.9713 27.1585 29.4389 26.9666 28.7697 26.9666C28.0852 26.9666 27.53 27.1654 27.1041 27.5629C26.6934 27.9468 26.4881 28.454 26.4881 29.0846V35.6443H22.8375Z" fill="#FBFBFD"></path><path d="M43.334 36.035C42.2541 36.035 41.311 35.8774 40.5049 35.5621C39.7139 35.2331 39.0522 34.7944 38.5199 34.246C37.9875 33.6977 37.592 33.0808 37.3334 32.3953C37.0749 31.6962 36.9456 30.9764 36.9456 30.2362V29.8455C36.9456 29.0778 37.0825 28.3443 37.3563 27.6452C37.6301 26.9323 38.0331 26.3017 38.5655 25.7533C39.0979 25.205 39.7595 24.7732 40.5505 24.4578C41.3566 24.1425 42.2769 23.9849 43.3112 23.9849C44.4368 23.9849 45.4331 24.1837 46.3001 24.5812C47.1671 24.9651 47.8592 25.5066 48.3763 26.2057C48.8935 26.9049 49.1825 27.7069 49.2433 28.6117H45.6612C45.6004 28.1044 45.3722 27.6794 44.9768 27.3367C44.5965 26.9803 44.0413 26.8021 43.3112 26.8021C42.7028 26.8021 42.1932 26.9392 41.7825 27.2133C41.3871 27.4875 41.0905 27.8645 40.8927 28.3443C40.695 28.8241 40.5961 29.3931 40.5961 30.0511C40.5961 30.6543 40.6874 31.2026 40.8699 31.6962C41.0524 32.176 41.3414 32.553 41.7369 32.8271C42.1476 33.0876 42.68 33.2179 43.334 33.2179C43.8208 33.2179 44.2314 33.1425 44.5661 32.9917C44.9159 32.8271 45.1897 32.6078 45.3874 32.3336C45.6004 32.0457 45.7297 31.7167 45.7753 31.3466H49.3346C49.289 32.2788 49 33.1013 48.4676 33.8142C47.9352 34.5133 47.2279 35.0617 46.3457 35.4593C45.4635 35.8431 44.4596 36.035 43.334 36.035Z" fill="#FBFBFD"></path><path d="M50.9652 35.6443V31.9635H54.9808V35.6443H50.9652Z" fill="#FBFBFD"></path><path d="M68.3372 36.035C67.0138 36.035 65.8731 35.8088 64.9148 35.3564C63.9565 34.8903 63.2188 34.2666 62.7017 33.4852C62.1997 32.7038 61.9487 31.8401 61.9487 30.8942H65.5536C65.5536 31.3603 65.6677 31.7716 65.8959 32.128C66.1392 32.4707 66.4739 32.7449 66.8998 32.9505C67.3257 33.1425 67.8124 33.2384 68.36 33.2384C68.9684 33.2384 69.478 33.1287 69.8886 32.9094C70.3145 32.6763 70.6416 32.3679 70.8697 31.984C71.0979 31.5865 71.212 31.1409 71.212 30.6474C71.212 30.1402 71.0979 29.6947 70.8697 29.3108C70.6568 28.9132 70.3374 28.5979 69.9115 28.3649C69.5008 28.1318 68.9988 28.0153 68.4056 28.0153C67.858 28.0153 67.3637 28.1181 66.9226 28.3238C66.4815 28.5294 66.1544 28.7899 65.9415 29.1052H62.4279L63.272 20.6331H73.3795V23.5119H64.7551L66.1925 22.6483L65.6905 27.5218L64.8235 27.3162C65.2798 26.8226 65.8274 26.4114 66.4663 26.0824C67.1203 25.7396 67.9721 25.5683 69.0216 25.5683C70.2385 25.5683 71.2728 25.7945 72.1246 26.2469C72.9916 26.6855 73.6533 27.2819 74.1096 28.0359C74.5811 28.7762 74.8169 29.6055 74.8169 30.524V30.7914C74.8169 31.7099 74.5659 32.5667 74.0639 33.3618C73.562 34.1569 72.8243 34.8012 71.8508 35.2948C70.8925 35.7883 69.7213 36.035 68.3372 36.035Z" fill="#FBFBFD"></path><path d="M84.2981 36.035C82.9748 36.035 81.8416 35.8431 80.8985 35.4593C79.9555 35.0617 79.1874 34.5271 78.5941 33.8553C78.0161 33.1836 77.5826 32.409 77.2936 31.5317C77.0198 30.6406 76.8829 29.7015 76.8829 28.7145V27.5424C76.8829 26.1715 77.1491 24.9308 77.6815 23.8204C78.2139 22.71 79.0276 21.8257 80.1228 21.1677C81.218 20.5097 82.6097 20.1807 84.2981 20.1807C85.9865 20.1807 87.3706 20.5097 88.4506 21.1677C89.5457 21.8257 90.3595 22.71 90.8919 23.8204C91.4243 24.9308 91.6904 26.1715 91.6904 27.5424V28.7145C91.6904 29.7015 91.5459 30.6406 91.2569 31.5317C90.9831 32.409 90.5496 33.1836 89.9564 33.8553C89.3784 34.5271 88.6179 35.0617 87.6749 35.4593C86.747 35.8431 85.6214 36.035 84.2981 36.035ZM84.2981 32.93C85.5302 32.93 86.4428 32.5461 87.036 31.7784C87.6444 30.997 87.9486 29.7906 87.9486 28.1593C87.9486 26.4319 87.6368 25.1913 87.0132 24.4373C86.4048 23.6696 85.4997 23.2857 84.2981 23.2857C83.066 23.2857 82.1458 23.6696 81.5374 24.4373C80.929 25.1913 80.6247 26.4182 80.6247 28.1181C80.6247 29.7632 80.9213 30.9764 81.5146 31.7579C82.123 32.5393 83.0508 32.93 84.2981 32.93Z" fill="#FBFBFD"></path><path d="M101.7 36.035C100.376 36.035 99.2431 35.8431 98.3001 35.4593C97.357 35.0617 96.5889 34.5271 95.9957 33.8553C95.4177 33.1836 94.9842 32.409 94.6952 31.5317C94.4214 30.6406 94.2845 29.7015 94.2845 28.7145V27.5424C94.2845 26.1715 94.5507 24.9308 95.083 23.8204C95.6154 22.71 96.4292 21.8257 97.5243 21.1677C98.6195 20.5097 100.011 20.1807 101.7 20.1807C103.388 20.1807 104.772 20.5097 105.852 21.1677C106.947 21.8257 107.761 22.71 108.293 23.8204C108.826 24.9308 109.092 26.1715 109.092 27.5424V28.7145C109.092 29.7015 108.947 30.6406 108.658 31.5317C108.385 32.409 107.951 33.1836 107.358 33.8553C106.78 34.5271 106.019 35.0617 105.076 35.4593C104.149 35.8431 103.023 36.035 101.7 36.035ZM101.7 32.93C102.932 32.93 103.844 32.5461 104.438 31.7784C105.046 30.997 105.35 29.7906 105.35 28.1593C105.35 26.4319 105.038 25.1913 104.415 24.4373C103.806 23.6696 102.901 23.2857 101.7 23.2857C100.468 23.2857 99.5473 23.6696 98.9389 24.4373C98.3305 25.1913 98.0263 26.4182 98.0263 28.1181C98.0263 29.7632 98.3229 30.9764 98.9161 31.7579C99.5245 32.5393 100.452 32.93 101.7 32.93Z" fill="#FBFBFD"></path><path d="M119.101 36.035C117.778 36.035 116.645 35.8431 115.702 35.4593C114.759 35.0617 113.99 34.5271 113.397 33.8553C112.819 33.1836 112.386 32.409 112.097 31.5317C111.823 30.6406 111.686 29.7015 111.686 28.7145V27.5424C111.686 26.1715 111.952 24.9308 112.485 23.8204C113.017 22.71 113.831 21.8257 114.926 21.1677C116.021 20.5097 117.413 20.1807 119.101 20.1807C120.79 20.1807 122.174 20.5097 123.254 21.1677C124.349 21.8257 125.163 22.71 125.695 23.8204C126.227 24.9308 126.494 26.1715 126.494 27.5424V28.7145C126.494 29.7015 126.349 30.6406 126.06 31.5317C125.786 32.409 125.353 33.1836 124.76 33.8553C124.182 34.5271 123.421 35.0617 122.478 35.4593C121.55 35.8431 120.425 36.035 119.101 36.035ZM119.101 32.93C120.333 32.93 121.246 32.5461 121.839 31.7784C122.448 30.997 122.752 29.7906 122.752 28.1593C122.752 26.4319 122.44 25.1913 121.816 24.4373C121.208 23.6696 120.303 23.2857 119.101 23.2857C117.869 23.2857 116.949 23.6696 116.34 24.4373C115.732 25.1913 115.428 26.4182 115.428 28.1181C115.428 29.7632 115.724 30.9764 116.318 31.7579C116.926 32.5393 117.854 32.93 119.101 32.93Z" fill="#FBFBFD"></path><path d="M18.6023 46.4275H19.1908L20.2809 50.166H20.1271L21.244 46.8623H21.5984L22.7019 50.1393H22.5548L23.8054 46.4275H24.3872L22.9025 50.6275H22.3541L21.3844 47.7785H21.4847L20.4816 50.6275H19.9332L18.6023 46.4275Z" fill="white"></path><path d="M26.0547 50.7077C25.7783 50.7077 25.5308 50.6375 25.3123 50.4971C25.0961 50.3544 24.9245 50.1571 24.7974 49.9052C24.6725 49.6533 24.6101 49.3635 24.6101 49.0358C24.6101 48.6858 24.6725 48.3848 24.7974 48.1329C24.9222 47.881 25.0928 47.6882 25.309 47.5544C25.5275 47.4185 25.776 47.3505 26.0547 47.3505C26.2977 47.3505 26.505 47.3995 26.6767 47.4976C26.8483 47.5957 26.9865 47.7283 27.0913 47.8955C27.1961 48.0627 27.2685 48.2522 27.3087 48.464C27.351 48.6735 27.3633 48.8909 27.3454 49.116H25.0315V48.795H27.001L26.8472 48.8953C26.8539 48.7638 26.8461 48.6323 26.8238 48.5008C26.8037 48.3692 26.7647 48.2489 26.7068 48.1396C26.6488 48.0282 26.5674 47.939 26.4626 47.8721C26.3579 47.8052 26.2241 47.7718 26.0614 47.7718C25.8563 47.7718 25.6846 47.8242 25.5464 47.929C25.4082 48.0337 25.3045 48.1719 25.2354 48.3436C25.1663 48.513 25.1318 48.6969 25.1318 48.8953V49.1094C25.1318 49.3323 25.1652 49.5318 25.2321 49.7079C25.3012 49.884 25.4037 50.0234 25.5397 50.1259C25.6757 50.2284 25.8474 50.2797 26.0547 50.2797C26.262 50.2797 26.4326 50.2296 26.5663 50.1292C26.7001 50.0289 26.7814 49.8807 26.8104 49.6845H27.3521C27.3187 49.8963 27.2429 50.0791 27.1247 50.2329C27.0066 50.3845 26.8561 50.5015 26.6733 50.584C26.4905 50.6665 26.2843 50.7077 26.0547 50.7077Z" fill="white"></path><path d="M31.9465 50.6275L31.8796 49.9253V48.5543C31.8796 48.2667 31.8183 48.0605 31.6957 47.9356C31.5731 47.8086 31.3892 47.745 31.1439 47.745C31.0057 47.745 30.8798 47.7651 30.7661 47.8052C30.6546 47.8454 30.5655 47.9078 30.4986 47.9925C30.4339 48.075 30.4016 48.182 30.4016 48.3135H29.8198C29.8198 48.0817 29.8766 47.8955 29.9903 47.7551C30.104 47.6124 30.26 47.5099 30.4584 47.4474C30.6591 47.3828 30.8876 47.3505 31.1439 47.3505C31.3892 47.3505 31.6065 47.3917 31.796 47.4742C31.9855 47.5567 32.1337 47.6882 32.2407 47.8688C32.3478 48.0471 32.4013 48.2801 32.4013 48.5676V50.6275H31.9465ZM30.8564 50.7077C30.5933 50.7077 30.376 50.6609 30.2043 50.5673C30.0327 50.4737 29.9045 50.3522 29.8198 50.2028C29.7351 50.0534 29.6927 49.8963 29.6927 49.7313C29.6927 49.5151 29.7462 49.339 29.8532 49.203C29.9624 49.067 30.1107 48.9678 30.2979 48.9054C30.4852 48.8407 30.6959 48.8084 30.9299 48.8084C31.0971 48.8084 31.2643 48.8251 31.4315 48.8586C31.6009 48.892 31.7659 48.9377 31.9264 48.9957V49.3234C31.7927 49.2699 31.6411 49.2275 31.4717 49.1963C31.3045 49.1651 31.1506 49.1495 31.0102 49.1495C30.7962 49.1495 30.6156 49.1941 30.4685 49.2832C30.3214 49.3702 30.2478 49.5195 30.2478 49.7313C30.2478 49.8874 30.3035 50.0211 30.415 50.1326C30.5287 50.244 30.7092 50.2998 30.9567 50.2998C31.1306 50.2998 31.2866 50.2597 31.4248 50.1794C31.5653 50.0969 31.6756 49.9944 31.7559 49.8718C31.8384 49.7492 31.8796 49.6265 31.8796 49.5039H32.0067C32.0067 49.7179 31.9599 49.9163 31.8662 50.0991C31.7748 50.2819 31.6433 50.4291 31.4717 50.5405C31.3 50.652 31.0949 50.7077 30.8564 50.7077Z" fill="white"></path><path d="M33.6504 50.6275V47.424H34.1721V50.6275H33.6504ZM34.0116 49.1829C34.0116 48.7772 34.0506 48.4406 34.1286 48.1731C34.2066 47.9033 34.3203 47.7027 34.4697 47.5712C34.6213 47.4374 34.8052 47.3705 35.0214 47.3705C35.0927 47.3705 35.1574 47.3761 35.2154 47.3872C35.2755 47.3962 35.3357 47.4107 35.3959 47.4307L35.3625 47.9457C35.3001 47.9256 35.2321 47.9089 35.1585 47.8955C35.0849 47.8799 35.0192 47.8721 34.9612 47.8721C34.7717 47.8721 34.619 47.9267 34.5031 48.036C34.3872 48.143 34.3025 48.2946 34.249 48.4907C34.1977 48.6869 34.1721 48.9176 34.1721 49.1829H34.0116Z" fill="white"></path><path d="M37.1771 50.7077C36.9006 50.7077 36.6532 50.6375 36.4347 50.4971C36.2185 50.3544 36.0468 50.1571 35.9198 49.9052C35.7949 49.6533 35.7325 49.3635 35.7325 49.0358C35.7325 48.6858 35.7949 48.3848 35.9198 48.1329C36.0446 47.881 36.2151 47.6882 36.4314 47.5544C36.6499 47.4185 36.8984 47.3505 37.1771 47.3505C37.4201 47.3505 37.6274 47.3995 37.799 47.4976C37.9707 47.5957 38.1089 47.7283 38.2137 47.8955C38.3185 48.0627 38.3909 48.2522 38.431 48.464C38.4734 48.6735 38.4856 48.8909 38.4678 49.116H36.1538V48.795H38.1234L37.9696 48.8953C37.9763 48.7638 37.9685 48.6323 37.9462 48.5008C37.9261 48.3692 37.8871 48.2489 37.8291 48.1396C37.7712 48.0282 37.6898 47.939 37.585 47.8721C37.4803 47.8052 37.3465 47.7718 37.1838 47.7718C36.9787 47.7718 36.807 47.8242 36.6688 47.929C36.5306 48.0337 36.4269 48.1719 36.3578 48.3436C36.2887 48.513 36.2542 48.6969 36.2542 48.8953V49.1094C36.2542 49.3323 36.2876 49.5318 36.3545 49.7079C36.4236 49.884 36.5261 50.0234 36.6621 50.1259C36.7981 50.2284 36.9697 50.2797 37.1771 50.2797C37.3844 50.2797 37.5549 50.2296 37.6887 50.1292C37.8224 50.0289 37.9038 49.8807 37.9328 49.6845H38.4745C38.4411 49.8963 38.3653 50.0791 38.2471 50.2329C38.129 50.3845 37.9785 50.5015 37.7957 50.584C37.6129 50.6665 37.4067 50.7077 37.1771 50.7077Z" fill="white"></path><path d="M41.3367 50.4202L41.437 49.4906H40.7683L40.8017 49.1361H41.4705L41.5975 47.939H40.9288L40.9622 47.5845H41.6377L41.7313 46.6683H42.2195L42.1259 47.5845H43.1558L43.2561 46.6683H43.7376L43.644 47.5845H44.3262L44.286 47.939H43.6039L43.4835 49.1361H44.1657L44.1255 49.4906H43.4434L43.3431 50.4202H42.8549L42.9552 49.4906H41.9252L41.8249 50.4202H41.3367ZM41.9587 49.1361H42.9886L43.1157 47.939H42.0858L41.9587 49.1361Z" fill="white"></path><path d="M46.6534 50.7077C46.3234 50.7077 46.0314 50.6553 45.7773 50.5506C45.5254 50.4458 45.327 50.302 45.1821 50.1192C45.0394 49.9364 44.968 49.7291 44.968 49.4972C44.968 49.2855 45.0227 49.1038 45.1319 48.9522C45.2434 48.8006 45.3949 48.6847 45.5867 48.6044C45.7806 48.5219 46.0002 48.4807 46.2454 48.4807C46.3101 48.4807 46.3725 48.484 46.4327 48.4907C46.4929 48.4974 46.5575 48.5097 46.6266 48.5275V48.6813C46.4037 48.6813 46.2086 48.7181 46.0414 48.7917C45.8742 48.863 45.7438 48.9578 45.6502 49.0759C45.5566 49.1941 45.5098 49.3211 45.5098 49.4571C45.5098 49.6221 45.5599 49.7625 45.6602 49.8784C45.7605 49.9921 45.8965 50.0791 46.0682 50.1393C46.2421 50.1972 46.4371 50.2262 46.6534 50.2262C47.0145 50.2262 47.2954 50.1683 47.496 50.0523C47.6967 49.9364 47.797 49.7848 47.797 49.5976C47.797 49.446 47.7435 49.3211 47.6365 49.223C47.5317 49.125 47.3868 49.0425 47.2018 48.9756L46.0448 48.5342C45.9043 48.4807 45.7617 48.4071 45.6168 48.3135C45.4741 48.2199 45.3537 48.1028 45.2556 47.9624C45.1575 47.822 45.1085 47.6559 45.1085 47.4642C45.1085 47.2479 45.1698 47.0562 45.2924 46.889C45.415 46.7218 45.5911 46.5914 45.8207 46.4978C46.0526 46.4019 46.3301 46.354 46.6534 46.354C46.9499 46.354 47.2129 46.4053 47.4425 46.5078C47.6744 46.6081 47.8561 46.7463 47.9876 46.9224C48.1191 47.0963 48.1849 47.2947 48.1849 47.5177C48.1849 47.6915 48.1403 47.8532 48.0511 48.0025C47.9642 48.1497 47.8349 48.2689 47.6632 48.3603C47.4938 48.4495 47.2842 48.4941 47.0346 48.4941C46.9744 48.4941 46.9164 48.4907 46.8607 48.484C46.8072 48.4751 46.747 48.4606 46.6801 48.4406V48.2734C46.8607 48.2734 47.0234 48.2433 47.1683 48.1831C47.3132 48.1207 47.428 48.0348 47.5127 47.9256C47.5997 47.8164 47.6432 47.6893 47.6432 47.5444C47.6432 47.4062 47.6008 47.2836 47.5161 47.1766C47.4336 47.0673 47.3177 46.9826 47.1683 46.9224C47.0212 46.86 46.8495 46.8288 46.6534 46.8288C46.4639 46.8288 46.2933 46.8589 46.1417 46.9191C45.9924 46.9771 45.8742 47.0562 45.7873 47.1565C45.7004 47.2546 45.6569 47.3638 45.6569 47.4842C45.6569 47.6336 45.707 47.754 45.8074 47.8454C45.9099 47.9345 46.0515 48.0126 46.232 48.0794L47.389 48.5208C47.6967 48.6367 47.933 48.7738 48.0979 48.9321C48.2629 49.0904 48.3454 49.3055 48.3454 49.5775C48.3454 49.7982 48.2785 49.9944 48.1447 50.166C48.011 50.3354 47.8182 50.4681 47.5662 50.5639C47.3143 50.6598 47.01 50.7077 46.6534 50.7077Z" fill="white"></path><path d="M51.0824 46.3674H51.5706V49.1629H52.2996V49.6043H51.5706V50.6275H51.0557V49.6043H48.8821V49.203L51.0824 46.3674ZM51.0757 47.19L49.5041 49.203H51.0757V47.19Z" fill="white"></path><path d="M54.33 50.7077C54.0647 50.7077 53.8228 50.6598 53.6043 50.5639C53.3859 50.4681 53.2109 50.3276 53.0793 50.1426C52.9478 49.9554 52.8809 49.7269 52.8787 49.4571H53.4004C53.4004 49.7113 53.4895 49.903 53.6679 50.0323C53.8484 50.1616 54.0691 50.2262 54.33 50.2262C54.6309 50.2262 54.8672 50.1348 55.0389 49.952C55.2127 49.767 55.2997 49.5396 55.2997 49.2699C55.2997 48.7304 54.9519 48.4606 54.2564 48.4606H53.1328L53.3134 46.4275H55.6408V46.9024H53.7347L53.8418 46.7218L53.7013 48.1864L53.6344 48.1262C53.7414 48.1017 53.8629 48.085 53.9989 48.0761C54.1349 48.0649 54.2564 48.0594 54.3634 48.0594C54.8182 48.0594 55.1782 48.1608 55.4435 48.3637C55.7088 48.5665 55.8414 48.8686 55.8414 49.2699C55.8414 49.5418 55.7801 49.7871 55.6575 50.0055C55.5349 50.2218 55.3599 50.3934 55.1325 50.5205C54.9073 50.6453 54.6398 50.7077 54.33 50.7077Z" fill="white"></path><path d="M59.6385 50.7077C59.3509 50.7077 59.0945 50.6442 58.8694 50.5171C58.6464 50.3901 58.4703 50.2017 58.341 49.952C58.2117 49.7023 58.1471 49.3947 58.1471 49.0291C58.1471 48.6613 58.2117 48.3536 58.341 48.1062C58.4703 47.8565 58.6464 47.6681 58.8694 47.5411C59.0945 47.414 59.3509 47.3505 59.6385 47.3505C59.9238 47.3505 60.1779 47.414 60.4009 47.5411C60.626 47.6681 60.8021 47.8565 60.9292 48.1062C61.0585 48.3536 61.1231 48.6613 61.1231 49.0291C61.1231 49.3947 61.0585 49.7023 60.9292 49.952C60.8021 50.2017 60.626 50.3901 60.4009 50.5171C60.1779 50.6442 59.9238 50.7077 59.6385 50.7077ZM59.6251 50.253C59.8324 50.253 60.0085 50.2039 60.1534 50.1058C60.2983 50.0055 60.4075 49.864 60.4811 49.6812C60.5569 49.4984 60.5948 49.281 60.5948 49.0291C60.5948 48.6479 60.5157 48.3481 60.3574 48.1296C60.1991 47.9089 59.9639 47.7985 59.6518 47.7985C59.4423 47.7985 59.265 47.8487 59.1201 47.949C58.9775 48.0471 58.8682 48.1887 58.7924 48.3737C58.7189 48.5565 58.6821 48.775 58.6821 49.0291C58.6821 49.4058 58.7612 49.7046 58.9195 49.9253C59.08 50.1437 59.3152 50.253 59.6251 50.253Z" fill="white"></path><path d="M64.4127 50.6275V48.7482C64.4127 48.4428 64.3391 48.211 64.192 48.0527C64.0471 47.8922 63.8487 47.8119 63.5968 47.8119C63.4051 47.8119 63.239 47.8643 63.0985 47.9691C62.9581 48.0739 62.85 48.2243 62.7742 48.4205C62.6984 48.6145 62.6605 48.8463 62.6605 49.116H62.4599C62.4599 48.7438 62.5089 48.4261 62.607 48.163C62.7051 47.9 62.8478 47.6993 63.035 47.5611C63.2245 47.4207 63.4541 47.3505 63.7239 47.3505C63.9758 47.3505 64.1909 47.4073 64.3692 47.521C64.5498 47.6325 64.688 47.793 64.7839 48.0025C64.8797 48.2121 64.9277 48.4606 64.9277 48.7482V50.6275H64.4127ZM62.1389 50.6275V47.4307H62.5869L62.6605 48.1664V50.6275H62.1389Z" fill="white"></path><path d="M68.7452 50.7077C68.5713 50.7077 68.4153 50.6743 68.277 50.6074C68.1388 50.5405 68.0296 50.4402 67.9493 50.3065C67.8691 50.1727 67.829 50.0055 67.829 49.8049V46.5412H68.3439V49.7915C68.3439 50.1214 68.4977 50.2864 68.8054 50.2864C68.8968 50.2864 68.9848 50.2764 69.0695 50.2563C69.1565 50.2362 69.2535 50.2062 69.3605 50.166L69.434 50.5405C69.3203 50.5896 69.2066 50.6297 69.093 50.6609C68.9815 50.6921 68.8656 50.7077 68.7452 50.7077ZM67.314 47.7919V47.4307H69.3538V47.7919H67.314Z" fill="white"></path><path d="M72.5504 50.6275V48.7482C72.5504 48.4428 72.4768 48.211 72.3297 48.0527C72.1848 47.8922 71.9864 47.8119 71.7345 47.8119C71.5428 47.8119 71.3767 47.8643 71.2362 47.9691C71.0958 48.0739 70.9877 48.2243 70.9119 48.4205C70.8361 48.6145 70.7982 48.8463 70.7982 49.116H70.5976C70.5976 48.7438 70.6466 48.4261 70.7447 48.163C70.8428 47.9 70.9854 47.6993 71.1727 47.5611C71.3622 47.4207 71.5918 47.3505 71.8615 47.3505C72.1135 47.3505 72.3286 47.4073 72.5069 47.521C72.6875 47.6325 72.8257 47.793 72.9216 48.0025C73.0174 48.2121 73.0654 48.4606 73.0654 48.7482V50.6275H72.5504ZM70.2765 50.6275V46.0664H70.7982V50.6275H70.2765Z" fill="white"></path><path d="M75.4229 50.7077C75.1465 50.7077 74.899 50.6375 74.6806 50.4971C74.4643 50.3544 74.2927 50.1571 74.1656 49.9052C74.0408 49.6533 73.9783 49.3635 73.9783 49.0358C73.9783 48.6858 74.0408 48.3848 74.1656 48.1329C74.2904 47.881 74.461 47.6882 74.6772 47.5544C74.8957 47.4185 75.1442 47.3505 75.4229 47.3505C75.6659 47.3505 75.8732 47.3995 76.0449 47.4976C76.2165 47.5957 76.3547 47.7283 76.4595 47.8955C76.5643 48.0627 76.6367 48.2522 76.6769 48.464C76.7192 48.6735 76.7315 48.8909 76.7136 49.116H74.3997V48.795H76.3692L76.2154 48.8953C76.2221 48.7638 76.2143 48.6323 76.192 48.5008C76.1719 48.3692 76.1329 48.2489 76.075 48.1396C76.017 48.0282 75.9356 47.939 75.8309 47.8721C75.7261 47.8052 75.5923 47.7718 75.4296 47.7718C75.2245 47.7718 75.0528 47.8242 74.9146 47.929C74.7764 48.0337 74.6728 48.1719 74.6036 48.3436C74.5345 48.513 74.5 48.6969 74.5 48.8953V49.1094C74.5 49.3323 74.5334 49.5318 74.6003 49.7079C74.6694 49.884 74.772 50.0234 74.9079 50.1259C75.0439 50.2284 75.2156 50.2797 75.4229 50.2797C75.6302 50.2797 75.8008 50.2296 75.9345 50.1292C76.0683 50.0289 76.1496 49.8807 76.1786 49.6845H76.7203C76.6869 49.8963 76.6111 50.0791 76.493 50.2329C76.3748 50.3845 76.2243 50.5015 76.0415 50.584C75.8587 50.6665 75.6525 50.7077 75.4229 50.7077Z" fill="white"></path><path d="M79.0877 50.6275V50.0055C79.0877 49.7625 79.1267 49.5597 79.2047 49.3969C79.2849 49.2342 79.3964 49.0993 79.5391 48.9923C79.684 48.8853 79.8545 48.7928 80.0507 48.7148L80.88 48.3871C81.094 48.3001 81.2545 48.1887 81.3615 48.0527C81.4685 47.9167 81.522 47.7473 81.522 47.5444C81.522 47.3304 81.4473 47.1554 81.298 47.0194C81.1508 46.8834 80.9446 46.8154 80.6794 46.8154C80.4163 46.8154 80.2001 46.8723 80.0306 46.986C79.8634 47.0974 79.7676 47.2658 79.7431 47.4909H79.1612C79.1768 47.2479 79.2482 47.0417 79.3752 46.8723C79.5045 46.7029 79.6795 46.5747 79.9002 46.4877C80.1209 46.3986 80.3784 46.354 80.6727 46.354C80.9424 46.354 81.1843 46.4064 81.3983 46.5111C81.6123 46.6159 81.7806 46.7608 81.9032 46.9459C82.0281 47.1287 82.0905 47.3393 82.0905 47.5778C82.0905 47.7941 82.0504 47.9825 81.9701 48.143C81.8898 48.3035 81.775 48.4417 81.6257 48.5576C81.4785 48.6735 81.3035 48.7727 81.1007 48.8552L80.2513 49.1963C80.0373 49.2788 79.8768 49.378 79.7698 49.4939C79.6628 49.6098 79.6093 49.7603 79.6093 49.9453V50.146H82.0504V50.6275H79.0877Z" fill="white"></path><path d="M84.5188 50.7077C84.1889 50.7077 83.9002 50.6275 83.6528 50.467C83.4075 50.3065 83.2158 50.0646 83.0776 49.7413C82.9416 49.4181 82.8736 49.0135 82.8736 48.5275C82.8736 48.0415 82.9416 47.638 83.0776 47.317C83.2158 46.9938 83.4075 46.753 83.6528 46.5947C83.9002 46.4342 84.1889 46.354 84.5188 46.354C84.8465 46.354 85.1341 46.4342 85.3816 46.5947C85.629 46.753 85.8207 46.9938 85.9567 47.317C86.0949 47.638 86.164 48.0415 86.164 48.5275C86.164 49.0135 86.0949 49.4181 85.9567 49.7413C85.8207 50.0646 85.629 50.3065 85.3816 50.467C85.1341 50.6275 84.8465 50.7077 84.5188 50.7077ZM84.5188 50.2262C84.88 50.2262 85.1542 50.0791 85.3414 49.7848C85.5287 49.4883 85.6223 49.0692 85.6223 48.5275C85.6223 47.9858 85.5287 47.5678 85.3414 47.2736C85.1542 46.9771 84.88 46.8288 84.5188 46.8288C84.1621 46.8288 83.8891 46.9771 83.6996 47.2736C83.5101 47.5678 83.4153 47.9858 83.4153 48.5275C83.4153 49.0692 83.5101 49.4883 83.6996 49.7848C83.8891 50.0791 84.1621 50.2262 84.5188 50.2262Z" fill="white"></path><path d="M86.9314 50.6275V50.0055C86.9314 49.7625 86.9705 49.5597 87.0485 49.3969C87.1287 49.2342 87.2402 49.0993 87.3829 48.9923C87.5278 48.8853 87.6983 48.7928 87.8945 48.7148L88.7238 48.3871C88.9378 48.3001 89.0983 48.1887 89.2053 48.0527C89.3123 47.9167 89.3658 47.7473 89.3658 47.5444C89.3658 47.3304 89.2911 47.1554 89.1418 47.0194C88.9946 46.8834 88.7884 46.8154 88.5231 46.8154C88.2601 46.8154 88.0439 46.8723 87.8744 46.986C87.7072 47.0974 87.6114 47.2658 87.5869 47.4909H87.005C87.0206 47.2479 87.092 47.0417 87.219 46.8723C87.3483 46.7029 87.5233 46.5747 87.744 46.4877C87.9647 46.3986 88.2222 46.354 88.5165 46.354C88.7862 46.354 89.0281 46.4064 89.2421 46.5111C89.4561 46.6159 89.6244 46.7608 89.747 46.9459C89.8718 47.1287 89.9343 47.3393 89.9343 47.5778C89.9343 47.7941 89.8941 47.9825 89.8139 48.143C89.7336 48.3035 89.6188 48.4417 89.4695 48.5576C89.3223 48.6735 89.1473 48.7727 88.9445 48.8552L88.0951 49.1963C87.8811 49.2788 87.7206 49.378 87.6136 49.4939C87.5066 49.6098 87.4531 49.7603 87.4531 49.9453V50.146H89.8941V50.6275H86.9314Z" fill="white"></path><path d="M92.3626 50.7077C92.1531 50.7077 91.9502 50.6788 91.754 50.6208C91.5601 50.5606 91.3851 50.4737 91.229 50.36C91.0752 50.244 90.9537 50.1014 90.8646 49.932C90.7754 49.7625 90.7308 49.5664 90.7308 49.3434H91.2658C91.2703 49.5351 91.3215 49.6968 91.4196 49.8283C91.5177 49.9598 91.6481 50.059 91.8109 50.1259C91.9758 50.1928 92.1598 50.2262 92.3626 50.2262C92.6747 50.2262 92.9166 50.1504 93.0882 49.9988C93.2599 49.8472 93.3457 49.6578 93.3457 49.4304C93.3457 49.2855 93.3101 49.1573 93.2387 49.0458C93.1674 48.9344 93.0537 48.8474 92.8976 48.785C92.7438 48.7203 92.541 48.688 92.2891 48.688H91.8142V48.2734H92.1352C92.4607 48.2734 92.7171 48.2087 92.9043 48.0794C93.0916 47.9501 93.1852 47.7718 93.1852 47.5444C93.1852 47.3438 93.1094 47.1744 92.9578 47.0361C92.8062 46.8979 92.59 46.8288 92.3091 46.8288C92.0929 46.8288 91.9 46.8734 91.7306 46.9626C91.5612 47.0495 91.4464 47.21 91.3862 47.4441H90.8512C90.8868 47.1833 90.9716 46.9726 91.1053 46.8121C91.2391 46.6516 91.4085 46.5357 91.6136 46.4643C91.8187 46.3908 92.0461 46.354 92.2957 46.354C92.5744 46.354 92.823 46.403 93.0414 46.5011C93.2599 46.5992 93.4315 46.7341 93.5564 46.9057C93.6835 47.0774 93.747 47.2747 93.747 47.4976C93.747 47.7183 93.6835 47.9078 93.5564 48.0661C93.4315 48.2221 93.2499 48.3425 93.0113 48.4272C93.2766 48.503 93.4929 48.6278 93.66 48.8017C93.8295 48.9756 93.9142 49.1985 93.9142 49.4705C93.9142 49.7113 93.8507 49.9253 93.7236 50.1125C93.5987 50.2976 93.4204 50.4436 93.1886 50.5506C92.9567 50.6553 92.6814 50.7077 92.3626 50.7077Z" fill="white"></path><path d="M96.5901 50.6275V46.4275H97.1118V50.6275H96.5901Z" fill="white"></path><path d="M100.738 50.6275V48.7482C100.738 48.4428 100.665 48.211 100.518 48.0527C100.373 47.8922 100.174 47.8119 99.9225 47.8119C99.7308 47.8119 99.5647 47.8643 99.4242 47.9691C99.2838 48.0739 99.1757 48.2243 99.0999 48.4205C99.0241 48.6145 98.9862 48.8463 98.9862 49.116H98.7856C98.7856 48.7438 98.8346 48.4261 98.9327 48.163C99.0308 47.9 99.1735 47.6993 99.3607 47.5611C99.5502 47.4207 99.7798 47.3505 100.05 47.3505C100.301 47.3505 100.517 47.4073 100.695 47.521C100.876 47.6325 101.014 47.793 101.11 48.0025C101.205 48.2121 101.253 48.4606 101.253 48.7482V50.6275H100.738ZM98.4646 50.6275V47.4307H98.9126L98.9862 48.1664V50.6275H98.4646Z" fill="white"></path><path d="M103.624 50.7077C103.368 50.7077 103.128 50.6386 102.905 50.5004C102.685 50.3622 102.506 50.1671 102.37 49.9152C102.234 49.6633 102.166 49.3657 102.166 49.0224C102.166 48.6702 102.234 48.3692 102.37 48.1196C102.506 47.8699 102.685 47.6793 102.905 47.5478C103.128 47.4162 103.368 47.3505 103.624 47.3505C103.805 47.3505 103.966 47.3783 104.109 47.4341C104.254 47.4876 104.38 47.5622 104.487 47.6581C104.594 47.754 104.682 47.8632 104.751 47.9858C104.823 48.1062 104.875 48.2333 104.908 48.367L104.373 48.4138C104.318 48.2288 104.224 48.0828 104.092 47.9758C103.963 47.8665 103.805 47.8119 103.618 47.8119C103.459 47.8119 103.31 47.8576 103.17 47.949C103.031 48.0382 102.919 48.1731 102.832 48.3536C102.745 48.532 102.701 48.7549 102.701 49.0224C102.701 49.2699 102.74 49.485 102.818 49.6678C102.899 49.8484 103.008 49.9888 103.146 50.0891C103.284 50.1894 103.441 50.2396 103.618 50.2396C103.865 50.2396 104.052 50.1794 104.179 50.059C104.309 49.9364 104.373 49.767 104.373 49.5507H104.908C104.908 49.7737 104.856 49.9721 104.751 50.146C104.646 50.3198 104.497 50.4569 104.303 50.5573C104.111 50.6576 103.885 50.7077 103.624 50.7077Z" fill="white"></path><path d="M105.474 50.3165C105.474 50.2117 105.511 50.1214 105.585 50.0456C105.658 49.9698 105.751 49.932 105.862 49.932C105.974 49.932 106.068 49.9698 106.146 50.0456C106.224 50.1214 106.263 50.2117 106.263 50.3165C106.263 50.4213 106.224 50.5093 106.146 50.5807C106.068 50.652 105.974 50.6877 105.862 50.6877C105.751 50.6877 105.658 50.652 105.585 50.5807C105.511 50.5071 105.474 50.419 105.474 50.3165Z" fill="white"></path><path d="M109.942 50.7077C109.677 50.7077 109.435 50.6598 109.216 50.5639C108.998 50.4681 108.823 50.3276 108.691 50.1426C108.56 49.9554 108.493 49.7269 108.491 49.4571H109.012C109.012 49.7113 109.101 49.903 109.28 50.0323C109.46 50.1616 109.681 50.2262 109.942 50.2262C110.243 50.2262 110.479 50.1348 110.651 49.952C110.825 49.767 110.912 49.5396 110.912 49.2699C110.912 48.7304 110.564 48.4606 109.868 48.4606H108.745L108.925 46.4275H111.253V46.9024H109.347L109.454 46.7218L109.313 48.1864L109.246 48.1262C109.353 48.1017 109.475 48.085 109.611 48.0761C109.747 48.0649 109.868 48.0594 109.975 48.0594C110.43 48.0594 110.79 48.1608 111.055 48.3637C111.321 48.5665 111.453 48.8686 111.453 49.2699C111.453 49.5418 111.392 49.7871 111.269 50.0055C111.147 50.2218 110.972 50.3934 110.744 50.5205C110.519 50.6453 110.252 50.7077 109.942 50.7077Z" fill="white"></path><path d="M113.817 50.7077C113.487 50.7077 113.198 50.6275 112.951 50.467C112.706 50.3065 112.514 50.0646 112.376 49.7413C112.24 49.4181 112.172 49.0135 112.172 48.5275C112.172 48.0415 112.24 47.638 112.376 47.317C112.514 46.9938 112.706 46.753 112.951 46.5947C113.198 46.4342 113.487 46.354 113.817 46.354C114.145 46.354 114.432 46.4342 114.68 46.5947C114.927 46.753 115.119 46.9938 115.255 47.317C115.393 47.638 115.462 48.0415 115.462 48.5275C115.462 49.0135 115.393 49.4181 115.255 49.7413C115.119 50.0646 114.927 50.3065 114.68 50.467C114.432 50.6275 114.145 50.7077 113.817 50.7077ZM113.817 50.2262C114.178 50.2262 114.452 50.0791 114.64 49.7848C114.827 49.4883 114.921 49.0692 114.921 48.5275C114.921 47.9858 114.827 47.5678 114.64 47.2736C114.452 46.9771 114.178 46.8288 113.817 46.8288C113.46 46.8288 113.187 46.9771 112.998 47.2736C112.808 47.5678 112.714 47.9858 112.714 48.5275C112.714 49.0692 112.808 49.4883 112.998 49.7848C113.187 50.0791 113.46 50.2262 113.817 50.2262Z" fill="white"></path><path d="M117.788 50.7077C117.458 50.7077 117.169 50.6275 116.922 50.467C116.677 50.3065 116.485 50.0646 116.347 49.7413C116.211 49.4181 116.143 49.0135 116.143 48.5275C116.143 48.0415 116.211 47.638 116.347 47.317C116.485 46.9938 116.677 46.753 116.922 46.5947C117.169 46.4342 117.458 46.354 117.788 46.354C118.116 46.354 118.403 46.4342 118.651 46.5947C118.898 46.753 119.09 46.9938 119.226 47.317C119.364 47.638 119.433 48.0415 119.433 48.5275C119.433 49.0135 119.364 49.4181 119.226 49.7413C119.09 50.0646 118.898 50.3065 118.651 50.467C118.403 50.6275 118.116 50.7077 117.788 50.7077ZM117.788 50.2262C118.149 50.2262 118.423 50.0791 118.611 49.7848C118.798 49.4883 118.891 49.0692 118.891 48.5275C118.891 47.9858 118.798 47.5678 118.611 47.2736C118.423 46.9771 118.149 46.8288 117.788 46.8288C117.431 46.8288 117.158 46.9771 116.969 47.2736C116.779 47.5678 116.685 47.9858 116.685 48.5275C116.685 49.0692 116.779 49.4883 116.969 49.7848C117.158 50.0791 117.431 50.2262 117.788 50.2262Z" fill="white"></path><path d="M121.759 50.7077C121.429 50.7077 121.14 50.6275 120.893 50.467C120.648 50.3065 120.456 50.0646 120.318 49.7413C120.182 49.4181 120.114 49.0135 120.114 48.5275C120.114 48.0415 120.182 47.638 120.318 47.317C120.456 46.9938 120.648 46.753 120.893 46.5947C121.14 46.4342 121.429 46.354 121.759 46.354C122.087 46.354 122.374 46.4342 122.622 46.5947C122.869 46.753 123.061 46.9938 123.197 47.317C123.335 47.638 123.404 48.0415 123.404 48.5275C123.404 49.0135 123.335 49.4181 123.197 49.7413C123.061 50.0646 122.869 50.3065 122.622 50.467C122.374 50.6275 122.087 50.7077 121.759 50.7077ZM121.759 50.2262C122.12 50.2262 122.394 50.0791 122.581 49.7848C122.769 49.4883 122.862 49.0692 122.862 48.5275C122.862 47.9858 122.769 47.5678 122.581 47.2736C122.394 46.9771 122.12 46.8288 121.759 46.8288C121.402 46.8288 121.129 46.9771 120.94 47.2736C120.75 47.5678 120.655 47.9858 120.655 48.5275C120.655 49.0692 120.75 49.4883 120.94 49.7848C121.129 50.0791 121.402 50.2262 121.759 50.2262Z" fill="white"></path><path d="M19.1841 60.278V55.7169H19.7058V60.278H19.1841Z" fill="white"></path><path d="M21.3528 56.3255C21.2458 56.3255 21.1611 56.2954 21.0987 56.2352C21.0363 56.1728 21.005 56.0914 21.005 55.9911C21.005 55.893 21.0363 55.815 21.0987 55.757C21.1611 55.6991 21.2458 55.6701 21.3528 55.6701C21.4598 55.6701 21.5445 55.6991 21.6069 55.757C21.6694 55.815 21.7006 55.893 21.7006 55.9911C21.7006 56.0914 21.6694 56.1728 21.6069 56.2352C21.5445 56.2954 21.4598 56.3255 21.3528 56.3255ZM21.092 60.278V57.0745H21.6136V60.278H21.092Z" fill="white"></path><path d="M24.2008 60.3582C23.8909 60.3582 23.6324 60.3148 23.425 60.2278C23.2177 60.1386 23.0605 60.0171 22.9535 59.8633C22.8465 59.7073 22.7897 59.5289 22.783 59.3283H23.2846C23.2957 59.5312 23.3771 59.6839 23.5287 59.7864C23.6825 59.8867 23.8909 59.9369 24.154 59.9369C24.2922 59.9369 24.4193 59.9146 24.5352 59.87C24.6511 59.8254 24.7436 59.7641 24.8127 59.6861C24.8819 59.6081 24.9164 59.52 24.9164 59.4219C24.9164 59.2971 24.8707 59.199 24.7793 59.1277C24.6879 59.0563 24.5419 58.9939 24.3413 58.9404L23.7193 58.7398C23.4496 58.6551 23.2422 58.5391 23.0973 58.392C22.9547 58.2426 22.8833 58.0643 22.8833 57.857C22.8833 57.5984 22.997 57.3911 23.2244 57.235C23.4518 57.079 23.7505 57.0009 24.1206 57.0009C24.5129 57.0009 24.8172 57.0812 25.0334 57.2417C25.2497 57.4022 25.3623 57.6028 25.3712 57.8436H24.8562C24.8362 57.7032 24.7648 57.5973 24.6422 57.5259C24.5196 57.4524 24.3457 57.4156 24.1206 57.4156C23.9043 57.4156 23.7349 57.4646 23.6123 57.5627C23.4919 57.6586 23.4317 57.7656 23.4317 57.8837C23.4317 58.1044 23.6212 58.2672 24.0002 58.3719L24.6355 58.586C24.9097 58.6684 25.1193 58.7766 25.2642 58.9103C25.4113 59.0441 25.4849 59.2146 25.4849 59.4219C25.4849 59.5824 25.4325 59.734 25.3277 59.8767C25.2229 60.0194 25.0747 60.1353 24.883 60.2245C24.6913 60.3136 24.4639 60.3582 24.2008 60.3582Z" fill="white"></path><path d="M27.5473 60.3582C27.3734 60.3582 27.2174 60.3248 27.0792 60.2579C26.941 60.191 26.8317 60.0907 26.7515 59.957C26.6712 59.8232 26.6311 59.656 26.6311 59.4554V56.1917H27.1461V59.442C27.1461 59.7719 27.2999 59.9369 27.6075 59.9369C27.6989 59.9369 27.787 59.9269 27.8717 59.9068C27.9586 59.8867 28.0556 59.8566 28.1626 59.8165L28.2362 60.191C28.1225 60.2401 28.0088 60.2802 27.8951 60.3114C27.7836 60.3426 27.6677 60.3582 27.5473 60.3582ZM26.1161 57.4423V57.0812H28.1559V57.4423H26.1161Z" fill="white"></path><path d="M31.8227 60.3582C31.5351 60.3582 31.2788 60.2947 31.0536 60.1676C30.8307 60.0406 30.6546 59.8522 30.5253 59.6025C30.396 59.3528 30.3313 59.0452 30.3313 58.6796C30.3313 58.3118 30.396 58.0041 30.5253 57.7567C30.6546 57.507 30.8307 57.3186 31.0536 57.1916C31.2788 57.0645 31.5351 57.0009 31.8227 57.0009C32.1081 57.0009 32.3622 57.0645 32.5851 57.1916C32.8103 57.3186 32.9864 57.507 33.1135 57.7567C33.2427 58.0041 33.3074 58.3118 33.3074 58.6796C33.3074 59.0452 33.2427 59.3528 33.1135 59.6025C32.9864 59.8522 32.8103 60.0406 32.5851 60.1676C32.3622 60.2947 32.1081 60.3582 31.8227 60.3582ZM31.8093 59.9035C32.0167 59.9035 32.1928 59.8544 32.3377 59.7563C32.4826 59.656 32.5918 59.5144 32.6654 59.3316C32.7412 59.1488 32.7791 58.9315 32.7791 58.6796C32.7791 58.2984 32.6999 57.9985 32.5416 57.7801C32.3834 57.5594 32.1482 57.449 31.8361 57.449C31.6265 57.449 31.4493 57.4992 31.3044 57.5995C31.1617 57.6976 31.0525 57.8392 30.9767 58.0242C30.9031 58.207 30.8664 58.4254 30.8664 58.6796C30.8664 59.0563 30.9455 59.3551 31.1038 59.5758C31.2643 59.7942 31.4995 59.9035 31.8093 59.9035Z" fill="white"></path><path d="M34.497 60.278V56.5863C34.497 56.3745 34.5371 56.2018 34.6174 56.068C34.6999 55.932 34.8091 55.8317 34.9451 55.7671C35.0833 55.7024 35.2371 55.6701 35.4065 55.6701C35.4979 55.6701 35.5904 55.6768 35.6841 55.6901C35.7799 55.7035 35.8747 55.7236 35.9683 55.7503L35.868 56.165C35.8011 56.1382 35.7342 56.1182 35.6674 56.1048C35.6027 56.0914 35.5403 56.0847 35.4801 56.0847C35.4088 56.0847 35.3374 56.0981 35.2661 56.1248C35.1947 56.1516 35.1357 56.2018 35.0889 56.2753C35.042 56.3489 35.0186 56.4548 35.0186 56.593V60.278H34.497ZM33.9753 57.4423V57.0812H35.6807V57.4423H33.9753Z" fill="white"></path><path d="M39.1857 60.3582C39.0118 60.3582 38.8557 60.3248 38.7175 60.2579C38.5793 60.191 38.4701 60.0907 38.3898 59.957C38.3096 59.8232 38.2694 59.656 38.2694 59.4554V56.1917H38.7844V59.442C38.7844 59.7719 38.9382 59.9369 39.2458 59.9369C39.3372 59.9369 39.4253 59.9269 39.51 59.9068C39.597 59.8867 39.6939 59.8566 39.8009 59.8165L39.8745 60.191C39.7608 60.2401 39.6471 60.2802 39.5334 60.3114C39.422 60.3426 39.306 60.3582 39.1857 60.3582ZM37.7545 57.4423V57.0812H39.7942V57.4423H37.7545Z" fill="white"></path><path d="M42.9909 60.278V58.3987C42.9909 58.0933 42.9173 57.8614 42.7702 57.7032C42.6253 57.5427 42.4269 57.4624 42.1749 57.4624C41.9832 57.4624 41.8171 57.5148 41.6767 57.6196C41.5363 57.7243 41.4281 57.8748 41.3523 58.071C41.2766 58.2649 41.2387 58.4968 41.2387 58.7665H41.038C41.038 58.3942 41.0871 58.0766 41.1852 57.8135C41.2832 57.5505 41.4259 57.3498 41.6132 57.2116C41.8027 57.0712 42.0323 57.0009 42.302 57.0009C42.5539 57.0009 42.769 57.0578 42.9474 57.1715C43.128 57.283 43.2662 57.4435 43.362 57.653C43.4579 57.8626 43.5058 58.1111 43.5058 58.3987V60.278H42.9909ZM40.717 60.278V55.7169H41.2387V60.278H40.717Z" fill="white"></path><path d="M45.8634 60.3582C45.5869 60.3582 45.3395 60.288 45.121 60.1476C44.9048 60.0049 44.7331 59.8076 44.6061 59.5557C44.4812 59.3038 44.4188 59.014 44.4188 58.6863C44.4188 58.3363 44.4812 58.0353 44.6061 57.7834C44.7309 57.5315 44.9014 57.3387 45.1177 57.2049C45.3361 57.0689 45.5847 57.0009 45.8634 57.0009C46.1064 57.0009 46.3137 57.05 46.4853 57.1481C46.657 57.2462 46.7952 57.3788 46.9 57.546C47.0048 57.7132 47.0772 57.9027 47.1173 58.1145C47.1597 58.324 47.1719 58.5414 47.1541 58.7665H44.8401V58.4455H46.8097L46.6559 58.5458C46.6626 58.4143 46.6548 58.2828 46.6325 58.1512C46.6124 58.0197 46.5734 57.8993 46.5154 57.7901C46.4575 57.6786 46.3761 57.5895 46.2713 57.5226C46.1665 57.4557 46.0328 57.4223 45.8701 57.4223C45.665 57.4223 45.4933 57.4747 45.3551 57.5794C45.2169 57.6842 45.1132 57.8224 45.0441 57.9941C44.975 58.1635 44.9405 58.3474 44.9405 58.5458V58.7598C44.9405 58.9828 44.9739 59.1823 45.0408 59.3584C45.1099 59.5345 45.2124 59.6738 45.3484 59.7764C45.4844 59.8789 45.656 59.9302 45.8634 59.9302C46.0707 59.9302 46.2412 59.88 46.375 59.7797C46.5087 59.6794 46.5901 59.5312 46.6191 59.335H47.1608C47.1274 59.5468 47.0516 59.7296 46.9334 59.8834C46.8153 60.035 46.6648 60.152 46.482 60.2345C46.2992 60.317 46.093 60.3582 45.8634 60.3582Z" fill="white"></path><path d="M49.9495 60.278V56.5863C49.9495 56.3745 49.9896 56.2018 50.0698 56.068C50.1523 55.932 50.2616 55.8317 50.3975 55.7671C50.5358 55.7024 50.6896 55.6701 50.859 55.6701C50.9504 55.6701 51.0429 55.6768 51.1365 55.6901C51.2324 55.7035 51.3271 55.7236 51.4208 55.7503L51.3205 56.165C51.2536 56.1382 51.1867 56.1182 51.1198 56.1048C51.0552 56.0914 50.9928 56.0847 50.9326 56.0847C50.8612 56.0847 50.7899 56.0981 50.7186 56.1248C50.6472 56.1516 50.5881 56.2018 50.5413 56.2753C50.4945 56.3489 50.4711 56.4548 50.4711 56.593V60.278H49.9495ZM49.4278 57.4423V57.0812H51.1332V57.4423H49.4278Z" fill="white"></path><path d="M54.0476 60.278L53.9807 59.5758V58.2048C53.9807 57.9172 53.9194 57.711 53.7968 57.5861C53.6742 57.4591 53.4902 57.3955 53.245 57.3955C53.1068 57.3955 52.9809 57.4156 52.8672 57.4557C52.7557 57.4958 52.6665 57.5583 52.5997 57.643C52.535 57.7255 52.5027 57.8325 52.5027 57.964H51.9208C51.9208 57.7321 51.9777 57.546 52.0914 57.4056C52.2051 57.2629 52.3611 57.1603 52.5595 57.0979C52.7602 57.0333 52.9887 57.0009 53.245 57.0009C53.4902 57.0009 53.7076 57.0422 53.8971 57.1247C54.0866 57.2072 54.2348 57.3387 54.3418 57.5193C54.4488 57.6976 54.5023 57.9306 54.5023 58.2181V60.278H54.0476ZM52.9574 60.3582C52.6944 60.3582 52.477 60.3114 52.3054 60.2178C52.1337 60.1241 52.0056 60.0027 51.9208 59.8533C51.8361 59.7039 51.7938 59.5468 51.7938 59.3818C51.7938 59.1656 51.8473 58.9895 51.9543 58.8535C52.0635 58.7175 52.2118 58.6183 52.399 58.5559C52.5863 58.4912 52.7969 58.4589 53.031 58.4589C53.1982 58.4589 53.3654 58.4756 53.5326 58.509C53.702 58.5425 53.867 58.5882 54.0275 58.6461V58.9738C53.8937 58.9203 53.7421 58.878 53.5727 58.8468C53.4055 58.8156 53.2517 58.8 53.1113 58.8C52.8973 58.8 52.7167 58.8446 52.5696 58.9337C52.4224 59.0207 52.3489 59.17 52.3489 59.3818C52.3489 59.5379 52.4046 59.6716 52.5161 59.7831C52.6297 59.8945 52.8103 59.9503 53.0578 59.9503C53.2316 59.9503 53.3877 59.9101 53.5259 59.8299C53.6664 59.7474 53.7767 59.6449 53.857 59.5222C53.9394 59.3996 53.9807 59.277 53.9807 59.1544H54.1077C54.1077 59.3684 54.0609 59.5668 53.9673 59.7496C53.8759 59.9324 53.7444 60.0796 53.5727 60.191C53.4011 60.3025 53.196 60.3582 52.9574 60.3582Z" fill="white"></path><path d="M56.9018 60.3582C56.5919 60.3582 56.3333 60.3148 56.126 60.2278C55.9187 60.1386 55.7615 60.0171 55.6545 59.8633C55.5475 59.7073 55.4907 59.5289 55.484 59.3283H55.9856C55.9967 59.5312 56.0781 59.6839 56.2297 59.7864C56.3835 59.8867 56.5919 59.9369 56.855 59.9369C56.9932 59.9369 57.1203 59.9146 57.2362 59.87C57.3521 59.8254 57.4446 59.7641 57.5137 59.6861C57.5828 59.6081 57.6174 59.52 57.6174 59.4219C57.6174 59.2971 57.5717 59.199 57.4803 59.1277C57.3889 59.0563 57.2429 58.9939 57.0422 58.9404L56.4203 58.7398C56.1505 58.6551 55.9432 58.5391 55.7983 58.392C55.6556 58.2426 55.5843 58.0643 55.5843 57.857C55.5843 57.5984 55.698 57.3911 55.9254 57.235C56.1528 57.079 56.4515 57.0009 56.8215 57.0009C57.2139 57.0009 57.5182 57.0812 57.7344 57.2417C57.9507 57.4022 58.0632 57.6028 58.0721 57.8436H57.5572C57.5371 57.7032 57.4658 57.5973 57.3432 57.5259C57.2206 57.4524 57.0467 57.4156 56.8215 57.4156C56.6053 57.4156 56.4359 57.4646 56.3133 57.5627C56.1929 57.6586 56.1327 57.7656 56.1327 57.8837C56.1327 58.1044 56.3222 58.2672 56.7011 58.3719L57.3365 58.586C57.6107 58.6684 57.8202 58.7766 57.9651 58.9103C58.1123 59.0441 58.1858 59.2146 58.1858 59.4219C58.1858 59.5824 58.1335 59.734 58.0287 59.8767C57.9239 60.0194 57.7757 60.1353 57.5839 60.2245C57.3922 60.3136 57.1648 60.3582 56.9018 60.3582Z" fill="white"></path><path d="M60.2483 60.3582C60.0744 60.3582 59.9184 60.3248 59.7801 60.2579C59.6419 60.191 59.5327 60.0907 59.4524 59.957C59.3722 59.8232 59.3321 59.656 59.3321 59.4554V56.1917H59.847V59.442C59.847 59.7719 60.0008 59.9369 60.3085 59.9369C60.3999 59.9369 60.4879 59.9269 60.5727 59.9068C60.6596 59.8867 60.7566 59.8566 60.8636 59.8165L60.9371 60.191C60.8234 60.2401 60.7098 60.2802 60.5961 60.3114C60.4846 60.3426 60.3687 60.3582 60.2483 60.3582ZM58.8171 57.4423V57.0812H60.8569V57.4423H58.8171Z" fill="white"></path><path d="M62.8898 60.3582C62.6134 60.3582 62.3659 60.288 62.1475 60.1476C61.9312 60.0049 61.7596 59.8076 61.6325 59.5557C61.5077 59.3038 61.4453 59.014 61.4453 58.6863C61.4453 58.3363 61.5077 58.0353 61.6325 57.7834C61.7573 57.5315 61.9279 57.3387 62.1441 57.2049C62.3626 57.0689 62.6112 57.0009 62.8898 57.0009C63.1328 57.0009 63.3401 57.05 63.5118 57.1481C63.6834 57.2462 63.8217 57.3788 63.9264 57.546C64.0312 57.7132 64.1037 57.9027 64.1438 58.1145C64.1861 58.324 64.1984 58.5414 64.1806 58.7665H61.8666V58.4455H63.8361L63.6823 58.5458C63.689 58.4143 63.6812 58.2828 63.6589 58.1512C63.6388 58.0197 63.5998 57.8993 63.5419 57.7901C63.4839 57.6786 63.4025 57.5895 63.2978 57.5226C63.193 57.4557 63.0592 57.4223 62.8965 57.4223C62.6914 57.4223 62.5198 57.4747 62.3815 57.5794C62.2433 57.6842 62.1397 57.8224 62.0706 57.9941C62.0015 58.1635 61.9669 58.3474 61.9669 58.5458V58.7598C61.9669 58.9828 62.0003 59.1823 62.0672 59.3584C62.1363 59.5345 62.2389 59.6738 62.3749 59.7764C62.5108 59.8789 62.6825 59.9302 62.8898 59.9302C63.0971 59.9302 63.2677 59.88 63.4014 59.7797C63.5352 59.6794 63.6166 59.5312 63.6455 59.335H64.1872C64.1538 59.5468 64.078 59.7296 63.9599 59.8834C63.8417 60.035 63.6912 60.152 63.5084 60.2345C63.3256 60.317 63.1194 60.3582 62.8898 60.3582Z" fill="white"></path><path d="M66.3653 60.3582C66.0554 60.3582 65.7968 60.3148 65.5895 60.2278C65.3822 60.1386 65.225 60.0171 65.118 59.8633C65.011 59.7073 64.9542 59.5289 64.9475 59.3283H65.4491C65.4602 59.5312 65.5416 59.6839 65.6931 59.7864C65.847 59.8867 66.0554 59.9369 66.3185 59.9369C66.4567 59.9369 66.5837 59.9146 66.6997 59.87C66.8156 59.8254 66.9081 59.7641 66.9772 59.6861C67.0463 59.6081 67.0809 59.52 67.0809 59.4219C67.0809 59.2971 67.0352 59.199 66.9438 59.1277C66.8524 59.0563 66.7064 58.9939 66.5057 58.9404L65.8838 58.7398C65.614 58.6551 65.4067 58.5391 65.2618 58.392C65.1191 58.2426 65.0478 58.0643 65.0478 57.857C65.0478 57.5984 65.1615 57.3911 65.3889 57.235C65.6162 57.079 65.915 57.0009 66.285 57.0009C66.6774 57.0009 66.9817 57.0812 67.1979 57.2417C67.4141 57.4022 67.5267 57.6028 67.5356 57.8436H67.0207C67.0006 57.7032 66.9293 57.5973 66.8067 57.5259C66.6841 57.4524 66.5102 57.4156 66.285 57.4156C66.0688 57.4156 65.8994 57.4646 65.7767 57.5627C65.6564 57.6586 65.5962 57.7656 65.5962 57.8837C65.5962 58.1044 65.7857 58.2672 66.1646 58.3719L66.8 58.586C67.0742 58.6684 67.2837 58.7766 67.4286 58.9103C67.5758 59.0441 67.6493 59.2146 67.6493 59.4219C67.6493 59.5824 67.5969 59.734 67.4922 59.8767C67.3874 60.0194 67.2391 60.1353 67.0474 60.2245C66.8557 60.3136 66.6283 60.3582 66.3653 60.3582Z" fill="white"></path><path d="M69.7118 60.3582C69.5379 60.3582 69.3819 60.3248 69.2436 60.2579C69.1054 60.191 68.9962 60.0907 68.9159 59.957C68.8357 59.8232 68.7956 59.656 68.7956 59.4554V56.1917H69.3105V59.442C69.3105 59.7719 69.4643 59.9369 69.772 59.9369C69.8634 59.9369 69.9514 59.9269 70.0361 59.9068C70.1231 59.8867 70.2201 59.8566 70.3271 59.8165L70.4006 60.191C70.2869 60.2401 70.1732 60.2802 70.0595 60.3114C69.9481 60.3426 69.8322 60.3582 69.7118 60.3582ZM68.2806 57.4423V57.0812H70.3204V57.4423H68.2806Z" fill="white"></path><path d="M70.8218 58.5592V58.1044H72.6409V58.5592H70.8218Z" fill="white"></path><path d="M74.6984 61.9232C74.3707 61.9232 74.0865 61.8764 73.8457 61.7827C73.605 61.6913 73.4177 61.5676 73.284 61.4115C73.1524 61.2577 73.0867 61.0872 73.0867 60.8999C73.0867 60.6525 73.177 60.463 73.3575 60.3315C73.5403 60.2022 73.7755 60.1375 74.0631 60.1375L74.3507 60.3181C74.1099 60.3181 73.9238 60.3683 73.7922 60.4686C73.6607 60.5689 73.5949 60.706 73.5949 60.8799C73.5949 61.0538 73.6886 61.2009 73.8758 61.3213C74.0631 61.4416 74.3373 61.5018 74.6984 61.5018C74.9659 61.5018 75.2 61.4628 75.4006 61.3848C75.6035 61.309 75.7607 61.2087 75.8721 61.0838C75.9858 60.9612 76.0427 60.8286 76.0427 60.6859C76.0427 60.5856 76.0059 60.4987 75.9323 60.4251C75.8588 60.3538 75.7462 60.3181 75.5946 60.3181H74.3507C74.1344 60.3181 73.9472 60.2858 73.7889 60.2211C73.6328 60.1542 73.5125 60.0673 73.4277 59.9603C73.343 59.8533 73.3007 59.7363 73.3007 59.6092C73.3007 59.4754 73.3386 59.3617 73.4144 59.2681C73.4902 59.1745 73.5883 59.1031 73.7086 59.0541C73.8312 59.0051 73.9628 58.9805 74.1032 58.9805L74.2035 59.1745C74.1367 59.1745 74.0687 59.1901 73.9996 59.2213C73.9327 59.2503 73.8758 59.2949 73.829 59.3551C73.7844 59.413 73.7621 59.4866 73.7621 59.5758C73.7621 59.6783 73.8045 59.7641 73.8892 59.8332C73.9739 59.9023 74.1277 59.9369 74.3507 59.9369H75.5946C75.8955 59.9369 76.1318 60.0004 76.3035 60.1275C76.4774 60.2546 76.5643 60.4318 76.5643 60.6592C76.5643 60.8687 76.4896 61.0694 76.3403 61.2611C76.1909 61.455 75.9769 61.6133 75.6982 61.7359C75.4196 61.8607 75.0863 61.9232 74.6984 61.9232ZM74.7921 59.3417C74.5468 59.3417 74.325 59.2926 74.1266 59.1945C73.9304 59.0965 73.7744 58.9594 73.6585 58.7832C73.5448 58.6071 73.4879 58.4032 73.4879 58.1713C73.4879 57.9372 73.5448 57.7321 73.6585 57.556C73.7744 57.3799 73.9304 57.2439 74.1266 57.1481C74.325 57.05 74.5468 57.0009 74.7921 57.0009C75.0306 57.0009 75.2468 57.05 75.4408 57.1481C75.6369 57.2439 75.793 57.3799 75.9089 57.556C76.0248 57.7321 76.0828 57.9372 76.0828 58.1713C76.0828 58.4032 76.0248 58.6071 75.9089 58.7832C75.793 58.9594 75.6369 59.0965 75.4408 59.1945C75.2468 59.2926 75.0306 59.3417 74.7921 59.3417ZM74.7921 58.9672C75.0373 58.9672 75.2279 58.8914 75.3639 58.7398C75.4998 58.5882 75.5678 58.3987 75.5678 58.1713C75.5678 57.9372 75.4998 57.7478 75.3639 57.6028C75.2279 57.4557 75.0373 57.3822 74.7921 57.3822C74.5491 57.3822 74.3573 57.4557 74.2169 57.6028C74.0787 57.7478 74.0096 57.9372 74.0096 58.1713C74.0096 58.3987 74.0787 58.5882 74.2169 58.7398C74.3573 58.8914 74.5491 58.9672 74.7921 58.9672ZM75.842 57.5092L75.5946 57.4089C75.5946 57.2216 75.6314 57.0578 75.7049 56.9174C75.7785 56.7747 75.8833 56.6643 76.0193 56.5863C76.1553 56.5061 76.3169 56.4659 76.5041 56.4659L76.464 56.9809C76.2634 56.9809 76.1096 57.0244 76.0025 57.1113C75.8955 57.196 75.842 57.3287 75.842 57.5092Z" fill="white"></path><path d="M77.3431 60.278V57.0745H77.8648V60.278H77.3431ZM77.7043 58.8334C77.7043 58.4277 77.7433 58.0911 77.8213 57.8235C77.8993 57.5538 78.013 57.3532 78.1624 57.2216C78.314 57.0879 78.4979 57.021 78.7141 57.021C78.7855 57.021 78.8501 57.0266 78.9081 57.0377C78.9683 57.0466 79.0285 57.0611 79.0886 57.0812L79.0552 57.5962C78.9928 57.5761 78.9248 57.5594 78.8512 57.546C78.7777 57.5304 78.7119 57.5226 78.6539 57.5226C78.4645 57.5226 78.3118 57.5772 78.1958 57.6864C78.0799 57.7935 77.9952 57.945 77.9417 58.1412C77.8904 58.3374 77.8648 58.5681 77.8648 58.8334H77.7043Z" fill="white"></path><path d="M80.9166 60.3582C80.629 60.3582 80.3727 60.2947 80.1475 60.1676C79.9246 60.0406 79.7485 59.8522 79.6192 59.6025C79.4899 59.3528 79.4252 59.0452 79.4252 58.6796C79.4252 58.3118 79.4899 58.0041 79.6192 57.7567C79.7485 57.507 79.9246 57.3186 80.1475 57.1916C80.3727 57.0645 80.629 57.0009 80.9166 57.0009C81.202 57.0009 81.4561 57.0645 81.679 57.1916C81.9042 57.3186 82.0803 57.507 82.2074 57.7567C82.3367 58.0041 82.4013 58.3118 82.4013 58.6796C82.4013 59.0452 82.3367 59.3528 82.2074 59.6025C82.0803 59.8522 81.9042 60.0406 81.679 60.1676C81.4561 60.2947 81.202 60.3582 80.9166 60.3582ZM80.9032 59.9035C81.1106 59.9035 81.2867 59.8544 81.4316 59.7563C81.5765 59.656 81.6857 59.5144 81.7593 59.3316C81.8351 59.1488 81.873 58.9315 81.873 58.6796C81.873 58.2984 81.7938 57.9985 81.6356 57.7801C81.4773 57.5594 81.2421 57.449 80.93 57.449C80.7204 57.449 80.5432 57.4992 80.3983 57.5995C80.2556 57.6976 80.1464 57.8392 80.0706 58.0242C79.997 58.207 79.9603 58.4254 79.9603 58.6796C79.9603 59.0563 80.0394 59.3551 80.1977 59.5758C80.3582 59.7942 80.5934 59.9035 80.9032 59.9035Z" fill="white"></path><path d="M82.8619 57.0812H83.4036L84.2195 59.7496H84.1527L84.9485 57.235H85.3832L86.1724 59.7563H86.1122L86.9281 57.0812H87.4498L86.3998 60.278H85.8915L85.1157 57.9172H85.196L84.4269 60.278H83.9186L82.8619 57.0812Z" fill="white"></path><path d="M88.5573 56.3255C88.4503 56.3255 88.3656 56.2954 88.3032 56.2352C88.2408 56.1728 88.2095 56.0914 88.2095 55.9911C88.2095 55.893 88.2408 55.815 88.3032 55.757C88.3656 55.6991 88.4503 55.6701 88.5573 55.6701C88.6643 55.6701 88.749 55.6991 88.8115 55.757C88.8739 55.815 88.9051 55.893 88.9051 55.9911C88.9051 56.0914 88.8739 56.1728 88.8115 56.2352C88.749 56.2954 88.6643 56.3255 88.5573 56.3255ZM88.2965 60.278V57.0745H88.8181V60.278H88.2965Z" fill="white"></path><path d="M92.5289 60.278V58.3987C92.5289 58.0933 92.4553 57.8614 92.3082 57.7032C92.1633 57.5427 91.9649 57.4624 91.713 57.4624C91.5212 57.4624 91.3552 57.5148 91.2147 57.6196C91.0743 57.7243 90.9662 57.8748 90.8904 58.071C90.8146 58.2649 90.7767 58.4968 90.7767 58.7665H90.576C90.576 58.3942 90.6251 58.0766 90.7232 57.8135C90.8213 57.5505 90.9639 57.3498 91.1512 57.2116C91.3407 57.0712 91.5703 57.0009 91.84 57.0009C92.0919 57.0009 92.3071 57.0578 92.4854 57.1715C92.666 57.283 92.8042 57.4435 92.9 57.653C92.9959 57.8626 93.0438 58.1111 93.0438 58.3987V60.278H92.5289ZM90.255 60.278V57.0812H90.7031L90.7767 57.8169V60.278H90.255Z" fill="white"></path><path d="M95.4214 61.9232C95.0938 61.9232 94.8095 61.8764 94.5688 61.7827C94.328 61.6913 94.1407 61.5676 94.007 61.4115C93.8755 61.2577 93.8097 61.0872 93.8097 60.8999C93.8097 60.6525 93.9 60.463 94.0805 60.3315C94.2633 60.2022 94.4985 60.1375 94.7861 60.1375L95.0737 60.3181C94.8329 60.3181 94.6468 60.3683 94.5153 60.4686C94.3837 60.5689 94.318 60.706 94.318 60.8799C94.318 61.0538 94.4116 61.2009 94.5988 61.3213C94.7861 61.4416 95.0603 61.5018 95.4214 61.5018C95.689 61.5018 95.923 61.4628 96.1237 61.3848C96.3265 61.309 96.4837 61.2087 96.5952 61.0838C96.7088 60.9612 96.7657 60.8286 96.7657 60.6859C96.7657 60.5856 96.7289 60.4987 96.6553 60.4251C96.5818 60.3538 96.4692 60.3181 96.3176 60.3181H95.0737C94.8574 60.3181 94.6702 60.2858 94.5119 60.2211C94.3559 60.1542 94.2355 60.0673 94.1508 59.9603C94.0661 59.8533 94.0237 59.7363 94.0237 59.6092C94.0237 59.4754 94.0616 59.3617 94.1374 59.2681C94.2132 59.1745 94.3113 59.1031 94.4317 59.0541C94.5543 59.0051 94.6858 58.9805 94.8262 58.9805L94.9266 59.1745C94.8597 59.1745 94.7917 59.1901 94.7226 59.2213C94.6557 59.2503 94.5988 59.2949 94.552 59.3551C94.5074 59.413 94.4852 59.4866 94.4852 59.5758C94.4852 59.6783 94.5275 59.7641 94.6122 59.8332C94.6969 59.9023 94.8508 59.9369 95.0737 59.9369H96.3176C96.6186 59.9369 96.8549 60.0004 97.0265 60.1275C97.2004 60.2546 97.2873 60.4318 97.2873 60.6592C97.2873 60.8687 97.2127 61.0694 97.0633 61.2611C96.9139 61.455 96.6999 61.6133 96.4213 61.7359C96.1426 61.8607 95.8093 61.9232 95.4214 61.9232ZM95.5151 59.3417C95.2699 59.3417 95.048 59.2926 94.8496 59.1945C94.6535 59.0965 94.4974 58.9594 94.3815 58.7832C94.2678 58.6071 94.211 58.4032 94.211 58.1713C94.211 57.9372 94.2678 57.7321 94.3815 57.556C94.4974 57.3799 94.6535 57.2439 94.8496 57.1481C95.048 57.05 95.2699 57.0009 95.5151 57.0009C95.7536 57.0009 95.9698 57.05 96.1638 57.1481C96.36 57.2439 96.516 57.3799 96.6319 57.556C96.7479 57.7321 96.8058 57.9372 96.8058 58.1713C96.8058 58.4032 96.7479 58.6071 96.6319 58.7832C96.516 58.9594 96.36 59.0965 96.1638 59.1945C95.9698 59.2926 95.7536 59.3417 95.5151 59.3417ZM95.5151 58.9672C95.7603 58.9672 95.9509 58.8914 96.0869 58.7398C96.2229 58.5882 96.2909 58.3987 96.2909 58.1713C96.2909 57.9372 96.2229 57.7478 96.0869 57.6028C95.9509 57.4557 95.7603 57.3822 95.5151 57.3822C95.2721 57.3822 95.0804 57.4557 94.9399 57.6028C94.8017 57.7478 94.7326 57.9372 94.7326 58.1713C94.7326 58.3987 94.8017 58.5882 94.9399 58.7398C95.0804 58.8914 95.2721 58.9672 95.5151 58.9672ZM96.5651 57.5092L96.3176 57.4089C96.3176 57.2216 96.3544 57.0578 96.428 56.9174C96.5015 56.7747 96.6063 56.6643 96.7423 56.5863C96.8783 56.5061 97.0399 56.4659 97.2271 56.4659L97.187 56.9809C96.9864 56.9809 96.8326 57.0244 96.7256 57.1113C96.6186 57.196 96.5651 57.3287 96.5651 57.5092Z" fill="white"></path><path d="M20.6488 70.0087C20.4348 70.0087 20.2408 69.953 20.0669 69.8415C19.8953 69.73 19.7582 69.5673 19.6556 69.3533C19.5553 69.1371 19.5051 68.874 19.5051 68.5641H19.7058C19.7058 68.7715 19.7481 68.9487 19.8328 69.0958C19.9198 69.2407 20.0313 69.3511 20.1672 69.4269C20.3032 69.5027 20.4459 69.5406 20.5953 69.5406C20.7669 69.5406 20.9241 69.4915 21.0667 69.3934C21.2094 69.2953 21.3231 69.1549 21.4078 68.9721C21.4948 68.7893 21.5382 68.5708 21.5382 68.3167C21.5382 68.067 21.4959 67.853 21.4112 67.6747C21.3265 67.4941 21.2116 67.3559 21.0667 67.26C20.9241 67.1619 20.7647 67.1129 20.5886 67.1129C20.437 67.1129 20.2932 67.1508 20.1572 67.2266C20.0235 67.3001 19.9142 67.4094 19.8295 67.5543C19.747 67.6992 19.7058 67.8775 19.7058 68.0893H19.5051C19.5051 67.7861 19.5542 67.5275 19.6523 67.3135C19.7526 67.0995 19.8908 66.9357 20.0669 66.822C20.243 66.7083 20.4481 66.6514 20.6822 66.6514C20.9341 66.6514 21.1648 66.7194 21.3744 66.8554C21.5862 66.9892 21.7556 67.1809 21.8827 67.4306C22.0097 67.6802 22.0733 67.9756 22.0733 68.3167C22.0733 68.66 22.0086 68.9587 21.8793 69.2129C21.75 69.4648 21.5772 69.6609 21.361 69.8014C21.1448 69.9396 20.9074 70.0087 20.6488 70.0087ZM19.1841 69.9285V65.3674H19.7058V69.1794L19.552 69.9285H19.1841Z" fill="white"></path><path d="M25.322 66.725H25.8437V69.9285H25.322V66.725ZM23.0549 66.725H23.5765V68.718C23.5765 68.9855 23.6411 69.1883 23.7704 69.3266C23.902 69.4648 24.0892 69.5339 24.3322 69.5339C24.5329 69.5339 24.7067 69.4804 24.8539 69.3734C25.0032 69.2664 25.118 69.1192 25.1983 68.932C25.2808 68.7425 25.322 68.5262 25.322 68.2833H25.516C25.516 68.6422 25.4636 68.9487 25.3588 69.2028C25.2563 69.457 25.1102 69.652 24.9207 69.788C24.7335 69.9218 24.5128 69.9886 24.2587 69.9886C24.0179 69.9886 23.8072 69.9441 23.6267 69.8549C23.4461 69.7657 23.3056 69.6308 23.2053 69.4503C23.105 69.2675 23.0549 69.0367 23.0549 68.7581V66.725Z" fill="white"></path><path d="M28.348 70.0087C28.0382 70.0087 27.7796 69.9652 27.5722 69.8783C27.3649 69.7891 27.2078 69.6676 27.1008 69.5138C26.9938 69.3578 26.9369 69.1794 26.9302 68.9788H27.4318C27.443 69.1816 27.5243 69.3344 27.6759 69.4369C27.8297 69.5372 28.0382 69.5874 28.3012 69.5874C28.4394 69.5874 28.5665 69.5651 28.6824 69.5205C28.7983 69.4759 28.8909 69.4146 28.96 69.3366C29.0291 69.2586 29.0636 69.1705 29.0636 69.0724C29.0636 68.9476 29.0179 68.8495 28.9265 68.7782C28.8351 68.7068 28.6891 68.6444 28.4885 68.5909L27.8665 68.3903C27.5968 68.3055 27.3894 68.1896 27.2445 68.0425C27.1019 67.8931 27.0305 67.7148 27.0305 67.5075C27.0305 67.2489 27.1442 67.0416 27.3716 66.8855C27.599 66.7295 27.8977 66.6514 28.2678 66.6514C28.6601 66.6514 28.9644 66.7317 29.1807 66.8922C29.3969 67.0527 29.5095 67.2533 29.5184 67.4941H29.0034C28.9834 67.3537 28.912 67.2478 28.7894 67.1764C28.6668 67.1029 28.4929 67.0661 28.2678 67.0661C28.0515 67.0661 27.8821 67.1151 27.7595 67.2132C27.6391 67.3091 27.5789 67.4161 27.5789 67.5342C27.5789 67.7549 27.7684 67.9177 28.1474 68.0224L28.7827 68.2364C29.0569 68.3189 29.2665 68.427 29.4114 68.5608C29.5585 68.6946 29.6321 68.8651 29.6321 69.0724C29.6321 69.2329 29.5797 69.3845 29.4749 69.5272C29.3702 69.6699 29.2219 69.7858 29.0302 69.875C28.8385 69.9641 28.6111 70.0087 28.348 70.0087Z" fill="white"></path><path d="M31.0057 65.976C30.8987 65.976 30.814 65.9459 30.7516 65.8857C30.6891 65.8233 30.6579 65.7419 30.6579 65.6416C30.6579 65.5435 30.6891 65.4655 30.7516 65.4075C30.814 65.3495 30.8987 65.3206 31.0057 65.3206C31.1127 65.3206 31.1974 65.3495 31.2598 65.4075C31.3223 65.4655 31.3535 65.5435 31.3535 65.6416C31.3535 65.7419 31.3223 65.8233 31.2598 65.8857C31.1974 65.9459 31.1127 65.976 31.0057 65.976ZM30.7449 69.9285V66.725H31.2665V69.9285H30.7449Z" fill="white"></path><path d="M34.9773 69.9285V68.0492C34.9773 67.7438 34.9037 67.5119 34.7566 67.3537C34.6117 67.1931 34.4133 67.1129 34.1613 67.1129C33.9696 67.1129 33.8036 67.1653 33.6631 67.2701C33.5227 67.3748 33.4145 67.5253 33.3387 67.7215C33.263 67.9154 33.2251 68.1473 33.2251 68.417H33.0244C33.0244 68.0447 33.0735 67.7271 33.1716 67.464C33.2696 67.2009 33.4123 67.0003 33.5996 66.8621C33.7891 66.7217 34.0187 66.6514 34.2884 66.6514C34.5403 66.6514 34.7554 66.7083 34.9338 66.822C35.1144 66.9334 35.2526 67.0939 35.3484 67.3035C35.4443 67.513 35.4922 67.7616 35.4922 68.0492V69.9285H34.9773ZM32.7034 69.9285V66.7317H33.1515L33.2251 67.4673V69.9285H32.7034Z" fill="white"></path><path d="M37.8498 70.0087C37.5733 70.0087 37.3259 69.9385 37.1074 69.798C36.8912 69.6554 36.7195 69.4581 36.5925 69.2062C36.4676 68.9543 36.4052 68.6645 36.4052 68.3368C36.4052 67.9868 36.4676 67.6858 36.5925 67.4339C36.7173 67.182 36.8878 66.9892 37.1041 66.8554C37.3225 66.7194 37.5711 66.6514 37.8498 66.6514C38.0928 66.6514 38.3001 66.7005 38.4717 66.7986C38.6434 66.8967 38.7816 67.0293 38.8864 67.1965C38.9912 67.3637 39.0636 67.5532 39.1037 67.765C39.1461 67.9745 39.1583 68.1919 39.1405 68.417H36.8265V68.096H38.7961L38.6423 68.1963C38.649 68.0648 38.6412 67.9333 38.6189 67.8017C38.5988 67.6702 38.5598 67.5498 38.5018 67.4406C38.4439 67.3291 38.3625 67.24 38.2577 67.1731C38.153 67.1062 38.0192 67.0728 37.8565 67.0728C37.6514 67.0728 37.4797 67.1252 37.3415 67.2299C37.2033 67.3347 37.0996 67.4729 37.0305 67.6446C36.9614 67.814 36.9269 67.9979 36.9269 68.1963V68.4103C36.9269 68.6333 36.9603 68.8328 37.0272 69.0089C37.0963 69.185 37.1988 69.3243 37.3348 69.4269C37.4708 69.5294 37.6424 69.5807 37.8498 69.5807C38.0571 69.5807 38.2276 69.5305 38.3614 69.4302C38.4951 69.3299 38.5765 69.1817 38.6055 68.9855H39.1472C39.1138 69.1973 39.038 69.3801 38.9198 69.5339C38.8017 69.6855 38.6512 69.8025 38.4684 69.885C38.2856 69.9675 38.0794 70.0087 37.8498 70.0087Z" fill="white"></path><path d="M41.3252 70.0087C41.0154 70.0087 40.7568 69.9652 40.5494 69.8783C40.3421 69.7891 40.185 69.6676 40.078 69.5138C39.971 69.3578 39.9141 69.1794 39.9074 68.9788H40.409C40.4201 69.1816 40.5015 69.3344 40.6531 69.4369C40.8069 69.5372 41.0154 69.5874 41.2784 69.5874C41.4166 69.5874 41.5437 69.5651 41.6596 69.5205C41.7755 69.4759 41.8681 69.4146 41.9372 69.3366C42.0063 69.2586 42.0408 69.1705 42.0408 69.0724C42.0408 68.9476 41.9951 68.8495 41.9037 68.7782C41.8123 68.7068 41.6663 68.6444 41.4657 68.5909L40.8437 68.3903C40.574 68.3055 40.3666 68.1896 40.2217 68.0425C40.0791 67.8931 40.0077 67.7148 40.0077 67.5075C40.0077 67.2489 40.1214 67.0416 40.3488 66.8855C40.5762 66.7295 40.8749 66.6514 41.245 66.6514C41.6373 66.6514 41.9416 66.7317 42.1579 66.8922C42.3741 67.0527 42.4867 67.2533 42.4956 67.4941H41.9806C41.9606 67.3537 41.8892 67.2478 41.7666 67.1764C41.644 67.1029 41.4701 67.0661 41.245 67.0661C41.0287 67.0661 40.8593 67.1151 40.7367 67.2132C40.6163 67.3091 40.5561 67.4161 40.5561 67.5342C40.5561 67.7549 40.7456 67.9177 41.1246 68.0224L41.7599 68.2364C42.0341 68.3189 42.2437 68.427 42.3886 68.5608C42.5357 68.6946 42.6093 68.8651 42.6093 69.0724C42.6093 69.2329 42.5569 69.3845 42.4521 69.5272C42.3473 69.6699 42.1991 69.7858 42.0074 69.875C41.8157 69.9641 41.5883 70.0087 41.3252 70.0087Z" fill="white"></path><path d="M44.8389 70.0087C44.5291 70.0087 44.2705 69.9652 44.0631 69.8783C43.8558 69.7891 43.6987 69.6676 43.5917 69.5138C43.4847 69.3578 43.4278 69.1794 43.4211 68.9788H43.9227C43.9339 69.1816 44.0152 69.3344 44.1668 69.4369C44.3206 69.5372 44.5291 69.5874 44.7921 69.5874C44.9303 69.5874 45.0574 69.5651 45.1733 69.5205C45.2892 69.4759 45.3818 69.4146 45.4509 69.3366C45.52 69.2586 45.5545 69.1705 45.5545 69.0724C45.5545 68.9476 45.5088 68.8495 45.4174 68.7782C45.326 68.7068 45.18 68.6444 44.9794 68.5909L44.3574 68.3903C44.0877 68.3055 43.8804 68.1896 43.7354 68.0425C43.5928 67.8931 43.5214 67.7148 43.5214 67.5075C43.5214 67.2489 43.6351 67.0416 43.8625 66.8855C44.0899 66.7295 44.3886 66.6514 44.7587 66.6514C45.151 66.6514 45.4553 66.7317 45.6716 66.8922C45.8878 67.0527 46.0004 67.2533 46.0093 67.4941H45.4943C45.4743 67.3537 45.4029 67.2478 45.2803 67.1764C45.1577 67.1029 44.9838 67.0661 44.7587 67.0661C44.5424 67.0661 44.373 67.1151 44.2504 67.2132C44.13 67.3091 44.0698 67.4161 44.0698 67.5342C44.0698 67.7549 44.2593 67.9177 44.6383 68.0224L45.2736 68.2364C45.5478 68.3189 45.7574 68.427 45.9023 68.5608C46.0494 68.6946 46.123 68.8651 46.123 69.0724C46.123 69.2329 46.0706 69.3845 45.9658 69.5272C45.8611 69.6699 45.7128 69.7858 45.5211 69.875C45.3294 69.9641 45.102 70.0087 44.8389 70.0087Z" fill="white"></path><path d="M48.3125 70.0087C48.0361 70.0087 47.7886 69.9385 47.5702 69.798C47.3539 69.6554 47.1823 69.4581 47.0552 69.2062C46.9304 68.9543 46.8679 68.6645 46.8679 68.3368C46.8679 67.9868 46.9304 67.6858 47.0552 67.4339C47.18 67.182 47.3506 66.9892 47.5668 66.8554C47.7853 66.7194 48.0339 66.6514 48.3125 66.6514C48.5555 66.6514 48.7628 66.7005 48.9345 66.7986C49.1061 66.8967 49.2443 67.0293 49.3491 67.1965C49.4539 67.3637 49.5263 67.5532 49.5665 67.765C49.6088 67.9745 49.6211 68.1919 49.6033 68.417H47.2893V68.096H49.2588L49.105 68.1963C49.1117 68.0648 49.1039 67.9333 49.0816 67.8017C49.0615 67.6702 49.0225 67.5498 48.9646 67.4406C48.9066 67.3291 48.8252 67.24 48.7205 67.1731C48.6157 67.1062 48.4819 67.0728 48.3192 67.0728C48.1141 67.0728 47.9425 67.1252 47.8042 67.2299C47.666 67.3347 47.5624 67.4729 47.4933 67.6446C47.4242 67.814 47.3896 67.9979 47.3896 68.1963V68.4103C47.3896 68.6333 47.423 68.8328 47.4899 69.0089C47.559 69.185 47.6616 69.3243 47.7976 69.4269C47.9335 69.5294 48.1052 69.5807 48.3125 69.5807C48.5198 69.5807 48.6904 69.5305 48.8241 69.4302C48.9579 69.3299 49.0393 69.1817 49.0682 68.9855H49.6099C49.5765 69.1973 49.5007 69.3801 49.3826 69.5339C49.2644 69.6855 49.1139 69.8025 48.9311 69.885C48.7483 69.9675 48.5421 70.0087 48.3125 70.0087Z" fill="white"></path><path d="M51.788 70.0087C51.4781 70.0087 51.2195 69.9652 51.0122 69.8783C50.8049 69.7891 50.6477 69.6676 50.5407 69.5138C50.4337 69.3578 50.3768 69.1794 50.3702 68.9788H50.8717C50.8829 69.1816 50.9643 69.3344 51.1158 69.4369C51.2697 69.5372 51.4781 69.5874 51.7412 69.5874C51.8794 69.5874 52.0064 69.5651 52.1224 69.5205C52.2383 69.4759 52.3308 69.4146 52.3999 69.3366C52.469 69.2586 52.5036 69.1705 52.5036 69.0724C52.5036 68.9476 52.4579 68.8495 52.3665 68.7782C52.2751 68.7068 52.1291 68.6444 51.9284 68.5909L51.3064 68.3903C51.0367 68.3055 50.8294 68.1896 50.6845 68.0425C50.5418 67.8931 50.4705 67.7148 50.4705 67.5075C50.4705 67.2489 50.5842 67.0416 50.8116 66.8855C51.0389 66.7295 51.3377 66.6514 51.7077 66.6514C52.1001 66.6514 52.4044 66.7317 52.6206 66.8922C52.8368 67.0527 52.9494 67.2533 52.9583 67.4941H52.4434C52.4233 67.3537 52.352 67.2478 52.2294 67.1764C52.1068 67.1029 51.9329 67.0661 51.7077 67.0661C51.4915 67.0661 51.3221 67.1151 51.1994 67.2132C51.0791 67.3091 51.0189 67.4161 51.0189 67.5342C51.0189 67.7549 51.2084 67.9177 51.5873 68.0224L52.2227 68.2364C52.4969 68.3189 52.7064 68.427 52.8513 68.5608C52.9985 68.6946 53.072 68.8651 53.072 69.0724C53.072 69.2329 53.0196 69.3845 52.9149 69.5272C52.8101 69.6699 52.6618 69.7858 52.4701 69.875C52.2784 69.9641 52.051 70.0087 51.788 70.0087Z" fill="white"></path><path d="M56.0327 65.976C55.9257 65.976 55.841 65.9459 55.7785 65.8857C55.7161 65.8233 55.6849 65.7419 55.6849 65.6416C55.6849 65.5435 55.7161 65.4655 55.7785 65.4075C55.841 65.3495 55.9257 65.3206 56.0327 65.3206C56.1397 65.3206 56.2244 65.3495 56.2868 65.4075C56.3492 65.4655 56.3804 65.5435 56.3804 65.6416C56.3804 65.7419 56.3492 65.8233 56.2868 65.8857C56.2244 65.9459 56.1397 65.976 56.0327 65.976ZM55.7719 69.9285V66.725H56.2935V69.9285H55.7719Z" fill="white"></path><path d="M60.0042 69.9285V68.0492C60.0042 67.7438 59.9307 67.5119 59.7835 67.3537C59.6386 67.1931 59.4402 67.1129 59.1883 67.1129C58.9966 67.1129 58.8305 67.1653 58.6901 67.2701C58.5496 67.3748 58.4415 67.5253 58.3657 67.7215C58.2899 67.9154 58.252 68.1473 58.252 68.417H58.0514C58.0514 68.0447 58.1004 67.7271 58.1985 67.464C58.2966 67.2009 58.4393 67.0003 58.6266 66.8621C58.816 66.7217 59.0457 66.6514 59.3154 66.6514C59.5673 66.6514 59.7824 66.7083 59.9608 66.822C60.1413 66.9334 60.2796 67.0939 60.3754 67.3035C60.4713 67.513 60.5192 67.7616 60.5192 68.0492V69.9285H60.0042ZM57.7304 69.9285V66.7317H58.1785L58.252 67.4673V69.9285H57.7304Z" fill="white"></path><path d="M62.852 69.9285L64.2966 65.7285H64.9319L66.3431 69.9285H65.7947L65.4402 68.8517H63.7683L63.4004 69.9285H62.852ZM63.902 68.4438H65.3065L64.6042 66.3639L63.902 68.4438Z" fill="white"></path><path d="M71.6881 69.9285V68.0492C71.6881 67.7438 71.6145 67.5119 71.4674 67.3537C71.3225 67.1931 71.1263 67.1129 70.8789 67.1129C70.5891 67.1129 70.3672 67.2255 70.2134 67.4506C70.0596 67.6736 69.9827 67.9823 69.9827 68.3769H69.7419C69.7419 68.0893 69.7698 67.8374 69.8255 67.6212C69.8835 67.4049 69.9671 67.2255 70.0763 67.0828C70.1856 66.9379 70.3182 66.8298 70.4742 66.7584C70.6303 66.6871 70.8075 66.6514 71.0059 66.6514C71.2578 66.6514 71.473 66.7083 71.6513 66.822C71.8319 66.9334 71.9701 67.0939 72.0659 67.3035C72.1618 67.513 72.2097 67.7616 72.2097 68.0492V69.9285H71.6881ZM67.1939 69.9285V66.7317H67.642L67.7022 67.3737C67.8025 67.1419 67.9429 66.9635 68.1235 66.8387C68.3063 66.7139 68.5248 66.6514 68.7789 66.6514C69.0308 66.6514 69.2459 66.7083 69.4243 66.822C69.6048 66.9334 69.743 67.0939 69.8389 67.3035C69.9348 67.513 69.9827 67.7616 69.9827 68.0492V69.9285H69.4677V68.0492C69.4677 67.7438 69.3942 67.5119 69.247 67.3537C69.1021 67.1931 68.9037 67.1129 68.6518 67.1129C68.4601 67.1129 68.294 67.1653 68.1536 67.2701C68.0131 67.3748 67.905 67.5253 67.8292 67.7215C67.7534 67.9154 67.7155 68.1473 67.7155 68.417V69.9285H67.1939Z" fill="white"></path><path d="M74.5608 70.0087C74.2844 70.0087 74.0369 69.9385 73.8185 69.798C73.6022 69.6554 73.4306 69.4581 73.3035 69.2062C73.1787 68.9543 73.1162 68.6645 73.1162 68.3368C73.1162 67.9868 73.1787 67.6858 73.3035 67.4339C73.4283 67.182 73.5989 66.9892 73.8151 66.8554C74.0336 66.7194 74.2821 66.6514 74.5608 66.6514C74.8038 66.6514 75.0111 66.7005 75.1828 66.7986C75.3544 66.8967 75.4926 67.0293 75.5974 67.1965C75.7022 67.3637 75.7746 67.5532 75.8148 67.765C75.8571 67.9745 75.8694 68.1919 75.8515 68.417H73.5376V68.096H75.5071L75.3533 68.1963C75.36 68.0648 75.3522 67.9333 75.3299 67.8017C75.3098 67.6702 75.2708 67.5498 75.2129 67.4406C75.1549 67.3291 75.0735 67.24 74.9688 67.1731C74.864 67.1062 74.7302 67.0728 74.5675 67.0728C74.3624 67.0728 74.1907 67.1252 74.0525 67.2299C73.9143 67.3347 73.8107 67.4729 73.7415 67.6446C73.6724 67.814 73.6379 67.9979 73.6379 68.1963V68.4103C73.6379 68.6333 73.6713 68.8328 73.7382 69.0089C73.8073 69.185 73.9099 69.3243 74.0458 69.4269C74.1818 69.5294 74.3535 69.5807 74.5608 69.5807C74.7681 69.5807 74.9387 69.5305 75.0724 69.4302C75.2062 69.3299 75.2875 69.1817 75.3165 68.9855H75.8582C75.8248 69.1973 75.749 69.3801 75.6309 69.5339C75.5127 69.6855 75.3622 69.8025 75.1794 69.885C74.9966 69.9675 74.7904 70.0087 74.5608 70.0087Z" fill="white"></path><path d="M76.886 69.9285V66.725H77.4076V69.9285H76.886ZM77.2471 68.4839C77.2471 68.0782 77.2861 67.7415 77.3641 67.474C77.4422 67.2043 77.5559 67.0037 77.7052 66.8721C77.8568 66.7384 78.0407 66.6715 78.257 66.6715C78.3283 66.6715 78.3929 66.6771 78.4509 66.6882C78.5111 66.6971 78.5713 66.7116 78.6315 66.7317L78.598 67.2466C78.5356 67.2266 78.4676 67.2099 78.3941 67.1965C78.3205 67.1809 78.2547 67.1731 78.1968 67.1731C78.0073 67.1731 77.8546 67.2277 77.7387 67.3369C77.6227 67.4439 77.538 67.5955 77.4845 67.7917C77.4332 67.9879 77.4076 68.2186 77.4076 68.4839H77.2471Z" fill="white"></path><path d="M79.5967 65.976C79.4897 65.976 79.405 65.9459 79.3426 65.8857C79.2802 65.8233 79.2489 65.7419 79.2489 65.6416C79.2489 65.5435 79.2802 65.4655 79.3426 65.4075C79.405 65.3495 79.4897 65.3206 79.5967 65.3206C79.7037 65.3206 79.7884 65.3495 79.8508 65.4075C79.9133 65.4655 79.9445 65.5435 79.9445 65.6416C79.9445 65.7419 79.9133 65.8233 79.8508 65.8857C79.7884 65.9459 79.7037 65.976 79.5967 65.976ZM79.3359 69.9285V66.725H79.8575V69.9285H79.3359Z" fill="white"></path><path d="M82.418 70.0087C82.1616 70.0087 81.922 69.9396 81.699 69.8014C81.4783 69.6632 81.3 69.4681 81.164 69.2162C81.028 68.9643 80.96 68.6667 80.96 68.3234C80.96 67.9712 81.028 67.6702 81.164 67.4205C81.3 67.1709 81.4783 66.9803 81.699 66.8487C81.922 66.7172 82.1616 66.6514 82.418 66.6514C82.5985 66.6514 82.7602 66.6793 82.9028 66.735C83.0477 66.7885 83.1737 66.8632 83.2807 66.9591C83.3877 67.0549 83.4758 67.1642 83.5449 67.2868C83.6162 67.4072 83.6686 67.5342 83.702 67.668L83.167 67.7148C83.1113 67.5298 83.0176 67.3837 82.8861 67.2767C82.7568 67.1675 82.5985 67.1129 82.4113 67.1129C82.253 67.1129 82.1036 67.1586 81.9632 67.25C81.825 67.3392 81.7124 67.474 81.6255 67.6546C81.5385 67.8329 81.495 68.0559 81.495 68.3234C81.495 68.5708 81.5341 68.786 81.6121 68.9688C81.6923 69.1493 81.8016 69.2898 81.9398 69.3901C82.078 69.4904 82.2352 69.5406 82.4113 69.5406C82.6587 69.5406 82.846 69.4804 82.9731 69.36C83.1024 69.2374 83.167 69.068 83.167 68.8517H83.702C83.702 69.0746 83.6496 69.2731 83.5449 69.4469C83.4401 69.6208 83.2907 69.7579 83.0968 69.8582C82.9051 69.9585 82.6788 70.0087 82.418 70.0087Z" fill="white"></path><path d="M86.7224 69.9285L86.6555 69.2262V67.8552C86.6555 67.5677 86.5942 67.3615 86.4716 67.2366C86.349 67.1095 86.1651 67.046 85.9199 67.046C85.7816 67.046 85.6557 67.0661 85.542 67.1062C85.4305 67.1463 85.3414 67.2087 85.2745 67.2935C85.2098 67.3759 85.1775 67.483 85.1775 67.6145H84.5957C84.5957 67.3826 84.6525 67.1965 84.7662 67.056C84.8799 66.9134 85.036 66.8108 85.2344 66.7484C85.435 66.6838 85.6635 66.6514 85.9199 66.6514C86.1651 66.6514 86.3824 66.6927 86.5719 66.7752C86.7614 66.8576 86.9097 66.9892 87.0167 67.1697C87.1237 67.3481 87.1772 67.581 87.1772 67.8686V69.9285H86.7224ZM85.6323 70.0087C85.3692 70.0087 85.1519 69.9619 84.9802 69.8683C84.8086 69.7746 84.6804 69.6531 84.5957 69.5038C84.511 69.3544 84.4686 69.1973 84.4686 69.0323C84.4686 68.8161 84.5221 68.6399 84.6291 68.504C84.7383 68.368 84.8866 68.2688 85.0739 68.2063C85.2611 68.1417 85.4718 68.1094 85.7059 68.1094C85.873 68.1094 86.0402 68.1261 86.2074 68.1595C86.3769 68.193 86.5418 68.2387 86.7023 68.2966V68.6243C86.5686 68.5708 86.417 68.5285 86.2476 68.4973C86.0804 68.4661 85.9266 68.4505 85.7861 68.4505C85.5721 68.4505 85.3915 68.495 85.2444 68.5842C85.0973 68.6711 85.0237 68.8205 85.0237 69.0323C85.0237 69.1883 85.0794 69.3221 85.1909 69.4336C85.3046 69.545 85.4852 69.6008 85.7326 69.6008C85.9065 69.6008 86.0625 69.5606 86.2008 69.4804C86.3412 69.3979 86.4515 69.2953 86.5318 69.1727C86.6143 69.0501 86.6555 68.9275 86.6555 68.8049H86.7826C86.7826 69.0189 86.7358 69.2173 86.6422 69.4001C86.5508 69.5829 86.4192 69.73 86.2476 69.8415C86.0759 69.953 85.8708 70.0087 85.6323 70.0087Z" fill="white"></path></svg>