<svg width="18" height="18" viewBox="0 0 18 18" fill="none" xmlns="http://www.w3.org/2000/svg">
<g clip-path="url(#clip0_27323_888)">
<path d="M9 18C13.9706 18 18 13.9706 18 9C18 4.02944 13.9706 0 9 0C4.02944 0 0 4.02944 0 9C0 13.9706 4.02944 18 9 18Z" fill="#F0F0F0"/>
<path d="M1.85902 3.52061C1.15206 4.4404 0.618988 5.50054 0.308594 6.65222H4.99063L1.85902 3.52061Z" fill="#0052B4"/>
<path d="M17.6898 6.6522C17.3794 5.50055 16.8463 4.44042 16.1394 3.52062L13.0078 6.6522H17.6898Z" fill="#0052B4"/>
<path d="M0.308594 11.3479C0.619023 12.4995 1.1521 13.5597 1.85902 14.4794L4.99053 11.3479H0.308594Z" fill="#0052B4"/>
<path d="M14.4792 1.86049C13.5594 1.15354 12.4993 0.620463 11.3477 0.310034V4.99204L14.4792 1.86049Z" fill="#0052B4"/>
<path d="M3.51953 16.1395C4.43932 16.8464 5.49946 17.3795 6.65111 17.6899V13.008L3.51953 16.1395Z" fill="#0052B4"/>
<path d="M6.65107 0.310034C5.49943 0.620463 4.43929 1.15354 3.51953 1.86046L6.65107 4.992V0.310034Z" fill="#0052B4"/>
<path d="M11.3477 17.6899C12.4993 17.3795 13.5594 16.8464 14.4792 16.1395L11.3477 13.008V17.6899Z" fill="#0052B4"/>
<path d="M13.0078 11.3479L16.1394 14.4795C16.8463 13.5597 17.3794 12.4995 17.6898 11.3479H13.0078Z" fill="#0052B4"/>
<path d="M17.9238 7.8261H10.174H10.1739V0.0761836C9.78964 0.0261563 9.39786 0 9 0C8.60207 0 8.21035 0.0261563 7.8261 0.0761836V7.82603V7.82606H0.0761836C0.0261563 8.21036 0 8.60214 0 9C0 9.39793 0.0261563 9.78964 0.0761836 10.1739H7.82603H7.82606V17.9238C8.21036 17.9738 8.60207 18 9 18C9.39786 18 9.78964 17.9739 10.1739 17.9238V10.174V10.1739H17.9238C17.9738 9.78964 18 9.39793 18 9C18 8.60214 17.9738 8.21035 17.9238 7.8261Z" fill="#D80027"/>
<path d="M11.3477 11.3479L15.3638 15.364C15.5485 15.1793 15.7247 14.9863 15.8928 14.7862L12.4544 11.3478H11.3477V11.3479Z" fill="#D80027"/>
<path d="M6.65286 11.3479H6.65279L2.63672 15.364C2.82136 15.5487 3.0144 15.7249 3.21451 15.893L6.65286 12.4546V11.3479Z" fill="#D80027"/>
<path d="M6.65061 6.65222V6.65215L2.6345 2.636C2.44979 2.82065 2.27359 3.01369 2.10547 3.2138L5.54386 6.65218H6.65061V6.65222Z" fill="#D80027"/>
<path d="M11.3477 6.65224L15.3638 2.63606C15.1792 2.45135 14.9861 2.27515 14.786 2.10707L11.3477 5.54545V6.65224Z" fill="#D80027"/>
</g>
<defs>
<clipPath id="clip0_27323_888">
<rect width="18" height="18" fill="white"/>
</clipPath>
</defs>
</svg>
