<svg width="18" height="18" viewBox="0 0 18 18" fill="none" xmlns="http://www.w3.org/2000/svg">
<g clip-path="url(#clip0_27323_959)">
<path d="M9 18C13.9706 18 18 13.9706 18 9C18 4.02944 13.9706 0 9 0C4.02944 0 0 4.02944 0 9C0 13.9706 4.02944 18 9 18Z" fill="#F0F0F0"/>
<path d="M0.308594 11.3478C0.829328 13.28 1.977 14.9546 3.52029 16.1404V11.3478H0.308594Z" fill="#D80027"/>
<path d="M8.21484 17.9658C8.47282 17.988 8.73371 18 8.99746 18C13.1557 18 16.6547 15.1797 17.6874 11.3478H8.21484V17.9658Z" fill="#D80027"/>
<path d="M17.6874 6.65216C16.6547 2.82027 13.1557 0 8.99746 0C8.73371 0 8.47282 0.0120234 8.21484 0.0342422V6.65216H17.6874Z" fill="#D80027"/>
<path d="M3.52029 1.85959C1.977 3.04541 0.829328 4.72001 0.308594 6.65216H3.52029V1.85959Z" fill="#D80027"/>
<path d="M17.9238 7.8261H7.04352H7.04348V0.213928C6.21176 0.398358 5.42324 0.697291 4.69564 1.09431V7.82603V7.82606H0.0761836C0.0260859 8.21036 0 8.60214 0 9C0 9.39787 0.0260859 9.78965 0.0761836 10.1739H4.69561H4.69564V16.9057C5.42324 17.3026 6.21176 17.6016 7.04348 17.786V10.174V10.1739H17.9238C17.9738 9.78965 18 9.39787 18 9C18 8.60214 17.9738 8.21036 17.9238 7.8261Z" fill="#0052B4"/>
</g>
<defs>
<clipPath id="clip0_27323_959">
<rect width="18" height="18" fill="white"/>
</clipPath>
</defs>
</svg>
