<svg width="18" height="18" viewBox="0 0 18 18" fill="none" xmlns="http://www.w3.org/2000/svg">
<g clip-path="url(#clip0_27323_923)">
<path d="M9 18C13.9706 18 18 13.9706 18 9C18 4.02944 13.9706 0 9 0C4.02944 0 0 4.02944 0 9C0 13.9706 4.02944 18 9 18Z" fill="#F0F0F0"/>
<path d="M17.9985 9.00002C17.9985 5.13033 15.5561 1.83145 12.1289 0.559809V17.4403C15.5561 16.1686 17.9985 12.8697 17.9985 9.00002Z" fill="#D80027"/>
<path d="M0 9C0 12.8697 2.44241 16.1686 5.86958 17.4402V0.559793C2.44241 1.83143 0 5.13032 0 9Z" fill="#0052B4"/>
</g>
<defs>
<clipPath id="clip0_27323_923">
<rect width="18" height="18" fill="white"/>
</clipPath>
</defs>
</svg>
