<svg width="18" height="18" viewBox="0 0 18 18" fill="none" xmlns="http://www.w3.org/2000/svg">
<g clip-path="url(#clip0_27323_934)">
<path d="M9 18C13.9706 18 18 13.9706 18 9C18 4.02944 13.9706 0 9 0C4.02944 0 0 4.02944 0 9C0 13.9706 4.02944 18 9 18Z" fill="#FFDA44"/>
<path d="M7.04691 7.8261H17.9272C17.3519 3.41023 13.5761 0 9.00339 0C8.33141 0 7.67684 0.0742852 7.04688 0.213926V7.8261H7.04691Z" fill="#0052B4"/>
<path d="M4.69759 7.82606V1.09431C2.22631 2.44269 0.457215 4.91597 0.078125 7.8261H4.69759V7.82606Z" fill="#0052B4"/>
<path d="M4.69755 10.1739H0.078125C0.457215 13.084 2.22631 15.5573 4.69759 16.9057L4.69755 10.1739Z" fill="#0052B4"/>
<path d="M7.04688 10.1739V17.7861C7.67684 17.9257 8.33141 18 9.00339 18C13.5761 18 17.3519 14.5898 17.9272 10.1739H7.04688V10.1739Z" fill="#0052B4"/>
</g>
<defs>
<clipPath id="clip0_27323_934">
<rect width="18" height="18" fill="white"/>
</clipPath>
</defs>
</svg>
