<svg width="18" height="18" viewBox="0 0 18 18" fill="none" xmlns="http://www.w3.org/2000/svg">
<path d="M17.9238 7.8261H10.174H10.1739V0.0761836C9.78964 0.0261563 9.39786 0 9 0C8.60214 0 8.21035 0.0261563 7.8261 0.0761836V7.82603V7.82606H0.0761836C0.0261563 8.21036 0 8.60214 0 9C0 9.39793 0.0261563 9.78964 0.0761836 10.1739H7.82603H7.82606V17.9238C8.21036 17.9738 8.60214 18 9 18C9.39786 18 9.78964 17.9739 10.1739 17.9238V10.174V10.1739H17.9238C17.9738 9.78964 18 9.39793 18 9C18 8.60214 17.9738 8.21035 17.9238 7.8261Z" fill="#D80027"/>
<path d="M5.47675 4.30437V3.13043H4.30284V4.30437H3.12891V5.47827H4.30284V6.65217H5.47675V5.47827H6.65065V4.30437H5.47675Z" fill="#D80027"/>
<path d="M13.6955 4.30437V3.13043H12.5216V4.30437H11.3477V5.47827H12.5216V6.65217H13.6955V5.47827H14.8694V4.30437H13.6955Z" fill="#D80027"/>
<path d="M5.47675 12.5217V11.3478H4.30284V12.5217H3.12891V13.6956H4.30284V14.8696H5.47675V13.6956H6.65065V12.5217H5.47675Z" fill="#D80027"/>
<path d="M13.6955 12.5217V11.3478H12.5216V12.5217H11.3477V13.6956H12.5216V14.8696H13.6955V13.6956H14.8694V12.5217H13.6955Z" fill="#D80027"/>
</svg>
