<svg width="1186" height="863" viewBox="0 0 1186 863" fill="none" xmlns="http://www.w3.org/2000/svg">
<g opacity="0.35" clip-path="url(#clip0_458_39418)">
<path d="M1211.02 597.709L1210.36 597.379L973.38 460.599L975.032 459.608L1211.02 323.489L1211.68 323.819L1448.67 460.599L1447.01 461.59L1211.02 597.709ZM977.346 460.599L1211.02 595.396L1444.7 460.599L1211.02 325.802L977.346 460.599Z" fill="#C63031"/>
<path d="M1092.7 393.531L772.094 208.515H581.053H580.723L460.083 138.803V25.8113H462.066V137.482L581.384 206.532H772.755L1093.69 391.879L1092.7 393.531Z" fill="#C63031"/>
<path d="M1131.04 371.395L805.477 183.405V71.7349L689.134 4.66658L690.125 3.01465L807.46 70.7438V182.414L1132.03 369.743L1131.04 371.395Z" fill="#C63031"/>
<path d="M1171.36 348.268L979.33 237.588V141.777L979.991 141.446L1312.16 -50.5081L1313.16 -48.8561L981.313 142.768V236.267L1172.35 346.285L1171.36 348.268Z" fill="#C63031"/>
<path d="M138.818 773.805H138.487H138.157L8.2627 698.807L9.25425 697.155L139.149 771.822H432.65L644.844 649.249H820.35L1061.96 510.157L1062.95 511.809L821.011 651.232H645.505L433.311 773.805H138.818Z" fill="#C63031"/>
<path d="M500.407 688.565L499.415 686.913L604.52 626.122H806.137L1034.53 494.298L1035.52 495.95L806.468 628.105H605.181L500.407 688.565Z" fill="#C63031"/>
<path d="M929.752 556.411L762.179 459.608H642.53L565.189 504.21L564.197 502.558L642.2 457.625H762.84L930.744 554.759L929.752 556.411Z" fill="#C63031"/>
<path d="M473.965 797.923L472.974 796.271L566.511 742.418V696.164H568.494V743.409L568.163 743.74L473.965 797.923Z" fill="#C63031"/>
<path d="M1140.29 94.8619H1063.94V92.8796H1139.96L1275.81 14.5781L1276.8 16.2301L1140.29 94.8619Z" fill="#C63031"/>
<path d="M1136.33 326.132H1134.34V276.905L1039.81 222.391V169.199H1041.8V221.4L1136.33 275.913V326.132Z" fill="#C63031"/>
<path d="M1145.58 1064.21H1143.6V956.508L887.445 808.495V689.556L887.776 689.226L1130.38 549.473L1131.37 551.125L889.428 690.878V807.504L1145.58 955.186V1064.21Z" fill="#C63031"/>
<path d="M1164.69 569.292L986.59 671.939L987.58 673.656L1165.68 571.009L1164.69 569.292Z" fill="#C63031"/>
<path d="M992.55 709.379H927.769V707.397H991.889L1197.8 588.458L1198.79 590.11L992.55 709.379Z" fill="#C63031"/>
<path d="M1102.28 758.607L1101.29 756.955L1269.53 659.822V620.506L1220.28 591.762L1221.27 590.11L1271.51 619.184V660.813L1271.18 661.143L1102.28 758.607Z" fill="#C63031"/>
<path d="M1091.05 728.212L1090.05 726.56L1165.74 682.949H1229.2V684.931H1166.4L1091.05 728.212Z" fill="#C63031"/>
<path d="M1092.37 821.38L1091.38 819.728L1169.05 775.126V739.114L1169.38 738.784L1257.3 688.235V667.42H1259.28V689.226L1258.95 689.556L1171.03 740.105V776.117L1170.37 776.448L1092.37 821.38Z" fill="#C63031"/>
<path d="M1084.43 731.185C1088.07 733.167 1093.69 733.167 1096.99 731.185C1100.63 729.203 1100.63 725.899 1096.99 723.916C1093.36 721.934 1087.74 721.934 1084.43 723.916C1080.8 725.899 1080.8 729.203 1084.43 731.185Z" fill="#C63031"/>
<path d="M1095.34 761.25C1098.98 763.232 1104.6 763.232 1107.9 761.25C1111.54 759.268 1111.54 755.964 1107.9 753.982C1104.27 751.999 1098.65 751.999 1095.34 753.982C1091.71 755.964 1091.71 759.268 1095.34 761.25Z" fill="#C63031"/>
<path d="M749.949 852.106C753.584 854.089 759.203 854.089 762.508 852.106C766.144 850.124 766.144 846.82 762.508 844.838C758.873 842.855 753.254 842.855 749.949 844.838C746.643 846.82 746.643 850.124 749.949 852.106Z" fill="#C63031"/>
<path d="M1085.76 824.354C1089.39 826.336 1095.01 826.336 1098.32 824.354C1101.95 822.372 1101.95 819.068 1098.32 817.085C1094.68 815.103 1089.06 815.103 1085.76 817.085C1082.12 819.068 1082.12 822.372 1085.76 824.354Z" fill="#C63031"/>
<path d="M921.489 712.023C925.124 714.005 930.743 714.005 934.048 712.023C937.684 710.04 937.684 706.736 934.048 704.754C930.413 702.772 924.794 702.772 921.489 704.754C917.853 706.736 917.853 710.04 921.489 712.023Z" fill="#C63031"/>
<path d="M562.213 504.54C565.849 506.523 571.468 506.523 574.773 504.54C578.409 502.558 578.409 499.254 574.773 497.272C571.137 495.29 565.518 495.29 562.213 497.272C558.908 499.585 558.908 502.558 562.213 504.54Z" fill="#C63031"/>
<path d="M714.253 376.35C717.889 378.333 723.508 378.333 726.813 376.35C730.449 374.368 730.449 371.064 726.813 369.082C723.177 367.1 717.559 367.1 714.253 369.082C710.948 371.064 710.948 374.368 714.253 376.35Z" fill="#C63031"/>
<path d="M800.188 420.622C803.824 422.605 809.442 422.605 812.748 420.622C816.383 418.64 816.383 415.336 812.748 413.354C809.112 411.372 803.493 411.372 800.188 413.354C796.883 415.336 796.883 418.64 800.188 420.622Z" fill="#C63031"/>
<path d="M882.818 351.241C886.453 353.224 892.072 353.224 895.377 351.241C899.013 349.259 899.013 345.955 895.377 343.973C891.742 341.991 886.123 341.991 882.818 343.973C879.513 345.955 879.513 348.929 882.818 351.241Z" fill="#C63031"/>
<path d="M1034.53 172.833C1038.16 174.815 1043.78 174.815 1047.09 172.833C1050.72 170.851 1050.72 167.547 1047.09 165.564C1043.45 163.582 1037.83 163.582 1034.53 165.564C1031.22 167.547 1031.22 170.851 1034.53 172.833Z" fill="#C63031"/>
<path d="M452.812 30.4366C456.447 32.4189 462.066 32.4189 465.372 30.4366C469.007 28.4543 469.007 25.1504 465.372 23.1681C461.736 21.1858 456.117 21.1858 452.812 23.1681C449.176 25.1504 449.176 28.4543 452.812 30.4366Z" fill="#C63031"/>
<path d="M683.184 7.30967C686.82 9.29199 692.438 9.29199 695.744 7.30967C699.379 5.32736 699.379 2.02349 695.744 0.0411798C692.108 -1.94114 686.489 -1.94114 683.184 0.0411798C679.548 2.02349 679.548 5.32736 683.184 7.30967Z" fill="#C63031"/>
<path d="M1140.62 185.057C1144.26 187.04 1149.88 187.04 1153.18 185.057C1156.82 183.075 1156.82 179.771 1153.18 177.789C1149.55 175.806 1143.93 175.806 1140.62 177.789C1136.99 179.771 1136.99 183.075 1140.62 185.057Z" fill="#C63031"/>
<path d="M1152.19 120.302C1155.83 122.284 1161.45 122.284 1164.75 120.302C1168.39 118.319 1168.39 115.015 1164.75 113.033C1161.12 111.051 1155.5 111.051 1152.19 113.033C1148.56 115.015 1148.56 118.319 1152.19 120.302Z" fill="#C63031"/>
<path d="M919.175 494.629C922.811 496.611 928.43 496.611 931.735 494.629C935.37 492.646 935.37 489.343 931.735 487.36C928.099 485.378 922.48 485.378 919.175 487.36C915.539 489.343 915.539 492.316 919.175 494.629Z" fill="#C63031"/>
<path d="M768.458 503.549C772.094 505.531 777.713 505.531 781.018 503.549C784.654 501.567 784.654 498.263 781.018 496.281C777.382 494.298 771.764 494.298 768.458 496.281C765.153 498.263 765.153 501.567 768.458 503.549Z" fill="#C63031"/>
<path d="M467.355 800.896C470.99 802.879 476.609 802.879 479.914 800.896C483.55 798.914 483.55 795.61 479.914 793.628C476.279 791.646 470.66 791.646 467.355 793.628C463.719 795.61 463.719 798.914 467.355 800.896Z" fill="#C63031"/>
<path d="M346.384 483.396C350.02 485.378 355.639 485.378 358.944 483.396C362.579 481.413 362.579 478.109 358.944 476.127C355.308 474.145 349.689 474.145 346.384 476.127C342.748 478.109 342.748 481.413 346.384 483.396Z" fill="#C63031"/>
<path d="M493.465 689.556C497.101 691.539 502.72 691.539 506.025 689.556C509.661 687.574 509.661 684.27 506.025 682.288C502.389 680.305 496.77 680.305 493.465 682.288C490.16 684.27 490.16 687.574 493.465 689.556Z" fill="#C63031"/>
<path d="M2.64378 701.45C6.2795 703.433 11.8983 703.433 15.2035 701.45C18.8392 699.468 18.8392 696.164 15.2035 694.182C11.5678 692.199 5.94898 692.199 2.64378 694.182C-0.991937 696.164 -0.991937 699.468 2.64378 701.45Z" fill="#C63031"/>
<path d="M980.652 676.671C984.287 678.654 989.906 678.654 993.211 676.671C996.847 674.689 996.847 671.385 993.211 669.403C989.576 667.42 983.957 667.42 980.652 669.403C977.347 671.385 977.347 674.359 980.652 676.671Z" fill="#C63031"/>
<path d="M1005.44 513.13H962.474H962.143L923.803 490.994L924.794 489.343L962.804 511.148H1005.44V513.13Z" fill="#C63031"/>
<path d="M721.194 373.377L720.202 371.725L824.646 311.265H896.039V311.595L988.254 364.787H1046.43V366.769H987.593V366.439L895.378 313.247H825.307L721.194 373.377Z" fill="#C63031"/>
<path d="M993.542 450.687L889.098 390.557H854.724L808.782 416.988L807.79 415.336L854.393 388.575H889.759L994.534 449.035L993.542 450.687Z" fill="#C63031"/>
<path d="M966.44 433.177H964.457V392.209L888.768 348.268L889.759 346.616L966.44 390.887V433.177Z" fill="#C63031"/>
<path d="M356.961 1052.65L355.97 1051L623.03 896.708V798.584H623.691L1092.7 527.667L1093.69 529.65L625.013 799.905V897.699L624.682 898.03L356.961 1052.65Z" fill="#C63031"/>
<path d="M756.89 849.463L755.898 847.811L844.478 796.602V739.114L887.776 714.335L888.767 715.987L846.461 740.436V797.593L846.13 797.923L756.89 849.463Z" fill="#C63031"/>
<path d="M895.047 536.257H835.553L835.223 535.927L774.407 500.906L775.399 499.254L836.214 534.275H895.047V536.257Z" fill="#C63031"/>
<path d="M570.807 606.63H570.476L354.316 481.744L355.308 480.092L571.137 604.647H843.486V606.63H570.807Z" fill="#C63031"/>
<path d="M1236.8 339.017H1234.82V233.624L1147.56 183.075L1148.56 181.423L1236.8 232.302V339.017Z" fill="#C63031"/>
<path d="M1236.14 277.235L1235.15 275.583L1298.61 238.91V198.933L1157.81 117.658L1158.8 115.676L1300.6 197.612V240.231H1300.26L1236.14 277.235Z" fill="#C63031"/>
<path d="M664.675 1058.93L663.684 1057.28L769.78 996.154V904.307L770.441 903.977L912.896 821.711L913.887 823.363L771.764 905.298V997.145L771.433 997.476L664.675 1058.93Z" fill="#C63031"/>
</g>
<defs>
<clipPath id="clip0_458_39418">
<rect width="2232" height="1233" fill="white" transform="translate(0 -163.5)"/>
</clipPath>
</defs>
</svg>
