<svg width="1270" height="863" viewBox="0 0 1270 863" fill="none" xmlns="http://www.w3.org/2000/svg">
<g opacity="0.2" clip-path="url(#clip0_454_6516)">
<path d="M476.399 309.75L475.499 278.55H433.799L434.399 309.75H476.399ZM470.099 282.55L470.799 305.55H439.799L439.299 282.55H470.099Z" fill="#C63031"/>
<g opacity="0.42">
<path d="M593.2 352.95L591.1 320.95H548.9L550.6 352.95H593.2ZM585.9 325.15L587.4 348.75H556L554.7 325.15H585.9Z" fill="#C63031"/>
</g>
<g opacity="0.42">
<path d="M554.1 366.65L555.6 395.15H593.1L591.3 366.65H554.1Z" fill="#C63031"/>
</g>
<path opacity="0.42" d="M438.2 366.65L438.7 395.15H476.2L475.3 366.65H438.2Z" fill="#C63031"/>
<path opacity="0.43" d="M628.7 194.85L630.7 220.55H666.3L664 194.85H628.7Z" fill="#C63031"/>
<g opacity="0.31">
<path d="M1157.3 0.649902L1163.1 23.3499H1196.5L1190.5 0.649902H1157.3Z" fill="#C63031"/>
</g>
<g opacity="0.43">
<path opacity="0.42" d="M691.6 276.55L694.1 303.55H730.6L727.7 276.55H691.6Z" fill="#C63031"/>
</g>
<g opacity="0.42">
<path d="M695.6 318.95L698.2 346.65H735.2L732.2 318.95H695.6Z" fill="#C63031"/>
</g>
<g opacity="0.42">
<path d="M638.4 318.95L640.6 346.65H677.5L675.1 318.95H638.4Z" fill="#C63031"/>
</g>
<path opacity="0.31" d="M1238.9 110.15L1245.6 134.55H1280.2L1273.3 110.15H1238.9Z" fill="#C63031"/>
<g opacity="0.31">
<path d="M1185.3 110.15L1191.5 134.55H1226.1L1219.6 110.15H1185.3Z" fill="#C63031"/>
</g>
<g opacity="0.31">
<path opacity="0.5" d="M1078 110.15L1083.4 134.55H1118L1112.3 110.15H1078Z" fill="#C63031"/>
</g>
<g opacity="0.31">
<path d="M917 110.15L921.2 134.55H955.8L951.4 110.15H917Z" fill="#C63031"/>
</g>
<g opacity="0.31">
<path d="M869.3 148.35L873.1 173.35H908.2L904.1 148.35H869.3Z" fill="#C63031"/>
</g>
<path opacity="0.2" d="M1095.1 187.55L1100.8 213.15H1136.3L1130.3 187.55H1095.1Z" fill="#C63031"/>
<g opacity="0.5">
<path opacity="0.31" d="M1040.2 187.55L1045.4 213.15H1080.9L1075.4 187.55H1040.2Z" fill="#C63031"/>
</g>
<path d="M1159.7 227.75L1165.9 253.95H1201.8L1195.3 227.75H1159.7Z" fill="#C63031"/>
<g opacity="0.5">
<path d="M937.1 227.75L941.6 253.95H977.5L972.8 227.75H937.1Z" fill="#C63031"/>
</g>
<path d="M363.299 297.85L363.399 266.85H321.899L321.399 297.85H363.299ZM357.899 270.85L357.799 293.65H326.899L327.199 270.85H357.899Z" fill="#C63031"/>
<path d="M1226.3 340.75L1218.4 308.95H1176.4L1183.9 340.75H1226.3ZM1213.8 313.15L1219.6 336.55H1188.3L1182.7 313.15H1213.8Z" fill="#C63031"/>
<path opacity="0.2" d="M1168.7 340.75L1161.3 308.95H1119.3L1126.3 340.75H1168.7ZM1156.8 313.15L1162.2 336.55H1130.9L1125.7 313.15H1156.8Z" fill="#C63031"/>
<path opacity="0.42" d="M363.2 340.75L363.3 308.95H321.3L320.8 340.75H363.2ZM357.7 313.15L357.6 336.55H326.3L326.6 313.15H357.7Z" fill="#C63031"/>
<path opacity="0.42" d="M305.6 340.75L306.2 308.95H264.2L263.2 340.75H305.6ZM300.7 313.15L300.2 336.55H268.9L269.6 313.15H300.7Z" fill="#C63031"/>
<g opacity="0.14">
<path d="M1074.3 354.35L1080.1 382.65H1117.4L1111.3 354.35H1074.3Z" fill="#C63031"/>
</g>
<g opacity="0.42">
<path d="M843.299 354.35L847.099 382.65H884.399L880.299 354.35H843.299Z" fill="#C63031"/>
</g>
<path d="M1200.5 398.75L1207.4 427.75H1245.2L1237.9 398.75H1200.5Z" fill="#C63031"/>
<g opacity="0.2">
<path d="M1141.9 398.75L1148.4 427.75H1186.2L1179.4 398.75H1141.9Z" fill="#C63031"/>
</g>
<g opacity="0.14">
<path opacity="0.42" d="M1024.9 398.75L1030.4 427.75H1068.1L1062.4 398.75H1024.9Z" fill="#C63031"/>
</g>
<path opacity="0.42" d="M790.8 398.75L794.3 427.75H832.1L828.3 398.75H790.8Z" fill="#C63031"/>
<path d="M1211.3 444.25L1218.4 474.15H1256.7L1249.3 444.25H1211.3Z" fill="#C63031"/>
<g opacity="0.42">
<path d="M974.2 444.25L979.3 474.15H1017.6L1012.1 444.25H974.2Z" fill="#C63031"/>
</g>
<path d="M796.3 444.25L799.9 474.15H838.2L834.3 444.25H796.3Z" fill="#C63031"/>
<path d="M677.7 444.25L680.3 474.15H718.6L715.7 444.25H677.7Z" fill="#C63031"/>
<path d="M559.2 444.25L560.7 474.15H599L597.1 444.25H559.2Z" fill="#C63031"/>
<path d="M440.6 444.25L441.2 474.15H479.5L478.6 444.25H440.6Z" fill="#C63031"/>
<path d="M302.9 476.35L303.6 442.05H259.9L258.8 476.35H302.9ZM297.8 446.55L297.3 471.85H264.8L265.6 446.55H297.8Z" fill="#C63031"/>
<path d="M1222.5 491.05L1229.8 521.65H1268.6L1261 491.05H1222.5Z" fill="#C63031"/>
<g opacity="0.42">
<path d="M1042.2 491.05L1048 521.65H1086.8L1080.7 491.05H1042.2Z" fill="#C63031"/>
</g>
<g opacity="0.27">
<path opacity="0.42" d="M922.1 491.05L926.8 521.65H965.6L960.6 491.05H922.1Z" fill="#C63031"/>
</g>
<path d="M877.7 583.85L880.4 603.35H905L902.1 583.85H877.7Z" fill="#C63031"/>
<path opacity="0.45" d="M801.899 491.05L805.599 521.65H844.399L840.399 491.05H801.899Z" fill="#C63031"/>
<path opacity="0.35" d="M787 524.05L782.9 488.85H738.6L742.2 524.05H787ZM777.7 493.35L779.3 524.95H746.4L745 493.35H777.7Z" fill="#C63031"/>
<path d="M665.8 524.05L662.9 488.85H618.6L621 524.05H665.8ZM657.5 493.35L659.6 519.35H626.7L624.9 493.35H657.5Z" fill="#C63031"/>
<path opacity="0.5" d="M261.3 491.05L260.3 521.65H299.1L299.7 491.05H261.3Z" fill="#C63031"/>
<g opacity="0.5">
<path opacity="0.2" d="M201.2 491.05L199.7 521.65H238.5L239.7 491.05H201.2Z" fill="#C63031"/>
</g>
<g opacity="0.5">
<path d="M141.1 491.05L139.1 521.65H177.9L179.6 491.05H141.1Z" fill="#C63031"/>
</g>
<g opacity="0.5">
<path d="M81 491.05L78.5 521.65H117.3L119.5 491.05H81Z" fill="#C63031"/>
</g>
<path opacity="0.42" d="M990.4 539.15L995.8 570.55H1035.1L1029.4 539.15H990.4Z" fill="#C63031"/>
<path d="M868.6 539.15L872.9 570.55H912.3L907.6 539.15H868.6Z" fill="#C63031"/>
<path d="M731.2 572.95L727.6 536.75H682.8L685.9 572.95H731.2ZM722.2 541.45L724.8 568.15H691.4L689.1 541.45H722.2Z" fill="#C63031"/>
<path d="M669.8 572.95L666.9 536.75H622L624.5 572.95H669.8ZM661.3 541.45L663.4 568.15H630L628.1 541.45H661.3Z" fill="#C63031"/>
<path d="M381.499 539.15L381.599 570.55H420.899L420.499 539.15H381.499Z" fill="#C63031"/>
<path d="M259.7 539.15L258.7 570.55H298.1L298.7 539.15H259.7Z" fill="#C63031"/>
<g opacity="0.2">
<path d="M138 539.15L135.9 570.55H175.3L177 539.15H138Z" fill="#C63031"/>
</g>
<path d="M1296.9 623.25L1287.6 586.05H1242.1L1250.9 623.25H1296.9ZM1282.9 590.85L1289.7 618.25H1255.8L1249.2 590.85H1282.9Z" fill="#C63031"/>
<g opacity="0.5">
<path d="M937.1 588.45L942.1 620.75H982L976.6 588.45H937.1Z" fill="#C63031"/>
</g>
<path d="M846.9 645.85L849.4 666.35H874.8L872.1 645.85H846.9Z" fill="#C63031"/>
<g opacity="0.31">
<path d="M751.9 588.45L755.3 620.75H795.2L791.5 588.45H751.9Z" fill="#C63031"/>
</g>
<path d="M507.799 584.45L509.499 616.75H549.399L547.399 584.45H507.799Z" fill="#C63031"/>
<path opacity="0.47" d="M319.899 588.45L319.399 620.75H359.299L359.399 588.45H319.899Z" fill="#C63031"/>
<path d="M175.399 623.25L177.399 586.05H131.899L129.399 623.25H175.399ZM171.199 590.85L169.699 618.25H135.899L137.699 590.85H171.199Z" fill="#C63031"/>
<path d="M1257.8 639.15L1265.7 672.45H1306.2L1297.9 639.15H1257.8Z" fill="#C63031"/>
<path d="M1246.7 674.95L1237.8 636.75H1191.7L1200.1 674.95H1246.7ZM1232.9 641.65L1239.4 669.85H1205.1L1198.8 641.65H1232.9Z" fill="#C63031"/>
<path opacity="0.5" d="M1070.1 639.15L1076.3 672.45H1116.8L1110.2 639.15H1070.1Z" fill="#C63031"/>
<g opacity="0.31">
<path d="M757.2 639.15L760.6 672.45H801.1L797.3 639.15H757.2Z" fill="#C63031"/>
</g>
<path d="M694.599 639.15L697.499 672.45H737.899L734.699 639.15H694.599Z" fill="#C63031"/>
<path d="M328.7 631.45L328.3 664.45H368.7V631.45H328.7Z" fill="#C63031"/>
<path opacity="0.47" d="M194 639.15L192.4 672.45H232.8L234.1 639.15H194Z" fill="#C63031"/>
<path opacity="0.47" d="M172.6 674.95L174.7 636.75H128.6L126.1 674.95H172.6ZM168.4 641.65L166.8 669.85H132.5L134.3 641.65H168.4Z" fill="#C63031"/>
<g opacity="0.31">
<path d="M699.1 691.35L702.1 725.55H743.1L739.8 691.35H699.1Z" fill="#C63031"/>
</g>
<path d="M889.5 691.35L894.2 725.55H935.2L930.1 691.35H889.5Z" fill="#C63031"/>
<path opacity="0.2" d="M635.7 691.35L638.1 725.55H679.1L676.3 691.35H635.7Z" fill="#C63031"/>
<g opacity="0.35">
<path opacity="0.47" d="M254.9 691.35L253.9 725.55H294.9L295.6 691.35H254.9Z" fill="#C63031"/>
</g>
<path d="M1218.7 744.95L1226.5 780.15H1268.1L1259.9 744.95H1218.7Z" fill="#C63031"/>
<path d="M1154.3 744.95L1161.5 780.15H1203.1L1195.5 744.95H1154.3Z" fill="#C63031"/>
<path d="M1076.8 782.85L1069.4 742.35H1022L1028.9 782.85H1076.8ZM1064.2 747.65L1069.6 777.55H1034.3L1029.2 747.65H1064.2Z" fill="#C63031"/>
<path opacity="0.5" d="M816.8 782.85L812.1 742.35H764.8L769 782.85H816.8ZM806.6 747.65L810 777.55H774.7L771.6 747.65H806.6Z" fill="#C63031"/>
<path opacity="0.5" d="M686.8 782.85L683.5 742.35H636.1L638.9 782.85H686.8ZM677.7 747.65L680.1 777.55H644.8L642.7 747.65H677.7Z" fill="#C63031"/>
<path d="M510.7 744.95L512 780.15H553.6L551.9 744.95H510.7Z" fill="#C63031"/>
<path d="M382 744.95L382.1 780.15H423.7L423.2 744.95H382Z" fill="#C63031"/>
<path opacity="0.47" d="M296.8 782.85L297.6 742.35H250.2L248.9 782.85H296.8ZM291.3 747.65L290.7 777.55H255.4L256.3 747.65H291.3Z" fill="#C63031"/>
<g opacity="0.5">
<path opacity="0.47" d="M188.9 744.95L187.2 780.15H228.8L230.1 744.95H188.9Z" fill="#C63031"/>
</g>
<path d="M969.7 800.15L975.3 836.35H1017.5L1011.5 800.15H969.7Z" fill="#C63031"/>
<g opacity="0.3">
<path d="M904.4 800.15L909.4 836.35H951.6L946.3 800.15H904.4Z" fill="#C63031"/>
</g>
<path d="M839.1 800.15L843.5 836.35H885.7L881 800.15H839.1Z" fill="#C63031"/>
<path d="M823.3 839.15L818.5 797.45H770.4L774.7 839.15H823.3ZM812.8 802.85L816.3 833.55H780.5L777.3 802.85H812.8Z" fill="#C63031"/>
<path d="M512.7 800.15L514 836.35H556.2L554.5 800.15H512.7Z" fill="#C63031"/>
<g opacity="0.3">
<path d="M392 791.65L392.1 827.75H434.3L433.7 791.65H392Z" fill="#C63031"/>
</g>
<path d="M316.8 800.15L316.3 836.35H358.5L358.6 800.15H316.8Z" fill="#C63031"/>
<path d="M186.2 800.15L184.5 836.35H226.7L228 800.15H186.2Z" fill="#C63031"/>
<path opacity="0.47" d="M163.8 839.15L166 797.45H117.9L115.1 839.15H163.8ZM159.4 802.85L157.7 833.55H121.9L123.9 802.85H159.4Z" fill="#C63031"/>
<path d="M1177.2 856.95L1184.9 894.25H1227.7L1219.7 856.95H1177.2Z" fill="#C63031"/>
<path d="M1111 856.95L1118 894.25H1160.8L1153.4 856.95H1111Z" fill="#C63031"/>
<g opacity="0.31">
<path d="M846 856.95L850.5 894.25H893.3L888.4 856.95H846Z" fill="#C63031"/>
</g>
<path d="M830 897.05L825.1 854.15H776.3L780.7 897.05H830ZM819.3 859.75L822.9 891.35H786.6L783.3 859.75H819.3Z" fill="#C63031"/>
<path d="M696.1 897.05L692.6 854.15H643.8L646.8 897.05H696.1ZM686.7 859.75L689.2 891.35H652.9L650.7 859.75H686.7Z" fill="#C63031"/>
<path d="M581 856.95L582.9 894.25H625.8L623.4 856.95H581Z" fill="#C63031"/>
<path opacity="0.3" d="M324 834.85V862.15H355.5L355.1 834.85H324Z" fill="#C63031"/>
<path opacity="0.47" d="M249.7 856.95L248.5 894.25H291.4L292.2 856.95H249.7Z" fill="#C63031"/>
<g opacity="0.47">
<path opacity="0.3" d="M183.499 856.95L181.699 894.25H224.499L225.899 856.95H183.499Z" fill="#C63031"/>
</g>
</g>
<defs>
<clipPath id="clip0_454_6516">
<rect width="1320.8" height="1182.7" fill="white" transform="matrix(-1 0 0 1 1320.8 0.649902)"/>
</clipPath>
</defs>
</svg>
